<?xml version="1.0" encoding="utf-8"?>
<!-- Generator: Adobe Illustrator 22.0.1, SVG Export Plug-In . SVG Version: 6.00 Build 0)  -->
<svg version="1.1" xmlns="http://www.w3.org/2000/svg" xmlns:xlink="http://www.w3.org/1999/xlink" x="0px" y="0px"
	 viewBox="0 0 1920 1080" style="enable-background:new 0 0 1920 1080;" xml:space="preserve">
<style type="text/css">
	.st0{display:none;fill:none;stroke:#201600;stroke-width:0.6143;stroke-miterlimit:10;}
	.st1{display:none;fill:#95C588;}
	.st2{font-family:'MyriadPro-Bold';}
	.st3{font-size:72px;}
	.st4{fill:#E2E2E2;}
	.st5{fill:#68D94C;stroke:#E2E2E2;stroke-width:1.6329;stroke-miterlimit:10;}
	.st6{fill:#68D94C;stroke:#E2E2E2;stroke-width:1.2867;stroke-miterlimit:10;}
	.st7{fill:#68D94C;stroke:#E2E2E2;stroke-width:1.5194;stroke-miterlimit:10;}
	.st8{fill:#8E8E8E;}
	.st9{fill:#FFFFFF;}
	.st10{font-family:'MyriadPro-Regular';}
	.st11{font-size:18.0144px;}
	.st12{fill:#68D94C;}
</style>
<g id="Слой_1">
	<path class="st0" d="M592,313.9H41.6c-0.4,8.4-0.6,16.8-0.6,25.3c0,293,237.5,530.5,530.5,530.5c6.9,0,13.7-0.1,20.5-0.4V313.9z"/>
	<path class="st0" d="M592,313.9H41.6c-0.4,8.4-0.6,16.8-0.6,25.3c0,293,237.5,530.5,530.5,530.5c6.9,0,13.7-0.1,20.5-0.4V313.9z"/>
</g>
<g id="Слой_4">
	<text transform="matrix(1 0 0 1 49.1528 104.7755)" class="st1 st2 st3">1 этаж</text>
</g>
<g id="Слой_7">
</g>
<g id="Слой_5">
</g>
<g id="Слой_8">
	<g id="Слой_6">
		<g>
			<path class="st4" d="M1881.8,496V206.3h-372.5v-33.8h-142.2v17.4h-113.9v19.4H1147v-19.4H618.3v25.5H370.6v-25.5H257.4v25.5
				h-27.8v-25.5h-47.7v25.5H42.5v-25.5H30.1V224h0.5c-0.3,8.4-0.5,16.7-0.5,24.7c0,92.2,18.1,181.7,53.7,266
				c34.4,81.4,83.7,154.4,146.4,217.2s135.8,112,217.2,146.4c84.2,35.6,173.7,53.7,266,53.7c8.6,0,17.2-0.2,25.7-0.5v0.5h20.2v-20.2
				h-18.9v-53h79.8v20.8h518.6v-10.8h87.6v-9.9h428.2V592.6h27.2v-72.8h-27.2V496H1881.8z"/>
			<path class="st5" d="M640.1,216.1H444.9v119.7h13.7c0,0,63.1,5.1,102.9,39.9s42,66.9,42,66.9h81.6V342.3h-45V216.1z"/>
			<rect x="1422.8" y="778.5" class="st6" width="100.4" height="79.6"/>
			<polygon class="st6" points="1800.6,209.9 1523.2,209.9 1471.7,209.9 1471.7,778.5 1523.2,778.5 1523.2,858.1 1852,858.1 
				1852,209.9 			"/>
			<polygon class="st6" points="1396.7,307.5 1396.7,342.3 1336.2,342.3 1336.2,442.6 1471.7,442.6 1471.7,401.4 1471.7,342.3 
				1471.7,307.5 			"/>
			<rect x="981.9" y="495.4" class="st6" width="93.1" height="100.4"/>
			<rect x="1260.3" y="495.4" class="st6" width="75.9" height="50.2"/>
			<rect x="1260.3" y="545.6" class="st6" width="75.9" height="50.2"/>
			<rect x="1336.2" y="545.6" class="st6" width="86.6" height="50.2"/>
			<rect x="1336.2" y="495.4" class="st6" width="86.6" height="50.2"/>
			<rect x="1075" y="495.4" class="st6" width="46.3" height="100.4"/>
			<rect x="876.8" y="495.4" class="st6" width="46.3" height="100.4"/>
			<rect x="923.1" y="495.4" class="st6" width="58.7" height="50.2"/>
			<rect x="923.1" y="545.6" class="st6" width="58.7" height="50.2"/>
			<rect x="1167.6" y="495.4" class="st6" width="46.3" height="100.4"/>
			<rect x="1121.3" y="495.4" class="st6" width="46.3" height="100.4"/>
			<rect x="1144.5" y="342.3" class="st6" width="139" height="100.4"/>
			<rect x="981.9" y="342.3" class="st6" width="162.6" height="100.4"/>
			<rect x="923.1" y="342.3" class="st6" width="59.2" height="100.4"/>
			<polygon class="st6" points="876.8,342.3 761,342.3 761,383.4 761,401.4 761,442.6 830.5,442.6 830.5,401.4 876.8,401.4 			"/>
			<rect x="830.5" y="495.4" class="st6" width="46.3" height="100.4"/>
			<rect x="830.5" y="401.4" class="st6" width="46.3" height="41.2"/>
			<rect x="1213.9" y="495.4" class="st6" width="46.3" height="100.4"/>
			<rect x="923.1" y="640.8" class="st6" width="198.2" height="238"/>
			<polygon class="st6" points="1418.5,640.8 1319.5,640.8 1220.4,640.8 1121.3,640.8 1121.3,878.8 1319.5,878.8 1319.5,736 
				1418.5,736 			"/>
			<rect x="812.5" y="640.8" class="st6" width="64.3" height="74.6"/>
			<rect x="737.9" y="640.8" class="st6" width="74.6" height="74.6"/>
			<rect x="685.1" y="342.3" class="st6" width="52.8" height="100.4"/>
			<rect x="587.3" y="640.8" class="st6" width="79.8" height="131.2"/>
			<rect x="517.8" y="640.8" class="st6" width="69.5" height="131.2"/>
			<path class="st6" d="M667.1,772h-63.5v150.8c35.2,5.6,71.2,8.5,107.9,8.5c8.8,0,17.6-0.2,26.4-0.5v-290h-70.8V772z"/>
			<path class="st6" d="M517.8,640.8c0,0-23.2,17.6-65.2,20.2c-28.3,1.7-63.6-14.7-63.6-14.7L286.3,782.8
				c90,71.7,198.5,121.2,317.2,140.1V772h-85.7V640.8z"/>
			<path class="st6" d="M389,646.3l-51.8,68.9l80.3,56.9l20.1-32.8l5.6-78.3C417,659.3,389,646.3,389,646.3z"/>
			<path class="st6" d="M50.6,420.2c24.3,93.9,68,179.9,126.7,253.5l133.4-111.4c0,0-19.3-46.3-24.3-66.9s-18.1-93.9-18.1-93.9
				L50.6,420.2z"/>
			<path class="st6" d="M290.6,509.8L227,526.3l9,55.3l18.4,27.6l56.2-46.9C310.7,562.3,298.1,532.3,290.6,509.8z"/>
			<path class="st6" d="M29.6,216.1c-0.5,10.8-0.8,21.7-0.8,32.6c0,59.2,7.5,116.7,21.7,171.5l217.6-18.7c0,0-3.9-38.6-5.1-67.6
				c-1.3-33.2,2.1-74,2.1-74h-84.6v-43.8H29.6z"/>
			<rect x="620.4" y="491.7" class="st6" width="15.4" height="7.3"/>
			<rect x="1287.3" y="428.8" class="st6" width="10.9" height="13.9"/>
			<rect x="1287.3" y="411.5" class="st6" width="10.9" height="13.9"/>
			<rect x="1287.3" y="394.2" class="st6" width="10.9" height="13.9"/>
			<rect x="1287.3" y="376.9" class="st6" width="10.9" height="13.9"/>
			<rect x="1287.3" y="359.6" class="st6" width="10.9" height="13.9"/>
			<rect x="1287.3" y="342.3" class="st6" width="10.9" height="13.9"/>
			<rect x="713.8" y="538.6" class="st6" width="10.9" height="13.9"/>
			<rect x="565.1" y="538.6" class="st6" width="10.9" height="13.9"/>
			
				<rect x="253.6" y="617.9" transform="matrix(0.7071 0.7071 -0.7071 0.7071 517.7107 -0.1844)" class="st6" width="10.9" height="13.9"/>
			<rect x="620.4" y="592.1" class="st6" width="15.4" height="7.3"/>
			<rect x="599.5" y="592.1" class="st6" width="15.4" height="7.3"/>
			
				<rect x="1455.4" y="444.6" transform="matrix(-1.836970e-16 1 -1 -1.836970e-16 1912.4529 -1009.3355)" class="st6" width="10.9" height="13.9"/>
			
				<rect x="340.5" y="605.6" transform="matrix(0.7071 0.7071 -0.7071 0.7071 532.7679 -67.7844)" class="st6" width="15.4" height="7.3"/>
			<rect x="643.9" y="491.7" class="st6" width="15.4" height="7.3"/>
			<rect x="665.3" y="491.7" class="st6" width="15.4" height="7.3"/>
			
				<rect x="510.1" y="595.7" transform="matrix(0.7071 -0.7071 0.7071 0.7071 -272.1686 541.7122)" class="st6" width="15.4" height="7.3"/>
			<rect x="653.8" y="538.6" class="st6" width="10.9" height="13.9"/>
			<rect x="641" y="592.1" class="st6" width="15.4" height="7.3"/>
			<rect x="661.9" y="592.1" class="st6" width="15.4" height="7.3"/>
			<rect x="813.4" y="538.6" class="st6" width="10.9" height="13.9"/>
			<rect x="907.2" y="428.8" class="st6" width="10.9" height="13.9"/>
			<rect x="1422.8" y="640.8" class="st6" width="10.9" height="13.9"/>
			
				<rect x="296.6" y="496.3" transform="matrix(0.9622 -0.2723 0.2723 0.9622 -125.6047 101.2684)" class="st6" width="10.9" height="13.9"/>
			<path class="st7" d="M443.1,335.8h15.5c0,0,45.5,3.7,83.6,26.1v-80.2h-99.1V335.8z"/>
			<polygon class="st7" points="444.9,216.1 360.8,216.1 360.8,308.6 310.7,308.8 310.7,335.8 444.9,335.8 			"/>
			<g>
				<path class="st8" d="M713.8,519.5h-93.4v-17.1h93.4V519.5z M622,517.8h90.2V504H622V517.8z"/>
				<rect x="706.3" y="503.2" class="st8" width="1.6" height="15.4"/>
				<rect x="711.8" y="503.2" class="st8" width="1.6" height="15.4"/>
				<rect x="700.7" y="503.2" class="st8" width="1.6" height="15.4"/>
				<rect x="695.2" y="503.2" class="st8" width="1.6" height="15.4"/>
				<rect x="689.6" y="503.2" class="st8" width="1.6" height="15.4"/>
				<rect x="684.1" y="503.2" class="st8" width="1.6" height="15.4"/>
				<rect x="678.5" y="503.2" class="st8" width="1.6" height="15.4"/>
				<rect x="673" y="503.2" class="st8" width="1.6" height="15.4"/>
				<rect x="667.4" y="503.2" class="st8" width="1.6" height="15.4"/>
				<rect x="661.9" y="503.2" class="st8" width="1.6" height="15.4"/>
				<rect x="656.3" y="503.2" class="st8" width="1.6" height="15.4"/>
				<rect x="650.8" y="503.2" class="st8" width="1.6" height="15.4"/>
				<rect x="645.3" y="503.2" class="st8" width="1.6" height="15.4"/>
			</g>
			<g>
				<path class="st8" d="M713.8,588.7h-93.4v-17.1h93.4V588.7z M622,587.1h90.2v-13.8H622V587.1z"/>
				<rect x="706.3" y="572.5" class="st8" width="1.6" height="15.4"/>
				<rect x="711.8" y="572.5" class="st8" width="1.6" height="15.4"/>
				<rect x="700.7" y="572.5" class="st8" width="1.6" height="15.4"/>
				<rect x="695.2" y="572.5" class="st8" width="1.6" height="15.4"/>
				<rect x="689.6" y="572.5" class="st8" width="1.6" height="15.4"/>
				<rect x="684.1" y="572.5" class="st8" width="1.6" height="15.4"/>
				<rect x="678.5" y="572.5" class="st8" width="1.6" height="15.4"/>
				<rect x="673" y="572.5" class="st8" width="1.6" height="15.4"/>
				<rect x="667.4" y="572.5" class="st8" width="1.6" height="15.4"/>
				<rect x="661.9" y="572.5" class="st8" width="1.6" height="15.4"/>
				<rect x="656.3" y="572.5" class="st8" width="1.6" height="15.4"/>
				<rect x="650.8" y="572.5" class="st8" width="1.6" height="15.4"/>
				<rect x="645.3" y="572.5" class="st8" width="1.6" height="15.4"/>
			</g>
			<g>
				<path class="st9" d="M155.4,486.8v15.6h-2v-13.9h-5.2v4.7c0,3.4-0.1,7.2-2.3,8.6c-0.6,0.4-1.5,0.7-2.4,0.7l-0.3-1.6
					c0.6-0.1,1.3-0.5,1.6-0.8c1.3-1.2,1.4-4.3,1.4-6.8v-6.6H155.4z"/>
				<path class="st9" d="M160.3,486.5l-0.4,5.6h-1.3l-0.4-5.6H160.3z"/>
				<path class="st9" d="M164.3,493.6h7.3c-0.3-3-2.1-5.4-5.4-5.4c-1.3,0-2.3,0.3-3.3,0.8l-0.5-1.6c1.1-0.5,2.5-0.9,3.9-0.9
					c4.9,0,7.4,3.5,7.4,8.1c0,5.1-3.4,8-7.5,8c-1.6,0-3-0.3-4.1-0.8l0.4-1.6c0.9,0.4,2.2,0.7,3.4,0.7c3.5,0,5.5-2.5,5.7-5.7h-7.3
					V493.6z"/>
				<path class="st9" d="M184.2,491.2v1.6h-3.5v9.6h-2v-9.6h-3.5v-1.6H184.2z"/>
				<path class="st9" d="M187.2,491.2l2.5,6.6c0.3,0.7,0.5,1.6,0.7,2.3h0c0.2-0.7,0.4-1.5,0.7-2.3l2.2-6.6h2.2l-3.1,8
					c-1.5,3.8-2.5,5.8-3.8,7c-1,0.9-2,1.2-2.5,1.3l-0.5-1.7c0.5-0.2,1.2-0.5,1.8-1c0.6-0.4,1.3-1.2,1.7-2.3c0.1-0.2,0.2-0.4,0.2-0.5
					c0-0.1,0-0.3-0.1-0.5l-4.1-10.3H187.2z"/>
				<path class="st9" d="M203.4,502.4l-0.2-1.4h-0.1c-0.6,0.9-1.8,1.7-3.4,1.7c-2.3,0-3.4-1.6-3.4-3.2c0-2.7,2.4-4.2,6.7-4.2V495
					c0-0.9-0.3-2.6-2.5-2.6c-1,0-2.1,0.3-2.9,0.8l-0.5-1.3c0.9-0.6,2.3-1,3.7-1c3.4,0,4.3,2.3,4.3,4.6v4.2c0,1,0,1.9,0.2,2.7H203.4z
					 M203.1,496.7c-2.2,0-4.7,0.3-4.7,2.5c0,1.3,0.9,1.9,1.9,1.9c1.5,0,2.4-0.9,2.7-1.9c0.1-0.2,0.1-0.4,0.1-0.6V496.7z"/>
				<path class="st9" d="M216.9,491.2v11.2h-2v-9.6h-3.8v2.9c0,3.2-0.3,5.3-1.8,6.2c-0.6,0.4-1.2,0.7-2.2,0.7l-0.2-1.6
					c0.4-0.1,0.8-0.2,1.1-0.5c1-0.8,1.2-2.3,1.2-4.8v-4.5H216.9z"/>
				<path class="st9" d="M222.2,491.2v3.8c0.5-0.1,1.3-0.1,1.9-0.1c2.5,0,5.2,0.8,5.2,3.8c0,1.2-0.5,2-1.2,2.6
					c-1.2,1-3.2,1.3-4.9,1.3c-1.1,0-2.2-0.1-3-0.2v-11.2H222.2z M222.2,501c0.4,0,0.8,0.1,1.5,0.1c1.5,0,3.5-0.5,3.5-2.4
					c0-1.9-2-2.4-3.5-2.4c-0.5,0-1,0-1.5,0.1V501z"/>
			</g>
			<g>
				<path class="st9" d="M373,708.8c-0.6,0.3-1.7,0.6-3.2,0.6c-3.4,0-6-2.2-6-6.1c0-3.8,2.6-6.4,6.3-6.4c1.5,0,2.5,0.3,2.9,0.5
					l-0.4,1.3c-0.6-0.3-1.4-0.5-2.5-0.5c-2.8,0-4.7,1.8-4.7,5c0,3,1.7,4.9,4.7,4.9c1,0,1.9-0.2,2.6-0.5L373,708.8z"/>
				<path class="st9" d="M374.9,700.5c0.6-0.1,1.7-0.2,2.8-0.2c1.5,0,3.9,0.2,3.9,2.2c0,1.1-0.8,1.7-1.8,2v0
					c1.3,0.2,2.2,0.9,2.2,2.2c0,2.3-2.9,2.6-4.6,2.6c-1,0-2-0.1-2.5-0.1V700.5z M376.4,708.1c0.5,0.1,0.8,0.1,1.3,0.1
					c1.1,0,2.6-0.3,2.6-1.5c0-1.3-1.3-1.5-2.8-1.5h-1.2V708.1z M376.4,704.1h1.2c1.2,0,2.4-0.3,2.4-1.4c0-0.9-0.8-1.3-2.3-1.3
					c-0.5,0-0.8,0-1.2,0.1V704.1z"/>
				<path class="st9" d="M390.4,709.2h-1.6v-3.7h-1.2c-0.7,0-1.1,0.2-1.5,0.5c-0.6,0.5-0.9,1.6-1.2,2.5c-0.1,0.3-0.2,0.5-0.4,0.7
					h-1.7c0.2-0.3,0.4-0.6,0.5-1c0.4-0.8,0.6-2,1.4-2.6c0.3-0.2,0.6-0.4,1-0.5V705c-1.1-0.1-2.3-0.8-2.3-2.2c0-0.9,0.5-1.5,1.2-1.9
					c0.7-0.4,1.8-0.6,2.9-0.6c1,0,2.1,0.1,2.8,0.2V709.2z M388.8,701.5c-0.4-0.1-0.8-0.1-1.3-0.1c-1.1,0-2.4,0.3-2.4,1.5
					c0,1.1,1.4,1.5,2.3,1.5c0.6,0,1,0,1.4,0V701.5z"/>
				<path class="st9" d="M393.7,704.1h0.8c1.3,0,2.2-0.6,2.2-1.4c0-0.8-0.7-1.3-1.7-1.3c-0.7,0-1.5,0.2-2.1,0.6l-0.4-1
					c0.9-0.5,1.9-0.8,2.9-0.8c1.3,0,3,0.6,3,2.3c0,1.1-1,1.8-2,2v0c1.3,0.1,2.4,0.9,2.4,2.2c0,1.9-1.9,2.6-3.8,2.6
					c-1,0-2.1-0.3-2.8-0.7l0.4-1.1c0.6,0.3,1.5,0.6,2.3,0.6c1.3,0,2.1-0.6,2.1-1.5c0-1.2-1.2-1.5-2.5-1.5h-0.8V704.1z"/>
				<path class="st9" d="M402.3,700.4v3.5h4.1v-3.5h1.6v8.7h-1.6v-3.9h-4.1v3.9h-1.6v-8.7H402.3z"/>
				<path class="st9" d="M418.5,704.7c0,3.2-2.2,4.6-4.3,4.6c-2.4,0-4.2-1.7-4.2-4.5c0-2.9,1.9-4.6,4.3-4.6
					C416.8,700.2,418.5,702.1,418.5,704.7z M411.6,704.8c0,1.9,1.1,3.4,2.6,3.4c1.5,0,2.6-1.4,2.6-3.4c0-1.5-0.7-3.4-2.6-3.4
					C412.4,701.4,411.6,703.2,411.6,704.8z"/>
				<path class="st9" d="M421.9,700.4v3.7c0,1.4,0,2.3-0.1,3.5l0.1,0c0.5-1.1,0.8-1.7,1.4-2.7l2.7-4.5h1.9v8.7h-1.5v-3.7
					c0-1.4,0-2.2,0.1-3.6h-0.1c-0.6,1.1-0.9,1.8-1.4,2.7c-0.8,1.4-1.8,3-2.7,4.6h-1.8v-8.7H421.9z M423,696.9
					c0.1,0.8,0.4,1.4,1.2,1.4c0.8,0,1.1-0.6,1.2-1.4h1.1c-0.1,1.5-1,2.2-2.4,2.2c-1.6,0-2.2-1-2.3-2.2H423z"/>
			</g>
			<g>
				<path class="st9" d="M446.7,795.2h2v7.5h0.1c0.4-0.6,0.8-1.2,1.2-1.7l4.8-5.9h2.5l-5.7,6.6l6.1,9h-2.4l-5.1-7.7l-1.5,1.7v6h-2
					V795.2z"/>
				<path class="st9" d="M462,805.9l-1.6,4.9h-2.1l5.3-15.6h2.4l5.3,15.6h-2.2l-1.7-4.9H462z M467.1,804.3l-1.5-4.5
					c-0.3-1-0.6-1.9-0.8-2.8h0c-0.2,0.9-0.5,1.9-0.8,2.8l-1.5,4.5H467.1z"/>
				<path class="st9" d="M473.6,795.4c1-0.2,2.5-0.3,3.9-0.3c2.2,0,3.5,0.4,4.5,1.3c0.8,0.7,1.2,1.8,1.2,3c0,2.1-1.3,3.4-2.9,4v0.1
					c1.2,0.4,1.9,1.5,2.3,3.2c0.5,2.2,0.9,3.7,1.2,4.3h-2.1c-0.3-0.4-0.6-1.8-1-3.7c-0.5-2.2-1.3-3-3.1-3h-1.9v6.8h-2V795.4z
					 M475.7,802.5h2.1c2.2,0,3.5-1.2,3.5-3c0-2-1.5-2.9-3.6-2.9c-1,0-1.7,0.1-2,0.2V802.5z"/>
				<path class="st9" d="M488.1,795.2v15.6h-2v-15.6H488.1z"/>
			</g>
			<g>
				<path class="st9" d="M609.7,836.9c0.8,0.5,2,0.9,3.2,0.9c1.8,0,2.9-1,2.9-2.4c0-1.3-0.7-2-2.6-2.8c-2.3-0.8-3.7-2-3.7-3.9
					c0-2.2,1.8-3.8,4.5-3.8c1.4,0,2.5,0.3,3.1,0.7l-0.5,1.5c-0.5-0.2-1.4-0.7-2.6-0.7c-1.9,0-2.6,1.1-2.6,2.1c0,1.3,0.8,1.9,2.8,2.7
					c2.3,0.9,3.5,2,3.5,4.1c0,2.1-1.6,4-4.9,4c-1.3,0-2.8-0.4-3.5-0.9L609.7,836.9z"/>
				<path class="st9" d="M622.4,834.7l-1.4,4.4h-1.9l4.7-13.9h2.2l4.7,13.9h-1.9l-1.5-4.4H622.4z M626.9,833.3l-1.4-4
					c-0.3-0.9-0.5-1.7-0.7-2.5h0c-0.2,0.8-0.4,1.7-0.7,2.5l-1.4,4H626.9z"/>
				<path class="st9" d="M632.7,825.2h1.8v12.4h5.9v1.5h-7.7V825.2z"/>
				<path class="st9" d="M644.7,834.7l-1.4,4.4h-1.9l4.7-13.9h2.2l4.7,13.9h-1.9l-1.5-4.4H644.7z M649.2,833.3l-1.4-4
					c-0.3-0.9-0.5-1.7-0.7-2.5h0c-0.2,0.8-0.4,1.7-0.7,2.5l-1.4,4H649.2z"/>
				<path class="st9" d="M666.6,833c-0.1-1.9-0.2-4.3-0.2-6h-0.1c-0.5,1.6-1.1,3.4-1.8,5.3l-2.5,6.7h-1.4l-2.2-6.6
					c-0.7-2-1.2-3.7-1.6-5.4h0c0,1.7-0.1,4.1-0.3,6.1l-0.4,6h-1.7l1-13.9h2.3l2.4,6.7c0.6,1.7,1,3.2,1.4,4.7h0.1
					c0.3-1.4,0.8-2.9,1.5-4.7l2.5-6.7h2.3l0.9,13.9H667L666.6,833z"/>
				<path class="st9" d="M673.5,834.7l-1.4,4.4h-1.9l4.7-13.9h2.2l4.7,13.9h-1.9l-1.5-4.4H673.5z M678.1,833.3l-1.4-4
					c-0.3-0.9-0.5-1.7-0.7-2.5h0c-0.2,0.8-0.4,1.7-0.7,2.5l-1.4,4H678.1z"/>
				<path class="st9" d="M683.9,839.1v-13.9h2l4.4,7c1,1.6,1.8,3.1,2.5,4.5l0,0c-0.2-1.9-0.2-3.5-0.2-5.7v-5.8h1.7v13.9h-1.8l-4.4-7
					c-1-1.5-1.9-3.1-2.6-4.6l-0.1,0c0.1,1.8,0.1,3.4,0.1,5.7v5.9H683.9z"/>
				<path class="st9" d="M697.4,825.4c1.1-0.2,2.4-0.3,3.8-0.3c2.6,0,4.4,0.6,5.6,1.7c1.2,1.1,2,2.7,2,5c0,2.3-0.7,4.1-2,5.4
					c-1.3,1.3-3.4,2-6.1,2c-1.3,0-2.3-0.1-3.3-0.2V825.4z M699.2,837.7c0.5,0.1,1.1,0.1,1.8,0.1c3.8,0,5.9-2.1,5.9-5.9
					c0-3.3-1.8-5.4-5.6-5.4c-0.9,0-1.6,0.1-2.1,0.2V837.7z"/>
				<path class="st9" d="M718.3,832.6h-5.4v5h6v1.5h-7.8v-13.9h7.5v1.5h-5.7v4.4h5.4V832.6z"/>
				<path class="st9" d="M721.3,825.4c0.9-0.2,2.2-0.3,3.4-0.3c1.9,0,3.2,0.3,4,1.1c0.7,0.6,1.1,1.6,1.1,2.6c0,1.8-1.2,3-2.6,3.5
					v0.1c1.1,0.4,1.7,1.4,2,2.8c0.5,1.9,0.8,3.3,1.1,3.8h-1.9c-0.2-0.4-0.5-1.6-0.9-3.3c-0.4-1.9-1.2-2.6-2.8-2.7h-1.7v6h-1.8V825.4
					z M723.1,831.7h1.8c1.9,0,3.1-1.1,3.1-2.6c0-1.8-1.3-2.6-3.2-2.6c-0.9,0-1.5,0.1-1.8,0.2V831.7z"/>
			</g>
			<g>
				<path class="st9" d="M530.8,708.8c-0.5,0.3-1.6,0.5-3,0.5c-3.2,0-5.6-2-5.6-5.7c0-3.5,2.4-5.9,5.9-5.9c1.4,0,2.3,0.3,2.7,0.5
					l-0.4,1.2c-0.6-0.3-1.3-0.5-2.3-0.5c-2.6,0-4.4,1.7-4.4,4.7c0,2.8,1.6,4.5,4.3,4.5c0.9,0,1.8-0.2,2.4-0.5L530.8,708.8z"/>
				<path class="st9" d="M539.6,705c0,3-2.1,4.3-4,4.3c-2.2,0-3.9-1.6-3.9-4.2c0-2.7,1.8-4.3,4-4.3
					C538.1,700.9,539.6,702.6,539.6,705z M533.2,705.1c0,1.8,1,3.1,2.5,3.1c1.4,0,2.5-1.3,2.5-3.1c0-1.4-0.7-3.1-2.4-3.1
					C534,702,533.2,703.6,533.2,705.1z"/>
				<path class="st9" d="M543,701.1v3.5h0.4l3-3.5h1.8l-3.5,3.7c1.3,0.1,2.1,1,2.7,2.5c0.2,0.5,0.5,1.3,0.9,2h-1.5
					c-0.2-0.4-0.5-1-0.8-1.7c-0.6-1.3-1.3-1.9-2.7-1.9H543v3.6h-1.5v-8.1H543z"/>
				<path class="st9" d="M556.7,705c0,3-2.1,4.3-4,4.3c-2.2,0-3.9-1.6-3.9-4.2c0-2.7,1.8-4.3,4-4.3
					C555.2,700.9,556.7,702.6,556.7,705z M550.3,705.1c0,1.8,1,3.1,2.5,3.1c1.4,0,2.5-1.3,2.5-3.1c0-1.4-0.7-3.1-2.4-3.1
					C551.1,702,550.3,703.6,550.3,705.1z"/>
				<path class="st9" d="M564.7,701.1v8.1h-1.5v-6.9h-2.8v2.1c0,2.3-0.2,3.8-1.3,4.5c-0.4,0.3-0.9,0.5-1.6,0.5l-0.2-1.2
					c0.3-0.1,0.6-0.2,0.8-0.3c0.8-0.6,0.8-1.7,0.8-3.5v-3.3H564.7z"/>
				<path class="st9" d="M574.5,705c0,3-2.1,4.3-4,4.3c-2.2,0-3.9-1.6-3.9-4.2c0-2.7,1.8-4.3,4-4.3
					C572.9,700.9,574.5,702.6,574.5,705z M568,705.1c0,1.8,1,3.1,2.5,3.1c1.4,0,2.5-1.3,2.5-3.1c0-1.4-0.7-3.1-2.4-3.1
					C568.8,702,568,703.6,568,705.1z"/>
				<path class="st9" d="M576.3,701.2c0.6-0.1,1.6-0.2,2.6-0.2c1.4,0,3.6,0.2,3.6,2c0,1-0.8,1.6-1.7,1.8v0c1.2,0.2,2.1,0.8,2.1,2
					c0,2.1-2.7,2.4-4.3,2.4c-0.9,0-1.8-0.1-2.3-0.1V701.2z M577.7,708.2c0.4,0.1,0.7,0.1,1.2,0.1c1,0,2.5-0.2,2.5-1.4
					c0-1.2-1.2-1.4-2.6-1.4h-1.1V708.2z M577.7,704.5h1.1c1.1,0,2.2-0.3,2.2-1.3c0-0.8-0.7-1.2-2.2-1.2c-0.5,0-0.8,0-1.1,0.1V704.5z
					"/>
			</g>
			<g>
				<path class="st9" d="M746.6,685.8c0.2-0.4,0.4-0.9,0.6-1.4c0.7-1.8,1.1-4,2.4-5.2c0.4-0.4,0.8-0.6,1.3-0.8v-0.1
					c-1.9-0.3-3.5-1.7-3.5-3.8c0-1.4,0.6-2.5,1.4-3.2c1-0.8,2.5-1.2,4.5-1.2c1.3,0,2.7,0.1,3.7,0.3v15.4h-2v-6.8h-1.5
					c-1,0-1.7,0.2-2.2,0.8c-1.1,1.1-1.5,3.4-2.1,4.9c-0.2,0.4-0.3,0.7-0.5,1.1H746.6z M755.1,671.8c-0.3-0.1-1-0.2-1.9-0.2
					c-2,0-3.7,0.8-3.7,2.9c0,1.9,1.7,3,3.9,3c0.7,0,1.3,0,1.7,0V671.8z"/>
				<path class="st9" d="M761.5,674.6l1.6,2.4c0.4,0.6,0.8,1.2,1.1,1.8h0.1c0.4-0.7,0.7-1.3,1.1-1.9l1.6-2.4h2.2l-3.8,5.4l3.9,5.8
					H767l-1.6-2.5c-0.4-0.6-0.8-1.3-1.2-1.9h0c-0.4,0.7-0.8,1.3-1.2,1.9l-1.6,2.5H759l4-5.7l-3.8-5.5H761.5z"/>
				<path class="st9" d="M781.1,680.1c0,4.1-2.9,6-5.6,6c-3,0-5.4-2.2-5.4-5.8c0-3.8,2.5-6,5.6-6
					C778.9,674.3,781.1,676.7,781.1,680.1z M772.2,680.2c0,2.5,1.4,4.3,3.4,4.3c1.9,0,3.4-1.8,3.4-4.4c0-1.9-0.9-4.3-3.4-4.3
					C773.2,675.9,772.2,678.1,772.2,680.2z"/>
				<path class="st9" d="M785.6,674.6v4.5h5.3v-4.5h2v11.2h-2v-5.1h-5.3v5.1h-2v-11.2H785.6z"/>
				<path class="st9" d="M803.8,674.6v1.6h-3.5v9.6h-2v-9.6h-3.5v-1.6H803.8z"/>
			</g>
			<g>
				<path class="st9" d="M780,378.6v5.1h5.9v-5.1h1.6v12.1h-1.6V385H780v5.7h-1.6v-12.1H780z"/>
				<path class="st9" d="M795,390.7l-0.1-1.1h-0.1c-0.5,0.7-1.4,1.3-2.7,1.3c-1.8,0-2.7-1.2-2.7-2.5c0-2.1,1.9-3.3,5.2-3.2V385
					c0-0.7-0.2-2-2-2c-0.8,0-1.7,0.3-2.3,0.6l-0.4-1c0.7-0.5,1.8-0.8,2.9-0.8c2.7,0,3.3,1.8,3.3,3.6v3.3c0,0.8,0,1.5,0.1,2.1H795z
					 M794.8,386.3c-1.7,0-3.7,0.3-3.7,2c0,1,0.7,1.5,1.5,1.5c1.1,0,1.9-0.7,2.1-1.5c0.1-0.2,0.1-0.3,0.1-0.5V386.3z"/>
				<path class="st9" d="M798.8,384.9c0-1.1,0-2-0.1-2.8h1.4l0.1,1.5h0c0.6-1.1,1.7-1.7,3.1-1.7c2.1,0,3.7,1.8,3.7,4.4
					c0,3.1-1.9,4.7-4,4.7c-1.2,0-2.2-0.5-2.7-1.4h0v4.7h-1.6V384.9z M800.4,387.2c0,0.2,0,0.5,0.1,0.6c0.3,1.1,1.2,1.9,2.4,1.9
					c1.7,0,2.7-1.4,2.7-3.4c0-1.7-0.9-3.2-2.6-3.2c-1.1,0-2.1,0.8-2.4,2c-0.1,0.2-0.1,0.4-0.1,0.6V387.2z"/>
				<path class="st9" d="M809.1,384.9c0-1.1,0-2-0.1-2.8h1.4l0.1,1.5h0c0.6-1.1,1.7-1.7,3.1-1.7c2.1,0,3.7,1.8,3.7,4.4
					c0,3.1-1.9,4.7-4,4.7c-1.2,0-2.2-0.5-2.7-1.4h0v4.7h-1.6V384.9z M810.7,387.2c0,0.2,0,0.5,0.1,0.6c0.3,1.1,1.2,1.9,2.4,1.9
					c1.7,0,2.7-1.4,2.7-3.4c0-1.7-0.9-3.2-2.6-3.2c-1.1,0-2.1,0.8-2.4,2c-0.1,0.2-0.1,0.4-0.1,0.6V387.2z"/>
				<path class="st9" d="M819.8,382l1.9,5.2c0.2,0.6,0.4,1.3,0.6,1.8h0c0.2-0.5,0.3-1.2,0.6-1.8l1.7-5.1h1.7l-2.4,6.2
					c-1.1,3-1.9,4.5-3,5.5c-0.8,0.7-1.5,1-1.9,1l-0.4-1.3c0.4-0.1,0.9-0.4,1.4-0.8c0.4-0.3,1-1,1.3-1.8c0.1-0.2,0.1-0.3,0.1-0.4
					c0-0.1,0-0.2-0.1-0.4l-3.2-8H819.8z"/>
				<path class="st9" d="M833.1,378.6v5.1h5.9v-5.1h1.6v12.1H839V385h-5.9v5.7h-1.6v-12.1H833.1z"/>
				<path class="st9" d="M848.1,390.7l-0.1-1.1h-0.1c-0.5,0.7-1.4,1.3-2.7,1.3c-1.8,0-2.7-1.2-2.7-2.5c0-2.1,1.9-3.3,5.2-3.2V385
					c0-0.7-0.2-2-2-2c-0.8,0-1.7,0.3-2.3,0.6l-0.4-1c0.7-0.5,1.8-0.8,2.9-0.8c2.7,0,3.3,1.8,3.3,3.6v3.3c0,0.8,0,1.5,0.1,2.1H848.1z
					 M847.9,386.3c-1.7,0-3.7,0.3-3.7,2c0,1,0.7,1.5,1.5,1.5c1.1,0,1.9-0.7,2.1-1.5c0.1-0.2,0.1-0.3,0.1-0.5V386.3z"/>
				<path class="st9" d="M853.7,379.6c0,0.5-0.4,1-1,1c-0.6,0-1-0.4-1-1c0-0.6,0.4-1,1-1C853.3,378.6,853.7,379,853.7,379.6z
					 M851.9,390.7V382h1.6v8.7H851.9z"/>
				<path class="st9" d="M856.2,384.7c0-1,0-1.9-0.1-2.7h1.4l0.1,1.7h0.1c0.4-1.2,1.4-1.9,2.4-1.9c0.2,0,0.3,0,0.5,0.1v1.5
					c-0.2,0-0.3-0.1-0.5-0.1c-1.1,0-1.9,0.8-2.1,2c0,0.2-0.1,0.5-0.1,0.7v4.7h-1.6V384.7z"/>
			</g>
			<g>
				<path class="st9" d="M488.1,245.8v6.5h7.6v-6.5h2v15.6h-2v-7.3h-7.6v7.3h-2v-15.6H488.1z"/>
				<path class="st9" d="M509.3,254.1h-6.1v5.6h6.8v1.7h-8.8v-15.6h8.4v1.7h-6.4v4.9h6.1V254.1z"/>
				<path class="st9" d="M512.6,261.4v-15.6h2.2l5,7.9c1.2,1.8,2.1,3.5,2.8,5.1l0,0c-0.2-2.1-0.2-4-0.2-6.4v-6.5h1.9v15.6h-2l-5-7.9
					c-1.1-1.7-2.1-3.5-2.9-5.2l-0.1,0c0.1,2,0.2,3.8,0.2,6.4v6.7H512.6z"/>
				<path class="st9" d="M527.9,246c1.2-0.2,2.7-0.3,4.3-0.3c2.9,0,5,0.7,6.3,1.9c1.4,1.3,2.2,3.1,2.2,5.6c0,2.5-0.8,4.6-2.2,6.1
					c-1.5,1.5-3.9,2.2-6.9,2.2c-1.4,0-2.6-0.1-3.7-0.2V246z M529.9,259.8c0.5,0.1,1.3,0.1,2,0.1c4.3,0,6.6-2.4,6.6-6.6
					c0-3.7-2.1-6-6.3-6c-1,0-1.8,0.1-2.4,0.2V259.8z"/>
				<path class="st9" d="M551.4,254.1h-6.1v5.6h6.8v1.7h-8.8v-15.6h8.4v1.7h-6.4v4.9h6.1V254.1z"/>
				<path class="st9" d="M554.7,246c1-0.2,2.5-0.3,3.9-0.3c2.2,0,3.5,0.4,4.5,1.3c0.8,0.7,1.2,1.8,1.2,3c0,2.1-1.3,3.4-2.9,4v0.1
					c1.2,0.4,1.9,1.5,2.3,3.2c0.5,2.2,0.9,3.7,1.2,4.3h-2.1c-0.3-0.4-0.6-1.8-1-3.7c-0.5-2.2-1.3-3-3.1-3h-1.9v6.8h-2V246z
					 M556.7,253.1h2.1c2.2,0,3.5-1.2,3.5-3c0-2-1.5-2.9-3.6-2.9c-1,0-1.7,0.1-2,0.2V253.1z"/>
				<path class="st9" d="M566.9,258.9c0.9,0.6,2.2,1,3.6,1c2.1,0,3.3-1.1,3.3-2.7c0-1.5-0.8-2.3-2.9-3.1c-2.5-0.9-4.1-2.2-4.1-4.4
					c0-2.4,2-4.2,5.1-4.2c1.6,0,2.8,0.4,3.5,0.8l-0.6,1.6c-0.5-0.3-1.6-0.7-3-0.7c-2.1,0-2.9,1.3-2.9,2.3c0,1.5,0.9,2.2,3.1,3
					c2.6,1,4,2.3,4,4.6c0,2.4-1.8,4.5-5.5,4.5c-1.5,0-3.2-0.4-4-1L566.9,258.9z"/>
				<path class="st9" d="M591.9,253.4c0,5.4-3.3,8.2-7.3,8.2c-4.1,0-7-3.2-7-7.9c0-5,3.1-8.2,7.3-8.2
					C589.1,245.5,591.9,248.8,591.9,253.4z M579.8,253.7c0,3.3,1.8,6.3,5,6.3c3.2,0,5-2.9,5-6.5c0-3.1-1.6-6.3-5-6.3
					C581.5,247.1,579.8,250.2,579.8,253.7z"/>
				<path class="st9" d="M594.5,261.4v-15.6h2.2l5,7.9c1.2,1.8,2.1,3.5,2.8,5.1l0,0c-0.2-2.1-0.2-4-0.2-6.4v-6.5h1.9v15.6h-2l-5-7.9
					c-1.1-1.7-2.1-3.5-2.9-5.2l-0.1,0c0.1,2,0.2,3.8,0.2,6.4v6.7H594.5z"/>
			</g>
			<g>
				<path class="st9" d="M457.6,304.4h-3.8l-0.4,2.6c0.2,0,0.4-0.1,0.8-0.1c0.8,0,1.5,0.2,2.2,0.5c0.8,0.4,1.4,1.3,1.4,2.6
					c0,2-1.6,3.4-3.7,3.4c-1.1,0-2-0.3-2.5-0.6l0.3-1c0.4,0.2,1.2,0.6,2.1,0.6c1.3,0,2.4-0.8,2.4-2.2c0-1.3-0.9-2.2-2.9-2.2
					c-0.6,0-1,0.1-1.4,0.1l0.6-4.8h4.8V304.4z"/>
				<path class="st9" d="M459.4,310.8c0-1.3,0.8-2.2,2-2.7l0,0c-1.1-0.5-1.6-1.4-1.6-2.3c0-1.6,1.3-2.7,3.1-2.7
					c1.9,0,2.9,1.2,2.9,2.5c0,0.8-0.4,1.8-1.7,2.3v0c1.3,0.5,2,1.4,2,2.6c0,1.7-1.5,2.9-3.4,2.9
					C460.7,313.5,459.4,312.2,459.4,310.8z M464.8,310.7c0-1.2-0.8-1.8-2.2-2.2c-1.2,0.3-1.8,1.1-1.8,2.1c0,1,0.7,1.9,2,1.9
					C464,312.5,464.8,311.7,464.8,310.7z M461.1,305.7c0,1,0.8,1.5,1.9,1.9c0.9-0.3,1.5-0.9,1.5-1.8c0-0.8-0.5-1.6-1.7-1.6
					C461.7,304.1,461.1,304.8,461.1,305.7z"/>
				<path class="st9" d="M473.4,304.4h-3.8l-0.4,2.6c0.2,0,0.4-0.1,0.8-0.1c0.8,0,1.5,0.2,2.2,0.5c0.8,0.4,1.4,1.3,1.4,2.6
					c0,2-1.6,3.4-3.7,3.4c-1.1,0-2-0.3-2.5-0.6l0.3-1c0.4,0.2,1.2,0.6,2.1,0.6c1.3,0,2.4-0.8,2.4-2.2c0-1.3-0.9-2.2-2.9-2.2
					c-0.6,0-1,0.1-1.4,0.1l0.6-4.8h4.8V304.4z"/>
				<path class="st9" d="M478.7,303.5c0.7-0.5,1.6-0.8,2.7-0.8c1.8,0,3.1,0.9,3.1,2.5c0,1.3-0.9,2.3-2.1,2.5v0
					c1.5,0.2,2.5,1.1,2.5,2.6c0,2.2-1.9,3-3.8,3c-0.9,0-1.9-0.2-2.7-0.7l0.4-1c0.6,0.3,1.5,0.6,2.3,0.6c1.5,0,2.4-0.8,2.4-2
					c0-1.6-1.5-2-2.8-2h-0.6v-1h0.6c1.4,0,2.4-0.8,2.4-1.9c0-1-0.7-1.6-1.9-1.6c-0.8,0-1.6,0.3-2.2,0.7L478.7,303.5z"/>
				<path class="st9" d="M493.5,309.5c0,2.8-1.9,4-3.7,4c-2,0-3.6-1.5-3.6-3.8c0-2.5,1.6-4,3.7-4C492,305.7,493.5,307.2,493.5,309.5
					z M487.5,309.6c0,1.6,0.9,2.9,2.3,2.9c1.3,0,2.3-1.2,2.3-2.9c0-1.3-0.6-2.9-2.2-2.9C488.2,306.7,487.5,308.2,487.5,309.6z"/>
				<path class="st9" d="M500.9,305.8v7.5h-1.3v-6.4h-2.6v1.9c0,2.1-0.2,3.5-1.2,4.1c-0.4,0.3-0.8,0.5-1.5,0.5l-0.1-1.1
					c0.3,0,0.6-0.2,0.7-0.3c0.7-0.5,0.8-1.6,0.8-3.2v-3H500.9z"/>
				<path class="st9" d="M509.8,309.5c0,2.8-1.9,4-3.7,4c-2,0-3.6-1.5-3.6-3.8c0-2.5,1.6-4,3.7-4
					C508.4,305.7,509.8,307.2,509.8,309.5z M503.9,309.6c0,1.6,0.9,2.9,2.3,2.9c1.3,0,2.3-1.2,2.3-2.9c0-1.3-0.6-2.9-2.2-2.9
					C504.6,306.7,503.9,308.2,503.9,309.6z"/>
				<path class="st9" d="M516.5,305.8v1.1h-2.3v6.4h-1.3v-6.4h-2.3v-1.1H516.5z"/>
				<path class="st9" d="M524.2,309.5c0,2.8-1.9,4-3.7,4c-2,0-3.6-1.5-3.6-3.8c0-2.5,1.6-4,3.7-4
					C522.8,305.7,524.2,307.2,524.2,309.5z M518.3,309.6c0,1.6,0.9,2.9,2.3,2.9c1.3,0,2.3-1.2,2.3-2.9c0-1.3-0.6-2.9-2.2-2.9
					C519,306.7,518.3,308.2,518.3,309.6z"/>
				<path class="st9" d="M527.2,305.8v3.1c0,1.2,0,1.9-0.1,3l0,0c0.4-0.9,0.7-1.4,1.2-2.3l2.3-3.9h1.6v7.5H531v-3.2
					c0-1.2,0-1.9,0.1-3.1h0c-0.5,1-0.8,1.6-1.2,2.3c-0.7,1.2-1.5,2.6-2.3,3.9h-1.6v-7.5H527.2z M528.1,302.8c0,0.7,0.4,1.2,1,1.2
					c0.7,0,1-0.5,1-1.2h1c-0.1,1.3-0.9,1.9-2.1,1.9c-1.4,0-1.9-0.8-1.9-1.9H528.1z"/>
			</g>
			<g>
				<path class="st9" d="M364.9,275.2c0.7,0.4,1.7,0.8,2.8,0.8c1.6,0,2.5-0.8,2.5-2.1c0-1.1-0.6-1.8-2.3-2.4c-2-0.7-3.2-1.7-3.2-3.4
					c0-1.9,1.6-3.3,3.9-3.3c1.2,0,2.1,0.3,2.7,0.6l-0.4,1.3c-0.4-0.2-1.2-0.6-2.3-0.6c-1.7,0-2.3,1-2.3,1.8c0,1.1,0.7,1.7,2.4,2.3
					c2.1,0.8,3.1,1.8,3.1,3.6c0,1.9-1.4,3.5-4.3,3.5c-1.2,0-2.5-0.3-3.1-0.8L364.9,275.2z"/>
				<path class="st9" d="M375.9,273.3l-1.3,3.8H373l4.1-12.1h1.9l4.1,12.1h-1.7l-1.3-3.8H375.9z M379.9,272l-1.2-3.5
					c-0.3-0.8-0.5-1.5-0.6-2.2h0c-0.2,0.7-0.4,1.5-0.6,2.2l-1.2,3.5H379.9z"/>
				<path class="st9" d="M395.2,271.8c-0.1-1.7-0.2-3.7-0.2-5.2h-0.1c-0.4,1.4-0.9,2.9-1.5,4.6l-2.1,5.9h-1.2l-2-5.8
					c-0.6-1.7-1.1-3.3-1.4-4.7h0c0,1.5-0.1,3.6-0.2,5.4l-0.3,5.2h-1.5l0.8-12.1h2l2.1,5.9c0.5,1.5,0.9,2.8,1.2,4.1h0.1
					c0.3-1.2,0.7-2.6,1.3-4.1l2.2-5.9h2l0.8,12.1h-1.5L395.2,271.8z"/>
				<path class="st9" d="M399.2,275.2c0.7,0.4,1.7,0.8,2.8,0.8c1.6,0,2.5-0.8,2.5-2.1c0-1.1-0.6-1.8-2.3-2.4c-2-0.7-3.2-1.7-3.2-3.4
					c0-1.9,1.6-3.3,3.9-3.3c1.2,0,2.1,0.3,2.7,0.6l-0.4,1.3c-0.4-0.2-1.2-0.6-2.3-0.6c-1.7,0-2.3,1-2.3,1.8c0,1.1,0.7,1.7,2.4,2.3
					c2.1,0.8,3.1,1.8,3.1,3.6c0,1.9-1.4,3.5-4.3,3.5c-1.2,0-2.5-0.3-3.1-0.8L399.2,275.2z"/>
				<path class="st9" d="M409.8,264.9v7.2c0,2.7,1.2,3.9,2.8,3.9c1.8,0,3-1.2,3-3.9v-7.2h1.6v7.1c0,3.7-2,5.3-4.6,5.3
					c-2.5,0-4.4-1.4-4.4-5.2v-7.2H409.8z"/>
				<path class="st9" d="M419.9,277.1v-12.1h1.7l3.9,6.1c0.9,1.4,1.6,2.7,2.2,3.9l0,0c-0.1-1.6-0.2-3.1-0.2-5v-5.1h1.5v12.1h-1.6
					l-3.9-6.2c-0.8-1.4-1.7-2.7-2.3-4.1l-0.1,0c0.1,1.5,0.1,3,0.1,5v5.2H419.9z"/>
				<path class="st9" d="M441,276.6c-0.7,0.3-2.1,0.7-3.7,0.7c-1.8,0-3.4-0.5-4.5-1.6c-1-1-1.7-2.6-1.7-4.5c0-3.6,2.5-6.3,6.6-6.3
					c1.4,0,2.5,0.3,3,0.6l-0.4,1.3c-0.6-0.3-1.5-0.5-2.7-0.5c-3,0-4.9,1.8-4.9,4.9c0,3.1,1.9,4.9,4.7,4.9c1,0,1.7-0.1,2.1-0.3V272
					H437v-1.3h4V276.6z"/>
			</g>
			<g>
				<path class="st9" d="M985.7,758.6l8.7-12.7v-0.1h-7.9v-1.7H997v1.2l-8.6,12.6v0.1h8.7v1.7h-11.4V758.6z"/>
				<path class="st9" d="M1002.1,754.9l-1.6,4.9h-2.1l5.3-15.6h2.4l5.3,15.6h-2.2l-1.7-4.9H1002.1z M1007.2,753.3l-1.5-4.5
					c-0.3-1-0.6-1.9-0.8-2.8h0c-0.2,0.9-0.5,1.9-0.8,2.8l-1.5,4.5H1007.2z"/>
				<path class="st9" d="M1013.8,744.4c1-0.2,2.5-0.3,3.9-0.3c2.2,0,3.5,0.4,4.5,1.3c0.8,0.7,1.2,1.8,1.2,3c0,2.1-1.3,3.4-2.9,4v0.1
					c1.2,0.4,1.9,1.5,2.3,3.2c0.5,2.2,0.9,3.7,1.2,4.3h-2.1c-0.3-0.4-0.6-1.8-1-3.7c-0.5-2.2-1.3-3-3.1-3h-1.9v6.8h-2V744.4z
					 M1015.8,751.5h2.1c2.2,0,3.5-1.2,3.5-3c0-2-1.5-2.9-3.6-2.9c-1,0-1.7,0.1-2,0.2V751.5z"/>
				<path class="st9" d="M1028.2,744.2v15.6h-2v-15.6H1028.2z"/>
				<path class="st9" d="M1031.8,759.8v-15.6h2.2l5,7.9c1.2,1.8,2.1,3.5,2.8,5.1l0,0c-0.2-2.1-0.2-4-0.2-6.4v-6.5h1.9v15.6h-2
					l-5-7.9c-1.1-1.7-2.1-3.5-2.9-5.2l-0.1,0c0.1,2,0.2,3.8,0.2,6.4v6.7H1031.8z"/>
				<path class="st9" d="M1049.5,754.9l-1.6,4.9h-2.1l5.3-15.6h2.4l5.3,15.6h-2.2l-1.7-4.9H1049.5z M1054.7,753.3l-1.5-4.5
					c-0.3-1-0.6-1.9-0.8-2.8h0c-0.2,0.9-0.5,1.9-0.8,2.8l-1.5,4.5H1054.7z"/>
			</g>
			<g>
				<path class="st9" d="M1180.3,758.6l8.7-12.7v-0.1h-7.9v-1.7h10.5v1.2L1183,758v0.1h8.7v1.7h-11.4V758.6z"/>
				<path class="st9" d="M1202.3,752.5h-6.1v5.6h6.8v1.7h-8.8v-15.6h8.4v1.7h-6.4v4.9h6.1V752.5z"/>
				<path class="st9" d="M1205.6,759.8v-15.6h2.2l5,7.9c1.2,1.8,2.1,3.5,2.8,5.1l0,0c-0.2-2.1-0.2-4-0.2-6.4v-6.5h1.9v15.6h-2
					l-5-7.9c-1.1-1.7-2.1-3.5-2.9-5.2l-0.1,0c0.1,2,0.2,3.8,0.2,6.4v6.7H1205.6z"/>
				<path class="st9" d="M1220.8,744.4c1.2-0.2,2.7-0.3,4.3-0.3c2.9,0,5,0.7,6.3,1.9c1.4,1.3,2.2,3.1,2.2,5.6c0,2.5-0.8,4.6-2.2,6.1
					c-1.5,1.5-3.9,2.2-6.9,2.2c-1.4,0-2.6-0.1-3.7-0.2V744.4z M1222.8,758.2c0.5,0.1,1.3,0.1,2,0.1c4.3,0,6.6-2.4,6.6-6.6
					c0-3.7-2.1-6-6.3-6c-1,0-1.8,0.1-2.4,0.2V758.2z"/>
				<path class="st9" d="M1244.3,752.5h-6.1v5.6h6.8v1.7h-8.8v-15.6h8.4v1.7h-6.4v4.9h6.1V752.5z"/>
				<path class="st9" d="M1247.7,759.8v-15.6h2.2l5,7.9c1.2,1.8,2.1,3.5,2.8,5.1l0,0c-0.2-2.1-0.2-4-0.2-6.4v-6.5h1.9v15.6h-2
					l-5-7.9c-1.1-1.7-2.1-3.5-2.9-5.2l-0.1,0c0.1,2,0.2,3.8,0.2,6.4v6.7H1247.7z"/>
			</g>
			<g>
				<path class="st9" d="M1439.5,813l-1.8,4.9h-2.3l5.7-15.6h2.6l5.8,15.6h-2.3l-1.8-4.9H1439.5z M1445,811.4l-1.7-4.5
					c-0.4-1-0.6-1.9-0.9-2.8h-0.1c-0.3,0.9-0.5,1.9-0.9,2.8l-1.7,4.5H1445z"/>
				<path class="st9" d="M1452.1,802.5c1.1-0.2,2.4-0.3,4.2-0.3c2.2,0,3.7,0.5,4.7,1.3c0.9,0.7,1.5,1.9,1.5,3.3
					c0,1.4-0.5,2.5-1.3,3.3c-1.2,1.1-3,1.7-5.2,1.7c-0.7,0-1.3,0-1.8-0.1v6.3h-2.2V802.5z M1454.3,810c0.5,0.1,1.1,0.2,1.8,0.2
					c2.6,0,4.2-1.2,4.2-3.3c0-2.1-1.6-3.1-4-3.1c-1,0-1.7,0.1-2.1,0.2V810z"/>
				<path class="st9" d="M1467.5,802.3v6.6c0,2.5-0.1,4.5-0.2,6.6l0.1,0c0.9-1.6,1.9-3.3,3.1-5.2l5.5-8h2.2v15.6h-2.1v-6.6
					c0-2.5,0-4.4,0.2-6.3l-0.1,0c-0.8,1.7-2,3.5-3.1,5.3l-5.3,7.8h-2.3v-15.6H1467.5z"/>
				<path class="st9" d="M1493.4,802.3v14l1.5,0l-0.1,5.4h-1.7l-0.1-3.8h-10.6l-0.2,3.8h-1.7l-0.2-5.4l1.3,0
					c0.6-1.1,1.3-2.2,1.7-3.4c0.6-1.8,0.8-3.9,0.8-6.6v-4H1493.4z M1486,806.9c0,2.5-0.3,4.6-0.9,6.4c-0.4,1.1-0.9,2.1-1.4,3h7.5
					V804h-5.2V806.9z"/>
				<path class="st9" d="M1500.5,813l-1.8,4.9h-2.3l5.7-15.6h2.6l5.8,15.6h-2.3l-1.8-4.9H1500.5z M1506,811.4l-1.7-4.5
					c-0.4-1-0.6-1.9-0.9-2.8h-0.1c-0.3,0.9-0.5,1.9-0.9,2.8l-1.7,4.5H1506z"/>
			</g>
			<g>
				<path class="st9" d="M1610.8,524.4V540h-2.2v-13.9h-7.8V540h-2.2v-15.6H1610.8z"/>
				<path class="st9" d="M1615.8,534.7c0.1,2.8,2,3.9,4.2,3.9c1.6,0,2.5-0.3,3.4-0.6l0.4,1.5c-0.8,0.3-2.1,0.7-4,0.7
					c-3.7,0-6-2.3-6-5.7c0-3.4,2.2-6,5.7-6c4,0,5,3.2,5,5.3c0,0.4-0.1,0.7-0.1,1H1615.8z M1622.2,533.3c0-1.3-0.6-3.3-3.1-3.3
					c-2.2,0-3.2,1.9-3.4,3.3H1622.2z"/>
				<path class="st9" d="M1627.1,532.4c0-1.4-0.1-2.6-0.1-3.7h2l0.1,1.9h0.1c0.9-1.4,2.3-2.2,4.3-2.2c2.9,0,5.1,2.3,5.1,5.7
					c0,4-2.7,6-5.5,6c-1.6,0-3-0.6-3.7-1.8h0v6.1h-2.2V532.4z M1629.2,535.4c0,0.3,0,0.6,0.1,0.8c0.4,1.4,1.7,2.4,3.3,2.4
					c2.3,0,3.7-1.8,3.7-4.3c0-2.2-1.3-4.2-3.6-4.2c-1.5,0-2.9,1-3.3,2.5c-0.1,0.3-0.1,0.6-0.1,0.8V535.4z"/>
				<path class="st9" d="M1642.5,534.7c0.1,2.8,2,3.9,4.2,3.9c1.6,0,2.5-0.3,3.4-0.6l0.4,1.5c-0.8,0.3-2.1,0.7-4,0.7
					c-3.7,0-6-2.3-6-5.7c0-3.4,2.2-6,5.7-6c4,0,5,3.2,5,5.3c0,0.4-0.1,0.7-0.1,1H1642.5z M1649,533.3c0-1.3-0.6-3.3-3.1-3.3
					c-2.2,0-3.2,1.9-3.4,3.3H1649z"/>
				<path class="st9" d="M1656,528.8v4.9h0.5l4.6-4.9h2.7l-5.3,5.1c2,0.2,3.1,1.4,4.1,3.4c0.3,0.7,0.8,1.8,1.3,2.7h-2.3
					c-0.3-0.5-0.8-1.4-1.1-2.3c-0.8-1.8-2-2.6-4-2.6h-0.4v4.9h-2.2v-11.2H1656z"/>
				<path class="st9" d="M1665.8,532.4c0-1.4-0.1-2.6-0.1-3.7h2l0.1,1.9h0.1c0.9-1.4,2.3-2.2,4.3-2.2c2.9,0,5.1,2.3,5.1,5.7
					c0,4-2.7,6-5.5,6c-1.6,0-3-0.6-3.7-1.8h-0.1v6.1h-2.2V532.4z M1668,535.4c0,0.3,0.1,0.6,0.1,0.8c0.4,1.4,1.7,2.4,3.3,2.4
					c2.3,0,3.7-1.8,3.7-4.3c0-2.2-1.3-4.2-3.6-4.2c-1.5,0-2.9,1-3.3,2.5c-0.1,0.3-0.2,0.6-0.2,0.8V535.4z"/>
				<path class="st9" d="M1681.3,534.7c0.1,2.8,2,3.9,4.2,3.9c1.6,0,2.5-0.3,3.4-0.6l0.4,1.5c-0.8,0.3-2.1,0.7-4,0.7
					c-3.7,0-6-2.3-6-5.7c0-3.4,2.2-6,5.7-6c4,0,5,3.2,5,5.3c0,0.4-0.1,0.7-0.1,1H1681.3z M1687.8,533.3c0-1.3-0.6-3.3-3.1-3.3
					c-2.2,0-3.2,1.9-3.4,3.3H1687.8z"/>
				<path class="st9" d="M1701.2,539.6c-0.6,0.3-1.9,0.6-3.5,0.6c-3.7,0-6-2.3-6-5.7c0-3.5,2.6-6,6.5-6c1.3,0,2.5,0.3,3.1,0.6
					l-0.5,1.6c-0.5-0.3-1.4-0.5-2.6-0.5c-2.8,0-4.3,1.9-4.3,4.2c0,2.6,1.8,4.2,4.2,4.2c1.3,0,2.1-0.3,2.7-0.6L1701.2,539.6z"/>
				<path class="st9" d="M1712.4,528.8v1.6h-3.8v9.6h-2.2v-9.6h-3.8v-1.6H1712.4z"/>
				<path class="st9" d="M1725,534.3c0,4.1-3.1,6-6,6c-3.3,0-5.8-2.2-5.8-5.8c0-3.8,2.7-6,6-6C1722.6,528.5,1725,530.9,1725,534.3z
					 M1715.4,534.4c0,2.5,1.5,4.3,3.7,4.3c2.1,0,3.7-1.8,3.7-4.4c0-1.9-1-4.3-3.6-4.3C1716.5,530,1715.4,532.3,1715.4,534.4z"/>
				<path class="st9" d="M1729.9,528.8v4.9h0.5l4.6-4.9h2.7l-5.3,5.1c2,0.2,3.1,1.4,4.1,3.4c0.3,0.7,0.8,1.8,1.3,2.7h-2.3
					c-0.3-0.5-0.8-1.4-1.1-2.3c-0.8-1.8-2-2.6-4-2.6h-0.4v4.9h-2.2v-11.2H1729.9z"/>
			</g>
			<g>
				<path class="st9" d="M1374.9,378.7c1-0.2,2.5-0.3,4-0.3c2.2,0,3.6,0.3,4.6,1.1c0.9,0.6,1.4,1.5,1.4,2.8c0,1.5-1.1,2.8-2.9,3.4v0
					c1.6,0.4,3.5,1.6,3.5,3.9c0,1.3-0.6,2.4-1.4,3.1c-1.2,1-3.1,1.5-5.8,1.5c-1.5,0-2.7-0.1-3.4-0.2V378.7z M1377.1,385.1h2
					c2.3,0,3.7-1.1,3.7-2.6c0-1.8-1.5-2.5-3.7-2.5c-1,0-1.6,0.1-1.9,0.1V385.1z M1377.1,392.6c0.4,0.1,1.1,0.1,1.8,0.1
					c2.3,0,4.3-0.8,4.3-3c0-2.1-2-3-4.4-3h-1.8V392.6z"/>
				<path class="st9" d="M1389.7,388.9c0.1,2.8,2,3.9,4.2,3.9c1.6,0,2.5-0.3,3.4-0.6l0.4,1.5c-0.8,0.3-2.1,0.7-4,0.7
					c-3.7,0-6-2.3-6-5.7c0-3.4,2.2-6,5.7-6c4,0,5,3.2,5,5.3c0,0.4-0.1,0.7-0.1,0.9H1389.7z M1396.1,387.5c0-1.3-0.6-3.3-3.1-3.3
					c-2.2,0-3.2,1.9-3.4,3.3H1396.1z"/>
				<path class="st9" d="M1409.1,382.9v1.6h-3.8v9.6h-2.2v-9.6h-3.8v-1.6H1409.1z"/>
				<path class="st9" d="M1413.1,382.9v4.5h5.8v-4.5h2.2v11.2h-2.2v-5.1h-5.8v5.1h-2.2v-11.2H1413.1z"/>
				<path class="st9" d="M1431.4,394.2l-0.2-1.4h-0.1c-0.7,0.9-2,1.7-3.7,1.7c-2.5,0-3.7-1.6-3.7-3.2c0-2.7,2.6-4.2,7.3-4.2v-0.2
					c0-0.9-0.3-2.6-2.8-2.6c-1.1,0-2.3,0.3-3.2,0.8l-0.5-1.3c1-0.6,2.5-1,4-1c3.7,0,4.6,2.3,4.6,4.6v4.2c0,1,0.1,1.9,0.2,2.7H1431.4
					z M1431.1,388.4c-2.4,0-5.1,0.3-5.1,2.5c0,1.3,1,1.9,2.1,1.9c1.6,0,2.6-0.9,2.9-1.9c0.1-0.2,0.1-0.4,0.1-0.6V388.4z"/>
			</g>
			<g>
				<path class="st9" d="M1182.2,378.5v15.6h-2.2v-13.9h-5.6v4.7c0,3.4-0.2,7.2-2.5,8.6c-0.6,0.4-1.6,0.7-2.6,0.7l-0.3-1.6
					c0.7-0.1,1.4-0.5,1.8-0.8c1.4-1.2,1.5-4.3,1.5-6.8v-6.6H1182.2z"/>
				<path class="st9" d="M1192.6,394.2l-0.2-1.4h-0.1c-0.7,0.9-2,1.7-3.7,1.7c-2.5,0-3.7-1.6-3.7-3.2c0-2.7,2.6-4.2,7.3-4.2v-0.2
					c0-0.9-0.3-2.6-2.8-2.6c-1.1,0-2.3,0.3-3.2,0.8l-0.5-1.3c1-0.6,2.5-1,4-1c3.7,0,4.6,2.3,4.6,4.6v4.2c0,1,0.1,1.9,0.2,2.7H1192.6
					z M1192.3,388.4c-2.4,0-5.1,0.3-5.1,2.5c0,1.3,1,1.9,2.1,1.9c1.6,0,2.6-0.9,2.9-1.9c0.1-0.2,0.1-0.4,0.1-0.6V388.4z"/>
				<path class="st9" d="M1207.9,382.9v11.2h-2.2v-9.6h-5.6v9.6h-2.2v-11.2H1207.9z"/>
				<path class="st9" d="M1222.4,388.5c0,4.1-3.1,6-6,6c-3.3,0-5.8-2.2-5.8-5.8c0-3.8,2.7-6,6-6
					C1220.1,382.7,1222.4,385,1222.4,388.5z M1212.8,388.6c0,2.5,1.5,4.3,3.7,4.3c2.1,0,3.7-1.8,3.7-4.4c0-1.9-1-4.3-3.6-4.3
					C1214,384.2,1212.8,386.4,1212.8,388.6z"/>
				<path class="st9" d="M1233.2,382.9v1.6h-3.8v9.6h-2.2v-9.6h-3.8v-1.6H1233.2z"/>
				<path class="st9" d="M1245.8,388.5c0,4.1-3.1,6-6,6c-3.3,0-5.8-2.2-5.8-5.8c0-3.8,2.7-6,6-6
					C1243.4,382.7,1245.8,385,1245.8,388.5z M1236.2,388.6c0,2.5,1.5,4.3,3.7,4.3c2.1,0,3.7-1.8,3.7-4.4c0-1.9-1-4.3-3.6-4.3
					C1237.3,384.2,1236.2,386.4,1236.2,388.6z"/>
				<path class="st9" d="M1250.7,382.9v4.9h0.5l4.6-4.9h2.7l-5.3,5.1c2,0.2,3.1,1.4,4.1,3.4c0.3,0.7,0.8,1.8,1.3,2.7h-2.3
					c-0.3-0.5-0.8-1.4-1.1-2.3c-0.8-1.8-2-2.6-4-2.6h-0.4v4.9h-2.2v-11.2H1250.7z"/>
			</g>
			<g>
				<path class="st9" d="M1020.3,378.7c1.1-0.2,2.4-0.3,4.2-0.3c2.2,0,3.7,0.5,4.7,1.3c0.9,0.7,1.5,1.9,1.5,3.3
					c0,1.4-0.5,2.5-1.3,3.3c-1.2,1.1-3,1.7-5.2,1.7c-0.7,0-1.3,0-1.8-0.1v6.3h-2.2V378.7z M1022.5,386.3c0.5,0.1,1.1,0.2,1.8,0.2
					c2.6,0,4.2-1.2,4.2-3.3c0-2.1-1.6-3.1-4-3.1c-1,0-1.7,0.1-2.1,0.2V386.3z"/>
				<path class="st9" d="M1048.1,386.2c0,5.4-3.5,8.2-7.8,8.2c-4.5,0-7.6-3.2-7.6-7.9c0-5,3.3-8.2,7.8-8.2
					C1045.1,378.3,1048.1,381.6,1048.1,386.2z M1035,386.4c0,3.3,2,6.3,5.4,6.3c3.5,0,5.4-2.9,5.4-6.5c0-3.1-1.8-6.3-5.4-6.3
					C1036.8,379.9,1035,383,1035,386.4z"/>
				<path class="st9" d="M1050.9,378.5h2.2v13.9h7.2v1.7h-9.4V378.5z"/>
				<path class="st9" d="M1065.4,389.2l-1.8,4.9h-2.3l5.7-15.6h2.6l5.8,15.6h-2.3l-1.8-4.9H1065.4z M1071,387.7l-1.7-4.5
					c-0.4-1-0.6-1.9-0.9-2.8h-0.1c-0.3,0.9-0.5,1.9-0.9,2.8l-1.7,4.5H1071z"/>
				<path class="st9" d="M1078,378.7c1.1-0.2,2.7-0.3,4.2-0.3c2.3,0,3.8,0.4,4.9,1.3c0.9,0.7,1.3,1.8,1.3,3c0,2.1-1.4,3.4-3.2,4v0.1
					c1.3,0.4,2.1,1.5,2.5,3.2c0.6,2.2,1,3.7,1.3,4.3h-2.3c-0.3-0.4-0.7-1.8-1.1-3.7c-0.5-2.2-1.4-3-3.4-3h-2.1v6.8h-2.2V378.7z
					 M1080.2,385.9h2.2c2.3,0,3.8-1.2,3.8-3c0-2-1.6-2.9-3.9-2.9c-1.1,0-1.8,0.1-2.2,0.2V385.9z"/>
				<path class="st9" d="M1093.7,378.5v15.6h-2.2v-15.6H1093.7z"/>
				<path class="st9" d="M1097.2,391.7c1,0.6,2.4,1,3.9,1c2.2,0,3.5-1.1,3.5-2.7c0-1.5-0.9-2.3-3.2-3.1c-2.8-0.9-4.5-2.2-4.5-4.4
					c0-2.4,2.2-4.2,5.5-4.2c1.7,0,3,0.4,3.7,0.8l-0.6,1.6c-0.6-0.3-1.7-0.7-3.2-0.7c-2.3,0-3.2,1.3-3.2,2.3c0,1.5,1,2.2,3.4,3
					c2.9,1,4.3,2.3,4.3,4.6c0,2.4-1.9,4.5-5.9,4.5c-1.6,0-3.4-0.4-4.3-1L1097.2,391.7z"/>
			</g>
			<g>
				<path class="st9" d="M994.6,548.6c-0.6,0.3-1.9,0.6-3.5,0.6c-3.7,0-6.5-2.2-6.5-6.1c0-3.8,2.8-6.4,6.8-6.4
					c1.6,0,2.7,0.3,3.1,0.5l-0.4,1.3c-0.6-0.3-1.6-0.5-2.6-0.5c-3.1,0-5.1,1.8-5.1,5c0,3,1.8,4.9,5,4.9c1,0,2.1-0.2,2.8-0.5
					L994.6,548.6z"/>
				<path class="st9" d="M1001.7,549l-0.1-1.1h-0.1c-0.5,0.7-1.5,1.3-2.9,1.3c-1.9,0-2.9-1.2-2.9-2.5c0-2.1,2-3.3,5.7-3.2v-0.2
					c0-0.7-0.2-2-2.1-2c-0.9,0-1.8,0.3-2.5,0.6l-0.4-1c0.8-0.5,1.9-0.8,3.1-0.8c2.9,0,3.6,1.8,3.6,3.6v3.3c0,0.8,0,1.5,0.2,2.1
					H1001.7z M1001.5,544.5c-1.9,0-4,0.3-4,2c0,1,0.7,1.5,1.6,1.5c1.2,0,2-0.7,2.3-1.5c0.1-0.2,0.1-0.3,0.1-0.5V544.5z"/>
				<path class="st9" d="M1005.9,536.2h1.7V549h-1.7V536.2z"/>
				<path class="st9" d="M1009.4,548.1l4.3-5.1c0.4-0.5,0.8-0.9,1.2-1.4v0h-5.1v-1.3h7.2l0,1l-4.2,5.1c-0.4,0.5-0.8,0.9-1.2,1.4v0
					h5.5v1.3h-7.6V548.1z"/>
				<path class="st9" d="M1019.6,544.9c0,2.1,1.5,3,3.2,3c1.2,0,2-0.2,2.6-0.5l0.3,1.1c-0.6,0.3-1.6,0.5-3.1,0.5
					c-2.9,0-4.6-1.8-4.6-4.4c0-2.6,1.7-4.7,4.4-4.7c3.1,0,3.9,2.5,3.9,4.1c0,0.3,0,0.6-0.1,0.7H1019.6z M1024.6,543.8
					c0-1-0.4-2.6-2.4-2.6c-1.7,0-2.5,1.5-2.6,2.6H1024.6z"/>
				<path class="st9" d="M1036.6,536.2v10.5c0,0.8,0,1.7,0.1,2.3h-1.5l-0.1-1.5h0c-0.5,1-1.7,1.7-3.2,1.7c-2.3,0-4-1.8-4-4.4
					c0-2.9,1.9-4.7,4.2-4.7c1.4,0,2.4,0.6,2.8,1.3h0v-5.2H1036.6z M1034.8,543.8c0-0.2,0-0.5-0.1-0.7c-0.3-1-1.2-1.8-2.5-1.8
					c-1.8,0-2.8,1.4-2.8,3.4c0,1.8,0.9,3.2,2.8,3.2c1.1,0,2.2-0.7,2.5-1.9c0.1-0.2,0.1-0.4,0.1-0.7V543.8z"/>
				<path class="st9" d="M1047.9,544.6c0,3.2-2.4,4.6-4.7,4.6c-2.5,0-4.5-1.7-4.5-4.5c0-2.9,2.1-4.6,4.7-4.6
					C1046.1,540.1,1047.9,541.9,1047.9,544.6z M1040.5,544.6c0,1.9,1.2,3.4,2.9,3.4c1.6,0,2.9-1.4,2.9-3.4c0-1.5-0.8-3.4-2.8-3.4
					C1041.3,541.3,1040.5,543,1040.5,544.6z"/>
				<path class="st9" d="M1050.1,542.6c0-0.9,0-1.6-0.1-2.4h1.5l0.1,1.4h0c0.5-0.8,1.6-1.6,3.1-1.6c1.3,0,3.3,0.7,3.3,3.7v5.2h-1.7
					v-5c0-1.4-0.6-2.6-2.2-2.6c-1.1,0-2,0.7-2.3,1.6c-0.1,0.2-0.1,0.5-0.1,0.7v5.2h-1.7V542.6z"/>
				<path class="st9" d="M1062.8,537.8c0,0.5-0.4,1-1.1,1c-0.6,0-1-0.4-1-1c0-0.6,0.4-1,1.1-1
					C1062.4,536.8,1062.8,537.3,1062.8,537.8z M1060.9,549v-8.7h1.7v8.7H1060.9z"/>
				<path class="st9" d="M1070.7,549l-0.1-1.1h-0.1c-0.5,0.7-1.5,1.3-2.9,1.3c-1.9,0-2.9-1.2-2.9-2.5c0-2.1,2-3.3,5.7-3.2v-0.2
					c0-0.7-0.2-2-2.1-2c-0.9,0-1.8,0.3-2.5,0.6l-0.4-1c0.8-0.5,1.9-0.8,3.1-0.8c2.9,0,3.6,1.8,3.6,3.6v3.3c0,0.8,0,1.5,0.2,2.1
					H1070.7z M1070.4,544.5c-1.9,0-4,0.3-4,2c0,1,0.7,1.5,1.6,1.5c1.2,0,2-0.7,2.3-1.5c0.1-0.2,0.1-0.3,0.1-0.5V544.5z"/>
			</g>
			<g>
				<path class="st9" d="M1272.5,522.4l-1.4,3.8h-1.8l4.5-12.1h2l4.5,12.1h-1.8l-1.4-3.8H1272.5z M1276.8,521.2l-1.3-3.5
					c-0.3-0.8-0.5-1.5-0.7-2.2h0c-0.2,0.7-0.4,1.5-0.7,2.2l-1.3,3.5H1276.8z"/>
				<path class="st9" d="M1290,517.5v8.7h-1.7v-7.5h-4.4v7.5h-1.7v-8.7H1290z"/>
				<path class="st9" d="M1299.1,517.5v1.3h-2.9v7.5h-1.7v-7.5h-2.9v-1.3H1299.1z"/>
				<path class="st9" d="M1301.3,522.2c0,2.1,1.5,3,3.2,3c1.2,0,2-0.2,2.6-0.5l0.3,1.1c-0.6,0.3-1.6,0.5-3.1,0.5
					c-2.9,0-4.6-1.8-4.6-4.4c0-2.6,1.7-4.7,4.4-4.7c3.1,0,3.9,2.5,3.9,4.1c0,0.3,0,0.6-0.1,0.7H1301.3z M1306.3,521.1
					c0-1-0.4-2.6-2.4-2.6c-1.7,0-2.5,1.5-2.6,2.6H1306.3z"/>
				<path class="st9" d="M1311.8,517.5v3.8h0.4l3.5-3.8h2.1l-4.1,3.9c1.5,0.1,2.4,1.1,3.2,2.6c0.3,0.6,0.6,1.4,1,2.1h-1.8
					c-0.3-0.4-0.6-1.1-0.9-1.8c-0.6-1.4-1.5-2.1-3.1-2.1h-0.3v3.8h-1.7v-8.7H1311.8z"/>
				<path class="st9" d="M1324.8,526.3l-0.1-1.1h-0.1c-0.5,0.7-1.5,1.3-2.9,1.3c-1.9,0-2.9-1.2-2.9-2.5c0-2.1,2-3.3,5.7-3.2v-0.2
					c0-0.7-0.2-2-2.1-2c-0.9,0-1.8,0.3-2.5,0.6l-0.4-1c0.8-0.5,1.9-0.8,3.1-0.8c2.9,0,3.6,1.8,3.6,3.6v3.3c0,0.8,0,1.5,0.2,2.1
					H1324.8z M1324.6,521.8c-1.9,0-4,0.3-4,2c0,1,0.7,1.5,1.6,1.5c1.2,0,2-0.7,2.3-1.5c0.1-0.2,0.1-0.3,0.1-0.5V521.8z"/>
			</g>
			<g>
				<path class="st9" d="M1276,562.4v12.1h-1.7v-12.1H1276z"/>
				<path class="st9" d="M1282.9,569.1v1.2h-4.8v-1.2H1282.9z"/>
				<path class="st9" d="M1284.7,572.6c0.8,0.4,1.9,0.8,3,0.8c1.7,0,2.7-0.8,2.7-2.1c0-1.1-0.7-1.8-2.5-2.4
					c-2.1-0.7-3.5-1.7-3.5-3.4c0-1.9,1.7-3.3,4.2-3.3c1.3,0,2.3,0.3,2.9,0.6l-0.5,1.3c-0.4-0.2-1.3-0.6-2.5-0.6
					c-1.8,0-2.5,1-2.5,1.8c0,1.1,0.8,1.7,2.6,2.3c2.2,0.8,3.3,1.8,3.3,3.6c0,1.9-1.5,3.5-4.6,3.5c-1.3,0-2.6-0.3-3.3-0.8
					L1284.7,572.6z"/>
				<path class="st9" d="M1297,563.7h-4v-1.3h9.7v1.3h-4v10.8h-1.7V563.7z"/>
				<path class="st9" d="M1304.9,570.7l-1.4,3.8h-1.8l4.5-12.1h2l4.5,12.1h-1.8l-1.4-3.8H1304.9z M1309.2,569.5l-1.3-3.5
					c-0.3-0.8-0.5-1.5-0.7-2.2h0c-0.2,0.7-0.4,1.5-0.7,2.2l-1.3,3.5H1309.2z"/>
				<path class="st9" d="M1314.6,562.5c0.9-0.2,2.1-0.3,3.2-0.3c1.8,0,3,0.3,3.8,1c0.7,0.5,1,1.4,1,2.3c0,1.6-1.1,2.7-2.5,3.1v0.1
					c1,0.3,1.6,1.2,1.9,2.5c0.4,1.7,0.7,2.9,1,3.3h-1.8c-0.2-0.3-0.5-1.4-0.9-2.9c-0.4-1.7-1.1-2.3-2.6-2.4h-1.6v5.3h-1.7V562.5z
					 M1316.3,568.1h1.7c1.8,0,3-0.9,3-2.3c0-1.6-1.2-2.3-3-2.3c-0.8,0-1.4,0.1-1.7,0.1V568.1z"/>
			</g>
			<g>
				<path class="st9" d="M1357.2,516v15.6h-2.2V516H1357.2z"/>
				<path class="st9" d="M1374.9,533.9c-2.3-0.6-4.5-1.2-6.5-1.8c-0.4-0.1-0.7-0.2-1-0.2c-4-0.1-7.4-2.9-7.4-7.9
					c0-5,3.3-8.2,7.9-8.2c4.6,0,7.6,3.3,7.6,7.9c0,4-2,6.6-4.8,7.5v0.1c1.7,0.4,3.5,0.8,4.9,1L1374.9,533.9z M1373.1,523.8
					c0-3.1-1.8-6.3-5.3-6.3c-3.7,0-5.5,3.2-5.5,6.5c0,3.3,2,6.3,5.4,6.3C1371.2,530.2,1373.1,527.3,1373.1,523.8z"/>
				<path class="st9" d="M1392.7,523.7c0,5.4-3.5,8.2-7.8,8.2c-4.5,0-7.6-3.2-7.6-7.9c0-5,3.3-8.2,7.8-8.2
					C1389.7,515.8,1392.7,519,1392.7,523.7z M1379.6,523.9c0,3.3,2,6.3,5.4,6.3c3.5,0,5.4-2.9,5.4-6.5c0-3.1-1.8-6.3-5.4-6.3
					C1381.4,517.4,1379.6,520.5,1379.6,523.9z"/>
				<path class="st9" d="M1395.2,529.2c1,0.6,2.4,1,3.9,1c2.2,0,3.5-1.1,3.5-2.7c0-1.5-0.9-2.3-3.2-3.1c-2.8-0.9-4.5-2.2-4.5-4.4
					c0-2.4,2.2-4.2,5.5-4.2c1.7,0,3,0.4,3.7,0.8l-0.6,1.6c-0.6-0.3-1.7-0.7-3.2-0.7c-2.3,0-3.2,1.3-3.2,2.3c0,1.5,1,2.2,3.4,3
					c2.9,1,4.3,2.3,4.3,4.6c0,2.4-1.9,4.5-5.9,4.5c-1.6,0-3.4-0.4-4.3-1L1395.2,529.2z"/>
			</g>
			<g>
				<path class="st9" d="M1350,555.9v3.9c0,1.7,0.9,2.6,2.8,2.6c0.9,0,1.9-0.3,2.6-0.7v-5.8h1.7V568h-1.7v-5.2h0
					c-0.9,0.5-2,0.8-3.2,0.8c-1.7,0-3.9-0.7-3.9-3.7v-4.1H1350z"/>
				<path class="st9" d="M1365.2,568l-0.1-1.1h-0.1c-0.5,0.7-1.5,1.3-2.9,1.3c-1.9,0-2.9-1.2-2.9-2.5c0-2.1,2-3.3,5.7-3.2v-0.2
					c0-0.7-0.2-2-2.1-2c-0.9,0-1.8,0.3-2.5,0.6l-0.4-1c0.8-0.5,1.9-0.8,3.1-0.8c2.9,0,3.6,1.8,3.6,3.6v3.3c0,0.8,0,1.5,0.2,2.1
					H1365.2z M1364.9,563.6c-1.9,0-4,0.3-4,2c0,1,0.7,1.5,1.6,1.5c1.2,0,2-0.7,2.3-1.5c0.1-0.2,0.1-0.3,0.1-0.5V563.6z"/>
				<path class="st9" d="M1370.9,559.3v3.7c0,1.4,0,2.3-0.1,3.5l0.1,0c0.6-1.1,0.9-1.7,1.5-2.7l2.9-4.5h2v8.7h-1.6v-3.7
					c0-1.4,0-2.2,0.1-3.6h-0.1c-0.6,1.1-1,1.8-1.6,2.7c-0.9,1.4-1.9,3-2.9,4.6h-2v-8.7H1370.9z M1372.1,555.7
					c0.1,0.8,0.5,1.4,1.2,1.4c0.8,0,1.2-0.6,1.3-1.4h1.2c-0.1,1.5-1.1,2.2-2.6,2.2c-1.7,0-2.4-1-2.5-2.2H1372.1z"/>
				<path class="st9" d="M1381.8,559.3v3.5h4.5v-3.5h1.7v8.7h-1.7v-3.9h-4.5v3.9h-1.7v-8.7H1381.8z"/>
				<path class="st9" d="M1399.3,563.6c0,3.2-2.4,4.6-4.7,4.6c-2.5,0-4.5-1.7-4.5-4.5c0-2.9,2.1-4.6,4.7-4.6
					C1397.5,559.1,1399.3,560.9,1399.3,563.6z M1391.8,563.7c0,1.9,1.2,3.4,2.9,3.4c1.6,0,2.9-1.4,2.9-3.4c0-1.5-0.8-3.4-2.8-3.4
					C1392.7,560.3,1391.8,562,1391.8,563.7z"/>
				<path class="st9" d="M1402.4,563.9c0,2.1,1.5,3,3.2,3c1.2,0,2-0.2,2.6-0.5l0.3,1.1c-0.6,0.3-1.6,0.5-3.1,0.5
					c-2.9,0-4.6-1.8-4.6-4.4c0-2.6,1.7-4.7,4.4-4.7c3.1,0,3.9,2.5,3.9,4.1c0,0.3,0,0.6-0.1,0.7H1402.4z M1407.4,562.8
					c0-1-0.4-2.6-2.4-2.6c-1.7,0-2.5,1.5-2.6,2.6H1407.4z"/>
				<path class="st9" d="M1356.5,574.7v7.5l1,0l-0.1,3.9h-1.3l-0.1-2.8h-6.5l-0.1,2.8h-1.3l-0.1-3.9l0.8,0c0.4-0.6,0.7-1.2,0.9-1.8
					c0.4-1.1,0.5-2.3,0.5-3.5v-2.3H1356.5z M1351.7,577.4c0,1.2-0.2,2.3-0.5,3.2c-0.2,0.6-0.5,1.1-0.8,1.6h4.3v-6.3h-3.1V577.4z"/>
				<path class="st9" d="M1360.4,579.4c0,2.1,1.5,3,3.2,3c1.2,0,2-0.2,2.6-0.5l0.3,1.1c-0.6,0.3-1.6,0.5-3.1,0.5
					c-2.9,0-4.6-1.8-4.6-4.4c0-2.6,1.7-4.7,4.4-4.7c3.1,0,3.9,2.5,3.9,4.1c0,0.3,0,0.6-0.1,0.7H1360.4z M1365.4,578.2
					c0-1-0.4-2.6-2.4-2.6c-1.7,0-2.5,1.5-2.6,2.6H1365.4z"/>
				<path class="st9" d="M1369.2,577.6c0-1.1,0-2-0.1-2.8h1.5l0.1,1.5h0c0.7-1.1,1.8-1.7,3.3-1.7c2.3,0,4,1.8,4,4.4
					c0,3.1-2.1,4.7-4.3,4.7c-1.2,0-2.3-0.5-2.9-1.4h0v4.7h-1.7V577.6z M1370.9,579.9c0,0.2,0,0.5,0.1,0.6c0.3,1.1,1.3,1.9,2.6,1.9
					c1.8,0,2.9-1.4,2.9-3.4c0-1.7-1-3.2-2.8-3.2c-1.2,0-2.3,0.8-2.6,2c-0.1,0.2-0.1,0.4-0.1,0.6V579.9z"/>
				<path class="st9" d="M1381.2,579.4c0,2.1,1.5,3,3.2,3c1.2,0,2-0.2,2.6-0.5l0.3,1.1c-0.6,0.3-1.6,0.5-3.1,0.5
					c-2.9,0-4.6-1.8-4.6-4.4c0-2.6,1.7-4.7,4.4-4.7c3.1,0,3.9,2.5,3.9,4.1c0,0.3,0,0.6-0.1,0.7H1381.2z M1386.2,578.2
					c0-1-0.4-2.6-2.4-2.6c-1.7,0-2.5,1.5-2.6,2.6H1386.2z"/>
				<path class="st9" d="M1390,574.8c0.7-0.1,1.9-0.2,3-0.2c1.6,0,4.2,0.2,4.2,2.2c0,1.1-0.9,1.7-2,2v0c1.4,0.2,2.4,0.9,2.4,2.2
					c0,2.3-3.1,2.6-5,2.6c-1.1,0-2.1-0.1-2.6-0.1V574.8z M1391.6,582.4c0.5,0.1,0.8,0.1,1.4,0.1c1.1,0,2.9-0.3,2.9-1.5
					s-1.4-1.5-3-1.5h-1.2V582.4z M1391.6,578.4h1.3c1.3,0,2.6-0.3,2.6-1.4c0-0.9-0.8-1.3-2.5-1.3c-0.6,0-0.9,0-1.3,0.1V578.4z"/>
				<path class="st9" d="M1408.2,579c0,3.2-2.4,4.6-4.7,4.6c-2.5,0-4.5-1.7-4.5-4.5c0-2.9,2.1-4.6,4.7-4.6
					C1406.4,574.5,1408.2,576.4,1408.2,579z M1400.8,579.1c0,1.9,1.2,3.4,2.9,3.4c1.6,0,2.9-1.4,2.9-3.4c0-1.5-0.8-3.4-2.8-3.4
					C1401.6,575.7,1400.8,577.5,1400.8,579.1z"/>
			</g>
			<g>
				<path class="st9" d="M836,418.4v6.9h-1v-6.9H836z"/>
				<path class="st9" d="M840,422.2v0.7h-2.7v-0.7H840z"/>
				<path class="st9" d="M841.1,421.7c0-0.5,0-0.9,0-1.3h0.9l0,0.8h0c0.3-0.5,0.8-0.9,1.7-0.9c0.7,0,1.3,0.4,1.5,1h0
					c0.2-0.3,0.4-0.5,0.6-0.6c0.3-0.2,0.7-0.4,1.2-0.4c0.7,0,1.8,0.4,1.8,2.2v2.9h-1v-2.8c0-1-0.4-1.5-1.2-1.5c-0.6,0-1,0.4-1.2,0.8
					c0,0.1-0.1,0.3-0.1,0.5v3.1h-1v-3c0-0.8-0.4-1.4-1.1-1.4c-0.6,0-1.1,0.5-1.2,0.9c-0.1,0.1-0.1,0.3-0.1,0.4v3h-1V421.7z"/>
				<path class="st9" d="M853.4,425.3l-0.1-0.6h0c-0.3,0.4-0.9,0.7-1.6,0.7c-1.1,0-1.6-0.7-1.6-1.4c0-1.2,1.2-1.9,3.2-1.9v-0.1
					c0-0.4-0.1-1.2-1.2-1.2c-0.5,0-1,0.1-1.4,0.4l-0.2-0.6c0.4-0.3,1.1-0.4,1.8-0.4c1.6,0,2,1,2,2v1.9c0,0.4,0,0.9,0.1,1.2H853.4z
					 M853.2,422.8c-1.1,0-2.3,0.2-2.3,1.1c0,0.6,0.4,0.9,0.9,0.9c0.7,0,1.1-0.4,1.3-0.8c0-0.1,0.1-0.2,0.1-0.3V422.8z"/>
				<path class="st9" d="M855.8,421.9c0-0.6,0-1.1,0-1.6h0.9l0,1h0c0.2-0.7,0.8-1.1,1.5-1.1c0.1,0,0.2,0,0.3,0v0.9
					c-0.1,0-0.2,0-0.3,0c-0.7,0-1.2,0.5-1.3,1.2c0,0.1,0,0.3,0,0.4v2.7h-1V421.9z"/>
				<path class="st9" d="M860.4,422.6L860.4,422.6c0.2-0.2,0.3-0.4,0.5-0.6l1.6-1.7h1.2l-2.1,2l2.4,2.9h-1.2l-1.9-2.4l-0.5,0.5v1.9
					h-1V418h1V422.6z"/>
				<path class="st9" d="M865.2,423c0,1.2,0.9,1.7,1.8,1.7c0.7,0,1.1-0.1,1.5-0.3l0.2,0.6c-0.3,0.1-0.9,0.3-1.8,0.3
					c-1.7,0-2.6-1-2.6-2.5s1-2.7,2.5-2.7c1.8,0,2.2,1.4,2.2,2.3c0,0.2,0,0.3,0,0.4H865.2z M868.1,422.4c0-0.6-0.3-1.5-1.4-1.5
					c-1,0-1.4,0.8-1.5,1.5H868.1z"/>
				<path class="st9" d="M871.4,418.9v1.4h1.4v0.7h-1.4v2.7c0,0.6,0.2,1,0.7,1c0.3,0,0.4,0,0.6-0.1l0,0.7c-0.2,0.1-0.5,0.1-0.9,0.1
					c-0.5,0-0.8-0.1-1.1-0.4c-0.3-0.3-0.4-0.7-0.4-1.3V421h-0.8v-0.7h0.8v-1.2L871.4,418.9z"/>
			</g>
			<g>
				<path class="st9" d="M930.7,514.2c0.5-0.3,1.2-0.6,2.1-0.6c1.4,0,2.4,0.7,2.4,1.8c0,0.9-0.7,1.6-1.7,1.8v0c1.1,0.1,2,0.8,2,1.9
					c0,1.5-1.4,2.2-2.9,2.2c-0.7,0-1.5-0.1-2.1-0.5l0.3-0.7c0.4,0.2,1.1,0.5,1.8,0.5c1.2,0,1.8-0.6,1.8-1.4c0-1.1-1.2-1.4-2.2-1.4
					h-0.5v-0.7h0.5c1.1,0,1.9-0.6,1.9-1.4c0-0.7-0.6-1.2-1.4-1.2c-0.6,0-1.2,0.2-1.7,0.5L930.7,514.2z"/>
				<path class="st9" d="M942,518.5c0,2-1.5,2.8-2.9,2.8c-1.6,0-2.8-1.1-2.8-2.7c0-1.8,1.3-2.8,2.9-2.8
					C940.9,515.7,942,516.8,942,518.5z M937.5,518.5c0,1.2,0.7,2,1.7,2c1,0,1.7-0.9,1.7-2.1c0-0.9-0.5-2-1.7-2
					S937.5,517.5,937.5,518.5z"/>
				<path class="st9" d="M947.7,515.8v5.3h-1v-4.6h-2v1.4c0,1.5-0.2,2.5-0.9,3c-0.3,0.2-0.6,0.3-1.1,0.3l-0.1-0.8
					c0.2,0,0.4-0.1,0.6-0.2c0.5-0.4,0.6-1.1,0.6-2.3v-2.1H947.7z"/>
				<path class="st9" d="M954.6,518.5c0,2-1.5,2.8-2.9,2.8c-1.6,0-2.8-1.1-2.8-2.7c0-1.8,1.3-2.8,2.9-2.8
					C953.5,515.7,954.6,516.8,954.6,518.5z M950.1,518.5c0,1.2,0.7,2,1.7,2c1,0,1.7-0.9,1.7-2.1c0-0.9-0.5-2-1.7-2
					S950.1,517.5,950.1,518.5z"/>
				<path class="st9" d="M959.8,515.8v0.8H958v4.6h-1v-4.6h-1.8v-0.8H959.8z"/>
				<path class="st9" d="M965.7,518.5c0,2-1.5,2.8-2.9,2.8c-1.6,0-2.8-1.1-2.8-2.7c0-1.8,1.3-2.8,2.9-2.8
					C964.6,515.7,965.7,516.8,965.7,518.5z M961.2,518.5c0,1.2,0.7,2,1.7,2c1,0,1.7-0.9,1.7-2.1c0-0.9-0.5-2-1.7-2
					S961.2,517.5,961.2,518.5z"/>
				<path class="st9" d="M968,515.8v2.2c0,0.8,0,1.4-0.1,2.1l0,0c0.3-0.6,0.5-1,0.9-1.6l1.8-2.8h1.2v5.3h-1v-2.3
					c0-0.9,0-1.3,0.1-2.2h0c-0.4,0.7-0.6,1.1-1,1.7c-0.5,0.8-1.2,1.8-1.8,2.8H967v-5.3H968z M968.7,513.7c0,0.5,0.3,0.8,0.8,0.8
					c0.5,0,0.7-0.4,0.8-0.8h0.7c0,0.9-0.7,1.4-1.6,1.4c-1,0-1.5-0.6-1.5-1.4H968.7z"/>
				<path class="st9" d="M929.7,528v5.3h-1v-4.6H926v4.6h-1V528H929.7z"/>
				<path class="st9" d="M936.6,530.6c0,2-1.5,2.8-2.9,2.8c-1.6,0-2.8-1.1-2.8-2.7c0-1.8,1.3-2.8,2.9-2.8
					C935.5,527.8,936.6,529,936.6,530.6z M932.1,530.6c0,1.2,0.7,2,1.7,2c1,0,1.7-0.9,1.7-2.1c0-0.9-0.5-2-1.7-2
					S932.1,529.6,932.1,530.6z"/>
				<path class="st9" d="M942.3,528v4.6l0.6,0l-0.1,2.4H942l0-1.7h-4l0,1.7h-0.8l0-2.4l0.5,0c0.2-0.3,0.4-0.7,0.6-1.1
					c0.2-0.7,0.3-1.4,0.3-2.1V528H942.3z M939.4,529.6c0,0.7-0.1,1.4-0.3,2c-0.1,0.4-0.3,0.7-0.5,1h2.7v-3.9h-1.9V529.6z"/>
				<path class="st9" d="M948.2,533.1c-0.3,0.1-0.9,0.3-1.7,0.3c-1.7,0-2.9-1.1-2.9-2.7c0-1.6,1.2-2.8,3.1-2.8
					c0.6,0,1.2,0.1,1.5,0.3l-0.2,0.7c-0.2-0.1-0.6-0.3-1.2-0.3c-1.3,0-2,0.9-2,2c0,1.2,0.9,2,2,2c0.6,0,1-0.1,1.3-0.3L948.2,533.1z"
					/>
				<path class="st9" d="M954.6,530.6c0,2-1.5,2.8-2.9,2.8c-1.6,0-2.8-1.1-2.8-2.7c0-1.8,1.3-2.8,2.9-2.8
					C953.5,527.8,954.6,529,954.6,530.6z M950,530.6c0,1.2,0.7,2,1.7,2c1,0,1.7-0.9,1.7-2.1c0-0.9-0.5-2-1.7-2S950,529.6,950,530.6z
					"/>
				<path class="st9" d="M960.3,528v5.3h-1v-4.6h-2v1.4c0,1.5-0.2,2.5-0.9,3c-0.3,0.2-0.6,0.3-1.1,0.3l-0.1-0.8
					c0.2,0,0.4-0.1,0.6-0.2c0.5-0.4,0.6-1.1,0.6-2.3V528H960.3z"/>
				<path class="st9" d="M963,528v2.1h2.7V528h1v5.3h-1v-2.4H963v2.4h-1V528H963z"/>
				<path class="st9" d="M968.8,528l1.3,3.2c0.1,0.4,0.3,0.8,0.4,1.1h0c0.1-0.3,0.2-0.7,0.4-1.1l1.1-3.1h1.1l-1.6,3.8
					c-0.7,1.8-1.3,2.8-2,3.3c-0.5,0.4-1,0.6-1.3,0.6l-0.3-0.8c0.3-0.1,0.6-0.2,0.9-0.5c0.3-0.2,0.6-0.6,0.9-1.1
					c0-0.1,0.1-0.2,0.1-0.2c0-0.1,0-0.1-0.1-0.3l-2.1-4.9H968.8z"/>
				<path class="st9" d="M974.6,528l0.8,1.1c0.2,0.3,0.4,0.6,0.6,0.9h0c0.2-0.3,0.4-0.6,0.6-0.9l0.8-1.1h1.1l-2,2.6l2,2.8h-1.2
					l-0.8-1.2c-0.2-0.3-0.4-0.6-0.6-0.9h0c-0.2,0.3-0.4,0.6-0.6,0.9l-0.8,1.2h-1.2l2-2.7l-2-2.6H974.6z"/>
			</g>
			<g>
				<path class="st9" d="M930.8,560.3h1.5v7c0,2.8-1.5,3.6-3.4,3.6c-0.5,0-1.2-0.1-1.6-0.2l0.2-1.1c0.3,0.1,0.7,0.2,1.2,0.2
					c1.3,0,2.1-0.5,2.1-2.6V560.3z"/>
				<path class="st9" d="M940.5,565.8h-4.4v3.7h4.9v1.1h-6.3v-10.4h6.1v1.1h-4.6v3.3h4.4V565.8z"/>
				<path class="st9" d="M952.4,566.1c-0.1-1.5-0.2-3.2-0.2-4.5h-0.1c-0.4,1.2-0.9,2.5-1.4,4l-2,5h-1.1l-1.8-5c-0.5-1.5-1-2.8-1.3-4
					h0c0,1.3-0.1,3-0.2,4.6l-0.3,4.5h-1.4l0.8-10.4h1.9l1.9,5c0.5,1.3,0.9,2.4,1.1,3.5h0.1c0.3-1,0.7-2.2,1.2-3.5l2-5h1.9l0.7,10.4
					h-1.4L952.4,566.1z"/>
				<path class="st9" d="M962.1,565.8h-4.4v3.7h4.9v1.1h-6.3v-10.4h6.1v1.1h-4.6v3.3h4.4V565.8z"/>
				<path class="st9" d="M964.5,570.7v-10.4h1.6l3.6,5.3c0.8,1.2,1.5,2.3,2,3.4l0,0c-0.1-1.4-0.2-2.7-0.2-4.3v-4.4h1.4v10.4h-1.5
					l-3.6-5.3c-0.8-1.2-1.5-2.3-2.1-3.5l-0.1,0c0.1,1.3,0.1,2.6,0.1,4.3v4.4H964.5z"/>
				<path class="st9" d="M977,560.3v10.4h-1.5v-10.4H977z"/>
			</g>
			<g>
				<path class="st9" d="M950.1,427.6l-2.7,1.7c-1,0.7-1.7,1.1-2.4,1.5v0c0.7,0.4,1.4,0.7,2.4,1.4l2.7,1.6v1.9l-6.1-4l-6,3.9v-2
					l2.8-1.7c0.8-0.5,1.4-0.9,2.1-1.2v-0.1c-0.7-0.4-1.3-0.7-2.1-1.2l-2.8-1.8v-1.9l5.9,4l6.2-4.1V427.6z"/>
				<path class="st9" d="M941.4,422.2h3.7c1.4,0,2.3,0,3.5,0.1l0-0.1c-1.1-0.6-1.7-0.9-2.7-1.5l-4.5-2.9v-2h8.7v1.6h-3.7
					c-1.4,0-2.2,0-3.6-0.1v0.1c1.1,0.6,1.8,1,2.7,1.6c1.4,0.9,3,1.9,4.6,2.9v2h-8.7V422.2z"/>
				<path class="st9" d="M941.4,412.9v-2.1l4.4-1.7c0.6-0.2,1.7-0.6,2.4-0.9v0c-0.6-0.2-2-0.7-3-1.1l-3.8-1.5v-2.1l8.7-0.7v1.6
					l-4.2,0.2c-0.9,0.1-2.1,0.1-3.1,0.2v0.1c0.8,0.3,1.5,0.5,2.8,1l4.4,1.8v1.2l-4.3,1.7c-0.8,0.3-2.1,0.7-2.9,0.9v0.1
					c1,0,2.2,0.1,3.1,0.2l4.1,0.2v1.6L941.4,412.9z"/>
				<path class="st9" d="M941.4,399.2h2.9c1.1,0,1.9-0.4,1.9-1.9c0-0.7-0.3-1.5-0.6-2h-4.1v-1.7h8.7v1.7h-3.5v0
					c0.4,0.6,0.7,1.7,0.7,2.5c0,1.8-0.8,3.1-2.8,3.1h-3V399.2z"/>
				<path class="st9" d="M941.4,389.2h3.7c1.4,0,2.3,0,3.5,0.1l0-0.1c-1.1-0.6-1.7-0.9-2.7-1.5l-4.5-2.9v-2h8.7v1.6h-3.7
					c-1.4,0-2.2,0-3.6-0.1v0.1c1.1,0.6,1.8,1,2.7,1.6c1.4,0.9,3,1.9,4.6,2.9v2h-8.7V389.2z"/>
				<path class="st9" d="M949.8,373.2c0.2,0.4,0.5,1.4,0.5,2.7c0,2.8-1.8,4.7-4.5,4.7c-2.7,0-4.6-2-4.6-5.1c0-1,0.2-1.9,0.5-2.4
					l1.2,0.4c-0.2,0.4-0.4,1.1-0.4,2c0,2.2,1.5,3.3,3.3,3.3c2,0,3.3-1.4,3.3-3.3c0-1-0.2-1.6-0.4-2.1L949.8,373.2z"/>
				<path class="st9" d="M941.4,364.6h1.3v2.9h7.5v1.7h-7.5v2.9h-1.3V364.6z"/>
				<path class="st9" d="M941.4,361.4h3.8V361l-3.8-3.5v-2.1l3.9,4.1c0.1-1.5,1.1-2.4,2.6-3.2c0.6-0.3,1.4-0.6,2.1-1v1.8
					c-0.4,0.3-1.1,0.6-1.8,0.9c-1.4,0.6-2.1,1.5-2.1,3.1v0.3h3.8v1.7h-8.7V361.4z"/>
				<path class="st9" d="M950.1,348.3l-1.1,0.1v0.1c0.7,0.5,1.3,1.5,1.3,2.9c0,1.9-1.2,2.9-2.5,2.9c-2.1,0-3.3-2-3.2-5.7h-0.2
					c-0.7,0-2,0.2-2,2.1c0,0.9,0.3,1.8,0.6,2.5l-1,0.4c-0.5-0.8-0.8-1.9-0.8-3.1c0-2.9,1.8-3.6,3.6-3.6h3.3c0.8,0,1.5,0,2.1-0.2
					V348.3z M945.6,348.6c0,1.9,0.3,4,2,4c1,0,1.5-0.7,1.5-1.6c0-1.2-0.7-2-1.5-2.3c-0.2-0.1-0.3-0.1-0.5-0.1H945.6z"/>
				<path class="st9" d="M961.7,416.3l3.8,1.4v1.8l-12.1-4.5v-2l12.1-4.5v1.8l-3.8,1.4V416.3z M960.5,412l-3.5,1.3
					c-0.8,0.3-1.5,0.5-2.2,0.7v0c0.7,0.2,1.5,0.4,2.2,0.7l3.5,1.3V412z"/>
				<path class="st9" d="M956.8,400.9h1.3v2.9h7.5v1.7h-7.5v2.9h-1.3V400.9z"/>
				<path class="st9" d="M961.5,398.7c2.1,0,3-1.5,3-3.2c0-1.2-0.2-2-0.5-2.6l1.1-0.3c0.3,0.6,0.5,1.6,0.5,3.1
					c0,2.9-1.8,4.6-4.4,4.6c-2.6,0-4.7-1.7-4.7-4.4c0-3.1,2.5-3.9,4.1-3.9c0.3,0,0.6,0,0.7,0.1V398.7z M960.3,393.7
					c-1,0-2.6,0.4-2.6,2.4c0,1.7,1.5,2.5,2.6,2.6V393.7z"/>
				<path class="st9" d="M956.8,382.8h8.7v1.7h-7.5v3.2h2.3c2.5,0,4.1,0.3,4.8,1.5c0.3,0.5,0.5,1,0.5,1.9l-1.2,0.2
					c-0.1-0.3-0.2-0.7-0.4-0.9c-0.6-0.9-1.8-1-3.8-1h-3.5V382.8z"/>
				<path class="st9" d="M956.8,378.3h3c-0.1-0.4-0.1-1.1-0.1-1.6c0-2.1,0.6-4.4,2.9-4.4c0.9,0,1.5,0.4,2,1c0.8,1,1,2.7,1,4.1
					c0,1-0.1,1.8-0.1,2.5h-8.7V378.3z M964.4,378.3c0-0.3,0.1-0.7,0.1-1.3c0-1.3-0.4-2.9-1.9-2.9c-1.5,0-1.8,1.7-1.8,3
					c0,0.4,0,0.8,0.1,1.2H964.4z"/>
				<path class="st9" d="M961.5,369.3c2.1,0,3-1.5,3-3.2c0-1.2-0.2-2-0.5-2.6l1.1-0.3c0.3,0.6,0.5,1.6,0.5,3.1
					c0,2.9-1.8,4.6-4.4,4.6c-2.6,0-4.7-1.7-4.7-4.4c0-3.1,2.5-3.9,4.1-3.9c0.3,0,0.6,0,0.7,0.1V369.3z M960.3,364.3
					c-1,0-2.6,0.4-2.6,2.4c0,1.7,1.5,2.5,2.6,2.6V364.3z"/>
			</g>
			<g>
				<path class="st9" d="M845.8,566.8h15.6v2.2h-13.9v5.6h4.7c3.4,0,7.2,0.2,8.6,2.5c0.4,0.6,0.7,1.6,0.7,2.6L860,580
					c-0.1-0.7-0.5-1.4-0.8-1.8c-1.2-1.4-4.3-1.5-6.8-1.5h-6.6V566.8z"/>
				<path class="st9" d="M856.2,561.9c2.8-0.1,3.9-2,3.9-4.2c0-1.6-0.3-2.5-0.6-3.4l1.5-0.4c0.3,0.8,0.7,2.1,0.7,4
					c0,3.7-2.3,6-5.7,6c-3.4,0-6-2.2-6-5.7c0-4,3.2-5,5.3-5c0.4,0,0.7,0.1,0.9,0.1V561.9z M854.7,555.4c-1.3,0-3.3,0.6-3.3,3.1
					c0,2.2,1.9,3.2,3.3,3.4V555.4z"/>
				<path class="st9" d="M850.2,542.5h1.6v3.8h9.6v2.2h-9.6v3.8h-1.6V542.5z"/>
				<path class="st9" d="M861.4,534l-1.4,0.2v0.1c0.9,0.7,1.7,2,1.7,3.7c0,2.5-1.6,3.7-3.2,3.7c-2.7,0-4.2-2.6-4.2-7.3h-0.2
					c-0.9,0-2.6,0.3-2.6,2.8c0,1.1,0.3,2.3,0.8,3.2l-1.3,0.5c-0.6-1-1-2.5-1-4c0-3.7,2.3-4.6,4.6-4.6h4.2c1,0,1.9-0.1,2.7-0.2V534z
					 M855.7,534.4c0,2.4,0.3,5.1,2.5,5.1c1.3,0,1.9-1,1.9-2.1c0-1.6-0.9-2.6-1.9-2.9c-0.2-0.1-0.4-0.1-0.6-0.1H855.7z"/>
				<path class="st9" d="M845.6,525.2c1-0.1,1.8-0.6,1.8-1.6c0-1.1-0.7-1.6-1.8-1.7v-1.6c1.9,0.1,2.9,1.4,2.9,3.3
					c0,2.2-1.3,3.1-2.9,3.2V525.2z M850.2,526.6h4.7c1.8,0,2.9,0,4.5,0.1l0-0.1c-1.4-0.7-2.2-1.2-3.5-2l-5.8-3.8v-2.6h11.2v2.1h-4.7
					c-1.8,0-2.8-0.1-4.6-0.1v0.1c1.4,0.8,2.3,1.3,3.5,2c1.7,1.2,3.9,2.5,5.9,3.8v2.5h-11.2V526.6z"/>
			</g>
			<g>
				<path class="st9" d="M891.8,574.6c-0.2-1-0.3-2.5-0.3-4c0-2.2,0.3-3.6,1.1-4.6c0.6-0.9,1.5-1.4,2.8-1.4c1.5,0,2.8,1.1,3.4,2.9h0
					c0.4-1.6,1.6-3.5,3.9-3.5c1.3,0,2.4,0.6,3.1,1.4c1,1.2,1.5,3.1,1.5,5.8c0,1.5-0.1,2.7-0.2,3.4H891.8z M898.2,572.4v-2
					c0-2.3-1.1-3.7-2.6-3.7c-1.8,0-2.5,1.5-2.5,3.7c0,1,0.1,1.6,0.1,1.9H898.2z M905.7,572.4c0.1-0.4,0.1-1.1,0.1-1.8
					c0-2.3-0.8-4.3-3-4.3c-2.1,0-3,2-3,4.4v1.8H905.7z"/>
				<path class="st9" d="M899.9,552.3v6.6h5.6v-7.3h1.7v9.5h-15.6v-9.1h1.7v6.9h4.9v-6.6H899.9z"/>
				<path class="st9" d="M891.6,548.7v-2.2h13.9v-7.2h1.7v9.4H891.6z"/>
				<path class="st9" d="M891.6,536.9v-2.2h13.9v-7.2h1.7v9.4H891.6z"/>
				<path class="st9" d="M899.9,516.3v6.6h5.6v-7.3h1.7v9.5h-15.6V516h1.7v6.9h4.9v-6.6H899.9z"/>
			</g>
			<text transform="matrix(0 -1.0805 1 0 1105.3877 583.5994)" class="st9 st10 st11">Мегафон</text>
			<g>
				<path class="st9" d="M1144.9,551.2c-2.2,0.1-4.8,0.3-6.7,0.3v0.1c1.8,0.6,3.8,1.3,5.9,2.1l7.6,3v1.7l-7.4,2.7
					c-2.2,0.8-4.2,1.5-6.1,2v0c1.9,0.1,4.6,0.2,6.9,0.3l6.7,0.5v2.1l-15.6-1.2v-2.8l7.6-2.9c1.9-0.7,3.6-1.3,5.3-1.7v-0.1
					c-1.6-0.4-3.3-1-5.3-1.8l-7.6-3v-2.8l15.6-1.1v2.1L1144.9,551.2z"/>
				<path class="st9" d="M1137.9,542.1v5.1h-1.7v-12.5h1.7v5.2h13.9v2.2H1137.9z"/>
				<path class="st9" d="M1151.2,522c0.4,0.8,0.7,2.4,0.7,4.5c0,4.8-2.8,8.3-7.9,8.3c-4.9,0-8.2-3.6-8.2-8.8c0-2.1,0.4-3.4,0.7-4
					l1.6,0.5c-0.4,0.8-0.6,2-0.6,3.4c0,4,2.3,6.6,6.4,6.6c3.8,0,6.3-2.4,6.3-6.5c0-1.3-0.3-2.7-0.6-3.6L1151.2,522z"/>
			</g>
			<g>
				<path class="st9" d="M1180.3,574.2h1.7v7.3h4.2c-0.1-0.5-0.1-1.5-0.1-2.1c0-1.6,0.3-3.2,1-4.4c0.8-1.3,2-2.2,3.8-2.2
					c1.5,0,2.6,0.5,3.4,1.4c1.3,1.4,1.7,3.7,1.7,6c0,1.5-0.1,2.7-0.2,3.4h-15.6V574.2z M1194.3,581.4c0.1-0.5,0.1-1.1,0.1-1.8
					c0-1.4-0.4-2.7-1.2-3.6c-0.6-0.6-1.3-0.9-2.3-0.9c-1.2,0-2,0.6-2.5,1.4c-0.6,0.9-0.8,2-0.8,3.2c0,0.5,0,1.2,0.1,1.7H1194.3z"/>
				<path class="st9" d="M1184.7,568h4.7c1.8,0,2.9,0,4.5,0.1l0-0.1c-1.4-0.7-2.2-1.2-3.5-2l-5.8-3.8v-2.6h11.2v2.1h-4.7
					c-1.8,0-2.8-0.1-4.6-0.1v0.1c1.4,0.8,2.3,1.3,3.5,2c1.7,1.2,3.9,2.5,5.9,3.8v2.5h-11.2V568z"/>
				<path class="st9" d="M1184.7,547h11.2v2.2h-9.6v4.2h2.9c3.2,0,5.3,0.3,6.2,1.9c0.4,0.6,0.7,1.3,0.7,2.4l-1.6,0.2
					c-0.1-0.4-0.2-0.9-0.5-1.2c-0.8-1.1-2.3-1.3-4.8-1.3h-4.5V547z"/>
				<path class="st9" d="M1195.9,536.7l-1.4,0.2v0.1c0.9,0.7,1.7,2,1.7,3.7c0,2.5-1.6,3.7-3.2,3.7c-2.7,0-4.2-2.6-4.2-7.3h-0.2
					c-0.9,0-2.6,0.3-2.6,2.8c0,1.1,0.3,2.3,0.8,3.2l-1.3,0.5c-0.6-1-1-2.5-1-4c0-3.7,2.3-4.6,4.6-4.6h4.2c1,0,1.9-0.1,2.7-0.2V536.7
					z M1190.2,537c0,2.4,0.3,5.1,2.5,5.1c1.3,0,1.9-1,1.9-2.1c0-1.6-0.9-2.6-1.9-2.9c-0.2-0.1-0.4-0.1-0.6-0.1H1190.2z"/>
				<path class="st9" d="M1180.1,527.9c1-0.1,1.8-0.6,1.8-1.6c0-1.1-0.7-1.6-1.8-1.7V523c1.9,0.1,2.9,1.4,2.9,3.3
					c0,2.2-1.3,3.1-2.9,3.2V527.9z M1184.7,529.3h4.7c1.8,0,2.9,0,4.5,0.1l0-0.1c-1.4-0.7-2.2-1.2-3.5-2l-5.8-3.8V521h11.2v2.1h-4.7
					c-1.8,0-2.8-0.1-4.6-0.1v0.1c1.4,0.8,2.3,1.3,3.5,2c1.7,1.2,3.9,2.5,5.9,3.8v2.5h-11.2V529.3z"/>
				<path class="st9" d="M1184.7,515.3h4.5v-5.8h-4.5v-2.2h11.2v2.2h-5.1v5.8h5.1v2.2h-11.2V515.3z"/>
			</g>
			<g>
				<path class="st9" d="M1232.4,577v5.1h-1.7v-12.5h1.7v5.2h13.9v2.2H1232.4z"/>
				<path class="st9" d="M1239,559v6.6h5.6v-7.3h1.7v9.5h-15.6v-9.1h1.7v6.9h4.9V559H1239z"/>
				<path class="st9" d="M1230.7,543.7h15.6v2.2h-13.9v5.6h4.7c3.4,0,7.2,0.2,8.6,2.5c0.4,0.6,0.7,1.6,0.7,2.6l-1.6,0.3
					c-0.1-0.7-0.5-1.4-0.8-1.8c-1.2-1.4-4.3-1.5-6.8-1.5h-6.6V543.7z"/>
				<path class="st9" d="M1239,531.2v6.6h5.6v-7.3h1.7v9.5h-15.6v-9.1h1.7v6.9h4.9v-6.6H1239z"/>
				<path class="st9" d="M1239.3,522.6h1.5v6.2h-1.5V522.6z"/>
				<path class="st9" d="M1246.3,520.7h-1.3l-1.6-1.7c-3.7-4.2-5.6-6-7.9-6.1c-1.5,0-2.9,0.8-2.9,3.2c0,1.5,0.7,2.7,1.3,3.5
					l-1.4,0.7c-0.9-1.1-1.5-2.7-1.5-4.6c0-3.5,2.2-5,4.4-5c2.8,0,5,2.2,8.1,5.6l1.1,1.3h0v-7.3h1.7V520.7z"/>
			</g>
			<g>
				<path class="st9" d="M714.4,417.9c0.3,1,0.9,2.9,0.9,5.2c0,2.6-0.6,4.7-2.1,6.3c-1.3,1.5-3.4,2.4-5.8,2.4
					c-4.7,0-8.1-3.5-8.1-9.1c0-2,0.4-3.5,0.7-4.2l1.6,0.5c-0.4,0.9-0.7,2-0.7,3.7c0,4.1,2.4,6.8,6.3,6.8c4,0,6.3-2.6,6.3-6.5
					c0-1.4-0.2-2.4-0.4-2.9h-4.7v3.4h-1.6v-5.6H714.4z"/>
				<path class="st9" d="M699.4,412.4h15.6v2.2h-15.6V412.4z"/>
				<path class="st9" d="M699.6,408.6c-0.2-1.1-0.3-2.4-0.3-4.2c0-2.2,0.5-3.7,1.3-4.7c0.7-0.9,1.9-1.5,3.3-1.5
					c1.4,0,2.5,0.5,3.3,1.3c1.1,1.2,1.7,3,1.7,5.2c0,0.7,0,1.3-0.1,1.8h6.3v2.2H699.6z M707.2,406.4c0.1-0.5,0.2-1.1,0.2-1.8
					c0-2.6-1.2-4.2-3.3-4.2c-2.1,0-3.1,1.6-3.1,4c0,1,0.1,1.7,0.2,2.1H707.2z"/>
				<path class="st9" d="M699.4,395.3v-9.1h1.7v6.9h5.2v-6.4h1.7v6.4h7.1v2.2H699.4z"/>
				<path class="st9" d="M707.7,374.3v6.6h5.6v-7.3h1.7v9.5h-15.6V374h1.7v6.9h4.9v-6.6H707.7z"/>
				<path class="st9" d="M699.4,370.8v-2.2h13.9v-7.2h1.7v9.4H699.4z"/>
			</g>
			<g>
				<path class="st9" d="M826.3,673.7v10.9l1.1,0l-0.1,4.2h-1.2l-0.1-2.9h-7.7l-0.1,2.9H817l-0.1-4.2l0.9,0c0.5-0.8,0.9-1.7,1.2-2.7
					c0.4-1.4,0.6-3,0.6-5.1v-3.1H826.3z M821,677.3c0,1.9-0.2,3.6-0.6,5c-0.3,0.8-0.6,1.7-1,2.3h5.4V675H821V677.3z"/>
				<path class="st9" d="M830.8,677.1v3.7c0,1.4,0,2.3-0.1,3.5l0.1,0c0.5-1.1,0.8-1.7,1.4-2.7l2.7-4.5h1.9v8.7h-1.5v-3.7
					c0-1.4,0-2.2,0.1-3.6h-0.1c-0.6,1.1-0.9,1.8-1.4,2.7c-0.8,1.4-1.8,3-2.7,4.6h-1.8v-8.7H830.8z"/>
				<path class="st9" d="M840.9,677.1v3.8h0.4l3.3-3.8h1.9l-3.8,3.9c1.4,0.1,2.3,1.1,2.9,2.6c0.2,0.6,0.5,1.4,0.9,2.1h-1.7
					c-0.2-0.4-0.5-1.1-0.8-1.8c-0.6-1.4-1.4-2.1-2.9-2.1h-0.3v3.8h-1.6v-8.7H840.9z"/>
				<path class="st9" d="M854.1,685.5c-0.4,0.2-1.3,0.5-2.5,0.5c-2.6,0-4.3-1.8-4.3-4.5c0-2.7,1.8-4.6,4.7-4.6
					c0.9,0,1.8,0.2,2.2,0.5l-0.4,1.2c-0.4-0.2-1-0.4-1.8-0.4c-2,0-3.1,1.5-3.1,3.3c0,2,1.3,3.3,3,3.3c0.9,0,1.5-0.2,1.9-0.4
					L854.1,685.5z"/>
				<path class="st9" d="M857.4,677.1v3.7c0,1.4,0,2.3-0.1,3.5l0.1,0c0.5-1.1,0.8-1.7,1.4-2.7l2.7-4.5h1.9v8.7h-1.5v-3.7
					c0-1.4,0-2.2,0.1-3.6h-0.1c-0.6,1.1-0.9,1.8-1.4,2.7c-0.8,1.4-1.8,3-2.7,4.6h-1.8v-8.7H857.4z"/>
				<path class="st9" d="M872.1,685.5c-0.4,0.2-1.3,0.5-2.5,0.5c-2.6,0-4.3-1.8-4.3-4.5c0-2.7,1.8-4.6,4.7-4.6
					c0.9,0,1.8,0.2,2.2,0.5l-0.4,1.2c-0.4-0.2-1-0.4-1.8-0.4c-2,0-3.1,1.5-3.1,3.3c0,2,1.3,3.3,3,3.3c0.9,0,1.5-0.2,1.9-0.4
					L872.1,685.5z"/>
			</g>
			<g>
				<path class="st9" d="M609.6,688v5.1h5.9V688h1.6v12.1h-1.6v-5.7h-5.9v5.7h-1.6V688H609.6z"/>
				<path class="st9" d="M624.6,700.1l-0.1-1.1h-0.1c-0.5,0.7-1.4,1.3-2.7,1.3c-1.8,0-2.7-1.2-2.7-2.5c0-2.1,1.9-3.3,5.2-3.2v-0.2
					c0-0.7-0.2-2-2-2c-0.8,0-1.7,0.3-2.3,0.6l-0.4-1c0.7-0.5,1.8-0.8,2.9-0.8c2.7,0,3.3,1.8,3.3,3.6v3.3c0,0.8,0,1.5,0.1,2.1H624.6z
					 M624.4,695.7c-1.7,0-3.7,0.3-3.7,2c0,1,0.7,1.5,1.5,1.5c1.1,0,1.9-0.7,2.1-1.5c0.1-0.2,0.1-0.3,0.1-0.5V695.7z"/>
				<path class="st9" d="M630,691.4v7.5h3v-7.5h1.6v7.5h3v-7.5h1.6v8.7h-10.8v-8.7H630z"/>
				<path class="st9" d="M642.6,696.1c0,2.1,1.4,3,3,3c1.1,0,1.8-0.2,2.4-0.5l0.3,1.1c-0.6,0.3-1.5,0.5-2.9,0.5
					c-2.7,0-4.3-1.8-4.3-4.4c0-2.6,1.6-4.7,4.1-4.7c2.8,0,3.6,2.5,3.6,4.1c0,0.3,0,0.6-0.1,0.7H642.6z M647.3,694.9
					c0-1-0.4-2.6-2.2-2.6c-1.6,0-2.3,1.5-2.4,2.6H647.3z"/>
				<path class="st9" d="M601.4,716.7h0.8c1.3,0,2.2-0.6,2.2-1.4c0-0.8-0.7-1.3-1.7-1.3c-0.7,0-1.5,0.2-2.1,0.6l-0.4-1
					c0.9-0.5,1.9-0.8,2.9-0.8c1.3,0,3,0.6,3,2.3c0,1.1-1,1.8-2,2v0c1.3,0.1,2.4,0.9,2.4,2.2c0,1.9-1.9,2.6-3.8,2.6
					c-1,0-2.1-0.3-2.8-0.7l0.4-1.1c0.6,0.3,1.5,0.6,2.3,0.6c1.3,0,2.1-0.6,2.1-1.5c0-1.2-1.2-1.5-2.5-1.5h-0.8V716.7z"/>
				<path class="st9" d="M616.4,717.3c0,3.2-2.2,4.6-4.3,4.6c-2.4,0-4.2-1.7-4.2-4.5c0-2.9,1.9-4.6,4.3-4.6
					C614.7,712.8,616.4,714.7,616.4,717.3z M609.4,717.4c0,1.9,1.1,3.4,2.6,3.4c1.5,0,2.6-1.4,2.6-3.4c0-1.5-0.7-3.4-2.6-3.4
					C610.3,714,609.4,715.8,609.4,717.4z"/>
				<path class="st9" d="M625,713v8.7h-1.6v-7.5h-3v2.3c0,2.5-0.2,4.1-1.4,4.8c-0.4,0.3-0.9,0.5-1.7,0.5l-0.2-1.2
					c0.3-0.1,0.6-0.2,0.9-0.4c0.8-0.6,0.9-1.8,0.9-3.8V713H625z"/>
				<path class="st9" d="M635.5,717.3c0,3.2-2.2,4.6-4.3,4.6c-2.4,0-4.2-1.7-4.2-4.5c0-2.9,1.9-4.6,4.3-4.6
					C633.8,712.8,635.5,714.7,635.5,717.3z M628.5,717.4c0,1.9,1.1,3.4,2.6,3.4c1.5,0,2.6-1.4,2.6-3.4c0-1.5-0.7-3.4-2.6-3.4
					C629.4,714,628.5,715.8,628.5,717.4z"/>
				<path class="st9" d="M643.2,713v1.3h-2.7v7.5h-1.6v-7.5h-2.7V713H643.2z"/>
				<path class="st9" d="M652.3,717.3c0,3.2-2.2,4.6-4.3,4.6c-2.4,0-4.2-1.7-4.2-4.5c0-2.9,1.9-4.6,4.3-4.6
					C650.6,712.8,652.3,714.7,652.3,717.3z M645.3,717.4c0,1.9,1.1,3.4,2.6,3.4c1.5,0,2.6-1.4,2.6-3.4c0-1.5-0.7-3.4-2.6-3.4
					C646.1,714,645.3,715.8,645.3,717.4z"/>
			</g>
			<g>
				<path class="st9" d="M244.8,559.1c-0.6,0.3-1.7,0.6-3.2,0.6c-3.4,0-6-2.2-6-6.1c0-3.8,2.6-6.4,6.3-6.4c1.5,0,2.5,0.3,2.9,0.5
					l-0.4,1.3c-0.6-0.3-1.4-0.5-2.5-0.5c-2.8,0-4.7,1.8-4.7,5c0,3,1.7,4.9,4.7,4.9c1,0,1.9-0.2,2.6-0.5L244.8,559.1z"/>
				<path class="st9" d="M246.7,550.9c0.6-0.1,1.7-0.2,2.8-0.2c1.5,0,3.9,0.2,3.9,2.2c0,1.1-0.8,1.7-1.8,2v0
					c1.3,0.2,2.2,0.9,2.2,2.2c0,2.3-2.9,2.6-4.6,2.6c-1,0-2-0.1-2.5-0.1V550.9z M248.2,558.5c0.5,0.1,0.8,0.1,1.3,0.1
					c1.1,0,2.6-0.3,2.6-1.5c0-1.3-1.3-1.5-2.8-1.5h-1.2V558.5z M248.2,554.4h1.2c1.2,0,2.4-0.3,2.4-1.4c0-0.9-0.8-1.3-2.3-1.3
					c-0.5,0-0.8,0-1.2,0.1V554.4z"/>
				<path class="st9" d="M262.2,559.5h-1.6v-3.7h-1.2c-0.7,0-1.1,0.2-1.5,0.5c-0.6,0.5-0.9,1.6-1.2,2.5c-0.1,0.3-0.2,0.5-0.4,0.7
					h-1.7c0.2-0.3,0.4-0.6,0.5-1c0.4-0.8,0.6-2,1.4-2.6c0.3-0.2,0.6-0.4,1-0.5v-0.1c-1.1-0.1-2.3-0.8-2.3-2.2c0-0.9,0.5-1.5,1.2-1.9
					c0.7-0.4,1.8-0.6,2.9-0.6c1,0,2.1,0.1,2.8,0.2V559.5z M260.6,551.8c-0.4-0.1-0.8-0.1-1.3-0.1c-1.1,0-2.4,0.3-2.4,1.5
					c0,1.1,1.4,1.5,2.3,1.5c0.6,0,1,0,1.4,0V551.8z"/>
				<path class="st9" d="M265.5,554.4h0.8c1.3,0,2.2-0.6,2.2-1.4c0-0.8-0.7-1.3-1.7-1.3c-0.7,0-1.5,0.2-2.1,0.6l-0.4-1
					c0.9-0.5,1.9-0.8,2.9-0.8c1.3,0,3,0.6,3,2.3c0,1.1-1,1.8-2,2v0c1.3,0.1,2.4,0.9,2.4,2.2c0,1.9-1.9,2.6-3.8,2.6
					c-1,0-2.1-0.3-2.8-0.7l0.4-1.1c0.6,0.3,1.5,0.6,2.3,0.6c1.3,0,2.1-0.6,2.1-1.5c0-1.2-1.2-1.5-2.5-1.5h-0.8V554.4z"/>
				<path class="st9" d="M274,550.8v3.5h4.1v-3.5h1.6v8.7h-1.6v-3.9H274v3.9h-1.6v-8.7H274z"/>
				<path class="st9" d="M290.2,555.1c0,3.2-2.2,4.6-4.3,4.6c-2.4,0-4.2-1.7-4.2-4.5c0-2.9,1.9-4.6,4.3-4.6
					C288.5,550.6,290.2,552.4,290.2,555.1z M283.3,555.2c0,1.9,1.1,3.4,2.6,3.4c1.5,0,2.6-1.4,2.6-3.4c0-1.5-0.7-3.4-2.6-3.4
					C284.1,551.8,283.3,553.5,283.3,555.2z"/>
				<path class="st9" d="M293.7,550.8v3.7c0,1.4,0,2.3-0.1,3.5l0.1,0c0.5-1.1,0.8-1.7,1.4-2.7l2.7-4.5h1.9v8.7h-1.5v-3.7
					c0-1.4,0-2.2,0.1-3.6h-0.1c-0.6,1.1-0.9,1.8-1.4,2.7c-0.8,1.4-1.8,3-2.7,4.6h-1.8v-8.7H293.7z M294.7,547.2
					c0.1,0.8,0.4,1.4,1.2,1.4c0.8,0,1.1-0.6,1.2-1.4h1.1c-0.1,1.5-1,2.2-2.4,2.2c-1.6,0-2.2-1-2.3-2.2H294.7z"/>
			</g>
		</g>
	</g>
</g>
<g id="Слой_2">
</g>
<g id="Слой_3">
</g>
</svg>
