<?xml version="1.0" encoding="utf-8"?>
<!-- Generator: Adobe Illustrator 22.0.1, SVG Export Plug-In . SVG Version: 6.00 Build 0)  -->
<svg version="1.1" xmlns="http://www.w3.org/2000/svg" xmlns:xlink="http://www.w3.org/1999/xlink" x="0px" y="0px"
	 viewBox="0 0 1920 1080" style="enable-background:new 0 0 1920 1080;" xml:space="preserve">
<style type="text/css">
	.st0{display:none;fill:none;stroke:#201600;stroke-width:0.6143;stroke-miterlimit:10;}
	.st1{fill:#E2E2E2;}
	.st2{fill:#68D94C;stroke:#E2E2E2;stroke-width:1.6329;stroke-miterlimit:10;}
	.st3{fill:#68D94C;stroke:#E2E2E2;stroke-width:1.2867;stroke-miterlimit:10;}
	.st4{fill:#68D94C;stroke:#E2E2E2;stroke-width:1.5194;stroke-miterlimit:10;}
	.st5{fill:#8E8E8E;}
	.st6{fill:#FFFFFF;}
	.st7{fill:#68D94C;}
</style>
<g id="Слой_1">
</g>
<g id="Слой_4">
</g>
<g id="Слой_7">
</g>
<g id="Слой_5">
</g>
<g id="Слой_8">
	<g id="Слой_6">
	</g>
</g>
<g id="Слой_2">
	<g>
		<path class="st1" d="M1479.4,189.2v-18.1l-112.2,1.7h-114.5v19.4H990.4v-19.4H647.3v25.5H370v-25.5h-93.7v25.5H41.9v-25.5H29.5
			v34.1h0.5c-0.3,8.4-0.5,16.7-0.5,24.7c0,92.2,18.1,181.7,53.7,266C117.6,579,166.9,652,229.6,714.8s135.8,112,217.2,146.4
			c84.2,35.6,173.7,53.7,266,53.7c8.5,0,17.2-0.2,25.7-0.5v0.5h20.2v-20.2h-18.9V824h92.8v38.4h505.5v-10.8h87.6v-9.9H1854V575.6
			h27.2V189.2H1479.4z"/>
		<rect x="1372.7" y="193.7" class="st3" width="480.3" height="647"/>
		<polygon class="st3" points="1309.6,192.6 1253,192.6 1253,224.6 1253,249.2 1253,266.6 1264.7,266.6 1264.7,285.5 1281.3,285.5 
			1281.3,249.2 1309.6,249.2 		"/>
		<rect x="1008.2" y="193.7" class="st3" width="167.3" height="91.7"/>
		<rect x="925.9" y="378.1" class="st3" width="82.4" height="94.4"/>
		<polygon class="st3" points="1098.3,317.2 1008.2,317.2 925.9,317.2 925.9,378.1 1008.2,378.1 1008.2,472.5 1324.8,472.5 
			1324.8,317.2 		"/>
		<polygon class="st3" points="880.4,353.2 880.4,317.2 766.3,317.2 766.3,420.2 859,420.2 880.4,420.2 895,420.2 895,353.2 		"/>
		<rect x="1266.4" y="560.8" class="st3" width="58.3" height="98.7"/>
		<polygon class="st3" points="1267.3,659.5 1267.3,560.8 1079.4,560.8 1079.4,754.7 1137.8,754.7 1137.8,861.5 1324.8,861.5 
			1324.8,659.5 		"/>
		<polygon class="st3" points="1079.4,754.7 1079.4,560.8 931,560.8 931,754.7 931,765.9 931,861.5 1137.8,861.5 1137.8,754.7 		"/>
		<rect x="802.4" y="616.6" class="st3" width="80.6" height="73.8"/>
		<rect x="738" y="616.6" class="st3" width="64.3" height="73.8"/>
		<rect x="833.2" y="773.6" class="st3" width="49.8" height="49.8"/>
		<polygon class="st3" points="785.6,773.6 785.6,780.4 738,780.4 738,823.3 833.2,823.3 833.2,789 833.2,780.4 833.2,773.6 		"/>
		<path class="st3" d="M712.8,914.3c8.5,0,16.9-0.2,25.3-0.5V616.6H648v294.6C669.3,913.2,690.9,914.3,712.8,914.3z"/>
		<path class="st3" d="M130.7,199H42v-0.3H30.9v7.5h0.5c-0.3,8.4-0.5,16.9-0.5,25.3c0,34,2.5,67.5,7.3,100.2h92.5V199z"/>
		<rect x="130.7" y="198.8" class="st3" width="86.6" height="133"/>
		<rect x="217.3" y="241.7" class="st3" width="103.8" height="90.1"/>
		<rect x="369.7" y="198.8" class="st3" width="96.4" height="88"/>
		<path class="st3" d="M648,317.2l-36.5,44.7c24.5,31.8,28.8,58.2,28.8,58.2H738V317.2H648z"/>
		<g>
			<path class="st5" d="M740.3,489.8h-93.4v-17.1h93.4V489.8z M648.5,488.2h90.2v-13.8h-90.2V488.2z"/>
			<rect x="732.8" y="473.6" class="st5" width="1.6" height="15.4"/>
			<rect x="738.4" y="473.6" class="st5" width="1.6" height="15.4"/>
			<rect x="727.3" y="473.6" class="st5" width="1.6" height="15.4"/>
			<rect x="721.7" y="473.6" class="st5" width="1.6" height="15.4"/>
			<rect x="716.2" y="473.6" class="st5" width="1.6" height="15.4"/>
			<rect x="710.6" y="473.6" class="st5" width="1.6" height="15.4"/>
			<rect x="705.1" y="473.6" class="st5" width="1.6" height="15.4"/>
			<rect x="699.5" y="473.6" class="st5" width="1.6" height="15.4"/>
			<rect x="694" y="473.6" class="st5" width="1.6" height="15.4"/>
			<rect x="688.4" y="473.6" class="st5" width="1.6" height="15.4"/>
			<rect x="682.9" y="473.6" class="st5" width="1.6" height="15.4"/>
			<rect x="677.3" y="473.6" class="st5" width="1.6" height="15.4"/>
			<rect x="671.8" y="473.6" class="st5" width="1.6" height="15.4"/>
		</g>
		<g>
			<path class="st5" d="M740.3,559.1h-93.4v-17.1h93.4V559.1z M648.5,557.5h90.2v-13.8h-90.2V557.5z"/>
			<rect x="732.8" y="542.9" class="st5" width="1.6" height="15.4"/>
			<rect x="738.4" y="542.9" class="st5" width="1.6" height="15.4"/>
			<rect x="727.3" y="542.9" class="st5" width="1.6" height="15.4"/>
			<rect x="721.7" y="542.9" class="st5" width="1.6" height="15.4"/>
			<rect x="716.2" y="542.9" class="st5" width="1.6" height="15.4"/>
			<rect x="710.6" y="542.9" class="st5" width="1.6" height="15.4"/>
			<rect x="705.1" y="542.9" class="st5" width="1.6" height="15.4"/>
			<rect x="699.5" y="542.9" class="st5" width="1.6" height="15.4"/>
			<rect x="694" y="542.9" class="st5" width="1.6" height="15.4"/>
			<rect x="688.4" y="542.9" class="st5" width="1.6" height="15.4"/>
			<rect x="682.9" y="542.9" class="st5" width="1.6" height="15.4"/>
			<rect x="677.3" y="542.9" class="st5" width="1.6" height="15.4"/>
			<rect x="671.8" y="542.9" class="st5" width="1.6" height="15.4"/>
		</g>
		<path class="st3" d="M554.4,198.8v91.9l-13.5,13.5c11.9,5.7,24.3,13.3,36.7,23.4c14.2,11.5,25.2,23.3,33.8,34.4l36.5-44.7V198.8
			H554.4z"/>
		<path class="st3" d="M547.4,307.4l7.1-16.8v-91.9h-88.4v88C466.1,286.8,503.7,284.2,547.4,307.4z"/>
		<path class="st3" d="M575.9,616.6c0,0-11.7,8.7-31.5,17.8l16.1,35.3v85H648V616.6H575.9z"/>
		<path class="st3" d="M560.5,754.7v-85l-16.1-35.3c-22.1,10.1-54.3,20.6-91.9,20.2l-33,193.7c70.4,33.5,147.4,55.4,228.5,63V754.7
			H560.5z"/>
		<path class="st3" d="M434.4,653.5c-23.3-2.5-43.3-10-59.9-19.4l-88.3,130.4c40.9,32.8,85.6,60.9,133.4,83.7l33-193.7
			C446.6,654.5,440.5,654.1,434.4,653.5z"/>
		<path class="st3" d="M334.8,603.6L226,710.2c18.9,19.2,39,37.4,60,54.3l88.3-130.4C357.9,624.8,344.7,613.7,334.8,603.6z"/>
		<path class="st3" d="M312.5,576.3L200.7,683c8.2,9.3,16.7,18.4,25.4,27.2l108.7-106.6C320,588.7,312.5,576.3,312.5,576.3z"/>
		<g>
			<path class="st6" d="M179.3,290.4c0.4,0.7,0.7,2.2,0.7,4.1c0,4.4-2.8,7.7-7.9,7.7c-4.9,0-8.2-3.3-8.2-8.2c0-1.9,0.4-3.2,0.7-3.7
				l1.6,0.5c-0.4,0.8-0.6,1.9-0.6,3.2c0,3.7,2.3,6.1,6.4,6.1c3.8,0,6.3-2.2,6.3-6c0-1.2-0.3-2.5-0.6-3.3L179.3,290.4z"/>
			<path class="st6" d="M163.4,287.9v-2h7v0c-0.6-0.3-1.1-0.8-1.4-1.5c-0.3-0.6-0.6-1.3-0.6-2.1c0-1.5,0.9-3.9,4.8-3.9h6.7v2h-6.4
				c-1.8,0-3.3,0.7-3.3,2.6c0,1.3,0.9,2.4,2,2.7c0.3,0.1,0.6,0.1,1,0.1h6.8v2H163.4z"/>
			<path class="st6" d="M165.5,272.8c0.7,0,1.3,0.5,1.3,1.3c0,0.7-0.6,1.2-1.3,1.2c-0.7,0-1.3-0.5-1.3-1.3
				C164.2,273.3,164.7,272.8,165.5,272.8z M179.8,275.1h-11.2v-2h11.2V275.1z"/>
			<path class="st6" d="M179.4,261.6c0.3,0.5,0.6,1.7,0.6,3.2c0,3.4-2.3,5.6-5.7,5.6c-3.5,0-6-2.4-6-6c0-1.2,0.3-2.3,0.6-2.8
				l1.6,0.5c-0.3,0.5-0.5,1.3-0.5,2.4c0,2.6,1.9,4,4.2,4c2.6,0,4.2-1.7,4.2-3.9c0-1.2-0.3-1.9-0.6-2.5L179.4,261.6z"/>
			<path class="st6" d="M173.8,257.2L173.8,257.2c-0.4-0.3-0.9-0.7-1.3-1l-3.9-3.3v-2.5l4.6,4.3l6.6-4.9v2.5l-5.4,3.9l1.2,1h4.2v2
				h-16.4v-2H173.8z"/>
			<path class="st6" d="M174.6,247.3c2.8,0,3.9-1.8,3.9-3.8c0-1.5-0.3-2.3-0.6-3.1l1.5-0.3c0.3,0.7,0.7,1.9,0.7,3.7
				c0,3.5-2.3,5.5-5.7,5.5s-6-2-6-5.3c0-3.7,3.2-4.6,5.3-4.6c0.4,0,0.7,0,0.9,0.1V247.3z M173.1,241.3c-1.3,0-3.3,0.5-3.3,2.8
				c0,2.1,1.9,3,3.3,3.1V241.3z"/>
			<path class="st6" d="M171.6,236.8c-1.2,0-2.1,0-3,0.1v-1.8l1.9-0.1v0c-1.1-0.6-2.1-1.9-2.1-3.7c0-1.6,0.9-4,4.8-4h6.7v2h-6.5
				c-1.8,0-3.3,0.7-3.3,2.6c0,1.3,0.9,2.4,2.1,2.7c0.3,0.1,0.6,0.1,0.9,0.1h6.7v2H171.6z"/>
		</g>
		<g>
			<path class="st6" d="M598.9,301.1c-2.2,0.1-4.8,0.3-6.7,0.2v0.1c1.8,0.5,3.8,1.2,5.9,2l7.6,2.8v1.5l-7.4,2.5
				c-2.2,0.7-4.2,1.4-6.1,1.8v0c1.9,0,4.6,0.2,6.9,0.3l6.7,0.4v1.9l-15.6-1.1v-2.6l7.6-2.7c1.9-0.6,3.6-1.2,5.3-1.6v-0.1
				c-1.6-0.4-3.3-0.9-5.3-1.6l-7.6-2.8v-2.6l15.6-1v2L598.9,301.1z"/>
			<path class="st6" d="M590.1,293.7h15.6v2h-15.6V293.7z"/>
			<path class="st6" d="M590.1,290.1v-2H604v-6.7h1.7v8.7H590.1z"/>
			<path class="st6" d="M600.8,276.7l4.9,1.6v2.1l-15.6-5.3v-2.4l15.6-5.3v2.2l-4.9,1.7V276.7z M599.2,271.6l-4.5,1.5
				c-1,0.3-1.9,0.6-2.8,0.8v0c0.9,0.2,1.9,0.5,2.8,0.8l4.5,1.5V271.6z"/>
			<path class="st6" d="M605.7,262.8l-15.6,5.1v-2.2l7.7-2.4c2.1-0.7,4-1.3,5.8-1.7v0c-1.8-0.4-3.8-1.1-5.8-1.8l-7.7-2.6V255
				l15.6,5.6V262.8z"/>
			<path class="st6" d="M590.1,251.3h15.6v2h-15.6V251.3z"/>
			<path class="st6" d="M591.8,244.8v4.7h-1.7V238h1.7v4.8h13.9v2H591.8z"/>
			<path class="st6" d="M603.3,236.7c0.6-0.9,1-2.2,1-3.6c0-2.1-1.1-3.3-2.7-3.3c-1.5,0-2.3,0.8-3.1,2.9c-0.9,2.5-2.2,4.1-4.4,4.1
				c-2.4,0-4.2-2-4.2-5.1c0-1.6,0.4-2.8,0.8-3.5l1.6,0.6c-0.3,0.5-0.7,1.6-0.7,3c0,2.1,1.3,2.9,2.3,2.9c1.5,0,2.2-0.9,3-3.1
				c1-2.6,2.3-4,4.6-4c2.4,0,4.5,1.8,4.5,5.5c0,1.5-0.4,3.2-1,4L603.3,236.7z"/>
			<path class="st6" d="M600.8,222.5l4.9,1.6v2.1l-15.6-5.3v-2.4l15.6-5.3v2.2l-4.9,1.7V222.5z M599.2,217.4l-4.5,1.5
				c-1,0.3-1.9,0.6-2.8,0.8v0c0.9,0.2,1.9,0.5,2.8,0.8l4.5,1.5V217.4z"/>
		</g>
		<g>
			<path class="st6" d="M243.1,277.6v14l1.4,0l-0.1,5.4h-1.6l-0.1-3.8h-9.8l-0.1,3.8h-1.6l-0.1-5.4l1.2,0c0.6-1.1,1.2-2.2,1.5-3.4
				c0.5-1.8,0.7-3.9,0.7-6.6v-4H243.1z M236.2,282.2c0,2.5-0.2,4.6-0.8,6.4c-0.3,1.1-0.8,2.1-1.3,3h6.9v-12.3h-4.8V282.2z"/>
			<path class="st6" d="M248.1,282l3.7,4.9h0.4V282h1.9v4.9h0.4l3.7-4.9h2.3l-4.4,5.1c1.7,0.2,2.7,1.2,3.4,3
				c0.4,1.1,0.8,2.3,1.2,3.2h-2c-0.4-0.7-0.7-1.6-1-2.6c-0.7-1.8-1.7-2.4-3.2-2.4h-0.3v5h-1.9v-5h-0.4c-1.6,0-2.5,0.6-3.2,2.4
				c-0.4,1-0.7,1.9-1.1,2.5h-2c0.5-0.9,0.8-2.1,1.2-3.1c0.7-1.8,1.7-2.8,3.4-3l-4.4-5.1H248.1z"/>
			<path class="st6" d="M264.5,282v4.7c0,1.8,0,2.9-0.1,4.5l0.1,0c0.7-1.4,1.1-2.2,1.8-3.5l3.5-5.8h2.4v11.2h-1.9v-4.7
				c0-1.8,0-2.8,0.1-4.6h-0.1c-0.7,1.4-1.2,2.3-1.9,3.5c-1.1,1.7-2.3,3.9-3.5,5.9h-2.3V282H264.5z"/>
			<path class="st6" d="M282.3,282v1.6h-4.9v9.6h-2V282H282.3z"/>
			<path class="st6" d="M286.1,282v4.7c0,1.8,0,2.9-0.1,4.5l0.1,0c0.7-1.4,1.1-2.2,1.8-3.5l3.5-5.8h2.4v11.2h-1.9v-4.7
				c0-1.8,0-2.8,0.1-4.6h-0.1c-0.7,1.4-1.2,2.3-1.9,3.5c-1.1,1.7-2.3,3.9-3.5,5.9h-2.3V282H286.1z"/>
			<path class="st6" d="M304.5,282v1.6H301v9.6h-2v-9.6h-3.5V282H304.5z"/>
		</g>
		<g>
			<path class="st6" d="M385.9,226.1v6.9h0.6l5.4-6.9h2.4l-5.9,7.2c2.6,0.3,3.6,1.9,4.4,4c0.6,1.6,1,3,1.7,4.4h-2.2
				c-0.6-1.1-1-2.5-1.4-3.7c-0.7-2.1-1.7-3.5-4.4-3.5h-0.6v7.2h-2v-15.6H385.9z"/>
			<path class="st6" d="M406.4,236c0,4.1-2.9,6-5.6,6c-3,0-5.4-2.2-5.4-5.8c0-3.8,2.5-6,5.6-6C404.3,230.3,406.4,232.6,406.4,236z
				 M397.5,236.1c0,2.5,1.4,4.3,3.4,4.3c1.9,0,3.4-1.8,3.4-4.4c0-1.9-0.9-4.3-3.4-4.3C398.6,231.8,397.5,234,397.5,236.1z"/>
			<path class="st6" d="M411,230.5v4.5h5.3v-4.5h2v11.2h-2v-5.1H411v5.1h-2v-11.2H411z"/>
			<path class="st6" d="M423.7,230.5v4.9h0.5l4.2-4.9h2.5l-4.9,5.1c1.8,0.2,2.9,1.4,3.8,3.4c0.3,0.7,0.7,1.8,1.2,2.7h-2.1
				c-0.3-0.5-0.7-1.4-1-2.3c-0.8-1.8-1.8-2.6-3.7-2.6h-0.4v4.9h-2v-11.2H423.7z"/>
			<path class="st6" d="M442.8,236c0,4.1-2.9,6-5.6,6c-3,0-5.4-2.2-5.4-5.8c0-3.8,2.5-6,5.6-6C440.6,230.3,442.8,232.6,442.8,236z
				 M433.9,236.1c0,2.5,1.4,4.3,3.4,4.3c1.9,0,3.4-1.8,3.4-4.4c0-1.9-0.9-4.3-3.4-4.3C434.9,231.8,433.9,234,433.9,236.1z"/>
			<path class="st6" d="M445.3,234.2c0-1.4,0-2.6-0.1-3.7h1.8l0.1,1.9h0c0.8-1.4,2.2-2.2,4-2.2c2.7,0,4.7,2.3,4.7,5.7
				c0,4-2.5,6-5.1,6c-1.5,0-2.8-0.6-3.5-1.8h0v6.1h-2V234.2z M447.3,237.2c0,0.3,0,0.6,0.1,0.8c0.4,1.4,1.6,2.4,3.1,2.4
				c2.2,0,3.4-1.8,3.4-4.3c0-2.2-1.2-4.2-3.3-4.2c-1.4,0-2.7,1-3.1,2.5c-0.1,0.3-0.1,0.6-0.1,0.8V237.2z"/>
			<path class="st6" d="M398,256.9c0,5.4-3.3,8.2-7.3,8.2c-4.1,0-7-3.2-7-7.9c0-5,3.1-8.2,7.3-8.2C395.3,249,398,252.3,398,256.9z
				 M385.9,257.2c0,3.3,1.8,6.3,5,6.3c3.2,0,5-2.9,5-6.5c0-3.1-1.6-6.3-5-6.3C387.6,250.7,385.9,253.7,385.9,257.2z"/>
			<path class="st6" d="M409.8,253.7v11.2h-2v-9.6h-5.2v9.6h-2v-11.2H409.8z"/>
			<path class="st6" d="M420.6,253.7v1.6h-3.5v9.6h-2v-9.6h-3.5v-1.6H420.6z"/>
			<path class="st6" d="M424.3,253.7v4.7c0,1.8,0,2.9-0.1,4.5l0.1,0c0.7-1.4,1.1-2.2,1.8-3.5l3.5-5.8h2.4v11.2H430v-4.7
				c0-1.8,0-2.8,0.1-4.6H430c-0.7,1.4-1.2,2.3-1.9,3.5c-1.1,1.7-2.3,3.9-3.5,5.9h-2.3v-11.2H424.3z"/>
			<path class="st6" d="M437.2,253.7v4.9h0.5l4.2-4.9h2.5l-4.9,5.1c1.8,0.2,2.9,1.4,3.8,3.4c0.3,0.7,0.7,1.8,1.2,2.7h-2.1
				c-0.3-0.5-0.7-1.4-1-2.3c-0.8-1.8-1.8-2.6-3.7-2.6h-0.4v4.9h-2v-11.2H437.2z"/>
			<path class="st6" d="M452.7,264.9l-0.2-1.4h-0.1c-0.6,0.9-1.8,1.7-3.4,1.7c-2.3,0-3.4-1.6-3.4-3.2c0-2.7,2.4-4.2,6.7-4.2v-0.2
				c0-0.9-0.3-2.6-2.5-2.6c-1,0-2.1,0.3-2.9,0.8l-0.5-1.3c0.9-0.6,2.3-1,3.7-1c3.4,0,4.3,2.3,4.3,4.6v4.2c0,1,0,1.9,0.2,2.7H452.7z
				 M452.4,259.2c-2.2,0-4.7,0.3-4.7,2.5c0,1.3,0.9,1.9,1.9,1.9c1.5,0,2.4-0.9,2.7-1.9c0.1-0.2,0.1-0.4,0.1-0.6V259.2z"/>
		</g>
		<g>
			<path class="st6" d="M1262.4,210.1v7.8h-1v-7h-2.6v2.4c0,1.7-0.1,3.6-1.2,4.3c-0.3,0.2-0.7,0.4-1.2,0.4l-0.1-0.8
				c0.3-0.1,0.6-0.2,0.8-0.4c0.6-0.6,0.7-2.1,0.7-3.4v-3.3H1262.4z"/>
			<path class="st6" d="M1267.2,217.9l-0.1-0.7h0c-0.3,0.4-0.9,0.8-1.7,0.8c-1.1,0-1.7-0.8-1.7-1.6c0-1.4,1.2-2.1,3.4-2.1v-0.1
				c0-0.5-0.1-1.3-1.3-1.3c-0.5,0-1.1,0.2-1.5,0.4l-0.2-0.7c0.5-0.3,1.1-0.5,1.8-0.5c1.7,0,2.1,1.2,2.1,2.3v2.1c0,0.5,0,1,0.1,1.3
				H1267.2z M1267.1,215c-1.1,0-2.4,0.2-2.4,1.3c0,0.7,0.4,1,1,1c0.7,0,1.2-0.5,1.4-0.9c0-0.1,0.1-0.2,0.1-0.3V215z"/>
			<path class="st6" d="M1270.2,214.6h0.5c0.9,0,1.4-0.4,1.4-0.9c0-0.5-0.5-0.8-1.1-0.8c-0.5,0-1,0.2-1.4,0.4l-0.3-0.6
				c0.6-0.3,1.2-0.5,1.9-0.5c0.9,0,1.9,0.4,1.9,1.5c0,0.7-0.6,1.1-1.3,1.3v0c0.8,0.1,1.5,0.6,1.5,1.4c0,1.2-1.2,1.7-2.4,1.7
				c-0.7,0-1.3-0.2-1.8-0.5l0.3-0.7c0.4,0.2,1,0.4,1.5,0.4c0.8,0,1.4-0.4,1.4-1c0-0.8-0.8-1-1.6-1h-0.5V214.6z"/>
			<path class="st6" d="M1275,212.3l1.2,3.3c0.1,0.4,0.3,0.8,0.4,1.1h0c0.1-0.3,0.2-0.8,0.4-1.2l1.1-3.3h1.1l-1.5,4
				c-0.7,1.9-1.2,2.9-1.9,3.5c-0.5,0.4-1,0.6-1.3,0.7l-0.3-0.9c0.3-0.1,0.6-0.2,0.9-0.5c0.3-0.2,0.6-0.6,0.9-1.1
				c0-0.1,0.1-0.2,0.1-0.2c0-0.1,0-0.1-0.1-0.3l-2.1-5.2H1275z"/>
			<path class="st6" d="M1280.1,214.1c0-0.7,0-1.3,0-1.8h0.9l0,1h0c0.4-0.7,1.1-1.1,2-1.1c1.4,0,2.4,1.1,2.4,2.9c0,2-1.2,3-2.6,3
				c-0.7,0-1.4-0.3-1.7-0.9h0v3.1h-1V214.1z M1281.1,215.6c0,0.2,0,0.3,0,0.4c0.2,0.7,0.8,1.2,1.5,1.2c1.1,0,1.7-0.9,1.7-2.2
				c0-1.1-0.6-2.1-1.7-2.1c-0.7,0-1.3,0.5-1.5,1.3c0,0.1-0.1,0.3-0.1,0.4V215.6z"/>
			<path class="st6" d="M1287.6,212.3v2.3h2.7v-2.3h1v5.6h-1v-2.5h-2.7v2.5h-1v-5.6H1287.6z"/>
			<path class="st6" d="M1294,212.3v1.9c0.2,0,0.5-0.1,0.9-0.1c1.2,0,2.4,0.5,2.4,1.9c0,0.6-0.2,1-0.6,1.3c-0.6,0.5-1.5,0.6-2.3,0.6
				c-0.6,0-1.1,0-1.5-0.1v-5.6H1294z M1294,217.2c0.2,0,0.4,0,0.7,0c0.8,0,1.6-0.3,1.6-1.2c0-0.9-0.8-1.2-1.6-1.2
				c-0.3,0-0.5,0-0.8,0.1V217.2z M1299,212.3v5.6h-1v-5.6H1299z"/>
			<path class="st6" d="M1301.6,212.3v2.4c0,0.9,0,1.5-0.1,2.3l0,0c0.3-0.7,0.5-1.1,0.9-1.7l1.8-2.9h1.2v5.6h-1v-2.4
				c0-0.9,0-1.4,0.1-2.3h0c-0.4,0.7-0.6,1.2-0.9,1.7c-0.5,0.9-1.1,1.9-1.8,2.9h-1.2v-5.6H1301.6z M1302.3,210c0,0.5,0.3,0.9,0.7,0.9
				c0.5,0,0.7-0.4,0.8-0.9h0.7c0,1-0.6,1.4-1.5,1.4c-1,0-1.4-0.6-1.5-1.4H1302.3z"/>
			<path class="st6" d="M1272,222c-0.3,0.1-0.8,0.2-1.2,0.3c-0.9,0.1-1.6,0.4-2,1.1c-0.4,0.5-0.6,1.3-0.6,1.9h0
				c0.4-0.8,1.1-1.3,2-1.3c1.4,0,2.4,1,2.4,2.8c0,1.8-1,3-2.6,3c-2,0-2.6-1.9-2.6-3.8c0-1.3,0.3-2.3,0.9-3.1
				c0.5-0.8,1.3-1.1,2.4-1.3c0.5-0.1,1-0.2,1.4-0.3L1272,222z M1270,224.6c-0.6,0-1,0.3-1.3,0.8c-0.2,0.3-0.3,0.7-0.3,1.2
				c0,0.9,0.5,2.3,1.6,2.3c1.1,0,1.5-1.1,1.5-2.1C1271.6,225.8,1271.2,224.6,1270,224.6z"/>
			<path class="st6" d="M1274.5,226.9c0,1.4,0.9,1.9,1.9,1.9c0.7,0,1.2-0.1,1.6-0.3l0.2,0.7c-0.4,0.2-1,0.3-1.9,0.3
				c-1.7,0-2.8-1.1-2.8-2.8s1-3,2.6-3c1.8,0,2.3,1.6,2.3,2.6c0,0.2,0,0.4,0,0.5H1274.5z M1277.5,226.1c0-0.6-0.3-1.7-1.4-1.7
				c-1,0-1.5,1-1.6,1.7H1277.5z"/>
			<path class="st6" d="M1279.7,225.7c0-0.7,0-1.3,0-1.8h0.9l0,1h0c0.4-0.7,1.1-1.1,2-1.1c1.4,0,2.4,1.1,2.4,2.9c0,2-1.2,3-2.6,3
				c-0.7,0-1.4-0.3-1.7-0.9h0v3.1h-1V225.7z M1280.7,227.2c0,0.2,0,0.3,0,0.4c0.2,0.7,0.8,1.2,1.5,1.2c1.1,0,1.7-0.9,1.7-2.2
				c0-1.1-0.6-2.1-1.7-2.1c-0.7,0-1.3,0.5-1.5,1.3c0,0.1-0.1,0.3-0.1,0.4V227.2z"/>
			<path class="st6" d="M1286.9,226.9c0,1.4,0.9,1.9,1.9,1.9c0.7,0,1.2-0.1,1.6-0.3l0.2,0.7c-0.4,0.2-1,0.3-1.9,0.3
				c-1.7,0-2.8-1.1-2.8-2.8s1-3,2.6-3c1.8,0,2.3,1.6,2.3,2.6c0,0.2,0,0.4,0,0.5H1286.9z M1289.9,226.1c0-0.6-0.3-1.7-1.4-1.7
				c-1,0-1.5,1-1.6,1.7H1289.9z"/>
			<path class="st6" d="M1295.5,223.9v0.8h-2.4v4.8h-1v-5.6H1295.5z"/>
		</g>
		<g>
			<path class="st6" d="M1121.5,394.8v-15.6h2.2l5,7.9c1.2,1.8,2.1,3.5,2.8,5.1l0,0c-0.2-2.1-0.2-4-0.2-6.4v-6.5h1.9v15.6h-2l-5-7.9
				c-1.1-1.7-2.1-3.5-2.9-5.2l-0.1,0c0.1,2,0.2,3.8,0.2,6.4v6.7H1121.5z"/>
			<path class="st6" d="M1139.2,380.5c0,0.7-0.5,1.3-1.3,1.3c-0.7,0-1.2-0.6-1.2-1.3c0-0.7,0.5-1.3,1.3-1.3
				C1138.7,379.2,1139.2,379.8,1139.2,380.5z M1136.9,394.8v-11.2h2v11.2H1136.9z"/>
			<path class="st6" d="M1142.4,386.7c0-1.2,0-2.1-0.1-3h1.8l0.1,1.9h0c0.6-1.1,1.9-2.1,3.7-2.1c1.6,0,4,0.9,4,4.8v6.7h-2v-6.5
				c0-1.8-0.7-3.3-2.6-3.3c-1.3,0-2.4,0.9-2.7,2.1c-0.1,0.3-0.1,0.6-0.1,0.9v6.7h-2V386.7z"/>
			<path class="st6" d="M1156.4,389.6c0,2.8,1.8,3.9,3.8,3.9c1.5,0,2.3-0.3,3.1-0.6l0.3,1.5c-0.7,0.3-1.9,0.7-3.7,0.7
				c-3.5,0-5.5-2.3-5.5-5.7s2-6,5.3-6c3.7,0,4.6,3.2,4.6,5.3c0,0.4,0,0.7-0.1,0.9H1156.4z M1162.3,388.2c0-1.3-0.5-3.3-2.8-3.3
				c-2.1,0-3,1.9-3.1,3.3H1162.3z"/>
			<path class="st6" d="M1166.8,378.4h2v16.4h-2V378.4z"/>
		</g>
		<g>
			<path class="st6" d="M1172.7,724.3c0-0.8,0.1-1.9,0.1-2.9v-13.6h2v7h0c0.7-1.3,2-2.1,3.8-2.1c2.8,0,4.7,2.3,4.7,5.7
				c0,4-2.5,6-5,6c-1.6,0-2.9-0.6-3.8-2.1h-0.1l-0.1,1.9H1172.7z M1174.8,719.8c0,0.3,0,0.5,0.1,0.7c0.4,1.4,1.6,2.4,3.1,2.4
				c2.1,0,3.4-1.7,3.4-4.3c0-2.2-1.2-4.2-3.3-4.2c-1.4,0-2.7,0.9-3.1,2.5c0,0.2-0.1,0.5-0.1,0.8V719.8z"/>
			<path class="st6" d="M1187.1,719c0,2.8,1.8,3.9,3.8,3.9c1.5,0,2.3-0.3,3.1-0.6l0.3,1.5c-0.7,0.3-1.9,0.7-3.7,0.7
				c-3.5,0-5.5-2.3-5.5-5.7c0-3.4,2-6,5.3-6c3.7,0,4.6,3.2,4.6,5.3c0,0.4,0,0.7-0.1,0.9H1187.1z M1193,717.6c0-1.3-0.5-3.3-2.8-3.3
				c-2.1,0-3,1.9-3.1,3.3H1193z"/>
			<path class="st6" d="M1197.7,724.3v-9.7h-1.6V713h1.6v-0.5c0-1.6,0.3-3,1.3-3.9c0.8-0.7,1.8-1,2.7-1c0.7,0,1.3,0.2,1.7,0.3
				l-0.3,1.6c-0.3-0.1-0.7-0.3-1.3-0.3c-1.7,0-2.2,1.5-2.2,3.2v0.6h2.7v1.6h-2.7v9.7H1197.7z"/>
			<path class="st6" d="M1204.3,716.5c0-1.3,0-2.5-0.1-3.5h1.8l0.1,2.2h0.1c0.5-1.5,1.7-2.5,3.1-2.5c0.2,0,0.4,0,0.6,0.1v1.9
				c-0.2,0-0.4-0.1-0.7-0.1c-1.4,0-2.5,1.1-2.7,2.6c0,0.3-0.1,0.6-0.1,1v6h-2V716.5z"/>
			<path class="st6" d="M1212.8,719c0,2.8,1.8,3.9,3.8,3.9c1.5,0,2.3-0.3,3.1-0.6l0.3,1.5c-0.7,0.3-1.9,0.7-3.7,0.7
				c-3.5,0-5.5-2.3-5.5-5.7c0-3.4,2-6,5.3-6c3.7,0,4.6,3.2,4.6,5.3c0,0.4,0,0.7-0.1,0.9H1212.8z M1218.8,717.6
				c0-1.3-0.5-3.3-2.8-3.3c-2.1,0-3,1.9-3.1,3.3H1218.8z"/>
			<path class="st6" d="M1224.4,719c0,2.8,1.8,3.9,3.8,3.9c1.5,0,2.3-0.3,3.1-0.6l0.3,1.5c-0.7,0.3-1.9,0.7-3.7,0.7
				c-3.5,0-5.5-2.3-5.5-5.7c0-3.4,2-6,5.3-6c3.7,0,4.6,3.2,4.6,5.3c0,0.4,0,0.7-0.1,0.9H1224.4z M1230.4,717.6
				c0-1.3-0.5-3.3-2.8-3.3c-2.1,0-3,1.9-3.1,3.3H1230.4z"/>
		</g>
		<g>
			<path class="st6" d="M993.5,716.3c0,5.4-3.3,8.2-7.3,8.2c-4.1,0-7-3.2-7-7.9c0-5,3.1-8.2,7.3-8.2
				C990.8,708.4,993.5,711.6,993.5,716.3z M981.4,716.5c0,3.3,1.8,6.3,5,6.3c3.2,0,5-2.9,5-6.5c0-3.1-1.6-6.3-5-6.3
				C983.1,710,981.4,713.1,981.4,716.5z"/>
			<path class="st6" d="M995.8,721.8c0.9,0.6,2.2,1,3.6,1c2.1,0,3.3-1.1,3.3-2.7c0-1.5-0.8-2.3-2.9-3.1c-2.5-0.9-4.1-2.2-4.1-4.4
				c0-2.4,2-4.2,5.1-4.2c1.6,0,2.8,0.4,3.5,0.8l-0.6,1.6c-0.5-0.3-1.6-0.7-3-0.7c-2.1,0-2.9,1.3-2.9,2.3c0,1.5,0.9,2.2,3.1,3
				c2.6,1,4,2.3,4,4.6c0,2.4-1.8,4.5-5.5,4.5c-1.5,0-3.2-0.4-4-1L995.8,721.8z"/>
			<path class="st6" d="M1010.5,710.4h-4.7v-1.7h11.6v1.7h-4.8v13.9h-2V710.4z"/>
			<path class="st6" d="M1021.1,708.6v15.6h-2v-15.6H1021.1z"/>
			<path class="st6" d="M1024.6,724.3v-15.6h2.2l5,7.9c1.2,1.8,2.1,3.5,2.8,5.1l0,0c-0.2-2.1-0.2-4-0.2-6.4v-6.5h1.9v15.6h-2l-5-7.9
				c-1.1-1.7-2.1-3.5-2.9-5.2l-0.1,0c0.1,2,0.2,3.8,0.2,6.4v6.7H1024.6z"/>
		</g>
		<g>
			<path class="st6" d="M1594,510.4c-0.1-2.2-0.3-4.8-0.2-6.7h-0.1c-0.5,1.8-1.2,3.8-2,5.9l-2.8,7.6h-1.5l-2.5-7.4
				c-0.7-2.2-1.4-4.2-1.8-6.1h0c0,1.9-0.2,4.6-0.3,6.9l-0.4,6.7h-1.9l1.1-15.6h2.6l2.7,7.6c0.6,1.9,1.2,3.6,1.6,5.3h0.1
				c0.4-1.6,0.9-3.3,1.6-5.3l2.8-7.6h2.6l1,15.6h-2L1594,510.4z"/>
			<path class="st6" d="M1598.9,516c0-0.9,0.6-1.5,1.4-1.5c0.8,0,1.4,0.6,1.4,1.5c0,0.8-0.5,1.5-1.4,1.5
				C1599.5,517.5,1598.9,516.9,1598.9,516z"/>
			<path class="st6" d="M1604.2,506.2c0.8-0.1,2.2-0.3,3.6-0.3c1.9,0,5,0.3,5,2.8c0,1.4-1.1,2.2-2.3,2.5v0c1.6,0.2,2.8,1.2,2.8,2.8
				c0,2.9-3.7,3.3-5.9,3.3c-1.3,0-2.5-0.1-3.2-0.1V506.2z M1606.1,515.9c0.6,0.1,1,0.1,1.6,0.1c1.4,0,3.4-0.3,3.4-1.9
				c0-1.6-1.6-2-3.6-2h-1.5V515.9z M1606.1,510.7h1.5c1.5,0,3.1-0.4,3.1-1.8c0-1.1-1-1.6-3-1.6c-0.7,0-1.1,0-1.6,0.1V510.7z"/>
			<path class="st6" d="M1617.7,506v4.7c0,1.8,0,2.9-0.1,4.5l0.1,0c0.7-1.4,1.1-2.2,1.8-3.5l3.5-5.8h2.4v11.2h-1.9v-4.7
				c0-1.8,0-2.8,0.1-4.6h-0.1c-0.7,1.4-1.2,2.3-1.9,3.5c-1.1,1.7-2.3,3.9-3.5,5.9h-2.3V506H1617.7z"/>
			<path class="st6" d="M1637.3,506v9.7l1.2,0l-0.1,5.1h-1.6l-0.1-3.6h-7.8l-0.1,3.6h-1.6l-0.1-5.1l0.9,0c0.5-0.7,0.9-1.5,1.1-2.3
				c0.4-1.4,0.6-2.9,0.6-4.5V506H1637.3z M1631.6,509.4c0,1.5-0.2,2.9-0.6,4.2c-0.2,0.8-0.6,1.5-0.9,2.1h5.2v-8.1h-3.7V509.4z"/>
			<path class="st6" d="M1642,512c0,2.8,1.8,3.9,3.8,3.9c1.5,0,2.3-0.3,3.1-0.6l0.3,1.5c-0.7,0.3-1.9,0.7-3.7,0.7
				c-3.5,0-5.5-2.3-5.5-5.7c0-3.4,2-6,5.3-6c3.7,0,4.6,3.2,4.6,5.3c0,0.4,0,0.7-0.1,0.9H1642z M1647.9,510.5c0-1.3-0.5-3.3-2.8-3.3
				c-2.1,0-3,1.9-3.1,3.3H1647.9z"/>
			<path class="st6" d="M1662.6,511.5c0,4.1-2.9,6-5.6,6c-3,0-5.4-2.2-5.4-5.8c0-3.8,2.5-6,5.6-6
				C1660.4,505.8,1662.6,508.1,1662.6,511.5z M1653.7,511.6c0,2.5,1.4,4.3,3.4,4.3c1.9,0,3.4-1.8,3.4-4.4c0-1.9-0.9-4.3-3.4-4.3
				C1654.7,507.3,1653.7,509.5,1653.7,511.6z"/>
		</g>
		<g>
			<path class="st6" d="M1035.9,226.5v1.4c3.3,0.1,6.6,2.1,6.6,7c0,4.9-3.3,6.8-6.6,7v1.5h-1.9v-1.5c-3.3-0.2-6.6-1.9-6.6-6.9
				c0-5.1,3.6-7,6.6-7.1v-1.4H1035.9z M1034,229.4c-2,0.1-4.5,1.5-4.5,5.6c0,3.7,2.2,5.3,4.5,5.5V229.4z M1035.9,240.5
				c2.2-0.2,4.5-1.7,4.5-5.6c0-4-2.3-5.4-4.5-5.6V240.5z"/>
			<path class="st6" d="M1046.3,237.5c0,2.8,1.8,3.9,3.8,3.9c1.5,0,2.3-0.3,3.1-0.6l0.3,1.5c-0.7,0.3-1.9,0.7-3.7,0.7
				c-3.5,0-5.5-2.3-5.5-5.7s2-6,5.3-6c3.7,0,4.6,3.2,4.6,5.3c0,0.4,0,0.7-0.1,0.9H1046.3z M1052.3,236.1c0-1.3-0.5-3.3-2.8-3.3
				c-2.1,0-3,1.9-3.1,3.3H1052.3z"/>
			<path class="st6" d="M1056.8,235.2c0-1.4,0-2.6-0.1-3.7h1.8l0.1,1.9h0c0.8-1.4,2.2-2.2,4-2.2c2.7,0,4.7,2.3,4.7,5.7
				c0,4-2.5,6-5.1,6c-1.5,0-2.8-0.6-3.5-1.8h0v6.1h-2V235.2z M1058.8,238.2c0,0.3,0,0.6,0.1,0.8c0.4,1.4,1.6,2.4,3.1,2.4
				c2.2,0,3.4-1.8,3.4-4.3c0-2.2-1.2-4.2-3.3-4.2c-1.4,0-2.7,1-3.1,2.5c-0.1,0.3-0.1,0.6-0.1,0.8V238.2z"/>
			<path class="st6" d="M1070.9,236.3h1c1.7,0,2.9-0.8,2.9-1.8c0-1-0.9-1.6-2.2-1.6c-0.9,0-1.9,0.3-2.7,0.8l-0.5-1.3
				c1.1-0.7,2.4-1,3.7-1c1.7,0,3.8,0.8,3.8,2.9c0,1.4-1.3,2.3-2.5,2.5v0c1.7,0.1,3.1,1.2,3.1,2.8c0,2.4-2.5,3.3-4.8,3.3
				c-1.3,0-2.6-0.3-3.6-0.9l0.5-1.4c0.8,0.4,1.9,0.8,3,0.8c1.7,0,2.8-0.8,2.8-1.9c0-1.5-1.6-1.9-3.3-1.9h-1V236.3z"/>
			<path class="st6" d="M1081.9,231.5v3.8c0.5-0.1,1.3-0.1,1.9-0.1c2.5,0,5.2,0.8,5.2,3.8c0,1.2-0.5,2-1.2,2.6
				c-1.2,1-3.2,1.3-4.9,1.3c-1.1,0-2.2-0.1-3-0.2v-11.2H1081.9z M1081.9,241.3c0.4,0,0.8,0.1,1.5,0.1c1.5,0,3.5-0.5,3.5-2.4
				c0-1.9-2-2.4-3.5-2.4c-0.5,0-1,0-1.5,0.1V241.3z"/>
			<path class="st6" d="M1105.2,227.1v1.7h-6.7v4.2c0.5-0.1,1.4-0.1,1.9-0.1c1.5,0,2.9,0.3,4,1c1.2,0.8,2,2,2,3.8
				c0,1.5-0.5,2.6-1.3,3.4c-1.3,1.3-3.4,1.7-5.5,1.7c-1.4,0-2.5-0.1-3.2-0.2v-15.6H1105.2z M1098.5,241.2c0.5,0.1,1,0.1,1.7,0.1
				c1.3,0,2.5-0.4,3.3-1.2c0.5-0.6,0.9-1.3,0.9-2.3c0-1.2-0.5-2-1.3-2.5c-0.8-0.6-1.9-0.8-3-0.8c-0.5,0-1.1,0-1.6,0.1V241.2z"/>
			<path class="st6" d="M1111,231.5v3.8c0.5-0.1,1.3-0.1,1.9-0.1c2.5,0,5.2,0.8,5.2,3.8c0,1.2-0.5,2-1.2,2.6c-1.2,1-3.2,1.3-4.9,1.3
				c-1.1,0-2.2-0.1-3-0.2v-11.2H1111z M1111,241.3c0.4,0,0.8,0.1,1.5,0.1c1.5,0,3.5-0.5,3.5-2.4c0-1.9-2-2.4-3.5-2.4
				c-0.5,0-1,0-1.5,0.1V241.3z"/>
			<path class="st6" d="M1122.5,231.5v4.7h1.9c0.3-3,2.3-5,5-5c2.9,0,4.9,2.3,4.9,5.8c0,3.6-2.2,6-5.1,6c-2.7,0-4.7-2-4.9-5.2h-1.9
				v4.9h-2v-11.2H1122.5z M1132.3,237.1c0-2.1-1-4.3-2.9-4.3c-2,0-3,2.1-3,4.4c0,2.2,1,4.3,3,4.3
				C1131.4,241.5,1132.3,239.2,1132.3,237.1z"/>
			<path class="st6" d="M1144.3,231.5v1.6h-3.5v9.6h-2v-9.6h-3.5v-1.6H1144.3z"/>
			<path class="st6" d="M1147.9,231.5v4.7c0,1.8,0,2.9-0.1,4.5l0.1,0c0.7-1.4,1.1-2.2,1.8-3.5l3.5-5.8h2.4v11.2h-1.9V238
				c0-1.8,0-2.8,0.1-4.6h-0.1c-0.7,1.4-1.2,2.3-1.9,3.5c-1.1,1.7-2.3,3.9-3.5,5.9h-2.3v-11.2H1147.9z"/>
		</g>
		<g>
			<path class="st6" d="M790.1,362.5v14l1.4,0l-0.1,5.4h-1.6l-0.1-3.8h-9.8l-0.1,3.8H778l-0.1-5.4l1.2,0c0.6-1.1,1.2-2.2,1.5-3.4
				c0.5-1.8,0.7-3.9,0.7-6.6v-4H790.1z M783.2,367.1c0,2.5-0.2,4.6-0.8,6.4c-0.3,1.1-0.8,2.1-1.3,3h6.9v-12.3h-4.8V367.1z"/>
			<path class="st6" d="M803.9,372.4c0,4.1-2.9,6-5.6,6c-3,0-5.4-2.2-5.4-5.8c0-3.8,2.5-6,5.6-6C801.8,366.6,803.9,369,803.9,372.4z
				 M795,372.5c0,2.5,1.4,4.3,3.4,4.3c1.9,0,3.4-1.8,3.4-4.4c0-1.9-0.9-4.3-3.4-4.3C796.1,368.2,795,370.4,795,372.5z"/>
			<path class="st6" d="M806.6,366.9h2.5l2,5.7c0.3,0.8,0.8,2.2,1,3.1h0c0.3-0.8,0.9-2.6,1.3-3.8l1.8-4.9h2.5l0.8,11.2h-1.9
				l-0.3-5.4c-0.1-1.2-0.2-2.6-0.2-4h-0.1c-0.3,1-0.6,1.9-1.2,3.6l-2.2,5.7h-1.5l-2-5.5c-0.3-1.1-0.8-2.7-1.1-3.7h-0.1
				c0,1.3-0.1,2.8-0.2,4l-0.3,5.3h-1.9L806.6,366.9z"/>
			<path class="st6" d="M827.5,378.1l-0.2-1.4h-0.1c-0.6,0.9-1.8,1.7-3.4,1.7c-2.3,0-3.4-1.6-3.4-3.2c0-2.7,2.4-4.2,6.7-4.2v-0.2
				c0-0.9-0.3-2.6-2.5-2.6c-1,0-2.1,0.3-2.9,0.8l-0.5-1.3c0.9-0.6,2.3-1,3.7-1c3.4,0,4.3,2.3,4.3,4.6v4.2c0,1,0,1.9,0.2,2.7H827.5z
				 M827.2,372.4c-2.2,0-4.7,0.3-4.7,2.5c0,1.3,0.9,1.9,1.9,1.9c1.5,0,2.4-0.9,2.7-1.9c0.1-0.2,0.1-0.4,0.1-0.6V372.4z"/>
			<path class="st6" d="M834.4,366.9v9.6h3.9v-9.6h2v9.6h3.9v-9.6h2v11.2h-13.8v-11.2H834.4z"/>
			<path class="st6" d="M851.5,366.9v4.5h5.3v-4.5h2v11.2h-2V373h-5.3v5.1h-2v-11.2H851.5z"/>
			<path class="st6" d="M870.5,378.1h-2v-4.7H867c-0.9,0-1.4,0.2-1.9,0.6c-0.8,0.7-1.1,2.1-1.6,3.2c-0.1,0.3-0.3,0.6-0.5,0.9h-2.2
				c0.3-0.4,0.5-0.8,0.7-1.3c0.5-1.1,0.8-2.5,1.8-3.4c0.3-0.3,0.8-0.6,1.3-0.6v-0.1c-1.5-0.2-3-1.1-3-2.8c0-1.2,0.6-1.9,1.5-2.4
				c0.9-0.5,2.3-0.8,3.8-0.8c1.3,0,2.6,0.1,3.6,0.2V378.1z M868.5,368.2c-0.5-0.1-1-0.1-1.7-0.1c-1.4,0-3,0.4-3,1.9
				c0,1.4,1.8,1.9,3,1.9c0.8,0,1.3,0,1.7,0V368.2z"/>
			<path class="st6" d="M882.1,378.1h-2v-4.7h-1.5c-0.9,0-1.4,0.2-1.9,0.6c-0.8,0.7-1.1,2.1-1.6,3.2c-0.1,0.3-0.3,0.6-0.5,0.9h-2.2
				c0.3-0.4,0.5-0.8,0.7-1.3c0.5-1.1,0.8-2.5,1.8-3.4c0.3-0.3,0.8-0.6,1.3-0.6v-0.1c-1.5-0.2-3-1.1-3-2.8c0-1.2,0.6-1.9,1.5-2.4
				c0.9-0.5,2.3-0.8,3.8-0.8c1.3,0,2.6,0.1,3.6,0.2V378.1z M880.1,368.2c-0.5-0.1-1-0.1-1.7-0.1c-1.4,0-3,0.4-3,1.9
				c0,1.4,1.8,1.9,3,1.9c0.8,0,1.3,0,1.7,0V368.2z"/>
			<path class="st6" d="M777.6,385.7v6.9h0.6l5.4-6.9h2.4l-5.9,7.2c2.6,0.3,3.6,1.9,4.4,4c0.6,1.6,1,3,1.7,4.4H784
				c-0.6-1.1-1-2.5-1.4-3.7c-0.7-2.1-1.7-3.5-4.4-3.5h-0.6v7.2h-2v-15.6H777.6z"/>
			<path class="st6" d="M798.2,395.6c0,4.1-2.9,6-5.6,6c-3,0-5.4-2.2-5.4-5.8c0-3.8,2.5-6,5.6-6C796,389.8,798.2,392.2,798.2,395.6z
				 M789.3,395.7c0,2.5,1.4,4.3,3.4,4.3c1.9,0,3.4-1.8,3.4-4.4c0-1.9-1-4.3-3.4-4.3C790.3,391.3,789.3,393.6,789.3,395.7z"/>
			<path class="st6" d="M809.2,390.1v11.2h-2v-9.6h-3.8v2.9c0,3.2-0.3,5.3-1.8,6.2c-0.6,0.4-1.2,0.7-2.2,0.7l-0.2-1.6
				c0.4-0.1,0.8-0.2,1.1-0.5c1-0.8,1.2-2.3,1.2-4.8v-4.5H809.2z"/>
			<path class="st6" d="M821.1,390.1v11.2h-2v-9.6h-3.8v2.9c0,3.2-0.3,5.3-1.8,6.2c-0.6,0.4-1.2,0.7-2.2,0.7l-0.2-1.6
				c0.4-0.1,0.8-0.2,1.1-0.5c1-0.8,1.2-2.3,1.2-4.8v-4.5H821.1z"/>
			<path class="st6" d="M825.6,396c0,2.8,1.8,3.9,3.8,3.9c1.5,0,2.3-0.3,3.1-0.6l0.3,1.5c-0.7,0.3-1.9,0.7-3.7,0.7
				c-3.5,0-5.5-2.3-5.5-5.7s2-6,5.3-6c3.7,0,4.6,3.2,4.6,5.3c0,0.4,0,0.7-0.1,0.9H825.6z M831.5,394.6c0-1.3-0.5-3.3-2.8-3.3
				c-2.1,0-3,1.9-3.1,3.3H831.5z"/>
			<path class="st6" d="M838,390.1v4.9h0.5l4.2-4.9h2.5l-4.9,5.1c1.8,0.2,2.9,1.4,3.8,3.4c0.3,0.7,0.7,1.8,1.2,2.7h-2.1
				c-0.3-0.5-0.7-1.4-1-2.3c-0.8-1.8-1.8-2.6-3.7-2.6H838v4.9h-2v-11.2H838z"/>
			<path class="st6" d="M849.1,390.1v9.6h5.2v-9.6h2v9.7l1.2,0l-0.1,5.1h-1.6l-0.1-3.6h-8.6v-11.2H849.1z"/>
			<path class="st6" d="M861.7,390.1v4.7c0,1.8,0,2.9-0.1,4.5l0.1,0c0.7-1.4,1.1-2.2,1.8-3.5l3.5-5.8h2.4v11.2h-1.9v-4.7
				c0-1.8,0-2.8,0.1-4.6h-0.1c-0.7,1.4-1.2,2.3-1.9,3.5c-1.1,1.7-2.3,3.9-3.5,5.9h-2.3v-11.2H861.7z"/>
			<path class="st6" d="M881,401.3h-2v-4.7h-1.5c-0.9,0-1.4,0.2-1.9,0.6c-0.8,0.7-1.1,2.1-1.6,3.2c-0.1,0.3-0.3,0.6-0.5,0.9h-2.2
				c0.3-0.4,0.5-0.8,0.7-1.3c0.5-1.1,0.8-2.5,1.8-3.4c0.3-0.3,0.8-0.6,1.3-0.6v-0.1c-1.5-0.2-3-1.1-3-2.8c0-1.2,0.6-1.9,1.5-2.4
				c0.9-0.5,2.3-0.8,3.8-0.8c1.3,0,2.6,0.1,3.6,0.2V401.3z M878.9,391.4c-0.5-0.1-1-0.1-1.7-0.1c-1.4,0-3,0.4-3,1.9
				c0,1.4,1.8,1.9,3,1.9c0.8,0,1.3,0,1.7,0V391.4z"/>
		</g>
		<g>
			<path class="st6" d="M676.2,757.4c1-0.2,2.5-0.3,3.9-0.3c2.2,0,3.5,0.4,4.5,1.3c0.8,0.7,1.2,1.8,1.2,3c0,2.1-1.3,3.4-2.9,4v0.1
				c1.2,0.4,1.9,1.5,2.3,3.2c0.5,2.2,0.9,3.7,1.2,4.3h-2.1c-0.3-0.4-0.6-1.8-1-3.7c-0.5-2.2-1.3-3-3.1-3h-1.9v6.8h-2V757.4z
				 M678.2,764.5h2.1c2.2,0,3.5-1.2,3.5-3c0-2-1.5-2.9-3.6-2.9c-1,0-1.7,0.1-2,0.2V764.5z"/>
			<path class="st6" d="M699.5,772.3c-0.7,0.4-2.2,0.7-4.1,0.7c-4.4,0-7.7-2.8-7.7-7.9c0-4.9,3.3-8.2,8.2-8.2c1.9,0,3.2,0.4,3.7,0.7
				l-0.5,1.6c-0.8-0.4-1.9-0.6-3.2-0.6c-3.7,0-6.1,2.3-6.1,6.4c0,3.8,2.2,6.3,6,6.3c1.2,0,2.5-0.3,3.3-0.6L699.5,772.3z"/>
			<path class="st6" d="M702.1,757.2h8.4v1.7h-6.4v5.2h5.9v1.7h-5.9v7.1h-2V757.2z"/>
		</g>
		<g>
			<path class="st6" d="M508.2,813.5c-0.7,0.4-2.2,0.7-4.1,0.7c-4.4,0-7.7-2.8-7.7-7.9c0-4.9,3.3-8.2,8.2-8.2c1.9,0,3.2,0.4,3.7,0.7
				l-0.5,1.6c-0.8-0.4-1.9-0.6-3.2-0.6c-3.7,0-6.1,2.3-6.1,6.4c0,3.8,2.2,6.3,6,6.3c1.2,0,2.5-0.3,3.3-0.6L508.2,813.5z"/>
			<path class="st6" d="M523.6,806c0,5.4-3.3,8.2-7.3,8.2c-4.1,0-7-3.2-7-7.9c0-5,3.1-8.2,7.3-8.2
				C520.8,798.1,523.6,801.4,523.6,806z M511.5,806.2c0,3.3,1.8,6.3,5,6.3c3.2,0,5-2.9,5-6.5c0-3.1-1.6-6.3-5-6.3
				C513.1,799.7,511.5,802.8,511.5,806.2z"/>
			<path class="st6" d="M526.2,798.3h2v13.9h6.7v1.7h-8.7V798.3z"/>
			<path class="st6" d="M539.1,798.3V814h-2v-15.6H539.1z"/>
			<path class="st6" d="M542.6,814v-15.6h2.2l5,7.9c1.2,1.8,2.1,3.5,2.8,5.1l0,0c-0.2-2.1-0.2-4-0.2-6.4v-6.5h1.9V814h-2l-5-7.9
				c-1.1-1.7-2.1-3.5-2.9-5.2l-0.1,0c0.1,2,0.2,3.8,0.2,6.4v6.7H542.6z"/>
			<path class="st6" d="M559.3,798.1l-0.4,5.6h-1.3l-0.4-5.6H559.3z"/>
			<path class="st6" d="M562,811.5c0.9,0.6,2.2,1,3.6,1c2.1,0,3.3-1.1,3.3-2.7c0-1.5-0.8-2.3-2.9-3.1c-2.5-0.9-4.1-2.2-4.1-4.4
				c0-2.4,2-4.2,5.1-4.2c1.6,0,2.8,0.4,3.5,0.8l-0.6,1.6c-0.5-0.3-1.6-0.7-3-0.7c-2.1,0-2.9,1.3-2.9,2.3c0,1.5,0.9,2.2,3.1,3
				c2.6,1,4,2.3,4,4.6c0,2.4-1.8,4.5-5.5,4.5c-1.5,0-3.2-0.4-4-1L562,811.5z"/>
		</g>
		<g>
			<path class="st6" d="M337.8,747.2c0.9,0.6,2.2,1,3.6,1c2.1,0,3.3-1.1,3.3-2.7c0-1.5-0.8-2.3-2.9-3.1c-2.5-0.9-4.1-2.2-4.1-4.4
				c0-2.4,2-4.2,5.1-4.2c1.6,0,2.8,0.4,3.5,0.8l-0.6,1.6c-0.5-0.3-1.6-0.7-3-0.7c-2.1,0-2.9,1.3-2.9,2.3c0,1.5,0.9,2.2,3.1,3
				c2.6,1,4,2.3,4,4.6c0,2.4-1.8,4.5-5.5,4.5c-1.5,0-3.2-0.4-4-1L337.8,747.2z"/>
			<path class="st6" d="M352.1,744.7l-1.6,4.9h-2.1l5.3-15.6h2.4l5.3,15.6h-2.2l-1.7-4.9H352.1z M357.2,743.1l-1.5-4.5
				c-0.3-1-0.6-1.9-0.8-2.8h0c-0.2,0.9-0.5,1.9-0.8,2.8l-1.5,4.5H357.2z"/>
			<path class="st6" d="M365.9,749.6l-5.1-15.6h2.2l2.4,7.7c0.7,2.1,1.3,4,1.7,5.8h0c0.4-1.8,1.1-3.8,1.8-5.8l2.6-7.7h2.2l-5.6,15.6
				H365.9z"/>
			<path class="st6" d="M376.6,744.7l-1.6,4.9h-2.1l5.3-15.6h2.4l5.3,15.6h-2.2l-1.7-4.9H376.6z M381.7,743.1l-1.5-4.5
				c-0.3-1-0.6-1.9-0.8-2.8h0c-0.2,0.9-0.5,1.9-0.8,2.8l-1.5,4.5H381.7z"/>
			<path class="st6" d="M399.8,748.9c-0.9,0.3-2.7,0.9-4.8,0.9c-2.4,0-4.3-0.6-5.8-2.1c-1.3-1.3-2.2-3.4-2.2-5.8
				c0-4.7,3.2-8.1,8.5-8.1c1.8,0,3.2,0.4,3.9,0.7l-0.5,1.6c-0.8-0.4-1.9-0.7-3.5-0.7c-3.8,0-6.3,2.4-6.3,6.3c0,4,2.4,6.3,6,6.3
				c1.3,0,2.2-0.2,2.7-0.4V743h-3.2v-1.6h5.1V748.9z"/>
			<path class="st6" d="M411,742.3h-6.1v5.6h6.8v1.7h-8.8V734h8.4v1.7h-6.4v4.9h6.1V742.3z"/>
		</g>
		<g>
			<path class="st6" d="M284.3,704.8c-0.3,0.7-1.1,2-2.3,3.5c-2.9,3.4-6.4,4.7-8.9,2.5c-2.4-2.1-2-6,1.2-9.7
				c1.3-1.5,2.3-2.2,2.7-2.5l0.5,1.1c-0.7,0.4-1.5,1.1-2.4,2.1c-2.4,2.8-2.8,5.6-0.7,7.4c1.9,1.6,4.6,1,7-1.9c0.8-0.9,1.5-2,1.8-2.8
				L284.3,704.8z"/>
			<path class="st6" d="M290.1,698.5l-0.8-0.5l0,0.1c0,0.9-0.4,2.1-1.4,3.3c-1.5,1.7-3,1.9-3.8,1.2c-1.4-1.2-0.5-3.6,2.3-6.9
				l-0.1-0.1c-0.5-0.4-1.5-0.9-2.9,0.8c-0.7,0.8-1.2,1.8-1.5,2.6l-1-0.2c0.3-1,1-2.2,1.9-3.2c2.2-2.6,3.9-2.3,5.1-1.3l2.1,1.8
				c0.5,0.4,1,0.8,1.5,1L290.1,698.5z M287.1,696.3c-1.5,1.7-2.9,3.8-1.8,4.7c0.7,0.6,1.5,0.2,2.2-0.6c0.9-1.1,1.1-2.2,0.8-2.9
				c-0.1-0.1-0.1-0.3-0.2-0.4L287.1,696.3z"/>
			<path class="st6" d="M289,688.4l2.4,2.1l0.3-0.4l0.3-5.3l1.6-1.9l-0.6,5.9c1.3-1.3,2.6-1.6,4.1-1.4c0.6,0.1,1.4,0.2,2.1,0.2
				l-1.4,1.6c-0.4,0-1.1-0.1-1.8-0.2c-1.4-0.2-2.5,0.3-3.7,1.7l-0.3,0.3l2.5,2.1l-1.3,1.5l-5.6-4.8L289,688.4z"/>
			<path class="st6" d="M295,681.6c0.4-0.7,1.3-1.8,2.2-2.8c1.2-1.4,3.4-3.7,4.6-2.6c0.7,0.6,0.4,1.8-0.3,2.9l0,0
				c1.2-1.2,2.4-1.7,3.2-1c1.5,1.3-0.7,4.2-2.2,5.9c-0.8,1-1.7,1.9-2.1,2.3L295,681.6z M298.5,682l1-1.2c1-1.1,1.8-2.5,1.1-3.1
				c-0.6-0.5-1.5,0-2.8,1.6c-0.4,0.5-0.7,0.8-1,1.2L298.5,682z M301.1,684.3c0.4-0.4,0.7-0.7,1.1-1.2c0.9-1,2-2.7,1.2-3.4
				c-0.8-0.7-2,0.4-3.3,1.9l-1,1.1L301.1,684.3z"/>
			<path class="st6" d="M311.7,667.3c2.1,1.8,1.1,4.7-0.6,6.8c-2,2.3-4.6,3.2-6.4,1.6c-1.9-1.6-1.4-4.4,0.6-6.8
				C307.5,666.5,310,665.8,311.7,667.3z M306,674.1c1.2,1,3.1,0.8,4.4-0.8c1.3-1.5,1.3-3.4,0-4.4c-0.9-0.8-2.8-1.1-4.3,0.7
				C304.5,671.5,305,673.2,306,674.1z"/>
			<path class="st6" d="M321.6,661.5l-1.3,1.5l-2.3-2l-1,1.1c-0.6,0.7-0.8,1.2-0.9,1.7c-0.2,0.9,0.3,1.7,0.6,2.5
				c0.1,0.3,0.1,0.5,0.2,0.7l-1.4,1.7c0-0.4-0.1-0.7-0.2-1.1c-0.2-0.8-0.8-1.7-0.6-2.8c0.1-0.4,0.2-0.8,0.5-1.2l0,0
				c-1,1-2.5,1.8-3.3,1.1c-0.6-0.5-0.6-1.3-0.3-2.2c0.3-0.9,1.1-2.1,2-3.2c0.9-1,1.8-2,2.5-2.7L321.6,661.5z M315.3,658.9
				c-0.4,0.4-0.7,0.7-1.2,1.2c-0.9,1.1-1.8,2.5-1,3.1c0.7,0.6,2.1-0.5,2.9-1.5c0.5-0.6,0.8-1,1.1-1.3L315.3,658.9z"/>
			<path class="st6" d="M318.7,653.5l4.8-0.7l0.3-0.3l-2.4-2.1l1.3-1.5l2.4,2.1l0.3-0.3l0-4.9l1.5-1.8l-0.3,5.5
				c1.2-1.2,2.3-1.5,3.7-1.3c0.8,0.2,1.6,0.4,2.4,0.4l-1.3,1.6c-0.6,0-1.2-0.1-1.9-0.3c-1.4-0.2-2.3,0.3-3.3,1.4l-0.2,0.3l2.5,2.1
				l-1.3,1.5l-2.5-2.1l-0.2,0.3c-1,1.2-1.3,2.2-0.9,3.5c0.2,0.7,0.5,1.3,0.6,1.9l-1.3,1.5c-0.2-0.7-0.5-1.5-0.8-2.3
				c-0.5-1.3-0.3-2.5,0.7-3.8l-5.4,1.2L318.7,653.5z"/>
		</g>
		<g>
			<path class="st6" d="M247.8,665.4c-1.5-1.4-3.3-3-4.5-4.3l0,0c0.8,1.6,1.6,3.3,2.4,5.3l2.9,7l-1.1,1.1l-6.6-3.2
				c-2-1-3.7-1.9-5.2-2.8l0,0c1.2,1.3,2.8,3.2,4.3,4.8l4,4.8l-1.4,1.3l-9.3-11.2l1.8-1.8l6.8,3.2c1.7,0.8,3.2,1.6,4.5,2.4l0.1,0
				c-0.7-1.3-1.4-2.9-2.2-4.7l-2.9-7l1.8-1.8l10.8,9.8l-1.4,1.4L247.8,665.4z"/>
			<path class="st6" d="M258.6,663.7l-4.3-4.4l-9.4-2.6l1.6-1.6l4.4,1.3c1.2,0.4,2.1,0.7,3.2,1.1l0,0c-0.3-1-0.6-2-1-3.2l-1.2-4.4
				l1.6-1.6l2,9.6l4.3,4.4L258.6,663.7z"/>
			<path class="st6" d="M258.7,643.7c0.5-0.7,1.4-1.8,2.4-2.8c1.4-1.4,2.6-2.1,3.8-2.2c1-0.2,1.9,0.1,2.7,0.9c1,1,1.1,2.6,0.3,4.1
				l0,0c1.3-0.8,3.3-1.2,4.8,0.4c0.9,0.9,1.1,1.9,1.1,3c-0.1,1.4-1.1,3-2.9,4.7c-1,1-1.8,1.6-2.4,2.1L258.7,643.7z M264.3,646.6
				l1.3-1.3c1.5-1.5,1.7-3.1,0.7-4.1c-1.2-1.2-2.7-0.7-4.1,0.7c-0.7,0.6-1,1.1-1.2,1.3L264.3,646.6z M269.1,651.6
				c0.3-0.2,0.8-0.6,1.3-1.1c1.5-1.5,2.4-3.3,0.9-4.8c-1.4-1.4-3.3-0.7-4.8,0.8l-1.2,1.2L269.1,651.6z"/>
			<path class="st6" d="M282.1,630.7c3.5,3.6,3,7.8,0.1,10.5c-3,2.9-7.1,2.8-10.2-0.4c-3.2-3.3-3.1-7.6-0.1-10.5
				C275,627.3,279.1,627.6,282.1,630.7z M273.6,639.3c2.2,2.2,5.4,3,7.7,0.8c2.3-2.2,1.7-5.4-0.6-7.8c-2-2.1-5.3-3.1-7.7-0.8
				C270.5,633.8,271.3,637,273.6,639.3z"/>
			<path class="st6" d="M294.8,628.6l-3.7-0.9c-1.4-0.3-2.4-0.5-3.3-0.8l0,0c0.3,0.9,0.5,1.8,0.8,3.3l0.9,3.6l-1.7,1.6l-1.7-8.6
				l-8.3-2l1.7-1.6l3.9,1c1.1,0.3,1.9,0.5,2.7,0.8l0.1,0c-0.3-0.9-0.5-1.7-0.7-2.7l-0.8-3.9l1.7-1.6l1.5,8.4l8.7,2L294.8,628.6z"/>
		</g>
		<g>
			<path class="st6" d="M569,686.6c1-0.2,2.2-0.3,3.6-0.3c2.4,0,4.1,0.6,5.3,1.6c1.2,1.1,1.8,2.6,1.8,4.7c0,2.1-0.7,3.9-1.9,5.1
				c-1.2,1.2-3.2,1.9-5.8,1.9c-1.2,0-2.2-0.1-3-0.2V686.6z M570.7,698.1c0.4,0.1,1,0.1,1.7,0.1c3.6,0,5.5-2,5.5-5.5
				c0-3.1-1.7-5-5.3-5c-0.9,0-1.5,0.1-2,0.2V698.1z"/>
			<path class="st6" d="M582.8,695.1c0,2.3,1.5,3.2,3.2,3.2c1.2,0,1.9-0.2,2.6-0.5l0.3,1.2c-0.6,0.3-1.6,0.6-3.1,0.6
				c-2.9,0-4.6-1.9-4.6-4.7c0-2.8,1.7-5,4.4-5c3,0,3.9,2.7,3.9,4.4c0,0.3,0,0.6-0.1,0.8H582.8z M587.8,693.9c0-1.1-0.4-2.8-2.4-2.8
				c-1.7,0-2.5,1.6-2.6,2.8H587.8z"/>
			<path class="st6" d="M598.2,699.1c-0.4,0.2-1.4,0.5-2.7,0.5c-2.8,0-4.7-1.9-4.7-4.8c0-2.9,2-5,5-5c1,0,1.9,0.3,2.4,0.5l-0.4,1.3
				c-0.4-0.2-1-0.4-2-0.4c-2.1,0-3.3,1.6-3.3,3.5c0,2.2,1.4,3.5,3.2,3.5c1,0,1.6-0.3,2.1-0.5L598.2,699.1z"/>
			<path class="st6" d="M608.5,694.7c0,3.5-2.4,5-4.7,5c-2.5,0-4.5-1.9-4.5-4.8c0-3.1,2-5,4.6-5
				C606.7,689.9,608.5,691.8,608.5,694.7z M601.1,694.8c0,2,1.2,3.6,2.8,3.6c1.6,0,2.8-1.5,2.8-3.6c0-1.6-0.8-3.6-2.8-3.6
				C602,691.2,601.1,693,601.1,694.8z"/>
			<path class="st6" d="M610.6,685.7h1.7v13.7h-1.7V685.7z"/>
			<path class="st6" d="M615.2,685.7h1.7v13.7h-1.7V685.7z"/>
			<path class="st6" d="M620.7,695.1c0,2.3,1.5,3.2,3.2,3.2c1.2,0,1.9-0.2,2.6-0.5l0.3,1.2c-0.6,0.3-1.6,0.6-3.1,0.6
				c-2.9,0-4.6-1.9-4.6-4.7c0-2.8,1.7-5,4.4-5c3,0,3.9,2.7,3.9,4.4c0,0.3,0,0.6-0.1,0.8H620.7z M625.7,693.9c0-1.1-0.4-2.8-2.4-2.8
				c-1.7,0-2.5,1.6-2.6,2.8H625.7z"/>
			<path class="st6" d="M631.5,687.4v2.7h2.4v1.3h-2.4v5c0,1.2,0.3,1.8,1.3,1.8c0.4,0,0.8-0.1,1-0.1l0.1,1.3
				c-0.3,0.1-0.8,0.2-1.5,0.2c-0.8,0-1.4-0.3-1.8-0.7c-0.5-0.5-0.7-1.3-0.7-2.4v-5.1h-1.4v-1.3h1.4v-2.2L631.5,687.4z"/>
			<path class="st6" d="M636.6,695.1c0,2.3,1.5,3.2,3.2,3.2c1.2,0,1.9-0.2,2.6-0.5l0.3,1.2c-0.6,0.3-1.6,0.6-3.1,0.6
				c-2.9,0-4.6-1.9-4.6-4.7c0-2.8,1.7-5,4.4-5c3,0,3.9,2.7,3.9,4.4c0,0.3,0,0.6-0.1,0.8H636.6z M641.6,693.9c0-1.1-0.4-2.8-2.4-2.8
				c-1.7,0-2.5,1.6-2.6,2.8H641.6z"/>
		</g>
		<g>
			<path class="st6" d="M473.8,240.3c1-0.2,2.2-0.3,3.6-0.3c2.4,0,4.1,0.6,5.3,1.6c1.2,1.1,1.8,2.6,1.8,4.7c0,2.1-0.7,3.9-1.9,5.1
				c-1.2,1.2-3.2,1.9-5.8,1.9c-1.2,0-2.2-0.1-3-0.2V240.3z M475.5,251.8c0.4,0.1,1,0.1,1.7,0.1c3.6,0,5.5-2,5.5-5.5
				c0-3.1-1.7-5-5.3-5c-0.9,0-1.5,0.1-2,0.2V251.8z"/>
			<path class="st6" d="M486.6,246.7c0-1.1,0-2-0.1-2.9h1.5l0.1,1.8h0.1c0.4-1.3,1.4-2,2.6-2c0.2,0,0.3,0,0.5,0.1v1.6
				c-0.2,0-0.3-0.1-0.6-0.1c-1.2,0-2,0.9-2.3,2.2c0,0.2-0.1,0.5-0.1,0.8v5h-1.7V246.7z"/>
			<path class="st6" d="M493.6,248.7c0,2.3,1.5,3.2,3.2,3.2c1.2,0,1.9-0.2,2.6-0.5l0.3,1.2c-0.6,0.3-1.6,0.6-3.1,0.6
				c-2.9,0-4.6-1.9-4.6-4.7c0-2.8,1.7-5,4.4-5c3,0,3.9,2.7,3.9,4.4c0,0.3,0,0.6-0.1,0.8H493.6z M498.6,247.5c0-1.1-0.4-2.8-2.4-2.8
				c-1.7,0-2.5,1.6-2.6,2.8H498.6z"/>
			<path class="st6" d="M502.1,251.4c0.5,0.3,1.4,0.7,2.2,0.7c1.2,0,1.8-0.6,1.8-1.4c0-0.8-0.5-1.3-1.7-1.7
				c-1.7-0.6-2.5-1.5-2.5-2.6c0-1.5,1.2-2.7,3.2-2.7c0.9,0,1.8,0.3,2.3,0.6l-0.4,1.2c-0.4-0.2-1-0.5-1.9-0.5c-1,0-1.6,0.6-1.6,1.3
				c0,0.8,0.6,1.1,1.8,1.6c1.6,0.6,2.5,1.4,2.5,2.8c0,1.6-1.3,2.8-3.5,2.8c-1,0-2-0.3-2.6-0.6L502.1,251.4z"/>
			<path class="st6" d="M509.8,251.4c0.5,0.3,1.4,0.7,2.2,0.7c1.2,0,1.8-0.6,1.8-1.4c0-0.8-0.5-1.3-1.7-1.7
				c-1.7-0.6-2.5-1.5-2.5-2.6c0-1.5,1.2-2.7,3.2-2.7c0.9,0,1.8,0.3,2.3,0.6l-0.4,1.2c-0.4-0.2-1-0.5-1.9-0.5c-1,0-1.6,0.6-1.6,1.3
				c0,0.8,0.6,1.1,1.8,1.6c1.6,0.6,2.5,1.4,2.5,2.8c0,1.6-1.3,2.8-3.5,2.8c-1,0-2-0.3-2.6-0.6L509.8,251.4z"/>
			<path class="st6" d="M524.3,252.8c-0.4,0.2-1.4,0.5-2.7,0.5c-2.8,0-4.7-1.9-4.7-4.8c0-2.9,2-5,5-5c1,0,1.9,0.3,2.4,0.5l-0.4,1.3
				c-0.4-0.2-1-0.4-2-0.4c-2.1,0-3.3,1.6-3.3,3.5c0,2.2,1.4,3.5,3.2,3.5c1,0,1.6-0.3,2.1-0.5L524.3,252.8z"/>
			<path class="st6" d="M534.6,248.4c0,3.5-2.4,5-4.7,5c-2.5,0-4.5-1.9-4.5-4.8c0-3.1,2-5,4.6-5
				C532.8,243.5,534.6,245.5,534.6,248.4z M527.2,248.4c0,2,1.2,3.6,2.8,3.6c1.6,0,2.8-1.5,2.8-3.6c0-1.6-0.8-3.6-2.8-3.6
				C528.1,244.8,527.2,246.7,527.2,248.4z"/>
			<path class="st6" d="M536.8,240.3c1-0.2,2.2-0.3,3.6-0.3c2.4,0,4.1,0.6,5.3,1.6c1.2,1.1,1.8,2.6,1.8,4.7c0,2.1-0.7,3.9-1.9,5.1
				c-1.2,1.2-3.2,1.9-5.8,1.9c-1.2,0-2.2-0.1-3-0.2V240.3z M538.5,251.8c0.4,0.1,1,0.1,1.7,0.1c3.6,0,5.5-2,5.5-5.5
				c0-3.1-1.7-5-5.3-5c-0.9,0-1.5,0.1-2,0.2V251.8z"/>
		</g>
		<g>
			<path class="st6" d="M931.7,428.8c0.7,0.4,1.7,0.8,2.8,0.8c1.6,0,2.5-0.8,2.5-2.1c0-1.1-0.6-1.8-2.3-2.4c-2-0.7-3.2-1.7-3.2-3.4
				c0-1.9,1.6-3.3,3.9-3.3c1.2,0,2.1,0.3,2.7,0.6l-0.4,1.3c-0.4-0.2-1.2-0.6-2.3-0.6c-1.7,0-2.3,1-2.3,1.8c0,1.1,0.7,1.7,2.4,2.3
				c2.1,0.8,3.1,1.8,3.1,3.6c0,1.9-1.4,3.5-4.3,3.5c-1.2,0-2.5-0.3-3.1-0.8L931.7,428.8z"/>
			<path class="st6" d="M941.7,426.6c0,2.1,1.4,3,3,3c1.1,0,1.8-0.2,2.4-0.5l0.3,1.1c-0.6,0.3-1.5,0.5-2.9,0.5
				c-2.7,0-4.3-1.8-4.3-4.4c0-2.6,1.5-4.7,4.1-4.7c2.8,0,3.6,2.5,3.6,4.1c0,0.3,0,0.6-0.1,0.7H941.7z M946.4,425.5
				c0-1-0.4-2.6-2.2-2.6c-1.6,0-2.3,1.5-2.4,2.6H946.4z"/>
			<path class="st6" d="M949.8,424.7c0-1,0-1.9-0.1-2.7h1.4l0.1,1.7h0.1c0.4-1.2,1.4-1.9,2.4-1.9c0.2,0,0.3,0,0.5,0.1v1.5
				c-0.2,0-0.3-0.1-0.5-0.1c-1.1,0-1.9,0.8-2.1,2c0,0.2-0.1,0.5-0.1,0.7v4.7h-1.6V424.7z"/>
			<path class="st6" d="M963.1,421.9c0,0.6-0.1,1.3-0.1,2.4v5.1c0,2-0.4,3.2-1.2,4c-0.8,0.8-2.1,1-3.2,1c-1,0-2.2-0.3-2.9-0.7
				l0.4-1.2c0.6,0.4,1.5,0.7,2.6,0.7c1.6,0,2.8-0.8,2.8-3v-1h0c-0.5,0.8-1.4,1.5-2.8,1.5c-2.2,0-3.7-1.8-3.7-4.3
				c0-3,1.9-4.6,3.9-4.6c1.5,0,2.3,0.8,2.7,1.5h0l0.1-1.3H963.1z M961.5,425.4c0-0.3,0-0.5-0.1-0.7c-0.3-0.9-1.1-1.7-2.2-1.7
				c-1.5,0-2.6,1.3-2.6,3.3c0,1.7,0.9,3.1,2.6,3.1c1,0,1.9-0.6,2.2-1.6c0.1-0.3,0.1-0.6,0.1-0.8V425.4z"/>
			<path class="st6" d="M967.3,419.5c0,0.5-0.4,1-1,1c-0.6,0-1-0.4-1-1c0-0.6,0.4-1,1-1C966.9,418.5,967.3,418.9,967.3,419.5z
				 M965.6,430.7v-8.7h1.6v8.7H965.6z"/>
			<path class="st6" d="M969.8,424.3c0-0.9,0-1.6-0.1-2.4h1.4l0.1,1.4h0c0.4-0.8,1.4-1.6,2.9-1.6c1.2,0,3.1,0.7,3.1,3.7v5.2h-1.6v-5
				c0-1.4-0.5-2.6-2-2.6c-1,0-1.9,0.7-2.1,1.6c-0.1,0.2-0.1,0.5-0.1,0.7v5.2h-1.6V424.3z"/>
			<path class="st6" d="M980.6,426.6c0,2.1,1.4,3,3,3c1.1,0,1.8-0.2,2.4-0.5l0.3,1.1c-0.6,0.3-1.5,0.5-2.9,0.5
				c-2.7,0-4.3-1.8-4.3-4.4c0-2.6,1.5-4.7,4.1-4.7c2.8,0,3.6,2.5,3.6,4.1c0,0.3,0,0.6-0.1,0.7H980.6z M985.3,425.5
				c0-1-0.4-2.6-2.2-2.6c-1.6,0-2.3,1.5-2.4,2.6H985.3z"/>
			<path class="st6" d="M990.7,419.4v2.5h2.3v1.2h-2.3v4.7c0,1.1,0.3,1.7,1.2,1.7c0.4,0,0.7-0.1,0.9-0.1l0.1,1.2
				c-0.3,0.1-0.8,0.2-1.4,0.2c-0.7,0-1.3-0.2-1.7-0.7c-0.5-0.5-0.6-1.2-0.6-2.3v-4.8h-1.4v-1.2h1.4v-2.1L990.7,419.4z"/>
			<path class="st6" d="M996.7,419.4v2.5h2.3v1.2h-2.3v4.7c0,1.1,0.3,1.7,1.2,1.7c0.4,0,0.7-0.1,0.9-0.1l0.1,1.2
				c-0.3,0.1-0.8,0.2-1.4,0.2c-0.7,0-1.3-0.2-1.7-0.7c-0.5-0.5-0.6-1.2-0.6-2.3v-4.8h-1.4v-1.2h1.4v-2.1L996.7,419.4z"/>
			<path class="st6" d="M1002.5,419.5c0,0.5-0.4,1-1,1c-0.6,0-1-0.4-1-1c0-0.6,0.4-1,1-1C1002.1,418.5,1002.5,418.9,1002.5,419.5z
				 M1000.7,430.7v-8.7h1.6v8.7H1000.7z"/>
		</g>
		<g>
			<path class="st6" d="M1297.1,644.5l3.8,1.3v1.6l-12.1-4.1v-1.9l12.1-4.1v1.7l-3.8,1.3V644.5z M1295.9,640.5l-3.5,1.2
				c-0.8,0.3-1.5,0.4-2.2,0.6v0c0.7,0.2,1.5,0.4,2.2,0.6l3.5,1.2V640.5z"/>
			<path class="st6" d="M1286.2,632c0.6-0.1,1.1-0.3,1.1-1.1c0-0.8-0.5-1-1.1-1.1v-1.2c1.2,0.1,1.9,0.8,1.9,2.3
				c0,1.5-0.7,2.2-1.9,2.3V632z M1288.8,634h5.1c1.9,0,3.5,0,5.1,0.1l0,0c-1.3-0.6-2.6-1.4-4-2.3l-6.3-3.9v-1.6h12.1v1.5h-5.2
				c-2,0-3.4,0-4.9-0.1l0,0.1c1.3,0.6,2.7,1.4,4.1,2.3l6,3.8v1.7h-12.1V634z"/>
			<path class="st6" d="M1288.8,622h5.4v-0.5l-5.4-4.2v-1.9l5.6,4.6c0.3-2,1.5-2.8,3.1-3.4c1.2-0.4,2.4-0.8,3.4-1.3v1.7
				c-0.8,0.4-1.9,0.8-2.9,1.1c-1.6,0.6-2.7,1.3-2.7,3.4v0.5h5.6v1.5h-12.1V622z"/>
			<path class="st6" d="M1288.9,613.8c-0.1-0.8-0.2-1.7-0.2-3c0-1.5,0.4-2.7,1-3.4c0.6-0.7,1.5-1.1,2.5-1.1c1.1,0,2,0.3,2.6,0.9
				c0.9,0.8,1.3,2.2,1.3,3.7c0,0.5,0,0.9-0.1,1.3h4.9v1.6H1288.9z M1294.8,612.3c0.1-0.3,0.1-0.8,0.1-1.3c0-1.9-0.9-3-2.6-3
				c-1.6,0-2.4,1.1-2.4,2.9c0,0.7,0.1,1.2,0.1,1.5H1294.8z"/>
			<path class="st6" d="M1297.1,603.8l3.8,1.3v1.6l-12.1-4.1v-1.9l12.1-4.1v1.7l-3.8,1.3V603.8z M1295.9,599.8l-3.5,1.2
				c-0.8,0.3-1.5,0.5-2.2,0.6v0c0.7,0.2,1.5,0.4,2.2,0.6l3.5,1.2V599.8z"/>
			<path class="st6" d="M1288.3,589.1h1.1c0.1-2.6,1.7-5.1,5.5-5.1c3.8,0,5.3,2.6,5.4,5.1h1.1v1.5h-1.1c-0.2,2.5-1.5,5.1-5.4,5.1
				c-4,0-5.4-2.8-5.6-5.2h-1.1V589.1z M1299.1,589.1c-0.1-1.7-1.3-3.5-4.3-3.5c-3.1,0-4.2,1.8-4.3,3.5H1299.1z M1290.5,590.6
				c0.1,1.6,1.2,3.5,4.3,3.5c2.9,0,4.1-1.7,4.3-3.5H1290.5z"/>
			<path class="st6" d="M1290.1,580v3.7h-1.3v-9h1.3v3.7h10.8v1.6H1290.1z"/>
		</g>
		<g>
			<path class="st6" d="M838.4,685v-6.5h1.3v5h4v-4.6h1.3v4.6h5.5v1.6H838.4z"/>
			<path class="st6" d="M844.5,676.7c-1,0-1.9,0-2.7,0.1v-1.4l1.7-0.1v-0.1c-1.2-0.4-1.9-1.4-1.9-2.4c0-0.2,0-0.3,0.1-0.5h1.5
				c0,0.2-0.1,0.3-0.1,0.5c0,1.1,0.8,1.9,2,2.1c0.2,0,0.5,0.1,0.7,0.1h4.7v1.6H844.5z"/>
			<path class="st6" d="M846.5,670.2c2.1,0,3-1.4,3-3c0-1.1-0.2-1.8-0.5-2.4l1.1-0.3c0.3,0.6,0.5,1.5,0.5,2.9c0,2.7-1.8,4.3-4.4,4.3
				c-2.6,0-4.7-1.6-4.7-4.1c0-2.8,2.5-3.6,4.1-3.6c0.3,0,0.6,0,0.7,0.1V670.2z M845.3,665.5c-1,0-2.6,0.4-2.6,2.2
				c0,1.6,1.5,2.3,2.6,2.4V665.5z"/>
			<path class="st6" d="M846.5,661.1c2.1,0,3-1.4,3-3c0-1.1-0.2-1.8-0.5-2.4l1.1-0.3c0.3,0.6,0.5,1.5,0.5,2.9c0,2.7-1.8,4.3-4.4,4.3
				c-2.6,0-4.7-1.6-4.7-4.1c0-2.8,2.5-3.6,4.1-3.6c0.3,0,0.6,0,0.7,0.1V661.1z M845.3,656.5c-1,0-2.6,0.4-2.6,2.2
				c0,1.6,1.5,2.3,2.6,2.4V656.5z"/>
			<path class="st6" d="M844.2,653c-0.9,0-1.6,0-2.4,0.1v-1.4l1.4-0.1v-0.1c-0.8-0.5-1.6-1.3-1.6-2.7c0-1.2,0.7-2.1,1.7-2.5v0
				c-0.5-0.3-0.9-0.6-1.1-1c-0.4-0.5-0.6-1.1-0.6-1.9c0-1.2,0.8-2.9,3.8-2.9h5.1v1.6h-4.9c-1.7,0-2.7,0.6-2.7,1.9
				c0,0.9,0.7,1.6,1.4,1.9c0.2,0.1,0.5,0.1,0.8,0.1h5.4v1.5h-5.2c-1.4,0-2.4,0.6-2.4,1.8c0,1,0.8,1.7,1.6,2c0.2,0.1,0.5,0.1,0.8,0.1
				h5.3v1.6H844.2z"/>
			<path class="st6" d="M850.5,633.1l-1.1,0.1v0.1c0.7,0.5,1.3,1.4,1.3,2.7c0,1.8-1.2,2.7-2.5,2.7c-2.1,0-3.3-1.9-3.2-5.2h-0.2
				c-0.7,0-2,0.2-2,2c0,0.8,0.3,1.7,0.6,2.3l-1,0.4c-0.5-0.7-0.8-1.8-0.8-2.9c0-2.7,1.8-3.3,3.6-3.3h3.3c0.8,0,1.5,0,2.1-0.1V633.1z
				 M846.1,633.4c0,1.7,0.3,3.7,2,3.7c1,0,1.5-0.7,1.5-1.5c0-1.1-0.7-1.9-1.5-2.1c-0.2-0.1-0.3-0.1-0.5-0.1H846.1z"/>
			<path class="st6" d="M844.2,629.3c-0.9,0-1.6,0-2.4,0.1v-1.4l1.4-0.1v0c-0.8-0.4-1.6-1.4-1.6-2.9c0-1.2,0.7-3.1,3.7-3.1h5.2v1.6
				h-5c-1.4,0-2.6,0.5-2.6,2c0,1,0.7,1.9,1.6,2.1c0.2,0.1,0.5,0.1,0.7,0.1h5.2v1.6H844.2z"/>
		</g>
		<g>
			<path class="st6" d="M762.4,665.7v-1h7v-3.3h0.8v4.3H762.4z"/>
			<path class="st6" d="M767.7,659l2.5,0.8v1l-7.8-2.7V657l7.8-2.7v1.1l-2.5,0.8V659z M766.9,656.4l-2.2,0.8c-0.5,0.2-1,0.3-1.4,0.4
				v0c0.5,0.1,0.9,0.2,1.4,0.4l2.3,0.8V656.4z"/>
			<path class="st6" d="M762.5,653.1c-0.1-0.6-0.2-1.3-0.2-2.1c0-1.4,0.3-2.5,1-3.2c0.6-0.7,1.5-1.1,2.8-1.1c1.3,0,2.3,0.4,3,1.1
				c0.7,0.7,1.1,1.9,1.1,3.5c0,0.7,0,1.3-0.1,1.8H762.5z M769.4,652.1c0-0.3,0.1-0.6,0.1-1c0-2.2-1.2-3.3-3.3-3.3c-1.8,0-3,1-3,3.2
				c0,0.5,0,0.9,0.1,1.2H769.4z"/>
			<path class="st6" d="M770.2,644h-3.3l-4.5,2.5v-1.1l2.2-1.1c0.6-0.3,1.1-0.5,1.6-0.8v0c-0.5-0.2-1-0.5-1.6-0.8l-2.2-1.1v-1.1
				l4.5,2.6h3.3V644z"/>
			<path class="st6" d="M783.8,678.3c0.2,0.4,0.4,1.1,0.4,2.1c0,2.2-1.4,3.9-3.9,3.9c-2.4,0-4.1-1.7-4.1-4.1c0-1,0.2-1.6,0.3-1.9
				l0.8,0.2c-0.2,0.4-0.3,0.9-0.3,1.6c0,1.8,1.2,3,3.2,3c1.9,0,3.1-1.1,3.1-3c0-0.6-0.1-1.2-0.3-1.6L783.8,678.3z"/>
			<path class="st6" d="M780.1,670.6c2.7,0,4.1,1.6,4.1,3.6c0,2.1-1.6,3.5-4,3.5c-2.5,0-4.1-1.5-4.1-3.6
				C776.2,672,777.8,670.6,780.1,670.6z M780.2,676.6c1.7,0,3.2-0.9,3.2-2.5c0-1.6-1.5-2.5-3.2-2.5c-1.6,0-3.2,0.8-3.2,2.5
				C777,675.8,778.5,676.6,780.2,676.6z"/>
			<path class="st6" d="M776.3,669.3v-1h7v-3.3h0.8v4.3H776.3z"/>
			<path class="st6" d="M776.3,663.8v-1h7v-3.3h0.8v4.3H776.3z"/>
			<path class="st6" d="M780.4,654.3v3h2.8v-3.4h0.8v4.4h-7.8v-4.2h0.8v3.2h2.5v-3H780.4z"/>
			<path class="st6" d="M783.8,647.2c0.2,0.4,0.4,1.1,0.4,2.1c0,2.2-1.4,3.9-3.9,3.9c-2.4,0-4.1-1.7-4.1-4.1c0-1,0.2-1.6,0.3-1.9
				l0.8,0.2c-0.2,0.4-0.3,0.9-0.3,1.6c0,1.8,1.2,3,3.2,3c1.9,0,3.1-1.1,3.1-3c0-0.6-0.1-1.2-0.3-1.6L783.8,647.2z"/>
			<path class="st6" d="M777.1,644.1v2.4h-0.9v-5.8h0.9v2.4h7v1H777.1z"/>
			<path class="st6" d="M776.3,638.8h7.8v1h-7.8V638.8z"/>
			<path class="st6" d="M780.1,630.4c2.7,0,4.1,1.6,4.1,3.6c0,2.1-1.6,3.5-4,3.5c-2.5,0-4.1-1.5-4.1-3.6
				C776.2,631.8,777.8,630.4,780.1,630.4z M780.2,636.5c1.7,0,3.2-0.9,3.2-2.5c0-1.6-1.5-2.5-3.2-2.5c-1.6,0-3.2,0.8-3.2,2.5
				C777,635.6,778.5,636.5,780.2,636.5z"/>
			<path class="st6" d="M784.1,629.1h-7.8V628l3.9-2.5c0.9-0.6,1.7-1,2.5-1.4l0,0c-1,0.1-2,0.1-3.2,0.1h-3.3v-0.9h7.8v1l-4,2.5
				c-0.9,0.5-1.8,1.1-2.6,1.5l0,0c1-0.1,1.9-0.1,3.2-0.1h3.3V629.1z"/>
		</g>
		<path class="st5" d="M454.6,599.4c-68.2,0-123.7-55.5-123.7-123.7S386.4,352,454.6,352s123.7,55.5,123.7,123.7
			S522.8,599.4,454.6,599.4z M454.6,353.3c-67.5,0-122.4,54.9-122.4,122.4s54.9,122.4,122.4,122.4S577,543.2,577,475.7
			S522.1,353.3,454.6,353.3z"/>
		<g>
			<path class="st6" d="M79.3,312.2h15.6v2H81v7.3h13.9v2H79.3V312.2z"/>
			<path class="st6" d="M89.7,307.6c2.8,0,3.9-1.8,3.9-3.8c0-1.5-0.3-2.3-0.6-3.1l1.5-0.3c0.3,0.7,0.7,1.9,0.7,3.7
				c0,3.5-2.3,5.5-5.7,5.5s-6-2-6-5.3c0-3.7,3.2-4.6,5.3-4.6c0.4,0,0.7,0,0.9,0.1V307.6z M88.2,301.7c-1.3,0-3.3,0.5-3.3,2.8
				c0,2.1,1.9,3,3.3,3.1V301.7z"/>
			<path class="st6" d="M83.7,288.7h11.2v2h-9.6v3.8h2.9c3.2,0,5.3,0.3,6.2,1.8c0.4,0.6,0.7,1.2,0.7,2.2l-1.6,0.2
				c-0.1-0.4-0.2-0.8-0.5-1.1c-0.8-1-2.3-1.2-4.8-1.2h-4.5V288.7z"/>
			<path class="st6" d="M83.7,283.4h3.8c-0.1-0.5-0.1-1.3-0.1-1.9c0-2.5,0.8-5.2,3.8-5.2c1.2,0,2,0.5,2.6,1.2c1,1.2,1.3,3.2,1.3,4.9
				c0,1.1-0.1,2.2-0.2,3H83.7V283.4z M93.5,283.4c0-0.4,0.1-0.8,0.1-1.5c0-1.5-0.5-3.5-2.4-3.5c-1.9,0-2.4,2-2.4,3.5
				c0,0.5,0,1,0.1,1.5H93.5z"/>
			<path class="st6" d="M83.7,273.7v-2.5l5.7-2c0.8-0.3,2.2-0.8,3.1-1v0c-0.8-0.3-2.6-0.9-3.8-1.3l-4.9-1.8v-2.5l11.2-0.8v1.9
				l-5.4,0.3c-1.2,0.1-2.6,0.2-4,0.2v0.1c1,0.3,1.9,0.6,3.6,1.2l5.7,2.2v1.5l-5.5,2c-1.1,0.3-2.7,0.8-3.7,1.1v0.1
				c1.3,0,2.8,0.1,4,0.2l5.3,0.3v1.9L83.7,273.7z"/>
			<path class="st6" d="M89.7,257.9c2.8,0,3.9-1.8,3.9-3.8c0-1.5-0.3-2.3-0.6-3.1l1.5-0.3c0.3,0.7,0.7,1.9,0.7,3.7
				c0,3.5-2.3,5.5-5.7,5.5s-6-2-6-5.3c0-3.7,3.2-4.6,5.3-4.6c0.4,0,0.7,0,0.9,0.1V257.9z M88.2,251.9c-1.3,0-3.3,0.5-3.3,2.8
				c0,2.1,1.9,3,3.3,3.1V251.9z"/>
			<path class="st6" d="M83.7,245.4h9.6v-3.9h-9.6v-2h9.6v-3.9h-9.6v-2h11.2v13.8H83.7V245.4z"/>
			<path class="st6" d="M83.7,228.3h4.9v-0.5l-4.9-4.2v-2.5l5.1,4.9c0.2-1.8,1.4-2.9,3.4-3.8c0.7-0.3,1.8-0.7,2.7-1.2v2.1
				c-0.5,0.3-1.4,0.7-2.3,1c-1.8,0.8-2.6,1.8-2.6,3.7v0.4h4.9v2H83.7V228.3z"/>
			<path class="st6" d="M83.7,217.3h4.7c1.8,0,2.9,0,4.5,0.1l0-0.1c-1.4-0.7-2.2-1.1-3.5-1.8l-5.8-3.5v-2.4h11.2v1.9h-4.7
				c-1.8,0-2.8,0-4.6-0.1v0.1c1.4,0.7,2.3,1.2,3.5,1.9c1.7,1.1,3.9,2.3,5.9,3.5v2.3H83.7V217.3z"/>
		</g>
		
			<rect x="532.6" y="359.8" transform="matrix(0.7694 0.6388 -0.6388 0.7694 359.8911 -260.6324)" class="st7" width="16.7" height="16.7"/>
		
			<rect x="557.8" y="553" transform="matrix(0.8347 0.5508 -0.5508 0.8347 402.7913 -219.0146)" class="st7" width="16.7" height="16.7"/>
		<rect x="649" y="450.1" class="st7" width="16.7" height="16.7"/>
		<rect x="649" y="450.1" class="st7" width="16.7" height="16.7"/>
		<rect x="672.9" y="450.1" class="st7" width="16.7" height="16.7"/>
		<rect x="698.4" y="450.1" class="st7" width="16.7" height="16.7"/>
		<rect x="649" y="564.6" class="st7" width="16.7" height="16.7"/>
		<rect x="698.4" y="564.6" class="st7" width="16.7" height="16.7"/>
		<rect x="817.2" y="505.7" class="st7" width="16.7" height="16.7"/>
		<rect x="909.2" y="577.2" class="st7" width="16.7" height="16.7"/>
		<rect x="900.8" y="434.4" class="st7" width="16.7" height="16.7"/>
		<rect x="930.3" y="505.7" class="st7" width="16.7" height="16.7"/>
		<rect x="1173" y="505.7" class="st7" width="16.7" height="16.7"/>
		<rect x="1247.9" y="505.7" class="st7" width="16.7" height="16.7"/>
		<rect x="1340.4" y="317.8" class="st7" width="16.7" height="16.7"/>
	</g>
</g>
<g id="Слой_3">
</g>
</svg>
