<?xml version="1.0" encoding="utf-8"?>
<!-- Generator: Adobe Illustrator 22.0.1, SVG Export Plug-In . SVG Version: 6.00 Build 0)  -->
<svg version="1.1" xmlns="http://www.w3.org/2000/svg" xmlns:xlink="http://www.w3.org/1999/xlink" x="0px" y="0px"
	 viewBox="0 0 1920 1080" style="enable-background:new 0 0 1920 1080;" xml:space="preserve">
<style type="text/css">
	.st0{display:none;fill:none;stroke:#201600;stroke-width:0.6143;stroke-miterlimit:10;}
	.st1{fill:#E2E2E2;}
	.st2{fill:#68D94C;stroke:#E2E2E2;stroke-width:1.6329;stroke-miterlimit:10;}
	.st3{fill:#68D94C;stroke:#E2E2E2;stroke-width:1.2867;stroke-miterlimit:10;}
	.st4{fill:#68D94C;stroke:#E2E2E2;stroke-width:1.5194;stroke-miterlimit:10;}
	.st5{fill:#8E8E8E;}
	.st6{fill:#FFFFFF;}
	.st7{fill:#68D94C;}
</style>
<g id="Слой_1">
</g>
<g id="Слой_4">
</g>
<g id="Слой_7">
</g>
<g id="Слой_5">
</g>
<g id="Слой_8">
	<g id="Слой_6">
	</g>
</g>
<g id="Слой_2">
</g>
<g id="Слой_3">
	<g>
		<path class="st1" d="M1856.3,558.8v-385h-477.1v-16.4h-57.8v19.4H927.2v-19.4H729.1v25.5H367.9v-25.5h-55.8v25.5H45.6v-25.5H33.2
			v34.1h0.5c-0.3,8.4-0.5,16.7-0.5,24.7c0,92.2,18.1,181.7,53.7,266c34.4,81.4,83.7,154.4,146.4,217.2
			c62.7,62.8,135.8,112,217.2,146.4c84.2,35.6,173.7,53.7,266,53.7c8.6,0,17.2-0.2,25.7-0.5v0.5h20.2v-20.2h-18.9v-70.7h128v38.4
			h455.1v-10.8h44.6v-9.9h486.5V558.8H1856.3z"/>
		<path class="st3" d="M652.7,319.2V184.3H368.6V281h96.4c0,0,34.5-2.3,75.8,17.9c0.9,0.4,1.8,0.9,2.7,1.3c0.6,0.3,1.1,0.6,1.7,0.9
			c10.3,5.4,20.9,12.1,31.4,20.7c14.2,11.5,25.2,23.3,33.8,34.4c24.5,31.8,28.8,58.2,28.8,58.2H737v-95.2H652.7z"/>
		<rect x="1379.1" y="560.2" class="st3" width="477.4" height="266.1"/>
		<polygon class="st3" points="1379.1,175.4 1379.1,472.3 1434.4,472.3 1434.4,560.2 1856.5,560.2 1856.5,472.3 1856.5,263.3 
			1856.5,175.4 		"/>
		<rect x="1379.1" y="472.3" class="st3" width="55.3" height="87.9"/>
		<rect x="933.9" y="319.2" class="st3" width="95.2" height="95.2"/>
		<rect x="1228.5" y="319.2" class="st3" width="95.2" height="95.2"/>
		<rect x="1029.1" y="319.2" class="st3" width="199.4" height="95.2"/>
		<path class="st5" d="M1263.9,560.8H986v-89.2h277.9V560.8z M987.3,559.5h275.4v-86.6H987.3V559.5z"/>
		<polygon class="st3" points="1295.4,709 1295.4,611.3 1106.3,611.3 1106.3,702.6 1106.3,709 1106.3,739.9 1106.3,745.1 
			1106.3,769.5 1295.4,769.5 1295.4,739.9 1263.3,739.9 1263.3,709 		"/>
		<polygon class="st3" points="960.5,709 960.5,611.3 1106.3,611.3 1106.3,769.5 960.5,769.5 960.5,739.9 992.7,739.9 992.7,709 		
			"/>
		<rect x="764" y="319.2" class="st3" width="111.9" height="95.2"/>
		<rect x="798.8" y="611.3" class="st3" width="77.2" height="68.2"/>
		<rect x="730.6" y="611.3" class="st3" width="68.2" height="68.2"/>
		<path class="st3" d="M730.6,899.4V611.3H569.7l-23.2,14.2v75.9h-79.8v150.7c77.6,30.6,162.1,47.4,250.5,47.4
			C721.7,899.5,726.2,899.5,730.6,899.4z"/>
		<path class="st3" d="M320.7,338.1c-3.7-3.4-10.4-9.9-18.6-18.9c-12.9-14.2-32.2-36-32.2-36v-24.4H212v-74.4h-25.6H45.8H34.7v7.3
			h0.5c-0.3,8.4-0.5,16.9-0.5,25.3c0,58.5,7.4,115.3,21.2,169.6l87.9-8.1L280.1,414C287.5,385.4,301.7,359.5,320.7,338.1z"/>
		<path class="st3" d="M196.3,392.1c0,0-4.9,8.1-8.8,25.5c-3.9,17.4,0,43.1,0,43.1h86.6c0-16.3,2.1-32,6.1-47L196.3,392.1z"/>
		<path class="st3" d="M274.1,460.7c0-16.3,2.1-32,6.1-47.1l-136.4-35.3l-87.9,8.1c19.6,76.5,52,147.8,94.9,211.5l131.5-82.6
			C277,498.1,274.1,479.7,274.1,460.7z"/>
		<path class="st3" d="M282.3,515.3l-131.5,82.6c19.9,29.5,42,57.4,66.1,83.4L323.1,586C304.7,566,290.6,541.9,282.3,515.3z"/>
		<path class="st3" d="M323.1,586L217,681.3c28.9,31.1,60.6,59.5,94.8,84.8l63.6-140.6C355.7,615.5,338,602.1,323.1,586z"/>
		<path class="st3" d="M452.6,645.2c-27.7-0.9-53.9-7.9-77.2-19.7l-63.6,140.6c47.3,35,99.4,64.1,155,86V701.3h-14.2V645.2z"/>
		<path class="st3" d="M458.8,645.4c-2.1,0-4.1,0-6.1-0.1v56.1h93.9v-78.1C520.4,637.3,490.5,645.4,458.8,645.4z"/>
		<g>
			<path class="st6" d="M119.4,298.1l8.7-12.7v-0.1h-7.9v-1.7h10.5v1.2l-8.6,12.6v0.1h8.7v1.7h-11.4V298.1z"/>
			<path class="st6" d="M146.1,291.4c0,5.4-3.3,8.2-7.3,8.2c-4.1,0-7-3.2-7-7.9c0-5,3.1-8.2,7.3-8.2
				C143.4,283.5,146.1,286.7,146.1,291.4z M134,291.6c0,3.3,1.8,6.3,5,6.3c3.2,0,5-2.9,5-6.5c0-3.1-1.6-6.3-5-6.3
				C135.7,285.1,134,288.2,134,291.6z"/>
			<path class="st6" d="M148.7,283.7h2v13.9h6.7v1.7h-8.7V283.7z"/>
			<path class="st6" d="M159.7,283.7h2v13.9h6.7v1.7h-8.7V283.7z"/>
			<path class="st6" d="M173.1,294.4l-1.6,4.9h-2.1l5.3-15.6h2.4l5.3,15.6h-2.2l-1.7-4.9H173.1z M178.2,292.8l-1.5-4.5
				c-0.3-1-0.6-1.9-0.8-2.8h0c-0.2,0.9-0.5,1.9-0.8,2.8l-1.5,4.5H178.2z"/>
		</g>
		<g>
			<path class="st6" d="M123.1,471.8c-0.7,0.4-2.2,0.7-4.1,0.7c-4.4,0-7.7-2.8-7.7-7.9c0-4.9,3.3-8.2,8.2-8.2c1.9,0,3.2,0.4,3.7,0.7
				l-0.5,1.6c-0.8-0.4-1.9-0.6-3.2-0.6c-3.7,0-6.1,2.3-6.1,6.4c0,3.8,2.2,6.3,6,6.3c1.2,0,2.5-0.3,3.3-0.6L123.1,471.8z"/>
			<path class="st6" d="M127.7,456.7v6.5h7.6v-6.5h2v15.6h-2V465h-7.6v7.3h-2v-15.6H127.7z"/>
			<path class="st6" d="M148.8,465h-6.1v5.6h6.8v1.7h-8.8v-15.6h8.4v1.7h-6.4v4.9h6.1V465z"/>
			<path class="st6" d="M152.2,456.9c1-0.2,2.5-0.3,3.9-0.3c2.2,0,3.5,0.4,4.5,1.3c0.8,0.7,1.2,1.8,1.2,3c0,2.1-1.3,3.4-2.9,4v0.1
				c1.2,0.4,1.9,1.5,2.3,3.2c0.5,2.2,0.9,3.7,1.2,4.3h-2.1c-0.3-0.4-0.6-1.8-1-3.7c-0.5-2.2-1.3-3-3.1-3h-1.9v6.8h-2V456.9z
				 M154.2,464h2.1c2.2,0,3.5-1.2,3.5-3c0-2-1.5-2.9-3.6-2.9c-1,0-1.7,0.1-2,0.2V464z"/>
			<path class="st6" d="M164.6,456.9c1-0.2,2.5-0.3,3.9-0.3c2.2,0,3.5,0.4,4.5,1.3c0.8,0.7,1.2,1.8,1.2,3c0,2.1-1.3,3.4-2.9,4v0.1
				c1.2,0.4,1.9,1.5,2.3,3.2c0.5,2.2,0.9,3.7,1.2,4.3h-2.1c-0.3-0.4-0.6-1.8-1-3.7c-0.5-2.2-1.3-3-3.1-3h-1.9v6.8h-2V456.9z
				 M166.6,464h2.1c2.2,0,3.5-1.2,3.5-3c0-2-1.5-2.9-3.6-2.9c-1,0-1.7,0.1-2,0.2V464z"/>
			<path class="st6" d="M180.3,472.3v-6.6l-4.9-9h2.3l2.2,4.3c0.6,1.2,1.1,2.1,1.6,3.2h0c0.4-1,1-2,1.6-3.2l2.2-4.3h2.3l-5.2,9v6.6
				H180.3z"/>
			<path class="st6" d="M194.3,456.7h2v13.9h6.7v1.7h-8.7V456.7z"/>
			<path class="st6" d="M207.7,467.4l-1.6,4.9H204l5.3-15.6h2.4l5.3,15.6h-2.2l-1.7-4.9H207.7z M212.8,465.8l-1.5-4.5
				c-0.3-1-0.6-1.9-0.8-2.8h0c-0.2,0.9-0.5,1.9-0.8,2.8l-1.5,4.5H212.8z"/>
			<path class="st6" d="M219.4,456.9c1.2-0.2,2.7-0.3,4.3-0.3c2.9,0,5,0.7,6.3,1.9c1.4,1.3,2.2,3.1,2.2,5.6c0,2.5-0.8,4.6-2.2,6.1
				c-1.5,1.5-3.9,2.2-6.9,2.2c-1.4,0-2.6-0.1-3.7-0.2V456.9z M221.4,470.7c0.5,0.1,1.3,0.1,2,0.1c4.3,0,6.6-2.4,6.6-6.6
				c0-3.7-2.1-6-6.3-6c-1,0-1.8,0.1-2.4,0.2V470.7z"/>
			<path class="st6" d="M237.6,472.3v-6.6l-4.9-9h2.3l2.2,4.3c0.6,1.2,1.1,2.1,1.6,3.2h0c0.4-1,1-2,1.6-3.2l2.2-4.3h2.3l-5.2,9v6.6
				H237.6z"/>
		</g>
		<g>
			<path class="st6" d="M360.4,723.4c1-0.2,2.5-0.3,3.9-0.3c2.2,0,3.5,0.4,4.5,1.3c0.8,0.7,1.2,1.8,1.2,3c0,2.1-1.3,3.4-2.9,4v0.1
				c1.2,0.4,1.9,1.5,2.3,3.2c0.5,2.2,0.9,3.7,1.2,4.3h-2.1c-0.3-0.4-0.6-1.8-1-3.7c-0.5-2.2-1.3-3-3.1-3h-1.9v6.8h-2V723.4z
				 M362.5,730.5h2.1c2.2,0,3.5-1.2,3.5-3c0-2-1.5-2.9-3.6-2.9c-1,0-1.7,0.1-2,0.2V730.5z"/>
			<path class="st6" d="M381,731.5h-6.1v5.6h6.8v1.7h-8.8v-15.6h8.4v1.7h-6.4v4.9h6.1V731.5z"/>
			<path class="st6" d="M397.5,731.9c-0.1-2.2-0.3-4.8-0.2-6.7h-0.1c-0.5,1.8-1.2,3.8-2,5.9l-2.8,7.6h-1.5l-2.5-7.4
				c-0.7-2.2-1.4-4.2-1.8-6.1h0c0,1.9-0.2,4.6-0.3,6.9l-0.4,6.7h-1.9l1.1-15.6h2.6l2.7,7.6c0.6,1.9,1.2,3.6,1.6,5.3h0.1
				c0.4-1.6,0.9-3.3,1.6-5.3l2.8-7.6h2.6l1,15.6h-2L397.5,731.9z"/>
			<path class="st6" d="M404.9,723.2v15.6h-2v-15.6H404.9z"/>
			<path class="st6" d="M417,738.8l-2-3.5c-0.8-1.3-1.3-2.2-1.8-3.1h0c-0.4,0.9-0.9,1.7-1.7,3.1l-1.9,3.4h-2.3l4.8-7.9l-4.6-7.7h2.3
				l2.1,3.7c0.6,1,1,1.8,1.4,2.6h0.1c0.4-0.9,0.8-1.6,1.4-2.6l2.1-3.7h2.3l-4.7,7.6l4.9,8H417z"/>
		</g>
		<g>
			<path class="st6" d="M562.2,748.5c-0.1-2.2-0.3-4.8-0.2-6.7h-0.1c-0.5,1.8-1.2,3.8-2,5.9l-2.8,7.6h-1.5l-2.5-7.4
				c-0.7-2.2-1.4-4.2-1.8-6.1h0c0,1.9-0.2,4.6-0.3,6.9l-0.4,6.7h-1.9l1.1-15.6h2.6l2.7,7.6c0.6,1.9,1.2,3.6,1.6,5.3h0.1
				c0.4-1.6,0.9-3.3,1.6-5.3l2.8-7.6h2.6l1,15.6h-2L562.2,748.5z"/>
			<path class="st6" d="M570,750.5l-1.6,4.9h-2.1l5.3-15.6h2.4l5.3,15.6h-2.2l-1.7-4.9H570z M575.1,748.9l-1.5-4.5
				c-0.3-1-0.6-1.9-0.8-2.8h0c-0.2,0.9-0.5,1.9-0.8,2.8l-1.5,4.5H575.1z"/>
			<path class="st6" d="M592.7,739.8v15.6h-2v-13.9h-5.2v4.7c0,3.4-0.1,7.2-2.3,8.6c-0.6,0.4-1.5,0.7-2.4,0.7l-0.3-1.6
				c0.6-0.1,1.3-0.5,1.6-0.8c1.3-1.2,1.4-4.3,1.4-6.8v-6.6H592.7z"/>
			<path class="st6" d="M598.2,739.8v5.8c0.5-0.1,1.3-0.1,1.9-0.1c3.2,0,6,1.4,6,4.9c0,1.4-0.5,2.5-1.2,3.3
				c-1.3,1.3-3.5,1.8-5.6,1.8c-1.4,0-2.5-0.1-3.1-0.2v-15.6H598.2z M598.2,753.8c0.4,0.1,0.9,0.1,1.6,0.1c2.2,0,4.1-1.1,4.1-3.5
				c0-2.4-2.1-3.4-4.2-3.4c-0.7,0-1.3,0.1-1.6,0.1V753.8z M609.9,739.8v15.6h-2v-15.6H609.9z"/>
			<path class="st6" d="M615.5,739.8v13.9h5.1v-13.9h2v13.9h5v-13.9h2v15.6h-16.1v-15.6H615.5z"/>
			<path class="st6" d="M643.9,743.1v5.4h5.2v1.4h-5.2v5.5h-1.5v-5.5h-5.2v-1.4h5.2v-5.4H643.9z"/>
		</g>
		<g>
			<path class="st6" d="M996.3,637.4V653h-2v-13.9h-5.2v4.7c0,3.4-0.1,7.2-2.3,8.6c-0.6,0.4-1.5,0.7-2.4,0.7l-0.3-1.6
				c0.6-0.1,1.3-0.5,1.6-0.8c1.3-1.2,1.4-4.3,1.4-6.8v-6.6H996.3z"/>
			<path class="st6" d="M1001.7,641.8v4.7h1.9c0.3-3,2.3-5,5-5c2.9,0,4.9,2.3,4.9,5.8c0,3.6-2.2,6-5,6c-2.7,0-4.7-2-4.9-5.2h-1.9
				v4.9h-2v-11.2H1001.7z M1011.5,647.4c0-2.1-0.9-4.3-2.9-4.3c-2,0-3,2.1-3,4.4c0,2.2,1,4.3,3,4.3
				C1010.6,651.8,1011.5,649.5,1011.5,647.4z"/>
			<path class="st6" d="M1024.6,638c-0.6,0.2-1.6,0.4-2.3,0.5c-1.8,0.3-3.1,0.9-4,2.1c-0.7,1-1.1,2.5-1.2,3.7h0.1
				c0.7-1.6,2.3-2.5,3.9-2.5c2.8,0,4.8,2,4.8,5.5c0,3.7-1.9,5.9-5.2,5.9c-3.9,0-5.2-3.8-5.2-7.5c0-2.5,0.5-4.6,1.7-6.2
				c1.1-1.6,2.6-2.3,4.8-2.6c0.9-0.1,2-0.3,2.8-0.6L1024.6,638z M1020.6,643.3c-1.2,0-2.1,0.6-2.5,1.5c-0.4,0.7-0.6,1.5-0.6,2.4
				c0,1.9,0.9,4.5,3.1,4.5c2.2,0,3.1-2.2,3.1-4.2C1023.7,645.7,1023,643.3,1020.6,643.3z"/>
			<path class="st6" d="M1030.2,641.8v4.7c0,1.8,0,2.9-0.1,4.5l0.1,0c0.7-1.4,1.1-2.2,1.8-3.5l3.5-5.8h2.4V653h-1.9v-4.7
				c0-1.8,0-2.8,0.1-4.6h-0.1c-0.7,1.4-1.2,2.3-1.9,3.5c-1.1,1.7-2.3,3.9-3.5,5.9h-2.3v-11.2H1030.2z"/>
			<path class="st6" d="M1041.3,641.8h2.5l2,5.7c0.3,0.8,0.8,2.2,1,3.1h0c0.3-0.8,0.9-2.6,1.3-3.8l1.8-4.9h2.5l0.8,11.2h-1.9
				l-0.3-5.4c-0.1-1.2-0.2-2.6-0.2-4h-0.1c-0.3,1-0.6,1.9-1.2,3.6l-2.2,5.7h-1.5l-2-5.5c-0.3-1.1-0.8-2.7-1.1-3.7h-0.1
				c0,1.3-0.1,2.8-0.2,4l-0.3,5.3h-1.9L1041.3,641.8z"/>
			<path class="st6" d="M1057.9,641.8v3.8c0.4-0.1,1.1-0.1,1.8-0.1c2.4,0,4.8,1,4.8,3.8c0,1.2-0.4,2-1.2,2.6c-1.2,1-3,1.3-4.5,1.3
				c-1.1,0-2.2-0.1-3-0.2v-11.2H1057.9z M1057.9,651.6c0.4,0,0.8,0.1,1.4,0.1c1.6,0,3.2-0.6,3.2-2.4c0-1.8-1.6-2.4-3.2-2.4
				c-0.6,0-1.1,0-1.5,0.1V651.6z M1068,641.8V653h-2v-11.2H1068z"/>
			<path class="st6" d="M1073.2,641.8v4.7c0,1.8,0,2.9-0.1,4.5l0.1,0c0.7-1.4,1.1-2.2,1.8-3.5l3.5-5.8h2.4V653h-1.9v-4.7
				c0-1.8,0-2.8,0.1-4.6h-0.1c-0.7,1.4-1.2,2.3-1.9,3.5c-1.1,1.7-2.3,3.9-3.5,5.9h-2.3v-11.2H1073.2z M1074.6,637.3
				c0.1,1,0.6,1.8,1.5,1.8c1,0,1.5-0.7,1.6-1.8h1.5c-0.1,1.9-1.3,2.9-3.1,2.9c-2,0-2.8-1.3-2.9-2.9H1074.6z"/>
			<path class="st6" d="M990.7,669.6v4.9h0.5l4.2-4.9h2.5l-4.9,5.1c1.8,0.2,2.9,1.4,3.8,3.4c0.3,0.7,0.7,1.8,1.2,2.7h-2.1
				c-0.3-0.5-0.7-1.4-1-2.3c-0.8-1.8-1.8-2.6-3.7-2.6h-0.4v4.9h-2v-11.2H990.7z"/>
			<path class="st6" d="M1001.7,669.6v4.5h5.3v-4.5h2v11.2h-2v-5.1h-5.3v5.1h-2v-11.2H1001.7z"/>
			<path class="st6" d="M1014.3,669.6v4.7c0,1.8,0,2.9-0.1,4.5l0.1,0c0.7-1.4,1.1-2.2,1.8-3.5l3.5-5.8h2.4v11.2h-1.9v-4.7
				c0-1.8,0-2.8,0.1-4.6h-0.1c-0.7,1.4-1.2,2.3-1.9,3.5c-1.1,1.7-2.3,3.9-3.5,5.9h-2.3v-11.2H1014.3z"/>
			<path class="st6" d="M1026.2,669.6l3.7,4.9h0.4v-4.9h1.9v4.9h0.4l3.7-4.9h2.3l-4.4,5.1c1.7,0.2,2.7,1.2,3.4,3
				c0.4,1.1,0.8,2.3,1.2,3.2h-2c-0.4-0.7-0.7-1.6-1-2.6c-0.7-1.8-1.7-2.4-3.2-2.4h-0.3v5h-1.9v-5h-0.4c-1.6,0-2.5,0.6-3.2,2.4
				c-0.4,1-0.7,1.9-1.1,2.5h-2c0.5-0.9,0.8-2.1,1.2-3.1c0.7-1.8,1.7-2.8,3.4-3l-4.4-5.1H1026.2z"/>
			<path class="st6" d="M1042.6,669.6v4.5h5.3v-4.5h2v11.2h-2v-5.1h-5.3v5.1h-2v-11.2H1042.6z"/>
			<path class="st6" d="M1055.3,669.6v3.8c0.4-0.1,1.1-0.1,1.8-0.1c2.4,0,4.8,1,4.8,3.8c0,1.2-0.4,2-1.2,2.6c-1.2,1-3,1.3-4.5,1.3
				c-1.1,0-2.2-0.1-3-0.2v-11.2H1055.3z M1055.3,679.4c0.4,0,0.8,0.1,1.4,0.1c1.6,0,3.2-0.6,3.2-2.4c0-1.8-1.6-2.4-3.2-2.4
				c-0.6,0-1.1,0-1.5,0.1V679.4z M1065.4,669.6v11.2h-2v-11.2H1065.4z"/>
			<path class="st6" d="M1070.6,669.6v4.7c0,1.8,0,2.9-0.1,4.5l0.1,0c0.7-1.4,1.1-2.2,1.8-3.5l3.5-5.8h2.4v11.2h-1.9v-4.7
				c0-1.8,0-2.8,0.1-4.6h-0.1c-0.7,1.4-1.2,2.3-1.9,3.5c-1.1,1.7-2.3,3.9-3.5,5.9h-2.3v-11.2H1070.6z M1071.9,665.1
				c0.1,1,0.6,1.8,1.5,1.8c1,0,1.5-0.7,1.6-1.8h1.5c-0.1,1.9-1.3,2.9-3.1,2.9c-2,0-2.8-1.3-2.9-2.9H1071.9z"/>
		</g>
		<g>
			<path class="st6" d="M1268.6,354.1c-0.1-2.2-0.3-4.8-0.2-6.7h-0.1c-0.5,1.8-1.2,3.8-2,5.9l-2.8,7.6h-1.5l-2.5-7.4
				c-0.7-2.2-1.4-4.2-1.8-6.1h0c0,1.9-0.2,4.6-0.3,6.9l-0.4,6.7h-1.9l1.1-15.6h2.6l2.7,7.6c0.6,1.9,1.2,3.6,1.6,5.3h0.1
				c0.4-1.6,0.9-3.3,1.6-5.3l2.8-7.6h2.6l1,15.6h-2L1268.6,354.1z"/>
			<path class="st6" d="M1276.1,345.3V361h-2v-15.6H1276.1z"/>
			<path class="st6" d="M1279.6,361v-15.6h2.2l5,7.9c1.2,1.8,2.1,3.5,2.8,5.1l0,0c-0.2-2.1-0.2-4-0.2-6.4v-6.5h1.9V361h-2l-5-7.9
				c-1.1-1.7-2.1-3.5-2.9-5.2l-0.1,0c0.1,2,0.2,3.8,0.2,6.4v6.7H1279.6z"/>
			<path class="st6" d="M1296.8,345.3V361h-2v-15.6H1296.8z"/>
			<path class="st6" d="M1259.1,381.9c-0.1-2.2-0.3-4.8-0.2-6.7h-0.1c-0.5,1.8-1.2,3.8-2,5.9l-2.8,7.6h-1.5l-2.5-7.4
				c-0.7-2.2-1.4-4.2-1.8-6.1h0c0,1.9-0.2,4.6-0.3,6.9l-0.4,6.7h-1.9l1.1-15.6h2.6l2.7,7.6c0.6,1.9,1.2,3.6,1.6,5.3h0.1
				c0.4-1.6,0.9-3.3,1.6-5.3l2.8-7.6h2.6l1,15.6h-2L1259.1,381.9z"/>
			<path class="st6" d="M1277.9,380.8c0,5.4-3.3,8.2-7.3,8.2c-4.1,0-7-3.2-7-7.9c0-5,3.1-8.2,7.3-8.2
				C1275.2,372.9,1277.9,376.2,1277.9,380.8z M1265.8,381c0,3.3,1.8,6.3,5,6.3c3.2,0,5-2.9,5-6.5c0-3.1-1.6-6.3-5-6.3
				C1267.5,374.5,1265.8,377.6,1265.8,381z"/>
			<path class="st6" d="M1280.6,373.3c1.2-0.2,2.7-0.3,4.3-0.3c2.9,0,5,0.7,6.3,1.9c1.4,1.3,2.2,3.1,2.2,5.6c0,2.5-0.8,4.6-2.2,6.1
				c-1.5,1.5-3.9,2.2-6.9,2.2c-1.4,0-2.6-0.1-3.7-0.2V373.3z M1282.6,387.2c0.5,0.1,1.3,0.1,2,0.1c4.3,0,6.6-2.4,6.6-6.6
				c0-3.7-2.1-6-6.3-6c-1,0-1.8,0.1-2.4,0.2V387.2z"/>
			<path class="st6" d="M1298.2,383.8l-1.6,4.9h-2.1l5.3-15.6h2.4l5.3,15.6h-2.2l-1.7-4.9H1298.2z M1303.3,382.3l-1.5-4.5
				c-0.3-1-0.6-1.9-0.8-2.8h0c-0.2,0.9-0.5,1.9-0.8,2.8l-1.5,4.5H1303.3z"/>
		</g>
		<g>
			<path class="st6" d="M1100,362.7h2v10.4c0,4.1-2,5.4-4.7,5.4c-0.7,0-1.6-0.2-2.2-0.4l0.3-1.6c0.4,0.2,1,0.3,1.7,0.3
				c1.8,0,2.9-0.8,2.9-3.9V362.7z"/>
			<path class="st6" d="M1114.6,375.3c0,1.2,0,2.2,0.1,3.1h-1.8l-0.1-1.8h0c-0.5,0.9-1.7,2.1-3.7,2.1c-1.8,0-3.9-1-3.9-4.9v-6.6h2
				v6.2c0,2.1,0.6,3.6,2.5,3.6c1.4,0,2.3-0.9,2.7-1.9c0.1-0.3,0.2-0.7,0.2-1v-6.9h2V375.3z"/>
			<path class="st6" d="M1118,370.2c0-1.2,0-2.1-0.1-3h1.8l0.1,1.9h0c0.6-1.1,1.9-2.1,3.7-2.1c1.6,0,4,0.9,4,4.8v6.7h-2v-6.5
				c0-1.8-0.7-3.3-2.6-3.3c-1.3,0-2.4,0.9-2.7,2.1c-0.1,0.3-0.1,0.6-0.1,1v6.7h-2V370.2z"/>
			<path class="st6" d="M1133.2,364c0,0.7-0.5,1.3-1.3,1.3c-0.7,0-1.2-0.6-1.2-1.3c0-0.7,0.5-1.3,1.3-1.3
				C1132.7,362.7,1133.2,363.3,1133.2,364z M1130.9,378.4v-11.2h2v11.2H1130.9z"/>
			<path class="st6" d="M1146.4,372.7c0,4.1-2.9,6-5.6,6c-3,0-5.4-2.2-5.4-5.8c0-3.8,2.5-6,5.6-6
				C1144.3,366.9,1146.4,369.2,1146.4,372.7z M1137.6,372.8c0,2.5,1.4,4.3,3.4,4.3c1.9,0,3.4-1.8,3.4-4.4c0-1.9-1-4.3-3.4-4.3
				C1138.6,368.4,1137.6,370.6,1137.6,372.8z"/>
			<path class="st6" d="M1149,370.6c0-1.3,0-2.5-0.1-3.5h1.8l0.1,2.2h0.1c0.5-1.5,1.7-2.5,3.1-2.5c0.2,0,0.4,0,0.6,0.1v1.9
				c-0.2,0-0.4-0.1-0.7-0.1c-1.4,0-2.5,1.1-2.7,2.6c0,0.3-0.1,0.6-0.1,1v6h-2V370.6z"/>
		</g>
		<g>
			<path class="st6" d="M961.8,377.8c-0.7,0.4-2.2,0.7-4.1,0.7c-4.4,0-7.7-2.8-7.7-7.9c0-4.9,3.3-8.2,8.2-8.2c1.9,0,3.2,0.4,3.7,0.7
				l-0.5,1.6c-0.8-0.4-1.9-0.6-3.2-0.6c-3.7,0-6.1,2.3-6.1,6.4c0,3.8,2.2,6.3,6,6.3c1.2,0,2.5-0.3,3.3-0.6L961.8,377.8z"/>
			<path class="st6" d="M964.3,361.9h2v7h0c0.3-0.6,0.8-1.1,1.5-1.4c0.6-0.3,1.3-0.6,2.1-0.6c1.5,0,3.9,0.9,3.9,4.8v6.7h-2v-6.4
				c0-1.8-0.7-3.3-2.6-3.3c-1.3,0-2.4,0.9-2.7,2c-0.1,0.3-0.1,0.6-0.1,1v6.8h-2V361.9z"/>
			<path class="st6" d="M978.3,373.1c0,2.8,1.8,3.9,3.8,3.9c1.5,0,2.3-0.3,3.1-0.6l0.3,1.5c-0.7,0.3-1.9,0.7-3.7,0.7
				c-3.5,0-5.5-2.3-5.5-5.7s2-6,5.3-6c3.7,0,4.6,3.2,4.6,5.3c0,0.4,0,0.7-0.1,1H978.3z M984.3,371.7c0-1.3-0.5-3.3-2.8-3.3
				c-2.1,0-3,1.9-3.1,3.3H984.3z"/>
			<path class="st6" d="M988.8,370.6c0-1.3,0-2.5-0.1-3.5h1.8l0.1,2.2h0.1c0.5-1.5,1.7-2.5,3.1-2.5c0.2,0,0.4,0,0.6,0.1v1.9
				c-0.2,0-0.4-0.1-0.7-0.1c-1.4,0-2.5,1.1-2.7,2.6c0,0.3-0.1,0.6-0.1,1v6h-2V370.6z"/>
			<path class="st6" d="M996.4,370.6c0-1.3,0-2.5-0.1-3.5h1.8l0.1,2.2h0.1c0.5-1.5,1.7-2.5,3.1-2.5c0.2,0,0.4,0,0.6,0.1v1.9
				c-0.2,0-0.4-0.1-0.7-0.1c-1.4,0-2.5,1.1-2.7,2.6c0,0.3-0.1,0.6-0.1,1v6h-2V370.6z"/>
			<path class="st6" d="M1005.3,367.1l2.5,6.6c0.3,0.7,0.5,1.6,0.7,2.3h0c0.2-0.7,0.4-1.5,0.7-2.3l2.2-6.6h2.2l-3.1,8
				c-1.5,3.8-2.5,5.8-3.8,7c-1,0.9-2,1.2-2.5,1.3l-0.5-1.7c0.5-0.2,1.2-0.5,1.8-1c0.6-0.4,1.3-1.2,1.7-2.3c0.1-0.2,0.2-0.4,0.2-0.5
				c0-0.1,0-0.3-0.1-0.5l-4.1-10.3H1005.3z"/>
		</g>
		<g>
			<path class="st6" d="M785.1,364.5h-4.7v-1.7h11.6v1.7h-4.8v13.9h-2V364.5z"/>
			<path class="st6" d="M793.7,363c1-0.2,2.5-0.3,3.9-0.3c2.2,0,3.5,0.4,4.5,1.3c0.8,0.7,1.2,1.8,1.2,3c0,2.1-1.3,3.4-2.9,4v0.1
				c1.2,0.4,1.9,1.5,2.3,3.2c0.5,2.2,0.9,3.7,1.2,4.3h-2.1c-0.3-0.4-0.6-1.8-1-3.7c-0.5-2.2-1.3-3-3.1-3h-1.9v6.8h-2V363z
				 M795.7,370.1h2.1c2.2,0,3.5-1.2,3.5-3c0-2-1.5-2.9-3.6-2.9c-1,0-1.7,0.1-2,0.2V370.1z"/>
			<path class="st6" d="M814.2,371h-6.1v5.6h6.8v1.7h-8.8v-15.6h8.4v1.7h-6.4v4.9h6.1V371z"/>
			<path class="st6" d="M817.5,378.4v-15.6h2.2l5,7.9c1.2,1.8,2.1,3.5,2.8,5.1l0,0c-0.2-2.1-0.2-4-0.2-6.4v-6.5h1.9v15.6h-2l-5-7.9
				c-1.1-1.7-2.1-3.5-2.9-5.2l-0.1,0c0.1,2,0.2,3.8,0.2,6.4v6.7H817.5z"/>
			<path class="st6" d="M832.8,363c1.2-0.2,2.7-0.3,4.3-0.3c2.9,0,5,0.7,6.3,1.9c1.4,1.3,2.2,3.1,2.2,5.6c0,2.5-0.8,4.6-2.2,6.1
				c-1.5,1.5-3.9,2.2-6.9,2.2c-1.4,0-2.6-0.1-3.7-0.2V363z M834.8,376.8c0.5,0.1,1.3,0.1,2,0.1c4.3,0,6.6-2.4,6.6-6.6
				c0-3.7-2.1-6-6.3-6c-1,0-1.8,0.1-2.4,0.2V376.8z"/>
			<path class="st6" d="M851,378.4v-6.6l-4.9-9h2.3l2.2,4.3c0.6,1.2,1.1,2.1,1.6,3.2h0c0.4-1,1-2,1.6-3.2l2.2-4.3h2.3l-5.2,9v6.6
				H851z"/>
		</g>
		<g>
			<path class="st6" d="M473.4,240.3c-0.1-2.2-0.3-4.8-0.2-6.7h-0.1c-0.5,1.8-1.2,3.8-2,5.9l-2.8,7.6h-1.5l-2.5-7.4
				c-0.7-2.2-1.4-4.2-1.8-6.1h0c0,1.9-0.2,4.6-0.3,6.9l-0.4,6.7h-1.9l1.1-15.6h2.6l2.7,7.6c0.6,1.9,1.2,3.6,1.6,5.3h0.1
				c0.4-1.6,0.9-3.3,1.6-5.3l2.8-7.6h2.6l1,15.6h-2L473.4,240.3z"/>
			<path class="st6" d="M485.1,247.1l-0.2-1.4h-0.1c-0.6,0.9-1.8,1.7-3.4,1.7c-2.3,0-3.4-1.6-3.4-3.2c0-2.7,2.4-4.2,6.7-4.2v-0.2
				c0-0.9-0.3-2.6-2.5-2.6c-1,0-2.1,0.3-2.9,0.8l-0.5-1.3c0.9-0.6,2.3-1,3.7-1c3.4,0,4.3,2.3,4.3,4.6v4.2c0,1,0,1.9,0.2,2.7H485.1z
				 M484.8,241.4c-2.2,0-4.7,0.3-4.7,2.5c0,1.3,0.9,1.9,1.9,1.9c1.5,0,2.4-0.9,2.7-1.9c0.1-0.2,0.1-0.4,0.1-0.6V241.4z"/>
			<path class="st6" d="M492.1,235.9v4.9h0.5l4.2-4.9h2.5l-4.9,5.1c1.8,0.2,2.9,1.4,3.8,3.4c0.3,0.7,0.7,1.8,1.2,2.7h-2.1
				c-0.3-0.5-0.7-1.4-1-2.3c-0.8-1.8-1.8-2.6-3.7-2.6h-0.4v4.9h-2v-11.2H492.1z"/>
			<path class="st6" d="M510.4,235.9v9.7l1.2,0l-0.1,5.1h-1.6l-0.1-3.6H502l-0.1,3.6h-1.6l-0.1-5.1l0.9,0c0.5-0.7,0.9-1.5,1.1-2.3
				c0.4-1.4,0.6-2.9,0.6-4.5v-2.9H510.4z M504.7,239.3c0,1.5-0.2,2.9-0.6,4.2c-0.2,0.8-0.6,1.5-0.9,2.1h5.2v-8.1h-3.7V239.3z"/>
			<path class="st6" d="M524,241.4c0,4.1-2.9,6-5.6,6c-3,0-5.4-2.2-5.4-5.8c0-3.8,2.5-6,5.6-6C521.9,235.6,524,238,524,241.4z
				 M515.1,241.5c0,2.5,1.4,4.3,3.4,4.3c1.9,0,3.4-1.8,3.4-4.4c0-1.9-0.9-4.3-3.4-4.3C516.2,237.2,515.1,239.4,515.1,241.5z"/>
			<path class="st6" d="M528.6,235.9v4.5h5.3v-4.5h2v11.2h-2V242h-5.3v5.1h-2v-11.2H528.6z"/>
			<path class="st6" d="M545.5,247.1l-0.2-1.4h-0.1c-0.6,0.9-1.8,1.7-3.4,1.7c-2.3,0-3.4-1.6-3.4-3.2c0-2.7,2.4-4.2,6.7-4.2v-0.2
				c0-0.9-0.3-2.6-2.5-2.6c-1,0-2.1,0.3-2.9,0.8l-0.5-1.3c0.9-0.6,2.3-1,3.7-1c3.4,0,4.3,2.3,4.3,4.6v4.2c0,1,0,1.9,0.2,2.7H545.5z
				 M545.2,241.4c-2.2,0-4.7,0.3-4.7,2.5c0,1.3,0.9,1.9,1.9,1.9c1.5,0,2.4-0.9,2.7-1.9c0.1-0.2,0.1-0.4,0.1-0.6V241.4z"/>
			<path class="st6" d="M559,235.9v11.2h-2v-9.6h-3.8v2.9c0,3.2-0.3,5.3-1.8,6.2c-0.6,0.4-1.2,0.7-2.2,0.7l-0.2-1.6
				c0.4-0.1,0.8-0.2,1.1-0.5c1-0.8,1.2-2.3,1.2-4.8v-4.5H559z"/>
			<path class="st6" d="M571,235.9v9.7l1.2,0l-0.1,5.1h-1.6l-0.1-3.6h-7.8l-0.1,3.6h-1.6l-0.1-5.1l0.9,0c0.5-0.7,0.9-1.5,1.1-2.3
				c0.4-1.4,0.6-2.9,0.6-4.5v-2.9H571z M565.3,239.3c0,1.5-0.2,2.9-0.6,4.2c-0.2,0.8-0.6,1.5-0.9,2.1h5.2v-8.1h-3.7V239.3z"/>
			<path class="st6" d="M582.5,246.7c-0.5,0.3-1.7,0.6-3.2,0.6c-3.4,0-5.6-2.3-5.6-5.7c0-3.5,2.4-6,6-6c1.2,0,2.3,0.3,2.8,0.6
				l-0.5,1.6c-0.5-0.3-1.3-0.5-2.4-0.5c-2.6,0-4,1.9-4,4.2c0,2.6,1.7,4.2,3.9,4.2c1.2,0,1.9-0.3,2.5-0.6L582.5,246.7z"/>
		</g>
		<g>
			<path class="st6" d="M1161.8,689.9c-0.7,0.4-2.2,0.7-4.1,0.7c-4.4,0-7.7-2.8-7.7-7.9c0-4.9,3.3-8.2,8.2-8.2
				c1.9,0,3.2,0.4,3.7,0.7l-0.5,1.6c-0.8-0.4-1.9-0.6-3.2-0.6c-3.7,0-6.1,2.3-6.1,6.4c0,3.8,2.2,6.3,6,6.3c1.2,0,2.5-0.3,3.3-0.6
				L1161.8,689.9z"/>
			<path class="st6" d="M1167,685.5l-1.6,4.9h-2.1l5.3-15.6h2.4l5.3,15.6h-2.2l-1.7-4.9H1167z M1172.1,683.9l-1.5-4.5
				c-0.3-1-0.6-1.9-0.8-2.8h0c-0.2,0.9-0.5,1.9-0.8,2.8l-1.5,4.5H1172.1z"/>
			<path class="st6" d="M1180.6,674.8v6.9h0.6l5.4-6.9h2.4l-5.9,7.2c2.6,0.3,3.6,1.9,4.4,4c0.6,1.6,1,3,1.7,4.4h-2.2
				c-0.6-1.1-1-2.5-1.4-3.7c-0.7-2.1-1.7-3.5-4.4-3.5h-0.6v7.2h-2v-15.6H1180.6z"/>
			<path class="st6" d="M1192.2,674.8l3.1,6.6c0.4,0.9,0.8,1.8,1.1,2.8h0c0.3-0.8,0.6-1.7,1-2.8l2.4-6.6h2.1l-3.3,8
				c-0.9,2.1-1.8,4.5-2.9,5.9c-1,1.3-2.2,1.9-3.5,1.9c-0.5,0-0.9,0-1.1-0.1l0.2-1.6c0.2,0,0.4,0.1,0.7,0.1c1.6,0,2.6-1.6,3.1-2.7
				c0.2-0.3,0.1-0.6-0.1-0.9l-5.2-10.5H1192.2z"/>
			<path class="st6" d="M1203.7,675c1-0.2,2.2-0.3,3.9-0.3c2,0,3.5,0.5,4.4,1.3c0.9,0.7,1.4,1.9,1.4,3.3c0,1.4-0.4,2.5-1.2,3.3
				c-1.1,1.1-2.8,1.7-4.8,1.7c-0.6,0-1.2,0-1.6-0.1v6.3h-2V675z M1205.7,682.5c0.4,0.1,1,0.2,1.7,0.2c2.4,0,3.9-1.2,3.9-3.3
				c0-2.1-1.5-3.1-3.7-3.1c-0.9,0-1.6,0.1-1.9,0.2V682.5z"/>
			<path class="st6" d="M1216.6,685.5l-1.6,4.9h-2.1l5.3-15.6h2.4l5.3,15.6h-2.2l-1.7-4.9H1216.6z M1221.7,683.9l-1.5-4.5
				c-0.3-1-0.6-1.9-0.8-2.8h0c-0.2,0.9-0.5,1.9-0.8,2.8l-1.5,4.5H1221.7z"/>
		</g>
		<g>
			<path class="st6" d="M1578.4,669.8c1-0.2,2.2-0.3,3.9-0.3c2,0,3.5,0.5,4.4,1.3c0.9,0.7,1.4,1.9,1.4,3.3c0,1.4-0.4,2.5-1.2,3.3
				c-1.1,1.1-2.8,1.7-4.8,1.7c-0.6,0-1.2,0-1.6-0.1v6.3h-2V669.8z M1580.4,677.3c0.4,0.1,1,0.2,1.7,0.2c2.4,0,3.9-1.2,3.9-3.3
				c0-2.1-1.5-3.1-3.7-3.1c-0.9,0-1.6,0.1-1.9,0.2V677.3z"/>
			<path class="st6" d="M1590.6,668.8h2v16.4h-2V668.8z"/>
			<path class="st6" d="M1602.2,685.2l-0.2-1.4h-0.1c-0.6,0.9-1.8,1.7-3.4,1.7c-2.3,0-3.4-1.6-3.4-3.2c0-2.7,2.4-4.2,6.7-4.2v-0.2
				c0-0.9-0.3-2.6-2.5-2.6c-1,0-2.1,0.3-2.9,0.8l-0.5-1.3c0.9-0.6,2.3-1,3.7-1c3.4,0,4.3,2.3,4.3,4.6v4.2c0,1,0,1.9,0.2,2.7H1602.2z
				 M1601.9,679.5c-2.2,0-4.7,0.3-4.7,2.5c0,1.3,0.9,1.9,1.9,1.9c1.5,0,2.4-0.9,2.7-1.9c0.1-0.2,0.1-0.4,0.1-0.6V679.5z"/>
			<path class="st6" d="M1607.7,674l2.5,6.6c0.3,0.7,0.5,1.6,0.7,2.3h0c0.2-0.7,0.4-1.5,0.7-2.3l2.2-6.6h2.2l-3.1,8
				c-1.5,3.8-2.5,5.8-3.8,7c-1,0.9-2,1.2-2.5,1.3l-0.5-1.7c0.5-0.2,1.2-0.5,1.8-1c0.6-0.4,1.3-1.2,1.7-2.3c0.1-0.2,0.2-0.4,0.2-0.5
				c0-0.1,0-0.3-0.1-0.5l-4.1-10.3H1607.7z"/>
			<path class="st6" d="M1622.6,682.8c0.9,0.6,2.2,1,3.6,1c2.1,0,3.3-1.1,3.3-2.7c0-1.5-0.8-2.3-2.9-3.1c-2.5-0.9-4.1-2.2-4.1-4.4
				c0-2.4,2-4.2,5-4.2c1.6,0,2.8,0.4,3.5,0.8l-0.6,1.6c-0.5-0.3-1.6-0.7-3-0.7c-2.1,0-2.9,1.3-2.9,2.3c0,1.5,0.9,2.2,3.1,3
				c2.6,1,4,2.3,4,4.6c0,2.4-1.8,4.5-5.5,4.5c-1.5,0-3.2-0.4-4-1L1622.6,682.8z"/>
			<path class="st6" d="M1636.6,670.8v3.2h2.9v1.6h-2.9v6c0,1.4,0.4,2.2,1.5,2.2c0.5,0,0.9-0.1,1.2-0.1l0.1,1.5
				c-0.4,0.2-1,0.3-1.8,0.3c-1,0-1.7-0.3-2.2-0.9c-0.6-0.6-0.8-1.6-0.8-2.9v-6.1h-1.7V674h1.7v-2.7L1636.6,670.8z"/>
			<path class="st6" d="M1648,685.2l-0.2-1.4h-0.1c-0.6,0.9-1.8,1.7-3.4,1.7c-2.3,0-3.4-1.6-3.4-3.2c0-2.7,2.4-4.2,6.7-4.2v-0.2
				c0-0.9-0.3-2.6-2.5-2.6c-1,0-2.1,0.3-2.9,0.8l-0.5-1.3c0.9-0.6,2.3-1,3.7-1c3.4,0,4.3,2.3,4.3,4.6v4.2c0,1,0,1.9,0.2,2.7H1648z
				 M1647.7,679.5c-2.2,0-4.7,0.3-4.7,2.5c0,1.3,0.9,1.9,1.9,1.9c1.5,0,2.4-0.9,2.7-1.9c0.1-0.2,0.1-0.4,0.1-0.6V679.5z"/>
			<path class="st6" d="M1653,677.5c0-1.3,0-2.5-0.1-3.5h1.8l0.1,2.2h0.1c0.5-1.5,1.7-2.5,3.1-2.5c0.2,0,0.4,0,0.6,0.1v1.9
				c-0.2,0-0.4-0.1-0.7-0.1c-1.4,0-2.5,1.1-2.7,2.6c0,0.3-0.1,0.6-0.1,1v6h-2V677.5z"/>
		</g>
		<g>
			<path class="st6" d="M1553.8,381.7c0.9,0.6,2.2,1,3.6,1c2.1,0,3.3-1.1,3.3-2.7c0-1.5-0.8-2.3-2.9-3.1c-2.5-0.9-4.1-2.2-4.1-4.4
				c0-2.4,2-4.2,5-4.2c1.6,0,2.8,0.4,3.5,0.8l-0.6,1.6c-0.5-0.3-1.6-0.7-3-0.7c-2.1,0-2.9,1.3-2.9,2.3c0,1.5,0.9,2.2,3.1,3
				c2.6,1,4,2.3,4,4.6c0,2.4-1.8,4.5-5.5,4.5c-1.5,0-3.2-0.4-4-1L1553.8,381.7z"/>
			<path class="st6" d="M1568.5,370.3h-4.7v-1.7h11.6v1.7h-4.8v13.9h-2V370.3z"/>
			<path class="st6" d="M1577.8,379.2l-1.6,4.9h-2.1l5.3-15.6h2.4l5.3,15.6h-2.2l-1.7-4.9H1577.8z M1582.9,377.7l-1.5-4.5
				c-0.3-1-0.6-1.9-0.8-2.8h0c-0.2,0.9-0.5,1.9-0.8,2.8l-1.5,4.5H1582.9z"/>
			<path class="st6" d="M1589.4,368.7c1-0.2,2.5-0.3,3.9-0.3c2.2,0,3.5,0.4,4.5,1.3c0.8,0.7,1.2,1.8,1.2,3c0,2.1-1.3,3.4-2.9,4v0.1
				c1.2,0.4,1.9,1.5,2.3,3.2c0.5,2.2,0.9,3.7,1.2,4.3h-2.1c-0.3-0.4-0.6-1.8-1-3.7c-0.5-2.2-1.3-3-3.1-3h-1.9v6.8h-2V368.7z
				 M1591.5,375.9h2.1c2.2,0,3.5-1.2,3.5-3c0-2-1.5-2.9-3.6-2.9c-1,0-1.7,0.1-2,0.2V375.9z"/>
			<path class="st6" d="M1617.7,383.6c-0.7,0.4-2.2,0.7-4.1,0.7c-4.4,0-7.7-2.8-7.7-7.9c0-4.9,3.3-8.2,8.2-8.2
				c1.9,0,3.2,0.4,3.7,0.7l-0.5,1.6c-0.8-0.4-1.9-0.6-3.2-0.6c-3.7,0-6.1,2.3-6.1,6.4c0,3.8,2.2,6.3,6,6.3c1.2,0,2.5-0.3,3.3-0.6
				L1617.7,383.6z"/>
			<path class="st6" d="M1622.3,368.5v15.6h-2v-15.6H1622.3z"/>
			<path class="st6" d="M1625.8,384.1v-15.6h2.2l5,7.9c1.2,1.8,2.1,3.5,2.8,5.1l0,0c-0.2-2.1-0.2-4-0.2-6.4v-6.5h1.9v15.6h-2l-5-7.9
				c-1.1-1.7-2.1-3.5-2.9-5.2l-0.1,0c0.1,2,0.2,3.8,0.2,6.4v6.7H1625.8z"/>
			<path class="st6" d="M1649.1,376.8h-6.1v5.6h6.8v1.7h-8.8v-15.6h8.4v1.7h-6.4v4.9h6.1V376.8z"/>
			<path class="st6" d="M1665.6,377.3c-0.1-2.2-0.3-4.8-0.2-6.7h-0.1c-0.5,1.8-1.2,3.8-2,5.9l-2.8,7.6h-1.5l-2.5-7.4
				c-0.7-2.2-1.4-4.2-1.8-6.1h0c0,1.9-0.2,4.6-0.3,6.9l-0.4,6.7h-1.9l1.1-15.6h2.6l2.7,7.6c0.6,1.9,1.2,3.6,1.6,5.3h0.1
				c0.4-1.6,0.9-3.3,1.6-5.3l2.8-7.6h2.6l1,15.6h-2L1665.6,377.3z"/>
			<path class="st6" d="M1673.3,379.2l-1.6,4.9h-2.1l5.3-15.6h2.4l5.3,15.6h-2.2l-1.7-4.9H1673.3z M1678.5,377.7l-1.5-4.5
				c-0.3-1-0.6-1.9-0.8-2.8h0c-0.2,0.9-0.5,1.9-0.8,2.8l-1.5,4.5H1678.5z"/>
		</g>
		<g>
			<path class="st6" d="M1411.9,548.8c0.3,0.6,0.6,1.7,0.6,3.2c0,3.4-2.2,6-6.1,6c-3.8,0-6.4-2.6-6.4-6.3c0-1.5,0.3-2.5,0.5-2.9
				l1.3,0.4c-0.3,0.6-0.5,1.4-0.5,2.5c0,2.8,1.8,4.7,5,4.7c3,0,4.9-1.7,4.9-4.7c0-1-0.2-1.9-0.5-2.6L1411.9,548.8z"/>
			<path class="st6" d="M1407.8,539.2c3.2,0,4.6,2.2,4.6,4.3c0,2.4-1.7,4.2-4.5,4.2c-2.9,0-4.6-1.9-4.6-4.3
				C1403.3,540.8,1405.2,539.2,1407.8,539.2z M1407.9,546.1c1.9,0,3.4-1.1,3.4-2.6c0-1.5-1.4-2.6-3.4-2.6c-1.5,0-3.4,0.7-3.4,2.6
				S1406.3,546.1,1407.9,546.1z"/>
			<path class="st6" d="M1406.3,537.2c-1,0-1.9,0-2.7,0.1v-1.4l1.7-0.1v-0.1c-1.2-0.4-1.9-1.4-1.9-2.4c0-0.2,0-0.3,0.1-0.5h1.5
				c0,0.2-0.1,0.3-0.1,0.5c0,1.1,0.8,1.9,2,2.1c0.2,0,0.5,0.1,0.7,0.1h4.6v1.6H1406.3z"/>
			<path class="st6" d="M1412.3,526.5l-1.1,0.1v0.1c0.7,0.5,1.3,1.4,1.3,2.7c0,1.8-1.2,2.7-2.5,2.7c-2.1,0-3.3-1.9-3.2-5.2h-0.2
				c-0.7,0-2,0.2-2,2c0,0.8,0.3,1.7,0.6,2.3l-1,0.4c-0.5-0.7-0.8-1.8-0.8-2.9c0-2.7,1.8-3.3,3.6-3.3h3.3c0.8,0,1.5,0,2.1-0.1V526.5z
				 M1407.8,526.8c0,1.7,0.3,3.7,2,3.7c1,0,1.5-0.7,1.5-1.5c0-1.1-0.7-1.9-1.5-2.1c-0.2-0.1-0.3-0.1-0.5-0.1H1407.8z"/>
			<path class="st6" d="M1399.5,522.7v-1.6h12.8v1.6H1399.5z"/>
			<path class="st6" d="M1401,512.7h2.5v-2.3h1.2v2.3h4.7c1.1,0,1.7-0.3,1.7-1.2c0-0.4-0.1-0.7-0.1-0.9l1.2-0.1
				c0.1,0.3,0.2,0.8,0.2,1.4c0,0.7-0.2,1.3-0.7,1.7c-0.5,0.5-1.2,0.6-2.3,0.6h-4.8v1.4h-1.2v-1.4h-2.1L1401,512.7z"/>
			<path class="st6" d="M1406.3,508.6c-1,0-1.9,0-2.7,0.1v-1.4l1.7-0.1v-0.1c-1.2-0.4-1.9-1.4-1.9-2.4c0-0.2,0-0.3,0.1-0.5h1.5
				c0,0.2-0.1,0.3-0.1,0.5c0,1.1,0.8,1.9,2,2.1c0.2,0,0.5,0.1,0.7,0.1h4.6v1.6H1406.3z"/>
			<path class="st6" d="M1412.3,498l-1.1,0.1v0.1c0.7,0.5,1.3,1.4,1.3,2.7c0,1.8-1.2,2.7-2.5,2.7c-2.1,0-3.3-1.9-3.2-5.2h-0.2
				c-0.7,0-2,0.2-2,2c0,0.8,0.3,1.7,0.6,2.3l-1,0.4c-0.5-0.7-0.8-1.8-0.8-2.9c0-2.7,1.8-3.3,3.6-3.3h3.3c0.8,0,1.5,0,2.1-0.1V498z
				 M1407.8,498.2c0,1.7,0.3,3.7,2,3.7c1,0,1.5-0.7,1.5-1.5c0-1.1-0.7-1.9-1.5-2.1c-0.2-0.1-0.3-0.1-0.5-0.1H1407.8z"/>
			<path class="st6" d="M1403.5,493.7l4.9-1.7c0.8-0.3,1.5-0.5,2.2-0.7v-0.1c-0.7-0.2-1.4-0.5-2.2-0.7l-4.9-1.7v-1.7l8.7,3.4v1.5
				l-8.7,3.3V493.7z"/>
			<path class="st6" d="M1408.2,484.9c2.1,0,3-1.4,3-3c0-1.1-0.2-1.8-0.5-2.4l1.1-0.3c0.3,0.6,0.5,1.5,0.5,2.9
				c0,2.7-1.8,4.3-4.4,4.3s-4.7-1.5-4.7-4.1c0-2.8,2.5-3.6,4.1-3.6c0.3,0,0.6,0,0.7,0.1V484.9z M1407.1,480.3c-1,0-2.6,0.4-2.6,2.2
				c0,1.6,1.5,2.3,2.6,2.4V480.3z"/>
			<path class="st6" d="M1399.5,476.8v-1.6h12.8v1.6H1399.5z"/>
		</g>
		<g>
			<path class="st6" d="M468.2,679c-0.6,0.3-1.9,0.6-3.4,0.6c-3.7,0-6.4-2.3-6.4-6.6c0-4.1,2.8-6.8,6.8-6.8c1.6,0,2.6,0.3,3.1,0.6
				l-0.4,1.4c-0.6-0.3-1.5-0.5-2.6-0.5c-3,0-5.1,2-5.1,5.4c0,3.2,1.8,5.2,5,5.2c1,0,2.1-0.2,2.7-0.5L468.2,679z"/>
			<path class="st6" d="M471.1,666.4l2.6,5.5c0.3,0.8,0.6,1.5,0.9,2.3h0c0.2-0.7,0.5-1.4,0.8-2.4l2-5.5h1.8l-2.7,6.7
				c-0.7,1.7-1.5,3.7-2.4,4.9c-0.8,1.1-1.8,1.6-3,1.6c-0.4,0-0.7,0-0.9-0.1l0.2-1.4c0.1,0,0.3,0.1,0.6,0.1c1.4,0,2.1-1.3,2.5-2.2
				c0.1-0.3,0.1-0.5-0.1-0.8l-4.3-8.8H471.1z"/>
			<path class="st6" d="M491.5,673.7c-0.1-1.8-0.2-4-0.2-5.6h-0.1c-0.4,1.5-1,3.1-1.6,4.9l-2.3,6.3H486l-2.1-6.2
				c-0.6-1.8-1.1-3.5-1.5-5.1h0c0,1.6-0.1,3.8-0.3,5.8l-0.3,5.6h-1.6l0.9-13h2.1l2.2,6.3c0.5,1.6,1,3,1.3,4.4h0.1
				c0.3-1.3,0.8-2.7,1.4-4.4l2.3-6.3h2.1l0.8,13h-1.6L491.5,673.7z"/>
			<path class="st6" d="M507.1,672.8c0,4.5-2.7,6.9-6,6.9c-3.4,0-5.8-2.7-5.8-6.6c0-4.1,2.6-6.8,6-6.8
				C504.8,666.2,507.1,669,507.1,672.8z M497,673c0,2.8,1.5,5.3,4.1,5.3c2.7,0,4.2-2.5,4.2-5.4c0-2.6-1.4-5.3-4.1-5.3
				C498.4,667.6,497,670.2,497,673z"/>
			<path class="st6" d="M510.8,666.4v4.1c0,1.8,0.9,2.8,2.8,2.8c0.9,0,1.9-0.3,2.6-0.7v-6.2h1.7v13h-1.7v-5.5h0
				c-0.9,0.5-2,0.8-3.1,0.8c-1.7,0-3.8-0.7-3.8-3.9v-4.4H510.8z"/>
			<path class="st6" d="M522.4,666.4v5.8h0.5l4.5-5.8h2l-4.9,6c2.1,0.3,3,1.6,3.6,3.4c0.5,1.3,0.8,2.5,1.4,3.7h-1.8
				c-0.5-0.9-0.8-2-1.2-3.1c-0.6-1.7-1.4-2.9-3.6-2.9h-0.5v6h-1.7v-13H522.4z"/>
			<path class="st6" d="M533.4,675.4l-1.4,4.1h-1.7l4.4-13h2l4.4,13h-1.8l-1.4-4.1H533.4z M537.6,674l-1.3-3.7
				c-0.3-0.8-0.5-1.6-0.7-2.4h0c-0.2,0.8-0.4,1.6-0.7,2.4l-1.3,3.8H537.6z"/>
		</g>
		<g>
			<path class="st6" d="M749.1,646.4c0,4.5-2.7,6.9-6,6.9c-3.4,0-5.8-2.7-5.8-6.6c0-4.1,2.6-6.8,6-6.8
				C746.9,639.8,749.1,642.5,749.1,646.4z M739.1,646.6c0,2.8,1.5,5.3,4.1,5.3c2.7,0,4.2-2.5,4.2-5.4c0-2.6-1.4-5.3-4.2-5.3
				C740.4,641.2,739.1,643.8,739.1,646.6z"/>
			<path class="st6" d="M751.3,640.2c0.8-0.1,1.9-0.3,3.2-0.3c1.7,0,2.9,0.4,3.6,1.1c0.7,0.6,1.1,1.6,1.1,2.7c0,1.2-0.3,2.1-1,2.8
				c-0.9,0.9-2.3,1.4-4,1.4c-0.5,0-1,0-1.4-0.1v5.2h-1.7V640.2z M753,646.5c0.4,0.1,0.8,0.1,1.4,0.1c2,0,3.3-1,3.3-2.8
				c0-1.7-1.2-2.5-3.1-2.5c-0.7,0-1.3,0.1-1.6,0.1V646.5z"/>
			<path class="st6" d="M763.3,640v13h-1.7v-13H763.3z"/>
			<path class="st6" d="M767.9,640v7.7c0,2.9,1.3,4.2,3,4.2c1.9,0,3.2-1.3,3.2-4.2V640h1.7v7.6c0,4-2.1,5.6-4.9,5.6
				c-2.7,0-4.7-1.5-4.7-5.6V640H767.9z"/>
			<path class="st6" d="M789.7,647.3c-0.1-1.8-0.2-4-0.2-5.6h-0.1c-0.4,1.5-1,3.1-1.6,4.9l-2.3,6.3h-1.3l-2.1-6.2
				c-0.6-1.8-1.1-3.5-1.5-5.1h0c0,1.6-0.1,3.8-0.3,5.8L780,653h-1.6l0.9-13h2.1l2.2,6.3c0.5,1.6,1,3,1.3,4.4h0.1
				c0.3-1.3,0.8-2.7,1.4-4.4l2.3-6.3h2.1l0.8,13H790L789.7,647.3z"/>
		</g>
		<g>
			<path class="st6" d="M810.9,632.5c0.7-0.2,1.9-0.3,3.1-0.3c1.7,0,2.8,0.3,3.6,0.9c0.7,0.5,1.1,1.3,1.1,2.3c0,1.3-0.8,2.4-2.2,2.9
				v0c1.2,0.3,2.7,1.3,2.7,3.3c0,1.1-0.4,2-1.1,2.6c-0.9,0.8-2.4,1.2-4.5,1.2c-1.2,0-2-0.1-2.6-0.2V632.5z M812.6,637.8h1.5
				c1.8,0,2.8-0.9,2.8-2.2c0-1.5-1.2-2.1-2.9-2.1c-0.8,0-1.2,0.1-1.5,0.1V637.8z M812.6,644.1c0.3,0.1,0.8,0.1,1.4,0.1
				c1.7,0,3.3-0.6,3.3-2.5c0-1.8-1.5-2.5-3.4-2.5h-1.4V644.1z"/>
			<path class="st6" d="M822.4,641c0,2.3,1.5,3.2,3.2,3.2c1.2,0,1.9-0.2,2.6-0.5l0.3,1.2c-0.6,0.3-1.6,0.6-3.1,0.6
				c-2.9,0-4.6-1.9-4.6-4.7s1.7-5,4.4-5c3,0,3.9,2.7,3.9,4.4c0,0.3,0,0.6-0.1,0.8H822.4z M827.3,639.8c0-1.1-0.4-2.8-2.4-2.8
				c-1.7,0-2.5,1.6-2.6,2.8H827.3z"/>
			<path class="st6" d="M836.3,645.4l-0.1-1.2h-0.1c-0.5,0.7-1.5,1.4-2.9,1.4c-1.9,0-2.9-1.3-2.9-2.7c0-2.3,2-3.5,5.6-3.5v-0.2
				c0-0.8-0.2-2.2-2.1-2.2c-0.9,0-1.8,0.3-2.4,0.7l-0.4-1.1c0.8-0.5,1.9-0.8,3.1-0.8c2.9,0,3.6,1.9,3.6,3.8v3.5c0,0.8,0,1.6,0.2,2.2
				H836.3z M836,640.6c-1.9,0-4,0.3-4,2.1c0,1.1,0.7,1.6,1.6,1.6c1.2,0,2-0.8,2.3-1.6c0.1-0.2,0.1-0.4,0.1-0.5V640.6z"/>
			<path class="st6" d="M848.2,642.8c0,1,0,1.8,0.1,2.5h-1.5l-0.1-1.5h0c-0.4,0.8-1.4,1.7-3.1,1.7c-1.5,0-3.2-0.8-3.2-4.1V636h1.7
				v5.2c0,1.8,0.5,3,2.1,3c1.1,0,1.9-0.8,2.2-1.5c0.1-0.3,0.2-0.6,0.2-0.9V636h1.7V642.8z"/>
			<path class="st6" d="M853.1,633.3v2.7h2.4v1.3h-2.4v5c0,1.2,0.3,1.8,1.3,1.8c0.4,0,0.8-0.1,1-0.1l0.1,1.3
				c-0.3,0.1-0.8,0.2-1.5,0.2c-0.8,0-1.4-0.3-1.8-0.7c-0.5-0.5-0.7-1.3-0.7-2.4v-5.1H850V636h1.4v-2.2L853.1,633.3z"/>
			<path class="st6" d="M858.2,636l2,5.5c0.2,0.6,0.4,1.4,0.6,1.9h0c0.2-0.6,0.4-1.3,0.6-1.9l1.9-5.5h1.8l-2.5,6.7
				c-1.2,3.2-2,4.8-3.2,5.8c-0.8,0.7-1.7,1-2.1,1.1l-0.4-1.4c0.4-0.1,1-0.4,1.5-0.8c0.5-0.4,1-1,1.4-1.9c0.1-0.2,0.1-0.3,0.1-0.4
				c0-0.1,0-0.2-0.1-0.4l-3.5-8.6H858.2z"/>
			<path class="st6" d="M805.6,656.6c0-1,0-1.8-0.1-2.5h1.5l0.1,1.5h0.1c0.5-0.9,1.4-1.7,2.9-1.7c1.3,0,2.2,0.8,2.6,1.9h0
				c0.3-0.5,0.7-0.9,1-1.2c0.6-0.4,1.2-0.7,2.1-0.7c1.2,0,3.1,0.8,3.1,4.1v5.5h-1.7v-5.3c0-1.8-0.7-2.9-2-2.9c-1,0-1.7,0.7-2,1.5
				c-0.1,0.2-0.1,0.5-0.1,0.8v5.8h-1.7v-5.6c0-1.5-0.7-2.6-1.9-2.6c-1.1,0-1.8,0.8-2.1,1.7c-0.1,0.3-0.1,0.5-0.1,0.8v5.6h-1.7V656.6
				z"/>
			<path class="st6" d="M826.8,663.4l-0.1-1.2h-0.1c-0.5,0.7-1.5,1.4-2.9,1.4c-1.9,0-2.9-1.3-2.9-2.7c0-2.3,2-3.5,5.6-3.5v-0.2
				c0-0.8-0.2-2.2-2.1-2.2c-0.9,0-1.8,0.3-2.4,0.7l-0.4-1.1c0.8-0.5,1.9-0.8,3.1-0.8c2.9,0,3.6,1.9,3.6,3.8v3.5c0,0.8,0,1.6,0.2,2.2
				H826.8z M826.6,658.6c-1.9,0-4,0.3-4,2.1c0,1.1,0.7,1.6,1.6,1.6c1.2,0,2-0.8,2.3-1.6c0.1-0.2,0.1-0.4,0.1-0.5V658.6z"/>
			<path class="st6" d="M831,656.6c0-1,0-1.8-0.1-2.5h1.5l0.1,1.5h0.1c0.5-0.9,1.4-1.7,2.9-1.7c1.3,0,2.2,0.8,2.6,1.9h0
				c0.3-0.5,0.7-0.9,1-1.2c0.6-0.4,1.2-0.7,2.1-0.7c1.2,0,3.1,0.8,3.1,4.1v5.5h-1.7v-5.3c0-1.8-0.7-2.9-2-2.9c-1,0-1.7,0.7-2,1.5
				c-0.1,0.2-0.1,0.5-0.1,0.8v5.8h-1.7v-5.6c0-1.5-0.7-2.6-1.9-2.6c-1.1,0-1.8,0.8-2.1,1.7c-0.1,0.3-0.1,0.5-0.1,0.8v5.6H831V656.6z
				"/>
			<path class="st6" d="M847.1,656.6c0-1,0-1.8-0.1-2.5h1.5l0.1,1.5h0.1c0.5-0.9,1.4-1.7,2.9-1.7c1.3,0,2.2,0.8,2.6,1.9h0
				c0.3-0.5,0.7-0.9,1-1.2c0.6-0.4,1.2-0.7,2.1-0.7c1.2,0,3.1,0.8,3.1,4.1v5.5h-1.7v-5.3c0-1.8-0.7-2.9-2-2.9c-1,0-1.7,0.7-2,1.5
				c-0.1,0.2-0.1,0.5-0.1,0.8v5.8h-1.7v-5.6c0-1.5-0.7-2.6-1.9-2.6c-1.1,0-1.8,0.8-2.1,1.7c-0.1,0.3-0.1,0.5-0.1,0.8v5.6h-1.7V656.6
				z"/>
			<path class="st6" d="M863.5,654l2,5.5c0.2,0.6,0.4,1.4,0.6,1.9h0c0.2-0.6,0.4-1.3,0.6-1.9l1.9-5.5h1.8l-2.5,6.7
				c-1.2,3.2-2,4.8-3.2,5.8c-0.8,0.7-1.7,1-2.1,1.1l-0.4-1.4c0.4-0.1,1-0.4,1.5-0.8c0.5-0.4,1-1,1.4-1.9c0.1-0.2,0.1-0.3,0.1-0.4
				c0-0.1,0-0.2-0.1-0.4l-3.5-8.6H863.5z"/>
		</g>
		<g>
			<path class="st6" d="M206.6,612.9c3.2,4.3,2.3,8.5-0.9,10.9c-3.3,2.5-7.5,1.6-10.4-2.1c-3-4-2.4-8.4,0.9-10.9
				C199.6,608.2,203.8,609.2,206.6,612.9z M197,620.3c2,2.7,5.2,4,7.8,2.1c2.6-1.9,2.2-5.4,0.1-8.2c-1.9-2.5-5.1-4.1-7.8-2.1
				C194.4,614.1,195,617.6,197,620.3z"/>
			<path class="st6" d="M211.2,600.6c-0.3,0.5-1,1.3-1.6,1.8c-1.3,1.3-2,2.6-1.9,4.1c0,1.2,0.6,2.7,1.2,3.7l0.1,0
				c-0.4-1.7,0.3-3.4,1.6-4.4c2.2-1.7,5-1.3,7.1,1.6c2.2,2.9,2,5.9-0.6,7.9c-3.2,2.4-6.5,0.1-8.7-2.9c-1.5-2-2.3-4-2.3-6
				c-0.1-1.9,0.8-3.4,2.3-5c0.6-0.7,1.4-1.5,1.9-2.1L211.2,600.6z M211.1,607.3c-1,0.7-1.3,1.7-1.1,2.7c0.1,0.8,0.4,1.5,1,2.2
				c1.1,1.5,3.4,3.1,5.2,1.7c1.8-1.3,1.2-3.6-0.1-5.2C215,607.3,213.1,605.8,211.1,607.3z"/>
			<path class="st6" d="M216.8,601.1l5.9,3.8c0.6,0.4,1.4,1,1.9,1.4l0,0c-0.2-0.7-0.6-1.5-0.8-2.3l-2.2-6.6l1.7-1.3l2.3,8.2
				c1.1,4,1.5,6.1,1.1,7.9c-0.3,1.3-0.9,2.2-1.2,2.6l-1.4-1.1c0.3-0.4,0.7-1.1,0.8-1.9c0.2-0.7,0.3-1.7,0-2.8
				c-0.1-0.2-0.1-0.4-0.2-0.5s-0.2-0.2-0.4-0.3l-9.5-5.8L216.8,601.1z"/>
			<path class="st6" d="M225,595.2c0.5-0.6,1.6-1.5,2.7-2.3c1.5-1.1,4.2-2.7,5.7-0.7c0.8,1.1,0.5,2.4-0.4,3.4l0,0
				c1.5-0.8,3-0.8,3.9,0.5c1.8,2.4-1,4.9-2.7,6.2c-1,0.8-2.1,1.5-2.6,1.8L225,595.2z M229.3,597.6l1.2-0.9c1.2-0.9,2.2-2.2,1.4-3.2
				c-0.7-0.9-1.8-0.7-3.4,0.5c-0.5,0.4-0.8,0.7-1.2,1L229.3,597.6z M232.4,601.8c0.5-0.3,0.9-0.5,1.4-0.9c1.1-0.8,2.5-2.3,1.6-3.6
				c-1-1.3-2.5-0.6-4,0.6l-1.2,0.9L232.4,601.8z"/>
			<path class="st6" d="M235.8,586.9l2.3,3c0.3-0.4,0.9-0.8,1.4-1.2c2-1.5,4.6-2.5,6.4-0.1c0.7,0.9,0.8,1.9,0.6,2.8
				c-0.4,1.6-1.8,3-3.1,4c-0.9,0.7-1.8,1.2-2.5,1.7l-6.7-8.9L235.8,586.9z M241.7,594.7c0.3-0.2,0.7-0.4,1.3-0.8
				c1.2-0.9,2.5-2.5,1.4-4c-1.2-1.6-3-0.7-4.3,0.2c-0.4,0.3-0.8,0.6-1.1,1L241.7,594.7z"/>
			<path class="st6" d="M248.6,577.3l1,1.3l-2.8,2.1l5.7,7.7l-1.6,1.2l-5.7-7.7l-2.8,2.1l-1-1.3L248.6,577.3z"/>
			<path class="st6" d="M261.2,574.8c2.5,3.3,1.3,6.5-0.9,8.1c-2.4,1.8-5.6,1.4-7.8-1.4c-2.2-3-1.6-6.2,0.9-8.1
				C256,571.5,259.1,572,261.2,574.8z M254.2,580.2c1.5,2,3.7,2.6,5.3,1.4c1.6-1.2,1.6-3.5,0.1-5.5c-1.1-1.5-3.3-2.9-5.3-1.4
				C252.4,576.1,252.9,578.5,254.2,580.2z"/>
			<path class="st6" d="M262.2,571.8c-0.9-1.2-1.6-2-2.3-2.9l1.5-1.1l1.2,1.5l0,0c-0.2-1.6,0.4-3,1.9-4.1c2.2-1.6,5.2-1,7.2,1.7
				c2.4,3.2,1.6,6.3-0.5,7.9c-1.2,0.9-2.6,1.1-3.8,0.7l0,0l3.7,4.9l-1.6,1.2L262.2,571.8z M265.6,573c0.2,0.2,0.4,0.4,0.6,0.6
				c1.1,0.9,2.7,1,3.9,0.1c1.7-1.3,1.7-3.4,0.1-5.5c-1.3-1.8-3.4-2.6-5.2-1.3c-1.1,0.8-1.6,2.4-1,3.9c0.1,0.2,0.2,0.5,0.4,0.8
				L265.6,573z"/>
			<path class="st6" d="M276,556.8l1,1.3l-3.9,2.9l5.7,7.7l-1.6,1.2l-6.7-9L276,556.8z"/>
		</g>
		<g>
			<path class="st6" d="M267,697.8l-3.1,3.6l-1.3-1.1l7.7-8.7l1.3,1.1l-3.2,3.6l10.4,9.2l-1.4,1.5L267,697.8z"/>
			<path class="st6" d="M273.7,694.5c0.4-0.7,1.3-1.8,2.2-2.8c1.2-1.4,3.5-3.5,5.4-1.9c1,0.9,1,2.3,0.3,3.4l0,0
				c1.3-1.1,2.8-1.4,4-0.3c2.2,2,0,5-1.4,6.6c-0.8,0.9-1.8,1.8-2.2,2.3L273.7,694.5z M278.4,696.1l1-1.1c1-1.1,1.7-2.6,0.7-3.5
				c-0.8-0.7-1.9-0.4-3.2,1.2c-0.4,0.5-0.7,0.8-1,1.2L278.4,696.1z M282.2,699.5c0.4-0.4,0.7-0.7,1.2-1.2c0.9-1,2-2.8,0.8-3.8
				c-1.2-1.1-2.5-0.1-3.8,1.4l-1,1.1L282.2,699.5z"/>
			<path class="st6" d="M292.1,681.8c3.1,2.7,2.6,6.1,0.8,8.1c-2,2.3-5.2,2.5-7.9,0.2c-2.8-2.5-2.8-5.8-0.8-8.1
				C286.4,679.6,289.6,679.5,292.1,681.8z M286.3,688.5c1.8,1.6,4.2,1.8,5.5,0.3c1.3-1.5,0.9-3.8-1-5.4c-1.4-1.3-3.9-2.1-5.5-0.3
				C283.7,684.8,284.7,687.1,286.3,688.5z"/>
			<path class="st6" d="M294.9,679.3c2.1,1.8,4.1,1.2,5.5-0.3c1-1.1,1.4-1.9,1.6-2.7l1.3,0.7c-0.2,0.8-0.8,1.9-2,3.3
				c-2.3,2.6-5.4,2.6-7.9,0.4s-3.2-5.5-1-7.9c2.4-2.7,5.5-1.3,7,0c0.3,0.3,0.5,0.5,0.7,0.7L294.9,679.3z M297.8,673.9
				c-1-0.9-2.8-1.8-4.4-0.1c-1.4,1.5-0.5,3.5,0.4,4.5L297.8,673.9z"/>
			<path class="st6" d="M300.7,663.9c0.4-0.7,1.3-1.9,2.2-2.8c1.2-1.4,3.5-3.5,5.4-1.9c1,0.9,1,2.3,0.3,3.4l0,0
				c1.3-1.1,2.8-1.4,4-0.3c2.2,2,0,5-1.4,6.6c-0.8,0.9-1.8,1.8-2.2,2.3L300.7,663.9z M305.4,665.5l1-1.1c1-1.1,1.7-2.6,0.7-3.5
				c-0.8-0.7-1.9-0.4-3.2,1.2c-0.4,0.5-0.7,0.8-1,1.2L305.4,665.5z M309.3,669c0.4-0.4,0.7-0.7,1.2-1.2c0.9-1,2-2.8,0.8-3.8
				s-2.5-0.1-3.8,1.4l-1,1.1L309.3,669z"/>
			<path class="st6" d="M311.1,657.6c-1.1-1-2-1.7-2.8-2.4l1.2-1.4l1.5,1.2l0,0c-0.5-1.5-0.2-3.1,1-4.4c1.8-2,4.9-2,7.4,0.2
				c3,2.7,2.9,5.8,1.1,7.8c-1,1.1-2.3,1.7-3.6,1.4l0,0l4.6,4l-1.3,1.5L311.1,657.6z M314.6,658c0.2,0.2,0.5,0.3,0.7,0.5
				c1.3,0.7,2.8,0.4,3.8-0.7c1.4-1.6,0.9-3.7-1-5.4c-1.7-1.5-3.9-1.9-5.3-0.3c-0.9,1-1,2.7-0.2,4c0.1,0.2,0.3,0.5,0.5,0.7L314.6,658
				z"/>
			<path class="st6" d="M322.3,648.4c2.1,1.8,4.1,1.2,5.5-0.3c1-1.1,1.4-1.9,1.6-2.7l1.3,0.7c-0.2,0.8-0.8,1.9-2,3.3
				c-2.3,2.6-5.4,2.6-7.9,0.4s-3.2-5.5-1-7.9c2.4-2.7,5.5-1.3,7,0c0.3,0.3,0.5,0.5,0.7,0.7L322.3,648.4z M325.2,643
				c-1-0.9-2.8-1.8-4.4-0.1c-1.4,1.5-0.5,3.5,0.4,4.5L325.2,643z"/>
			<path class="st6" d="M324.8,636.5l1.7-1.9l5.6,2.2c0.8,0.3,2.2,0.9,3,1.3l0,0c-0.5-0.7-1.4-2.4-2-3.5l-2.5-4.6l1.7-1.9l8.9,6.8
				l-1.3,1.5l-4.2-3.4c-0.9-0.7-2.1-1.6-3.1-2.5l0,0.1c0.6,0.9,1,1.7,1.9,3.3l2.8,5.4l-1,1.1l-5.5-2.2c-1-0.4-2.6-1.2-3.5-1.6
				l-0.1,0.1c1,0.9,2,1.9,2.9,2.8l3.8,3.7l-1.2,1.4L324.8,636.5z"/>
			<path class="st6" d="M348.5,626.7l-1.3,1.5l-3.5-3.1l-1,1.1c-0.6,0.6-0.8,1.2-0.8,1.8c0,1.1,0.8,2.2,1.3,3.3
				c0.2,0.3,0.3,0.7,0.4,1l-1.4,1.6c-0.1-0.4-0.3-0.9-0.5-1.4c-0.5-1.1-1.4-2.3-1.4-3.6c0-0.5,0.1-0.9,0.4-1.4l-0.1,0
				c-1.1,1-2.8,1.5-4,0.4c-0.9-0.8-1-1.8-0.8-2.7c0.2-1,0.9-2.2,1.9-3.3c0.9-1,1.8-1.9,2.6-2.6L348.5,626.7z M339.7,621.7
				c-0.4,0.3-0.7,0.7-1.2,1.2c-0.9,1-1.7,2.5-0.6,3.6c1.1,1,2.6,0,3.4-0.9c0.6-0.6,0.8-1,1.2-1.3L339.7,621.7z"/>
		</g>
		<path class="st5" d="M452.6,586.6c-68.2,0-123.7-55.5-123.7-123.7s55.5-123.7,123.7-123.7s123.7,55.5,123.7,123.7
			S520.8,586.6,452.6,586.6z M452.6,340.5c-67.5,0-122.4,54.9-122.4,122.4c0,67.5,54.9,122.4,122.4,122.4
			c67.5,0,122.4-54.9,122.4-122.4C575,395.4,520.1,340.5,452.6,340.5z"/>
		<g>
			<path class="st5" d="M737,485.8h-93.4v-17.1H737V485.8z M645.2,484.2h90.2v-13.8h-90.2V484.2z"/>
			<rect x="729.5" y="469.5" class="st5" width="1.6" height="15.4"/>
			<rect x="735.1" y="469.5" class="st5" width="1.6" height="15.4"/>
			<rect x="724" y="469.5" class="st5" width="1.6" height="15.4"/>
			<rect x="718.4" y="469.5" class="st5" width="1.6" height="15.4"/>
			<rect x="712.9" y="469.5" class="st5" width="1.6" height="15.4"/>
			<rect x="707.3" y="469.5" class="st5" width="1.6" height="15.4"/>
			<rect x="701.8" y="469.5" class="st5" width="1.6" height="15.4"/>
			<rect x="696.2" y="469.5" class="st5" width="1.6" height="15.4"/>
			<rect x="690.7" y="469.5" class="st5" width="1.6" height="15.4"/>
			<rect x="685.1" y="469.5" class="st5" width="1.6" height="15.4"/>
			<rect x="679.6" y="469.5" class="st5" width="1.6" height="15.4"/>
			<rect x="674" y="469.5" class="st5" width="1.6" height="15.4"/>
			<rect x="668.5" y="469.5" class="st5" width="1.6" height="15.4"/>
		</g>
		<g>
			<path class="st5" d="M737,555.1h-93.4V538H737V555.1z M645.2,553.4h90.2v-13.8h-90.2V553.4z"/>
			<rect x="729.5" y="538.8" class="st5" width="1.6" height="15.4"/>
			<rect x="735.1" y="538.8" class="st5" width="1.6" height="15.4"/>
			<rect x="724" y="538.8" class="st5" width="1.6" height="15.4"/>
			<rect x="718.4" y="538.8" class="st5" width="1.6" height="15.4"/>
			<rect x="712.9" y="538.8" class="st5" width="1.6" height="15.4"/>
			<rect x="707.3" y="538.8" class="st5" width="1.6" height="15.4"/>
			<rect x="701.8" y="538.8" class="st5" width="1.6" height="15.4"/>
			<rect x="696.2" y="538.8" class="st5" width="1.6" height="15.4"/>
			<rect x="690.7" y="538.8" class="st5" width="1.6" height="15.4"/>
			<rect x="685.1" y="538.8" class="st5" width="1.6" height="15.4"/>
			<rect x="679.6" y="538.8" class="st5" width="1.6" height="15.4"/>
			<rect x="674" y="538.8" class="st5" width="1.6" height="15.4"/>
			<rect x="668.5" y="538.8" class="st5" width="1.6" height="15.4"/>
		</g>
		<rect x="642.5" y="559.5" class="st7" width="16.7" height="16.7"/>
		<rect x="722.8" y="559.5" class="st7" width="16.7" height="16.7"/>
		<rect x="984.9" y="564.3" class="st7" width="16.7" height="16.7"/>
		<rect x="1065.2" y="564.3" class="st7" width="16.7" height="16.7"/>
		<rect x="984.9" y="449.6" class="st7" width="16.7" height="16.7"/>
		<rect x="1065.2" y="449.6" class="st7" width="16.7" height="16.7"/>
		<rect x="1136.4" y="449.6" class="st7" width="16.7" height="16.7"/>
		<rect x="642.5" y="446.2" class="st7" width="16.7" height="16.7"/>
		<rect x="722.8" y="446.2" class="st7" width="16.7" height="16.7"/>
		<rect x="620.3" y="504.5" class="st7" width="16.7" height="16.7"/>
		<rect x="952.2" y="504.5" class="st7" width="16.7" height="16.7"/>
		<rect x="1267.8" y="490.3" class="st7" width="16.7" height="16.7"/>
		<rect x="1267.8" y="523.9" class="st7" width="16.7" height="16.7"/>
	</g>
</g>
</svg>
