<svg width="80" height="80" viewBox="0 0 80 80" fill="none" xmlns="http://www.w3.org/2000/svg">
<path d="M51.4087 9.88544C50.6047 4.25013 45.6995 0 39.9995 0C36.3337 0 32.8522 1.76893 30.6876 4.73357C30.2455 5.33818 30.3778 6.1863 30.9824 6.62843C31.585 7.06898 32.4351 6.93828 32.8765 6.33288C34.5334 4.0658 37.1957 2.71199 39.9991 2.71199C44.3584 2.71199 48.1088 5.96066 48.7238 10.268C48.8207 10.9445 49.4011 11.4327 50.0649 11.4327C50.128 11.4327 50.1932 11.4279 50.2579 11.4192C50.9992 11.3131 51.5144 10.6263 51.4087 9.88544Z" fill="#68D94C"/>
<path d="M70.9926 25.0647L66.9248 18.2849C66.6801 17.8762 66.2387 17.6267 65.762 17.6267H61.8639C61.1155 17.6267 60.5081 18.2341 60.5081 18.9825C60.5081 19.7309 61.1155 20.3383 61.8639 20.3383H64.9946L67.4352 24.4061H12.5634L15.0041 20.3383H16.4401C17.1885 20.3383 17.7959 19.7309 17.7959 18.9825C17.7959 18.2341 17.1885 17.6267 16.4401 17.6267H14.2366C13.7599 17.6267 13.3185 17.8762 13.0738 18.2849L9.00605 25.0647C8.75459 25.4842 8.74864 26.0058 8.98897 26.4309C9.2293 26.8559 9.67978 27.1189 10.1688 27.1189H69.8298C70.3188 27.1189 70.7689 26.8559 71.0097 26.4309C71.2504 26.0058 71.244 25.4834 70.9926 25.0647Z" fill="#68D94C"/>
<path d="M64.2338 12.5623C64.0439 12.256 63.7408 12.0387 63.3905 11.9569L44.9062 7.63364C44.5563 7.55141 44.1876 7.61258 43.8817 7.80167C43.5767 7.99156 43.359 8.29465 43.2771 8.64502L41.8832 14.6037C41.7124 15.3326 42.1652 16.062 42.8946 16.232C43.6235 16.4028 44.3537 15.95 44.5237 15.2206L45.609 10.5828L61.4523 14.2887L58.9628 24.9329C58.7919 25.6618 59.2448 26.3912 59.9741 26.5612C60.0786 26.5854 60.1823 26.5969 60.2848 26.5969C60.9005 26.5969 61.4579 26.1751 61.6028 25.5502L64.4014 13.586C64.4841 13.236 64.4237 12.8673 64.2338 12.5623Z" fill="#68D94C"/>
<path d="M40.7164 15.7675L39.481 5.31793C39.4389 4.96081 39.2565 4.63467 38.9737 4.41221C38.6909 4.18976 38.3337 4.08806 37.975 4.13017L15.2963 6.81078C14.5531 6.89897 14.0215 7.5727 14.1093 8.31674L16.1691 25.7451C16.2509 26.4351 16.836 26.9424 17.5141 26.9424C17.567 26.9424 17.6214 26.9388 17.6754 26.9328C18.4183 26.8446 18.9498 26.1709 18.8624 25.4269L16.9616 9.34401L36.9473 6.98199L38.0231 16.0849C38.1113 16.8285 38.7818 17.3568 39.529 17.2726C40.2723 17.1852 40.8038 16.5111 40.7164 15.7675Z" fill="#68D94C"/>
<path d="M51.4401 25.2474L48.7487 14.0554C48.6645 13.7062 48.4448 13.4039 48.1386 13.216C47.8323 13.0297 47.4648 12.9713 47.1133 13.0547L25.27 18.3079C24.5418 18.4827 24.0937 19.2152 24.2685 19.9434L25.6136 25.5374C25.7884 26.2663 26.5209 26.7148 27.2486 26.5388C27.9768 26.364 28.4249 25.6315 28.2501 24.9034L27.2216 20.6274L46.4284 16.0091L48.8028 25.8822C48.9517 26.5039 49.5079 26.921 50.12 26.921C50.2253 26.921 50.3317 26.9087 50.4386 26.8828C51.1668 26.7077 51.6149 25.9755 51.4401 25.2474Z" fill="#68D94C"/>
<path d="M71.1851 25.6935C71.1478 24.9729 70.5527 24.4072 69.8305 24.4072H10.1695C9.44727 24.4072 8.85219 24.9725 8.81485 25.6935L6.10286 78.5748C6.08379 78.9458 6.21806 79.3089 6.47389 79.5782C6.73011 79.8472 7.08525 80.0001 7.45707 80.0001H72.5417C72.9131 80.0001 73.2687 79.8475 73.5261 79.5782C73.7815 79.3089 73.9158 78.9462 73.8971 78.5748L71.1851 25.6935ZM8.88397 77.2881L11.4569 27.1188H68.5415L71.1144 77.2881H8.88397Z" fill="#68D94C"/>
<path d="M50.1689 29.8303C47.9256 29.8303 46.1011 31.6549 46.1011 33.8981C46.1011 36.1414 47.9256 37.9659 50.1689 37.9659C52.4121 37.9659 54.2367 36.1414 54.2367 33.8981C54.2367 31.6549 52.4121 29.8303 50.1689 29.8303ZM50.1689 35.2543C49.4209 35.2543 48.8131 34.6461 48.8131 33.8985C48.8131 33.1509 49.4213 32.5427 50.1689 32.5427C50.9165 32.5427 51.5247 33.1509 51.5247 33.8985C51.5247 34.6461 50.9165 35.2543 50.1689 35.2543Z" fill="#68D94C"/>
<path d="M29.83 29.8303C27.5868 29.8303 25.7622 31.6549 25.7622 33.8981C25.7622 36.1414 27.5868 37.9659 29.83 37.9659C32.0732 37.9659 33.8978 36.1414 33.8978 33.8981C33.8978 31.6549 32.0732 29.8303 29.83 29.8303ZM29.83 35.2543C29.0824 35.2543 28.4742 34.6461 28.4742 33.8985C28.4742 33.1509 29.0824 32.5427 29.83 32.5427C30.5776 32.5427 31.1858 33.1509 31.1858 33.8985C31.1858 34.6461 30.5776 35.2543 29.83 35.2543Z" fill="#68D94C"/>
<path d="M50.1689 33.8982H50.0644C49.316 33.8982 48.7086 34.5056 48.7086 35.254C48.7086 35.4391 48.7451 35.6159 48.8131 35.7768V42.7115C48.8131 47.571 44.8593 51.5251 39.9994 51.5251C35.1395 51.5251 31.1857 47.5714 31.1857 42.7115V35.2544C31.1857 34.506 30.5783 33.8986 29.8299 33.8986C29.0815 33.8986 28.4741 34.506 28.4741 35.2544V42.7119C28.4741 49.067 33.6443 54.2371 39.9994 54.2371C46.3545 54.2371 51.5247 49.067 51.5247 42.7119V35.2544C51.5247 34.506 50.9173 33.8982 50.1689 33.8982Z" fill="#68D94C"/>
</svg>
