<?xml version="1.0" encoding="UTF-8" standalone="no"?>
<!DOCTYPE svg PUBLIC "-//W3C//DTD SVG 1.1//EN" "http://www.w3.org/Graphics/SVG/1.1/DTD/svg11.dtd">
<svg width="100%" height="100%" viewBox="0 0 35 35" version="1.1" xmlns="http://www.w3.org/2000/svg" xmlns:xlink="http://www.w3.org/1999/xlink" xml:space="preserve" xmlns:serif="http://www.serif.com/" style="fill-rule:evenodd;clip-rule:evenodd;stroke-linejoin:round;stroke-miterlimit:2;">
    <g transform="matrix(0.810314,0,0,0.810314,3.31957,3.31966)">
        <path d="M20.832,29.866C19.099,31.599 16.794,32.554 14.343,32.554C9.284,32.554 5.168,28.438 5.168,23.378C5.168,20.927 6.122,18.622 7.855,16.889C8.333,16.411 8.333,15.637 7.855,15.159C7.377,14.682 6.603,14.682 6.125,15.16C3.931,17.355 2.722,20.273 2.722,23.378C2.722,29.786 7.935,35 14.343,35C17.447,35 20.366,33.791 22.561,31.595C23.039,31.118 23.039,30.343 22.561,29.866C22.084,29.389 21.309,29.388 20.832,29.866Z" style="fill:rgb(104,217,76);fill-rule:nonzero;"/>
    </g>
    <g transform="matrix(0.810314,0,0,0.810314,3.31957,3.31966)">
        <path d="M31.055,27.184L27.576,27.184L25.422,21.208C25.247,20.723 24.787,20.4 24.272,20.4L15.203,20.4L15.203,14.908L23.625,14.908C24.301,14.908 24.848,14.361 24.848,13.685C24.848,13.009 24.301,12.462 23.625,12.462L15.203,12.462L15.203,8.688C15.203,8.012 14.656,7.465 13.98,7.465C13.305,7.465 12.757,8.012 12.757,8.688L12.757,21.622C12.757,22.298 13.305,22.845 13.98,22.845L23.412,22.845L25.566,28.822C25.741,29.307 26.201,29.63 26.717,29.63L31.055,29.63C31.73,29.63 32.278,29.083 32.278,28.407C32.278,27.731 31.731,27.184 31.055,27.184Z" style="fill:rgb(104,217,76);fill-rule:nonzero;"/>
    </g>
    <g transform="matrix(0.810314,0,0,0.810314,3.31957,3.31966)">
        <path d="M14.026,5.942C15.667,5.942 16.997,4.612 16.997,2.97C16.997,1.331 15.667,0 14.026,0C12.385,0 11.055,1.331 11.055,2.97C11.055,4.612 12.385,5.942 14.026,5.942Z" style="fill:rgb(104,217,76);fill-rule:nonzero;"/>
    </g>
</svg>
