<svg width="80" height="80" viewBox="0 0 80 80" fill="none" xmlns="http://www.w3.org/2000/svg">
<path d="M14.8038 46.2787C13.4261 47.0959 12.5 48.5978 12.5 50.3125C12.5 52.8972 14.6028 55 17.1875 55C19.2244 55 20.9613 53.6936 21.6063 51.875H33.75C36.3347 51.875 38.4375 53.9778 38.4375 56.5625C38.4375 59.1472 36.3347 61.25 33.75 61.25H15C10.6922 61.25 7.1875 64.7547 7.1875 69.0625C7.1875 73.3703 10.6922 76.875 15 76.875H30.625C31.488 76.875 32.1875 76.1755 32.1875 75.3125C32.1875 74.4495 31.488 73.75 30.625 73.75H15C12.4153 73.75 10.3125 71.6472 10.3125 69.0625C10.3125 66.4778 12.4153 64.375 15 64.375H33.75C38.0578 64.375 41.5625 60.8703 41.5625 56.5625C41.5625 52.2547 38.0578 48.75 33.75 48.75H21.6063C21.2367 47.7081 20.5089 46.8348 19.5712 46.2787L31.5053 26.6981C33.3827 23.8762 34.375 20.5881 34.375 17.1875C34.375 7.71031 26.6647 0 17.1875 0C7.71031 0 0 7.71031 0 17.1875C0 20.5881 0.992344 23.8762 2.86969 26.6981L14.8038 46.2787ZM17.1875 51.875C16.3259 51.875 15.625 51.1741 15.625 50.3125C15.625 49.4509 16.3259 48.75 17.1875 48.75C18.0491 48.75 18.75 49.4509 18.75 50.3125C18.75 51.1741 18.0491 51.875 17.1875 51.875ZM17.1875 3.125C24.9416 3.125 31.25 9.43344 31.25 17.1875C31.25 19.9794 30.4333 22.6773 28.8883 24.9898C28.8762 25.0078 28.8645 25.0261 28.8533 25.0447L17.1875 44.1852C17.1875 44.1852 5.49875 25.0078 5.48672 24.9898C3.94172 22.6773 3.125 19.9794 3.125 17.1875C3.125 9.43344 9.43344 3.125 17.1875 3.125Z" fill="#68D94C"/>
<path d="M17.1875 25C21.4953 25 25 21.4953 25 17.1875C25 12.8797 21.4953 9.375 17.1875 9.375C12.8797 9.375 9.375 12.8797 9.375 17.1875C9.375 21.4953 12.8797 25 17.1875 25ZM17.1875 12.5C19.7722 12.5 21.875 14.6028 21.875 17.1875C21.875 19.7722 19.7722 21.875 17.1875 21.875C14.6028 21.875 12.5 19.7722 12.5 17.1875C12.5 14.6028 14.6028 12.5 17.1875 12.5Z" fill="#68D94C"/>
<path d="M62.8125 25.9375C53.3353 25.9375 45.625 33.6478 45.625 43.125C45.625 46.5311 46.6205 49.8242 48.5038 52.6491L60.3933 71.2991C59.4727 71.8561 58.7588 72.7211 58.3939 73.75H44.6875C43.8245 73.75 43.125 74.4495 43.125 75.3125C43.125 76.1755 43.8245 76.875 44.6875 76.875H58.3938C59.0387 78.6936 60.7755 80 62.8125 80C65.3972 80 67.5 77.8972 67.5 75.3125C67.5 73.6123 66.5902 72.1209 65.2319 71.2991L77.1214 52.6491C79.0045 49.8242 80 46.5311 80 43.125C80 33.6478 72.2897 25.9375 62.8125 25.9375ZM62.8125 76.875C61.9509 76.875 61.25 76.1741 61.25 75.3125C61.25 74.4509 61.9509 73.75 62.8125 73.75C63.6741 73.75 64.375 74.4509 64.375 75.3125C64.375 76.1741 63.6741 76.875 62.8125 76.875ZM74.5133 50.9273C74.5072 50.9367 62.8125 69.2808 62.8125 69.2808C62.8125 69.2808 51.1178 50.9366 51.1117 50.9273C49.5667 48.6148 48.75 45.9169 48.75 43.125C48.75 35.3709 55.0584 29.0625 62.8125 29.0625C70.5666 29.0625 76.875 35.3709 76.875 43.125C76.875 45.9169 76.0583 48.6148 74.5133 50.9273Z" fill="#68D94C"/>
<path d="M62.8125 35.3125C58.5047 35.3125 55 38.8172 55 43.125C55 47.4328 58.5047 50.9375 62.8125 50.9375C67.1203 50.9375 70.625 47.4328 70.625 43.125C70.625 38.8172 67.1203 35.3125 62.8125 35.3125ZM62.8125 47.8125C60.2278 47.8125 58.125 45.7097 58.125 43.125C58.125 40.5403 60.2278 38.4375 62.8125 38.4375C65.3972 38.4375 67.5 40.5403 67.5 43.125C67.5 45.7097 65.3972 47.8125 62.8125 47.8125Z" fill="#68D94C"/>
<path d="M37.6562 76.875C38.5192 76.875 39.2188 76.1754 39.2188 75.3125C39.2188 74.4496 38.5192 73.75 37.6562 73.75C36.7933 73.75 36.0938 74.4496 36.0938 75.3125C36.0938 76.1754 36.7933 76.875 37.6562 76.875Z" fill="#68D94C"/>
</svg>
