<svg width="80" height="80" viewBox="0 0 80 80" fill="none" xmlns="http://www.w3.org/2000/svg">
<g clip-path="url(#clip0)">
<path d="M78.4897 12.1585L79.543 11.1052C80.1532 10.495 80.1532 9.50567 79.543 8.89536C78.9329 8.28537 77.9435 8.28537 77.3332 8.89536L76.2799 9.94863L75.2273 8.89599C74.9343 8.60302 74.5368 8.43834 74.1225 8.43834H72.4039L64.4232 0.457651C64.1301 0.164686 63.7327 0 63.3184 0H5.6281C2.52532 0 0.000976562 2.52419 0.000976562 5.62712V34.9082C0.000976562 38.011 2.52532 40.5353 5.6281 40.5353H19.2404L10.0866 49.6893C9.02384 50.7521 8.43853 52.1652 8.43853 53.6683C8.43853 55.1712 9.02384 56.5843 10.0866 57.6473L30.7914 78.352C31.8542 79.4148 33.2673 80.0002 34.7704 80.0002C36.2735 80.0002 37.6866 79.4148 38.7494 78.352L54.2566 62.845C54.8669 62.2349 54.8669 61.2455 54.2566 60.6352C53.6464 60.0254 52.6571 60.0252 52.0469 60.6352L36.5396 76.1422C36.0671 76.6149 35.4387 76.875 34.7704 76.875C34.1021 76.875 33.4737 76.6149 33.0012 76.1422L12.2963 55.4375C11.8238 54.965 11.5635 54.3365 11.5635 53.6683C11.5635 52.9998 11.8238 52.3716 12.2963 51.8991L52.6318 11.5636H73.4754L74.0704 12.1586L70.4573 15.7717C69.8453 15.4783 69.1605 15.3137 68.4377 15.3137C65.853 15.3137 63.7502 17.4165 63.7502 20.0012C63.7502 22.5858 65.853 24.6886 68.4377 24.6886C71.0223 24.6886 73.1251 22.5858 73.1251 20.0012C73.1251 19.2784 72.9604 18.5934 72.667 17.9815L76.2801 14.3684L76.8751 14.9634V35.8069L61.9902 50.6919C61.3801 51.3021 61.3801 52.2914 61.9902 52.9017C62.6004 53.5117 63.5898 53.5117 64.2001 52.9017L79.5425 37.5592C79.8355 37.2661 80.0002 36.8688 80.0002 36.4544V14.3159C80.0002 13.9016 79.8355 13.5042 79.5425 13.2111L78.4897 12.1585ZM28.0599 28.0364C27.198 28.0364 26.4969 27.3353 26.4969 26.4734C26.4969 25.6114 27.198 24.9103 28.0599 24.9103C28.9217 24.9103 29.6228 25.6114 29.6228 26.4734C29.6228 27.3351 28.9217 28.0364 28.0599 28.0364ZM51.9846 8.43849C51.5702 8.43849 51.1727 8.60318 50.8798 8.89614L32.709 27.0667C32.7337 26.8722 32.7479 26.6744 32.7479 26.4733C32.7479 23.8883 30.645 21.7852 28.06 21.7852C25.4752 21.7852 23.3721 23.8883 23.3721 26.4733C23.3721 29.0583 25.475 31.1612 28.06 31.1612C28.2611 31.1612 28.4589 31.147 28.6535 31.1223L22.3656 37.4102H5.6281C4.24843 37.4102 3.12594 36.2877 3.12594 34.908V5.62712C3.12594 4.24745 4.24843 3.12496 5.6281 3.12496H62.671L67.9846 8.43849H51.9846ZM68.4377 21.5633C67.5761 21.5633 66.8752 20.8624 66.8752 20.0009C66.8752 19.1393 67.5761 18.4384 68.4377 18.4384C68.7942 18.4384 69.1224 18.5598 69.3856 18.7617C69.427 18.8157 69.4711 18.8685 69.5205 18.9179C69.5698 18.9673 69.6227 19.0113 69.6767 19.0527C69.8786 19.316 70 19.6441 70 20.0007C70.0002 20.8624 69.2992 21.5633 68.4377 21.5633Z" fill="#68D94C"/>
<path d="M51.9681 46.2236C52.3825 46.2236 52.78 46.0589 53.073 45.766L56.6084 42.2304C57.2186 41.6202 57.2186 40.6309 56.6084 40.0206C55.9983 39.4106 55.0089 39.4106 54.3987 40.0206L51.9681 42.4513L44.2342 34.7175C43.6242 34.1075 42.6347 34.1075 42.0245 34.7175C41.4144 35.3277 41.4144 36.317 42.0245 36.9273L50.8633 45.766C51.1564 46.0589 51.5539 46.2236 51.9681 46.2236Z" fill="#68D94C"/>
<path d="M64.1213 32.5079C63.5112 31.8979 62.5218 31.8979 61.9115 32.5079L59.9228 34.4966L57.7131 32.2871L59.7018 30.2984C60.312 29.6883 60.312 28.6989 59.7018 28.0886C59.0917 27.4786 58.1023 27.4786 57.492 28.0886L55.5033 30.0773L53.2936 27.8677L55.2824 25.8789C55.8925 25.2688 55.8927 24.2794 55.2824 23.6691C54.6722 23.0593 53.6828 23.0591 53.0727 23.6691L49.9791 26.7627C49.6862 27.0556 49.5215 27.4531 49.5215 27.8675C49.5215 28.2819 49.6862 28.6792 49.9791 28.9723L58.8179 37.811C59.1229 38.116 59.5229 38.2686 59.9228 38.2686C60.3226 38.2686 60.7226 38.116 61.0276 37.811L64.1212 34.7174C64.7315 34.1074 64.7315 33.1181 64.1213 32.5079Z" fill="#68D94C"/>
<path d="M46.8395 50.4729C47.6081 50.8647 48.5491 50.5588 48.941 49.7899C49.3327 49.021 49.0269 48.0802 48.2579 47.6885L36.5466 41.7223C35.9435 41.415 35.2112 41.5311 34.7326 42.0097C34.254 42.4883 34.1379 43.2208 34.4452 43.8237L40.4114 55.535C40.6874 56.0769 41.2358 56.3887 41.8048 56.3886C42.0434 56.3886 42.2858 56.3337 42.5128 56.2179C43.2817 55.8262 43.5875 54.8855 43.1959 54.1166L42.7169 53.176L45.8992 49.9936L46.8395 50.4729ZM41.2252 50.2483L39.4121 46.6892L42.9714 48.5024L41.2252 50.2483Z" fill="#68D94C"/>
<path d="M31.86 62.5597C31.2498 63.1699 31.2497 64.1592 31.86 64.7695C32.1651 65.0745 32.565 65.2272 32.9648 65.2272C33.3646 65.2272 33.7646 65.0745 34.0696 64.7695L36.2795 62.5599C38.1071 60.7322 38.1071 57.7585 36.2795 55.9307C34.5423 54.1936 31.7706 54.1089 29.9308 55.6739C29.8736 55.7171 29.818 55.7631 29.7659 55.8153L29.6503 55.9307C29.3552 56.2259 28.9628 56.3884 28.5455 56.3884C28.1281 56.3884 27.7358 56.2259 27.4407 55.9307C26.8314 55.3215 26.8314 54.3303 27.4407 53.7209L29.6503 51.5112C30.2605 50.9011 30.2606 49.9117 29.6503 49.3014C29.0402 48.6916 28.0508 48.6914 27.4407 49.3014L25.2308 51.5111C23.4032 53.3387 23.4032 56.3126 25.2308 58.1404C26.1163 59.0257 27.2933 59.5132 28.5453 59.5132C29.7956 59.5132 30.9712 59.0269 31.8565 58.1435C31.8576 58.1424 31.8589 58.1415 31.86 58.1404C32.469 57.531 33.4604 57.531 34.0696 58.1404C34.3648 58.4355 34.5273 58.8277 34.5273 59.2451C34.5273 59.6626 34.3648 60.0549 34.0696 60.3499L31.86 62.5597Z" fill="#68D94C"/>
<path d="M26.7714 10.0871C26.02 9.66302 25.0669 9.92802 24.6427 10.6796L14.5647 28.5316C14.1405 29.2831 14.4056 30.2361 15.1572 30.6603C15.4 30.7973 15.6636 30.8625 15.9239 30.8625C16.4692 30.8625 16.9987 30.5765 17.2859 30.0678L27.3639 12.2158C27.7881 11.4643 27.523 10.5111 26.7714 10.0871Z" fill="#68D94C"/>
<path d="M19.5587 14.062C19.5587 11.477 17.4557 9.37402 14.8707 9.37402C12.2857 9.37402 10.1826 11.477 10.1826 14.062C10.1826 16.647 12.2856 18.7501 14.8706 18.7501C17.4556 18.7501 19.5587 16.647 19.5587 14.062ZM13.3076 14.062C13.3076 13.2001 14.0087 12.499 14.8706 12.499C15.7325 12.499 16.4336 13.2001 16.4336 14.062C16.4336 14.924 15.7325 15.6251 14.8706 15.6251C14.0087 15.6251 13.3076 14.924 13.3076 14.062Z" fill="#68D94C"/>
<path d="M58.1228 55.2056C57.7103 55.2056 57.3087 55.3728 57.0181 55.6635C56.7275 55.954 56.5603 56.3571 56.5603 56.7681C56.5603 57.1792 56.7275 57.5823 57.0181 57.8728C57.3087 58.1634 57.7103 58.3306 58.1228 58.3306C58.5337 58.3306 58.9369 58.1635 59.2275 57.8728C59.5181 57.5823 59.6853 57.1792 59.6853 56.7681C59.6853 56.3571 59.5181 55.954 59.2275 55.6635C58.9369 55.3729 58.5337 55.2056 58.1228 55.2056Z" fill="#68D94C"/>
</g>
<defs>
<clipPath id="clip0">
<rect width="80" height="80" fill="white"/>
</clipPath>
</defs>
</svg>
