<svg width="80" height="80" viewBox="0 0 80 80" fill="none" xmlns="http://www.w3.org/2000/svg">
<path d="M70.985 9.0073C59.0427 -2.96813 39.6535 -2.99515 27.6781 8.94722C16.123 20.4703 15.6341 39.0301 26.5662 51.1456L24.2276 53.4842C22.3382 51.5946 19.2746 51.5942 17.385 53.4836C17.3848 53.4838 17.3846 53.484 17.3844 53.4842L1.41745 69.4512C-0.47218 71.3406 -0.472583 74.4042 1.41684 76.2938C1.41704 76.294 1.41724 76.2942 1.41745 76.2944L3.69798 78.5749C5.58741 80.4638 8.65016 80.4638 10.5396 78.5749L26.5066 62.608C28.3962 60.7185 28.3966 57.655 26.5072 55.7653C26.507 55.7651 26.5068 55.7649 26.5066 55.7647L28.8451 53.4261C41.3929 64.7657 60.7573 63.7861 72.0969 51.2385C83.05 39.1184 82.5607 20.5344 70.985 9.0073ZM24.2276 60.3258L8.26066 76.2928C7.63086 76.9224 6.60994 76.9224 5.98013 76.2928L3.69959 74.0106C3.071 73.381 3.071 72.3613 3.69959 71.7317L19.6666 55.7647C20.3044 55.1549 21.3092 55.1549 21.9471 55.7647L24.2276 58.0469C24.8562 58.6765 24.8562 59.6962 24.2276 60.3258ZM68.7061 50.0634C57.9986 60.7705 40.6383 60.7703 29.9312 50.0628C19.224 39.3552 19.2242 21.995 29.9318 11.2878C40.6391 0.580891 57.9988 0.580891 68.7061 11.2878C79.3961 22.0026 79.3961 39.3486 68.7061 50.0634Z" fill="#68D94C"/>
</svg>
