<?xml version="1.0" encoding="UTF-8" standalone="no"?>
<!DOCTYPE svg PUBLIC "-//W3C//DTD SVG 1.1//EN" "http://www.w3.org/Graphics/SVG/1.1/DTD/svg11.dtd">
<svg width="100%" height="100%" viewBox="0 0 395 395" version="1.1" xmlns="http://www.w3.org/2000/svg" xmlns:xlink="http://www.w3.org/1999/xlink" xml:space="preserve" xmlns:serif="http://www.serif.com/" style="fill-rule:evenodd;clip-rule:evenodd;stroke-linejoin:round;stroke-miterlimit:2;">
    <g transform="matrix(1.46299,0,0,3.24966,-68.0115,-110.057)">
        <g transform="matrix(158.235,0,0,71.2372,51.8377,120.14)">
            <path d="M0.202,-0L0.012,-0.716L0.109,-0.716L0.218,-0.247C0.23,-0.197 0.24,-0.149 0.249,-0.1C0.267,-0.177 0.278,-0.221 0.281,-0.232L0.417,-0.716L0.531,-0.716L0.634,-0.354C0.66,-0.264 0.678,-0.179 0.689,-0.1C0.699,-0.145 0.71,-0.197 0.725,-0.256L0.837,-0.716L0.933,-0.716L0.736,-0L0.645,-0L0.494,-0.545C0.481,-0.591 0.474,-0.619 0.472,-0.629C0.464,-0.597 0.457,-0.569 0.451,-0.545L0.299,-0L0.202,-0Z" style="fill:rgb(104,217,76);fill-rule:nonzero;"/>
        </g>
        <g transform="matrix(158.235,0,0,71.2372,201.187,120.14)">
            <path d="M0.588,-0.251L0.683,-0.227C0.663,-0.149 0.627,-0.09 0.575,-0.049C0.524,-0.008 0.461,0.012 0.386,0.012C0.309,0.012 0.246,-0.003 0.198,-0.035C0.15,-0.066 0.113,-0.112 0.088,-0.171C0.062,-0.231 0.05,-0.295 0.05,-0.363C0.05,-0.438 0.064,-0.503 0.093,-0.558C0.121,-0.614 0.162,-0.656 0.214,-0.685C0.267,-0.714 0.325,-0.728 0.388,-0.728C0.459,-0.728 0.52,-0.71 0.568,-0.673C0.617,-0.637 0.651,-0.586 0.67,-0.52L0.577,-0.498C0.561,-0.55 0.536,-0.588 0.505,-0.611C0.473,-0.635 0.434,-0.647 0.386,-0.647C0.331,-0.647 0.285,-0.634 0.248,-0.607C0.211,-0.581 0.185,-0.546 0.17,-0.501C0.155,-0.457 0.147,-0.411 0.147,-0.364C0.147,-0.303 0.156,-0.25 0.174,-0.204C0.192,-0.159 0.219,-0.125 0.257,-0.103C0.294,-0.08 0.335,-0.069 0.378,-0.069C0.431,-0.069 0.476,-0.084 0.513,-0.115C0.55,-0.145 0.575,-0.191 0.588,-0.251Z" style="fill:rgb(104,217,76);fill-rule:nonzero;"/>
        </g>
    </g>
</svg>
