<?xml version="1.0" encoding="UTF-8" standalone="no"?>
<!DOCTYPE svg PUBLIC "-//W3C//DTD SVG 1.1//EN" "http://www.w3.org/Graphics/SVG/1.1/DTD/svg11.dtd">
<svg width="100%" height="100%" viewBox="0 0 37 37" version="1.1" xmlns="http://www.w3.org/2000/svg" xmlns:xlink="http://www.w3.org/1999/xlink" xml:space="preserve" xmlns:serif="http://www.serif.com/" style="fill-rule:evenodd;clip-rule:evenodd;stroke-linejoin:round;stroke-miterlimit:2;">
    <g>
        <g transform="matrix(0.90249,0,0,0.90249,1.80393,1.80397)">
            <path d="M18.416,0.012C17.818,0.012 17.333,0.497 17.333,1.095L17.333,35.905C17.333,36.503 17.818,36.988 18.416,36.988C19.014,36.988 19.499,36.503 19.499,35.905L19.499,1.095C19.499,0.497 19.014,0.012 18.416,0.012Z" style="fill:rgb(104,217,76);fill-rule:nonzero;"/>
        </g>
        <g transform="matrix(0.90249,0,0,0.90249,1.80393,1.80397)">
            <path d="M36.807,19.566L34.324,12.668C34,11.429 33.251,10.393 32.258,9.697C33.074,8.909 33.582,7.805 33.582,6.584C33.582,4.194 31.638,2.251 29.249,2.251C26.86,2.251 24.916,4.194 24.916,6.584C24.916,7.805 25.424,8.909 26.24,9.697C25.247,10.393 24.498,11.429 24.174,12.668L21.691,19.566C21.058,21.325 22.037,23.256 23.832,23.784L23.832,31.5C23.832,33.292 25.29,34.749 27.082,34.749C27.914,34.749 28.674,34.436 29.249,33.92C29.824,34.435 30.584,34.749 31.415,34.749C33.207,34.749 34.665,33.292 34.665,31.5L34.665,23.784C36.459,23.257 37.441,21.327 36.807,19.566ZM29.249,4.417C30.444,4.417 31.416,5.389 31.416,6.584C31.416,7.778 30.444,8.75 29.249,8.75C28.054,8.75 27.082,7.779 27.082,6.584C27.082,5.389 28.054,4.417 29.249,4.417ZM33.749,21.75L33.582,21.75C32.984,21.75 32.499,22.235 32.499,22.833L32.499,31.499C32.499,32.097 32.013,32.583 31.416,32.583C30.818,32.583 30.332,32.097 30.332,31.499L30.332,25C30.332,24.401 29.847,23.916 29.249,23.916C28.651,23.916 28.166,24.401 28.166,25L28.166,31.499C28.166,32.097 27.68,32.583 27.083,32.583C26.485,32.583 25.999,32.097 25.999,31.499L25.999,22.833C25.999,22.235 25.514,21.75 24.916,21.75L24.749,21.75C24,21.75 23.476,21.005 23.73,20.3C26.408,12.861 26.242,13.328 26.262,13.249C26.605,11.876 27.834,10.917 29.249,10.917C30.665,10.917 31.893,11.876 32.236,13.249C32.256,13.328 32.091,12.863 34.769,20.3C35.022,21.005 34.499,21.75 33.749,21.75Z" style="fill:rgb(104,217,76);fill-rule:nonzero;"/>
        </g>
        <g transform="matrix(0.90249,0,0,0.90249,1.80393,1.80397)">
            <path d="M10.81,9.472C11.497,8.705 11.916,7.693 11.916,6.584C11.916,4.194 9.972,2.251 7.583,2.251C5.194,2.251 3.25,4.194 3.25,6.584C3.25,7.693 3.669,8.705 4.356,9.472C1.784,10.687 0,13.305 0,16.333L0,20.667C0,22.079 0.906,23.284 2.167,23.731L2.167,31.499C2.167,33.291 3.624,34.749 5.416,34.749C6.248,34.749 7.008,34.435 7.583,33.92C8.158,34.435 8.918,34.749 9.75,34.749C11.542,34.749 13,33.291 13,31.499L13,23.731C14.261,23.284 15.166,22.079 15.166,20.667L15.166,16.333C15.166,13.305 13.382,10.687 10.81,9.472ZM7.583,4.417C8.778,4.417 9.75,5.389 9.75,6.584C9.75,7.778 8.778,8.75 7.583,8.75C6.388,8.75 5.416,7.779 5.416,6.584C5.416,5.389 6.388,4.417 7.583,4.417ZM13,20.667C13,21.264 12.514,21.75 11.916,21.75C11.318,21.75 10.833,22.235 10.833,22.833L10.833,31.499C10.833,32.097 10.347,32.583 9.75,32.583C9.152,32.583 8.666,32.097 8.666,31.499L8.666,25C8.666,24.401 8.181,23.916 7.583,23.916C6.985,23.916 6.5,24.401 6.5,25L6.5,31.499C6.5,32.097 6.014,32.583 5.417,32.583C4.819,32.583 4.333,32.097 4.333,31.499L4.333,22.833C4.333,22.235 3.848,21.75 3.25,21.75C2.653,21.75 2.167,21.264 2.167,20.667L2.167,16.333C2.167,13.347 4.597,10.917 7.583,10.917C10.57,10.917 13,13.347 13,16.333L13,20.667L13,20.667Z" style="fill:rgb(104,217,76);fill-rule:nonzero;"/>
        </g>
    </g>
</svg>
