<?xml version="1.0" encoding="UTF-8" standalone="no"?>
<!DOCTYPE svg PUBLIC "-//W3C//DTD SVG 1.1//EN" "http://www.w3.org/Graphics/SVG/1.1/DTD/svg11.dtd">
<svg width="100%" height="100%" viewBox="0 0 51 51" version="1.1" xmlns="http://www.w3.org/2000/svg" xmlns:xlink="http://www.w3.org/1999/xlink" xml:space="preserve" xmlns:serif="http://www.serif.com/" style="fill-rule:evenodd;clip-rule:evenodd;stroke-linejoin:round;stroke-miterlimit:2;">
    <g transform="matrix(0.976654,0,0,1.06582,0.595335,10.0456)">
        <path d="M49.062,13.04C47.221,11.353 44.03,11.302 37.785,11.301C37.291,10.553 36.249,9.176 34.522,7.809C33.006,6.609 30.739,5.255 27.631,4.485L27.631,1.742C27.631,1.155 27.156,0.68 26.568,0.68L18.054,0.68C17.467,0.68 16.993,1.155 16.993,1.742L16.993,4.485C13.883,5.255 11.612,6.606 10.093,7.806C8.362,9.173 7.315,10.55 6.82,11.296L5.572,11.296C5.488,11.276 5.136,11.276 5.054,11.296L3.187,11.296C2.906,11.296 2.637,11.408 2.437,11.607L0.311,13.732C0.112,13.932 0,14.202 0,14.483L0,21.945C0,22.241 0.125,22.524 0.341,22.725C0.604,22.97 2.985,25.108 5.292,25.108L6.809,25.108C7.626,26.996 9.503,28.32 11.689,28.32C13.871,28.32 15.751,26.996 16.566,25.108L34.434,25.108C35.249,26.996 37.129,28.32 39.312,28.32C41.497,28.32 43.375,26.996 44.191,25.108L49.939,25.108C50.524,25.108 51,24.632 51,24.047C51,17.902 51,14.816 49.062,13.04ZM33.12,9.41C33.964,10.068 34.621,10.73 35.111,11.296L21.251,11.296L21.251,6.01C21.597,5.993 21.95,5.984 22.312,5.984C26.571,5.984 30.206,7.136 33.12,9.41ZM19.117,2.804L25.506,2.804L25.506,4.076C24.513,3.937 23.449,3.859 22.313,3.859C21.176,3.859 20.112,3.937 19.117,4.076L19.117,2.804ZM19.125,6.221L19.125,11.296L9.494,11.296C10.977,9.596 14.001,7.01 19.125,6.221ZM3.628,13.421L4.249,13.421L4.249,14.483L2.565,14.483L3.628,13.421ZM11.689,26.194C9.93,26.194 8.501,24.766 8.501,23.007C8.501,21.25 9.93,19.819 11.689,19.819C13.444,19.819 14.876,21.25 14.876,23.007C14.876,24.766 13.444,26.194 11.689,26.194ZM39.311,26.194C37.556,26.194 36.124,24.766 36.124,23.007C36.124,21.25 37.556,19.819 39.311,19.819C41.07,19.819 42.499,21.25 42.499,23.007C42.499,24.766 41.07,26.194 39.311,26.194ZM44.625,22.984C44.612,20.065 42.234,17.695 39.311,17.695C36.392,17.695 34.013,20.065 34.001,22.984L16.999,22.984C16.987,20.065 14.608,17.695 11.689,17.695C8.766,17.695 6.387,20.065 6.375,22.984L5.292,22.984C4.246,22.984 2.851,22.039 2.126,21.455L2.126,16.609L5.314,16.609C5.899,16.609 6.375,16.134 6.375,15.546L6.375,13.421L37.102,13.421C37.13,13.423 37.161,13.425 37.19,13.425C42.876,13.425 46.101,13.426 47.48,14.483L45.674,14.483C45.086,14.483 44.611,14.96 44.611,15.546C44.611,16.134 45.086,16.609 45.674,16.609L48.553,16.609C48.84,18.048 48.871,20.137 48.874,22.984L44.625,22.984Z" style="fill:rgb(104,217,76);fill-rule:nonzero;"/>
    </g>
</svg>
