<?xml version="1.0" encoding="UTF-8"?>
<svg width="1130px" height="144px" viewBox="0 0 1130 144" version="1.1" xmlns="http://www.w3.org/2000/svg" xmlns:xlink="http://www.w3.org/1999/xlink">
    <!-- Generator: Sketch 53 (72520) - https://sketchapp.com -->
    <title>logo_585_zolotoy</title>
    <desc>Created with Sketch.</desc>
    <defs>
        <polygon id="path-1" points="0.06 0.955 1101.51 0.955 1101.51 120.465 322.959926 120.465 0.06 120.465"></polygon>
    </defs>
    <g id="logo_585_zolotoy" stroke="none" stroke-width="1" fill="none" fill-rule="evenodd">
        <path d="M509.224001,50.5088876 C509.224001,43.0267419 505.985439,37.0759006 499.49024,32.6483464 C493.00408,28.2177857 484.044562,26 472.614699,26 C451.976276,26 439.587397,33.9581729 435.438022,49.8805317 L460.876546,52.8238831 C461.921923,47.1045414 465.669617,44.2403608 472.118622,44.2403608 C478.352727,44.2403608 481.46978,46.7227174 481.46978,51.6934437 C481.46978,55.0847619 480.434444,57.7284667 478.359756,59.6285669 C476.292098,61.5286671 473.432122,62.4777151 469.791878,62.4777151 L463.698362,62.4777151 L463.698362,78.8991508 L471.421703,78.8991508 C475.852256,78.8991508 479.354924,79.9494172 481.909622,82.0639802 C484.463315,84.1675194 485.740664,86.914447 485.740664,90.2997521 C485.740664,93.8113297 484.721396,96.5482357 482.696918,98.5084656 C480.665411,100.474709 477.682922,101.451817 473.747442,101.451817 C466.674826,101.451817 462.377832,98.2609315 460.876546,91.8681365 L434,93.868453 C439.228896,111.958489 452.647085,121 474.253562,121 C486.886462,121 496.674449,118.136822 503.599448,112.387415 C510.537501,106.644021 514,99.2871459 514,90.2997521 C514,79.3942191 508.469842,72.4632628 497.418565,69.492853 C505.288521,65.8570072 509.224001,59.5343636 509.224001,50.5088876" id="Fill-1" fill="#FF0008"></path>
        <path d="M554.524999,53.5741801 C557.983618,49.5207747 562.570439,47.5005854 568.283461,47.5005854 C574.242528,47.5005854 578.962372,49.4937186 582.448996,53.4809869 C585.93362,57.4682552 587.675931,63.7893632 587.675931,72.433288 C587.675931,82.7146082 586.000632,89.8363765 582.668035,93.8026012 C579.329438,97.7728342 574.615594,99.7599549 568.539507,99.7599549 C562.610446,99.7599549 557.930609,97.7327511 554.490993,93.6783435 C551.050377,89.6309505 549.33307,82.9621215 549.33307,73.6908959 C549.33307,64.3284812 551.06638,57.6315939 554.524999,53.5741801 Z M527.31713,100.381243 C531.529884,107.526059 537.017866,112.743879 543.80208,116.048733 C550.572292,119.35058 559.125823,121 569.468673,121 C579.643494,121 588.143015,119.086031 594.960235,115.260097 C601.771454,111.446188 606.992388,106.098098 610.598033,99.2278514 C614.197677,92.3475839 616,83.547335 616,72.8070631 C616,58.0224044 611.873262,46.5275677 603.620785,38.3185448 C595.368308,30.1055135 583.610204,26 568.349473,26 C553.456808,26 541.852732,30.1846777 533.509238,38.5329895 C525.166746,46.8943282 521,58.5625244 521,73.5626299 C521,84.2998956 523.110378,93.2404354 527.31713,100.381243 L527.31713,100.381243 Z" id="Fill-2" fill="#FF0008"></path>
        <path d="M720,26 L638.317849,26 L638.317849,88.6037924 C638.317849,93.247505 637.494114,96.4421158 635.853669,98.1816367 C634.2062,99.9301397 631.398881,100.796407 627.413652,100.796407 L623,100.796407 L623,119.96008 C627.158806,120.650699 630.829992,121 634.038644,121 C644.507396,121 652.076522,119.686627 656.771106,117.065868 C661.466694,114.441118 664.454612,110.317365 665.732855,104.700599 C666.999059,99.0838323 667.642194,90.2994012 667.642194,78.3373253 L667.642194,49.2355289 L690.609435,49.2355289 L690.609435,120.610778 L720,120.610778 L720,26" id="Fill-3" fill="#FF0008"></path>
        <polyline id="Fill-4" fill="#FF0008" points="835 49.4623824 864.860244 49.4623824 864.860244 121 894.139756 121 894.139756 49.4623824 924 49.4623824 924 26 835 26 835 49.4623824"></polyline>
        <polyline id="Fill-5" fill="#FF0008" points="1101.49907 26 1065.72086 78.5508982 1065.72086 26 1038 26 1038 121 1065.75085 121 1101.35911 68.8363273 1101.35911 121 1129 121 1129 26 1101.49907 26"></polyline>
        <path d="M766.524999,53.5773158 C769.983618,49.5200304 774.571439,47.4999051 780.280461,47.4999051 C786.242528,47.4999051 790.963372,49.4929751 794.447996,53.4801173 C797.93362,57.4672595 799.676932,63.7891695 799.676932,72.4318187 C799.676932,82.7128135 798.000632,89.8343565 794.669036,93.8044639 C791.330438,97.770563 786.616595,99.7576208 780.540507,99.7576208 C774.611446,99.7576208 769.930609,97.7304812 766.491993,93.677204 C763.047377,89.6269329 761.33107,82.960319 761.33107,73.6883847 C761.33107,64.3302745 763.06638,57.631595 766.524999,53.5773158 Z M739.31713,100.379892 C743.529884,107.524482 749.017866,112.742137 755.80208,116.045883 C762.572292,119.351634 771.125823,121 781.467673,121 C791.650495,121 800.143015,119.083085 806.961235,115.257273 C813.770454,111.444487 818.993388,106.099572 822.592032,99.2255342 C826.196677,92.3464865 828,83.5425079 828,72.806584 C828,58.0223931 823.874262,46.5269181 815.620785,38.319157 C807.368308,30.1053836 795.610204,26 780.346473,26 C765.457808,26 753.852732,30.1845453 745.506238,38.5325929 C737.166746,46.8946691 733,58.560492 733,73.5621269 C733,84.2980508 735.110378,93.2393097 739.31713,100.379892 L739.31713,100.379892 Z" id="Fill-6" fill="#FF0008"></path>
        <g id="Group-12">
            <mask id="mask-2" fill="white">
                <use xlink:href="#path-1"></use>
            </mask>
            <g id="Clip-8"></g>
            <path d="M964.574,53.179 C968.032,49.134 972.617,47.118 978.326,47.118 C984.286,47.118 989.006,49.107 992.492,53.086 C995.976,57.065 997.718,63.373 997.718,71.999 C997.718,82.259 996.042,89.366 992.711,93.324 C989.373,97.286 984.66,99.269 978.586,99.269 C972.658,99.269 967.978,97.246 964.539,93.2 C961.102,89.161 959.386,82.506 959.386,73.254 C959.386,63.911 961.115,57.228 964.574,53.179 Z M937.369,99.889 C941.582,107.019 947.07,112.226 953.852,115.524 C960.621,118.819 969.173,120.465 979.513,120.465 C989.688,120.465 998.185,118.555 1005,114.737 C1011.81,110.931 1017.03,105.594 1020.64,98.738 C1024.23,91.872 1026.04,83.09 1026.04,72.372 C1026.04,57.618 1021.91,46.147 1013.66,37.955 C1005.41,29.759 993.653,25.662 978.392,25.662 C963.505,25.662 951.903,29.838 943.558,38.169 C935.22,46.513 931.054,58.157 931.054,73.126 C931.054,83.841 933.163,92.763 937.369,99.889 L937.369,99.889 Z" id="Fill-7" fill="#FF0008" mask="url(#mask-2)"></path>
            <polyline id="Fill-9" fill="#FF0008" mask="url(#mask-2)" points="1093.18 22.129 1101.51 13.887 1090.14 11.746 1084.09 0.955 1078.45 12.037 1066.32 13.669 1075.3 22.795 1073.3 34.43 1084.06 29.105 1095.33 34.43 1093.18 22.129"></polyline>
            <path d="M373.225,64.314 L357.38,79.99 L361.479,103.401 L340.03,93.267 L319.548,103.401 L323.34,81.251 L306.247,63.887 L329.348,60.786 L340.063,39.681 L351.599,60.223 L373.225,64.314 Z M387.134,73.067 C387.134,46.887 365.911,25.662 339.733,25.662 C313.554,25.662 292.338,46.887 292.338,73.067 C292.338,99.242 313.554,120.465 339.733,120.465 C365.911,120.465 387.134,99.242 387.134,73.067 L387.134,73.067 Z" id="Fill-10" fill="#FFCA05" mask="url(#mask-2)"></path>
            <path d="M37.991,57.268 C35.148,57.943 32.277,58.964 29.376,60.312 L31.623,46.327 L73.553,46.327 L73.553,25.667 L11.642,25.667 L3.385,75.767 L25.605,78.941 C27.698,76.612 29.617,75.009 31.365,74.108 C33.713,72.88 36.149,72.265 38.666,72.265 C42.635,72.265 45.812,73.564 48.205,76.151 C50.592,78.738 51.79,82.8 51.79,88.35 C51.79,93.781 50.602,97.861 48.239,100.594 C45.862,103.328 42.868,104.697 39.237,104.697 C35.995,104.697 33.201,103.608 30.855,101.425 C28.506,99.235 27.013,96.055 26.369,91.852 L0,94.713 C1.278,99.085 2.877,102.72 4.793,105.651 C6.716,108.578 9.226,111.192 12.317,113.501 C15.408,115.811 19.166,117.55 23.589,118.712 C28.005,119.884 33.305,120.465 39.494,120.465 C48.119,120.465 55.195,119.002 60.716,116.072 C66.244,113.155 70.516,108.909 73.527,103.361 C76.531,97.813 78.033,92.022 78.033,86.004 C78.033,77.439 75.115,70.343 69.268,64.701 C63.42,59.064 55.803,56.247 46.41,56.247 C43.633,56.247 40.829,56.591 37.991,57.268" id="Fill-11" fill="#FF0008" mask="url(#mask-2)"></path>
        </g>
        <path d="M134.399798,91.4903212 C134.399798,95.5039823 133.184813,98.8161295 130.765779,101.425761 C128.345751,104.03439 125.611536,105.335197 122.565124,105.335197 C119.399401,105.335197 116.577691,104.054433 114.115904,101.485891 C111.656105,98.9203544 110.425212,95.6082072 110.425212,91.550451 C110.425212,87.2922623 111.59645,83.9109658 113.955828,81.4045572 C116.316201,78.8991508 119.080243,77.6414368 122.249944,77.6414368 C125.46538,77.6414368 128.293055,78.9392373 130.738934,81.5218102 C133.177853,84.1174113 134.399798,87.4365737 134.399798,91.4903212 Z M132.706574,52.2616699 C132.706574,55.3062398 131.76501,57.7986181 129.888842,59.721768 C128.014662,61.6419115 125.611536,62.5979746 122.691395,62.5979746 C119.399401,62.5979746 116.756658,61.6288834 114.769133,59.6886967 C112.794533,57.7485099 111.799279,55.1889868 111.799279,52.0151379 C111.799279,48.9174535 112.767688,46.4020254 114.71246,44.4578301 C116.648284,42.5146368 119.166744,41.5485521 122.249944,41.5485521 C125.299338,41.5485521 127.80189,42.5416952 129.759588,44.518962 C131.724245,46.5022417 132.706574,49.0848146 132.706574,52.2616699 Z M145.228282,70.0620813 C148.981613,67.5526663 151.742672,64.9570652 153.488593,62.2913128 C155.832063,58.6945514 156.997335,54.8312147 156.997335,50.696292 C156.997335,43.5949681 154.066257,37.6982436 148.198136,33.0261617 C142.344929,28.3460626 133.267337,26 121.00513,26 C111.732663,26 104.28864,27.8850678 98.6501929,31.6391687 C91.4288839,36.5337307 87.8177323,42.8223008 87.8177323,50.5088876 C87.8177323,55.1889868 89.0754709,59.3199008 91.5780229,62.9126536 C93.4134265,65.5483412 96.3335675,67.9274751 100.33944,70.0620813 C95.1255419,72.1014821 91.2628425,74.9987341 88.7612848,78.7347961 C86.2577387,82.4748668 85,87.0447281 85,92.4333562 C85,97.9462524 86.3412565,102.940028 89.0058728,107.405665 C91.6804316,111.882325 95.5868784,115.260615 100.721236,117.562582 C105.852611,119.856533 113.275755,121 123.003593,121 C128.183686,121 133.054565,120.498919 137.625177,119.471702 C142.191813,118.445488 146.011759,116.853051 149.085016,114.678359 C152.14833,112.503666 154.736389,109.427027 156.841237,105.432407 C158.948073,101.445804 160,97.1495332 160,92.5536157 C160,87.7973522 158.785015,83.4489688 156.343112,79.5214937 C153.897233,75.5940187 150.196598,72.4372066 145.228282,70.0620813 L145.228282,70.0620813 Z" id="Fill-13" fill="#FF0008"></path>
        <g id="Group-17" transform="translate(166.000000, 25.000000)" fill="#FF0008">
            <path d="M38.892,32.268 C36.049,32.943 33.178,33.964 30.278,35.312 L32.524,21.327 L74.454,21.327 L74.454,0.667 L12.543,0.667 L4.285,50.767 L26.502,53.941 C28.595,51.612 30.514,50.009 32.267,49.108 C34.613,47.88 37.046,47.265 39.567,47.265 C43.535,47.265 46.713,48.564 49.106,51.151 C51.492,53.738 52.688,57.8 52.688,63.35 C52.688,68.781 51.503,72.861 49.139,75.594 C46.763,78.328 43.765,79.697 40.138,79.697 C36.893,79.697 34.099,78.608 31.756,76.425 C29.406,74.235 27.911,71.055 27.27,66.852 L0.897,69.713 C2.179,74.085 3.778,77.72 5.694,80.651 C7.616,83.578 10.127,86.192 13.218,88.501 C16.308,90.811 20.067,92.55 24.486,93.712 C28.902,94.884 34.206,95.465 40.394,95.465 C49.019,95.465 56.096,94.002 61.617,91.072 C67.144,88.155 71.413,83.909 74.428,78.361 C77.431,72.813 78.933,67.022 78.933,61.004 C78.933,52.439 76.016,45.343 70.168,39.701 C64.317,34.064 56.703,31.247 47.31,31.247 C44.534,31.247 41.73,31.591 38.892,32.268" id="Fill-14"></path>
        </g>
    </g>
</svg>