<?xml version="1.0" encoding="UTF-8" standalone="no"?>
<!DOCTYPE svg PUBLIC "-//W3C//DTD SVG 1.1//EN" "http://www.w3.org/Graphics/SVG/1.1/DTD/svg11.dtd">
<svg width="100%" height="100%" viewBox="0 0 74 56" version="1.1" xmlns="http://www.w3.org/2000/svg" xmlns:xlink="http://www.w3.org/1999/xlink" xml:space="preserve" xmlns:serif="http://www.serif.com/" style="fill-rule:evenodd;clip-rule:evenodd;stroke-linejoin:round;stroke-miterlimit:2;">
    <g transform="matrix(1,0,0,1,-0.0939086,-15.0148)">
        <g>
            <g>
                <g>
                    <path id="Shape" d="M43.649,38.711L37.902,39.764C36.962,39.952 36.324,40.854 36.474,41.793C36.662,42.733 37.563,43.372 38.503,43.221L44.25,42.169C45.602,41.906 46.466,42.733 46.804,43.597C47.142,44.462 47.067,45.627 45.903,46.379L37.488,51.866C36.699,52.392 35.76,52.392 34.934,51.979C34.108,51.528 33.619,50.701 33.619,49.761L33.619,36.268C33.619,34.013 32.455,32.059 30.464,30.969C28.511,29.879 26.182,29.992 24.304,31.195L3.043,44.988C0.639,46.529 -0.263,49.348 0.789,52.016C1.841,54.685 4.432,56.113 7.25,55.624L25.806,52.279C26.745,52.091 27.384,51.189 27.234,50.25C27.046,49.31 26.144,48.671 25.205,48.821L6.649,52.166C5.259,52.43 4.432,51.603 4.094,50.738C3.756,49.874 3.831,48.709 4.996,47.957L26.257,34.164C27.046,33.638 27.985,33.638 28.811,34.051C29.638,34.502 30.126,35.329 30.126,36.268L30.126,49.761C30.126,52.016 31.29,53.97 33.281,55.06C34.183,55.549 35.197,55.812 36.174,55.812C37.301,55.812 38.427,55.474 39.442,54.835L47.893,49.348C50.297,47.807 51.199,44.988 50.147,42.319C49.058,39.651 46.466,38.185 43.649,38.711ZM73.399,42.282C72.347,39.613 69.755,38.185 66.938,38.674L61.191,39.726C60.252,39.914 59.613,40.816 59.763,41.756C59.951,42.695 60.853,43.334 61.792,43.184L67.539,42.132C68.891,41.868 69.755,42.695 70.093,43.56C70.431,44.424 70.356,45.589 69.192,46.341L60.778,51.866C59.989,52.392 59.05,52.392 58.223,51.979C57.397,51.528 56.909,50.701 56.909,49.761L56.909,31.984C56.909,31.007 56.12,30.217 55.143,30.217C54.166,30.217 53.378,31.007 53.378,31.984L53.378,49.761C53.378,52.016 54.542,53.97 56.533,55.06C57.435,55.549 58.449,55.812 59.425,55.812C60.552,55.812 61.679,55.474 62.693,54.835L71.145,49.348C73.549,47.769 74.451,44.95 73.399,42.282Z" style="fill:rgb(0,155,58);fill-rule:nonzero;"/>
                </g>
            </g>
        </g>
    </g>
</svg>
