<svg width="805" height="343" viewBox="0 0 805 343" fill="none" xmlns="http://www.w3.org/2000/svg">
<path d="M680.982 152.234C679.599 152.234 678.414 153.451 678.414 154.819V179.309H647.541V154.819C647.541 153.451 646.323 152.234 644.949 152.234H636.496C635.135 152.234 634.071 153.451 634.071 154.819V217.732C634.071 219.131 635.135 220.335 636.496 220.335H644.949C646.323 220.335 647.541 219.131 647.541 217.732V191.582H678.414V217.732C678.414 219.131 679.597 220.335 680.982 220.335H689.464C690.63 220.335 691.838 219.131 691.838 217.732V154.819C691.838 153.451 690.63 152.234 689.464 152.234H680.982ZM615.478 124.141C617.028 124.141 618.223 125.349 618.223 126.699V134.489C618.223 135.867 617.028 137.08 615.478 137.08H562.9C561.516 137.08 560.331 135.867 560.331 134.489V126.699C560.331 125.349 561.516 124.141 562.9 124.141H615.478ZM274.751 124.141C273.408 124.141 272.183 125.349 272.183 126.699V191.58C272.183 208.97 277.691 220.518 299.424 220.518H302.01C333.026 220.518 337.694 200.01 337.694 189.486C337.694 180.163 334.245 158.083 303.396 158.083H286.141V137.08H325.963C327.353 137.08 328.566 135.867 328.566 134.489V126.699C328.566 125.349 327.353 124.141 325.963 124.141H274.751ZM303.89 170.858C316.496 170.858 323.553 177.734 323.553 189.486C323.553 201.209 316.496 207.604 303.89 207.604H299.422C289.957 207.604 286.138 203.633 286.138 192.927V170.858H303.89ZM499.489 153.451C498.62 153.806 497.928 154.819 497.928 155.681V163.463C497.928 164.13 498.442 165.019 498.939 165.342C499.666 165.697 500.346 165.854 501.021 165.697C505.671 164.13 511.036 162.58 519.804 162.58C530.659 162.58 532.585 165.854 532.585 173.595V175.008L517.585 176.049C493.425 177.734 492.23 193.445 492.23 198.274C492.23 212.576 499.821 221.356 517.933 221.356C523.618 221.356 529.995 219.654 535.498 216.185L536.717 218.784C537.047 219.654 537.916 220.335 538.936 220.335H543.968C545.18 220.335 546.37 219.297 546.37 217.936V173.781C546.37 157.593 537.751 149.821 519.804 149.821C512.226 149.819 504.826 151.218 499.489 153.451ZM506.537 198.274C506.537 193.445 507.417 188.429 517.385 187.586L532.386 186.195L532.587 204.276C527.76 207.218 523.95 208.777 518.094 208.777C512.375 208.777 506.537 206.547 506.537 198.274ZM395.237 218.784C395.563 219.654 396.416 220.335 397.434 220.335H403.501C404.702 220.335 405.894 219.297 405.894 217.936V154.819C405.894 153.451 404.864 152.234 403.307 152.234H395.038C393.494 152.234 392.447 153.451 392.447 154.819V199.139C387.973 203.967 379.879 208.075 373.829 208.075C365.392 208.075 361.247 203.441 361.247 191.58V154.819C361.247 153.451 360.021 152.234 358.651 152.234H350.396C349.007 152.234 347.789 153.451 347.789 154.819V195.871C347.789 210.867 355.906 221.356 371.599 221.356C381.26 221.356 389.707 216.185 393.837 212.576L395.237 218.784ZM607.717 218.784C608.049 219.654 608.929 220.335 609.976 220.335H615.999C617.218 220.335 618.389 219.297 618.389 217.886V154.819C618.389 153.451 617.376 152.234 615.832 152.234H607.563C605.99 152.234 604.972 153.451 604.972 154.819V199.139C600.498 203.967 592.378 208.075 586.325 208.075C577.907 208.075 573.754 203.441 573.754 191.58V154.819C573.754 153.451 572.541 152.234 571.192 152.234H562.898C561.514 152.234 560.33 153.451 560.33 154.819V195.871C560.33 210.867 568.429 221.356 584.101 221.356C593.738 221.356 602.236 216.185 606.349 212.576L607.717 218.784ZM427.247 196.379C426.373 205.493 423.992 207.759 416.22 208.62C414.99 208.777 413.811 209.984 413.811 211.357V218.262C413.811 219.654 414.99 220.853 416.22 220.853C431.376 220.853 438.971 213.626 440.543 195.711L442.082 179.645C443.112 168.458 445.353 165.02 455.511 165.02H466.698V217.732C466.698 219.131 467.933 220.335 469.311 220.335H477.575C478.776 220.335 480.161 219.131 480.161 217.732V154.819C480.161 153.451 478.777 152.234 477.575 152.234H454.813C436.03 152.234 430.54 163.098 428.972 178.449L427.247 196.379Z" fill="#1D1D1B"/>
<path d="M716.956 148.704C723.116 148.704 728.561 150.64 728.561 160.134C728.561 169.538 723.116 171.561 716.956 171.561C710.802 171.561 705.346 169.536 705.346 160.134C705.348 150.641 710.804 148.704 716.956 148.704ZM716.956 150.641C711.419 150.641 707.462 151.954 707.462 160.136C707.462 168.311 711.419 169.623 716.956 169.623C722.498 169.623 726.45 168.311 726.45 160.136C726.452 151.952 722.498 150.641 716.956 150.641ZM714.405 166.068V161.367H717.75L720.204 166.111C720.308 166.305 720.56 166.458 720.782 166.458H722.274C722.493 166.458 722.583 166.312 722.481 166.119L719.689 161.097C721.177 160.571 721.703 159.344 721.703 157.669C721.703 155.298 720.741 153.796 717.482 153.796H712.786C712.563 153.796 712.38 153.982 712.38 154.194V166.068C712.38 166.284 712.563 166.458 712.786 166.458H714.017C714.235 166.458 714.405 166.286 714.405 166.068ZM714.405 155.737H717.75C719.507 155.737 719.769 156.617 719.769 157.669C719.769 158.457 719.507 159.344 717.75 159.344H714.405V155.737Z" fill="#1D1D1B"/>
<mask id="mask0" mask-type="alpha" maskUnits="userSpaceOnUse" x="76" y="96" width="151" height="151">
<path d="M226.994 171.501C226.994 129.806 193.192 96 151.493 96C109.798 96 76 129.804 76 171.501C76 213.199 109.798 247 151.493 247C193.192 247 226.994 213.199 226.994 171.501Z" fill="url(#paint0_radial)"/>
</mask>
<g mask="url(#mask0)">
<path d="M226.994 171.501C226.994 129.806 193.192 96 151.493 96C109.798 96 76 129.804 76 171.501C76 213.199 109.798 247 151.493 247C193.192 247 226.994 213.199 226.994 171.501Z" fill="white"/>
<path d="M227.579 221.585H75.4384V189.024H227.579V221.585V221.585ZM227.579 123.908H75.4384V156.468H227.579V123.908V123.908Z" fill="url(#paint1_linear)"/>
<path d="M227.579 123.912H75.4384V96.6263H227.579V123.912V123.912ZM227.579 221.581H75.4404V248.73H227.579V221.581V221.581ZM227.579 156.465H75.4404V189.024H227.579V156.465V156.465Z" fill="#1D1D1B"/>
</g>
<defs>
<radialGradient id="paint0_radial" cx="0" cy="0" r="1" gradientUnits="userSpaceOnUse" gradientTransform="translate(151.496 171.5) scale(75.4984)">
<stop offset="0.2" stop-color="#77787B"/>
<stop offset="0.3196" stop-color="#717275"/>
<stop offset="0.4761" stop-color="#626265"/>
<stop offset="0.6531" stop-color="#47484A"/>
<stop offset="0.8437" stop-color="#232324"/>
<stop offset="1"/>
</radialGradient>
<linearGradient id="paint1_linear" x1="75.4384" y1="172.746" x2="227.58" y2="172.746" gradientUnits="userSpaceOnUse">
<stop offset="0.1" stop-color="#F7A700"/>
<stop offset="0.8864" stop-color="#FEDA00"/>
</linearGradient>
</defs>
</svg>
