<?xml version="1.0" encoding="UTF-8" standalone="no"?>
<!DOCTYPE svg PUBLIC "-//W3C//DTD SVG 1.1//EN" "http://www.w3.org/Graphics/SVG/1.1/DTD/svg11.dtd">
<svg width="100%" height="100%" viewBox="0 0 1191 285" version="1.1" xmlns="http://www.w3.org/2000/svg" xmlns:xlink="http://www.w3.org/1999/xlink" xml:space="preserve" xmlns:serif="http://www.serif.com/" style="fill-rule:evenodd;clip-rule:evenodd;stroke-linejoin:round;stroke-miterlimit:2;">
    <g transform="matrix(1.14951,0,0,1.14951,-73.3175,25.1087)">
        <path d="M221.13,50.85L254.45,50.85L290.45,153.12L257.85,153.12L253.94,139.53L221.32,139.53L217.42,153.12L185.13,153.12L221.13,50.85ZM227.44,118.29L248,118.29L237.8,82.79L227.44,118.29ZM1031.16,82.79L1020.8,118.29L1041.36,118.29L1031.16,82.79ZM1047.45,139.53L1014.86,139.53L1010.78,153.12L978.5,153.12L1014.5,50.85L1047.8,50.85L1083.8,153.12L1051.18,153.12L1047.45,139.53ZM150.31,113.53L181.4,113.53C180.55,126.95 175.79,137.32 167.13,144.8C158.63,152.27 146.91,155.8 132.3,155.8C115.82,155.8 103.08,151.04 93.57,141.52C84.23,131.84 79.47,118.76 79.47,102.12C79.47,85.48 84.06,72.25 93.4,62.57C102.74,53.06 115.48,48.13 131.62,48.13C146.4,48.13 158.13,51.87 166.62,59C175.11,66.13 179.87,76.33 180.89,89.58L149.29,89.58C148.95,84.32 147.29,80.4 144.36,77.69C141.31,75.14 137.23,73.78 131.96,73.78C125.51,73.78 120.75,76.16 117.52,80.78C114.29,85.53 112.59,92.67 112.59,102.19C112.59,111.53 114.29,118.49 117.86,123.25C121.26,127.83 126.19,130.38 132.86,130.38C137.296,130.517 141.627,128.993 145,126.11C147.89,123.05 149.76,118.97 150.27,113.53M491.1,153.12L491.1,50.85L572.81,50.85L572.81,75.31L524.06,75.31L524.06,89.07L565.17,89.07L565.17,112.52L524.06,112.52L524.06,128.15L574.86,128.15L574.86,153.15L491.1,153.12ZM385.94,153.12L385.94,128.48L433.34,77.35L387.47,77.35L387.47,50.85L473.77,50.85L473.77,75.31L425.86,127L476.32,127L476.32,153.17L385.94,153.12ZM299.81,153.12L299.81,50.85L332.81,50.85L332.81,126.11L377.49,126.11L377.49,153.11L299.81,153.12ZM935.18,50.85L968.65,50.85L968.65,153.12L935.18,153.12L935.18,50.85ZM818.64,153.12L818.64,50.85L849.9,50.85L878.61,98.42C879.748,100.225 880.662,102.163 881.33,104.19C882.33,106.57 883.33,109.63 884.56,113.03C884.214,111.045 883.987,109.042 883.88,107.03C883.88,104.82 883.71,102.27 883.71,99.03L883.71,50.85L915.14,50.85L915.14,153.12L883.71,153.12L855,106.06C853.91,104.125 852.948,102.121 852.12,100.06C851.12,97.51 850.12,94.63 848.89,91.23C849.23,93.1 849.57,94.97 849.74,97.01C849.74,98.87 849.91,101.59 849.91,105.16L849.91,153.07L818.64,153.12ZM638.39,77.18C636.52,77.01 634.48,76.84 632.27,76.84L623.1,76.84L623.1,127.13L631.94,127.13C634.096,127.202 636.254,127.085 638.39,126.78C643.15,126.11 646.72,124.41 648.92,121.86C652.15,118.12 653.68,111.67 653.68,102.16C653.68,92.98 652.15,86.35 648.92,82.62C646.55,79.72 642.98,78.03 638.39,77.18M638.39,152.78C634.31,152.95 629.56,153.12 623.78,153.12L590.14,153.12L590.14,50.85L629.9,50.85C632.95,50.85 635.84,50.85 638.39,51.02C643.114,51.049 647.828,51.447 652.49,52.21C657.008,52.954 661.371,54.444 665.4,56.62C672.433,60.71 678.026,66.886 681.4,74.29C684.97,81.77 686.84,91.11 686.84,102.16C686.84,113.71 684.63,123.56 680.21,131.16C675.79,139.16 669.21,144.93 660.51,148.83C656.558,150.509 652.379,151.597 648.11,152.06C645.55,152.4 642.33,152.57 638.42,152.74M750.55,130.14C757.55,130.14 762.44,127.76 765.66,123.52C768.89,118.93 770.42,111.8 770.42,102.12C770.42,92.26 768.89,85.12 765.66,80.71C762.44,76.12 757.51,73.91 750.55,73.91C743.59,73.91 738.65,76.12 735.42,80.71C732.03,85.3 730.5,92.43 730.5,102.12C730.5,111.81 732.03,118.93 735.42,123.52C738.65,127.76 743.58,130.14 750.55,130.14M750.55,155.8C734.07,155.8 721.16,151.04 711.81,141.35C702.3,131.67 697.54,118.76 697.54,102.12C697.54,85.48 702.3,72.21 711.81,62.53C721.16,53.02 734.07,48.26 750.55,48.09C767.02,48.09 779.94,53.02 789.45,62.53C798.96,72.21 803.72,85.46 803.72,102.12C803.72,118.78 798.96,131.67 789.45,141.35C779.94,151.03 767.02,155.8 750.55,155.8" style="fill:rgb(35,31,32);fill-rule:nonzero;"/>
    </g>
</svg>
