<?xml version="1.0" encoding="UTF-8" standalone="no"?>
<!DOCTYPE svg PUBLIC "-//W3C//DTD SVG 1.1//EN" "http://www.w3.org/Graphics/SVG/1.1/DTD/svg11.dtd">
<svg width="100%" height="100%" viewBox="0 0 400 120" version="1.1" xmlns="http://www.w3.org/2000/svg" xmlns:xlink="http://www.w3.org/1999/xlink" xml:space="preserve" xmlns:serif="http://www.serif.com/" style="fill-rule:evenodd;clip-rule:evenodd;stroke-linejoin:round;stroke-miterlimit:2;">
    <g id="Layer_x0020_1" transform="matrix(0.979427,0,0,0.979427,4.15291,-135.933)">
        <g>
            <path d="M118,164.2C129.9,162.8 142.3,166.6 151.3,174.5C161.9,183.5 167.6,197.8 166.1,211.6C164.6,229.2 152,244.2 135.2,249.2C123.7,252.6 110.7,251.1 100.4,244.8C90.2,238.7 82.7,228.3 80.2,216.7C74.9,191.8 92.3,166.8 118,164.2ZM329.3,149L341.3,149L341.3,193.3L329.3,193.3L329.3,149ZM173.9,250.1L173.9,166.8L185.9,166.8L185.9,238.6L221.6,238.6L221.6,250.1L173.9,250.1ZM229.3,165.1L241.2,165.1L241.2,250.1L229.4,250.1C229.3,221.7 229.3,193.4 229.3,165.1ZM255.6,164.6L263.3,164.6C279,184.8 294.1,205.5 309.6,225.9C309.8,211 309.5,196 309.7,181.1L309.7,165L321.2,165L321.2,250.5C318.7,250.4 316.1,250.7 313.6,250.3C297.9,230.2 282.7,209.4 267.2,189.1C267.1,209.4 267.2,229.7 267.1,250L255.5,250C255.6,221.6 255.6,193.1 255.6,164.6ZM363.3,165.3C371.5,163.1 381.7,164.3 388.3,170C391.8,172.9 394.3,176.8 396.5,180.7C393.2,182.6 389.9,184.6 386.6,186.5C384.8,183.6 383.1,180.4 380.2,178.4C375.3,175 365.8,174.5 361.8,179.7C356.6,186 361.2,191.9 367,195.3C372.7,198.4 378.7,201 384.4,204.2C389.2,207 393.7,210.4 396.6,215.2C402.2,224.6 400.7,238.3 391.9,245.2C380.8,254.1 361.2,252.6 350.9,242.9C347,239.5 344.4,234.8 342.1,230.2C345.5,228.2 349,226.3 352.5,224.4C354.2,227.7 355.8,231.2 358.6,233.8C364.8,240 378.9,241.9 385.2,235.2C390.1,230.2 388.3,221.5 383.1,217.2C375.8,211.2 364.9,208.4 356.8,202.5C353.2,199.9 350.2,196.4 349,192.1C345.6,180.4 351.5,168.6 363.3,165.3ZM22.6,169.1C40,160.1 62.2,164 74.9,178.9C76,180.2 77.1,181.5 78.2,182.8C75.1,185.2 72,187.5 68.9,189.9C59,179 48.9,172.1 33.3,177.3C15.5,182.7 8,203 14.3,219.8C21.3,238.5 45,245.5 61.1,233.4C64.3,231.1 66.8,227.9 69.2,224.8C72.4,227.1 75.5,229.4 78.7,231.8C75.6,235.8 72.4,239.7 68.3,242.7C49.3,257.1 20.2,252.3 7.3,232.1C-6.6,211 -0.1,180.7 22.6,169.1ZM121.1,175.8C103.5,176.6 89.9,192.3 91.3,209.8C92.3,223.9 102.9,235.9 116.8,238.5C135.8,242.5 153.9,227.8 154.6,208.7C154.9,201.4 152.6,194 148.1,188.2C141.8,180 131.4,175.2 121.1,175.8Z" style="fill:rgb(44,44,44);fill-rule:nonzero;"/>
        </g>
    </g>
</svg>
