<?xml version="1.0" encoding="UTF-8" standalone="no"?>
<!DOCTYPE svg PUBLIC "-//W3C//DTD SVG 1.1//EN" "http://www.w3.org/Graphics/SVG/1.1/DTD/svg11.dtd">
<svg width="100%" height="100%" viewBox="0 0 192 44" version="1.1" xmlns="http://www.w3.org/2000/svg" xmlns:xlink="http://www.w3.org/1999/xlink" xml:space="preserve" xmlns:serif="http://www.serif.com/" style="fill-rule:evenodd;clip-rule:evenodd;stroke-linejoin:round;stroke-miterlimit:2;">
    <path d="M179.317,12.634L183.339,12.634L183.315,19.129L184.188,19.129L186.483,12.634L190.835,12.634L187.712,21.216L191.285,30.714L186.577,30.714L184.261,23.444L183.315,23.444L183.339,30.714L179.317,30.714L179.317,12.634ZM165.77,12.634L169.766,12.634L169.766,19.155L172.627,19.155L172.627,12.635L176.622,12.635L176.622,30.714L172.627,30.714L172.627,23.468L169.766,23.468L169.766,30.714L165.769,30.714L165.77,12.634ZM151.84,30.738L156.002,30.738L156.5,27.612L159.358,27.612L159.857,30.738L164.017,30.738L160.518,12.661L155.362,12.661L151.84,30.738ZM157.94,18.135L158.697,23.637L157.159,23.637L157.939,18.135L157.94,18.135ZM140.676,30.714L145.547,30.714C146.611,30.714 151.034,30.252 151.057,24.774C151.057,20.176 147.63,19.374 145.407,19.374L144.673,19.374L144.673,16.974L150.089,16.974L150.089,12.635L140.676,12.635L140.676,30.715L140.676,30.714ZM144.673,27.078L144.673,22.984L145.264,22.984C145.76,22.984 147.039,23.007 147.039,24.874C147.039,26.766 145.76,27.078 145.264,27.078L144.673,27.078ZM124.809,12.634L128.286,12.634L131.356,16.9L134.458,12.634L137.91,12.634L137.91,30.714L133.816,30.714L133.816,19.687L131.356,22.837L128.899,19.687L128.899,30.714L124.809,30.714L124.809,12.634ZM116.365,30.933C121.213,30.933 122.843,26.278 122.843,21.651C122.843,17.024 121.213,12.369 116.365,12.369C111.517,12.369 109.887,17.024 109.887,21.651C109.887,26.278 111.517,30.933 116.365,30.933M116.365,26.545C114.92,26.545 114.19,24.827 114.19,21.651C114.19,18.475 114.92,16.755 116.365,16.755C117.81,16.755 118.539,18.475 118.539,21.651C118.539,24.827 117.809,26.545 116.365,26.545M98.036,30.714L102.128,30.714L102.128,24.754L103.501,24.754C107.543,24.754 108.798,21.02 108.798,18.642C108.798,16.317 107.353,12.634 103.501,12.634L98.036,12.634L98.036,30.714ZM102.128,16.609L103.098,16.609C104.02,16.609 104.612,17.191 104.612,18.693C104.612,20.633 103.617,20.775 103.098,20.775L102.128,20.775L102.128,16.609ZM84.533,12.634L95.695,12.634L95.695,30.714L91.603,30.714L91.603,16.997L88.624,16.997L88.624,30.714L84.533,30.714L84.533,12.634ZM76.137,19.64C76.798,19.64 78.006,19.203 78.006,17.87C78.006,16.297 76.611,16.197 76.207,16.197C75.735,16.197 74.837,16.272 73.961,16.708L73.915,12.779C75.309,12.417 76.303,12.319 77.484,12.319C80.844,12.319 82.334,14.72 82.334,17.069C82.334,19.349 81.056,20.727 79.804,21.261L79.804,21.431C81.01,21.822 82.617,23.006 82.617,25.77C82.617,29.189 80.301,31.077 77.32,31.077C75.735,31.055 74.694,30.837 73.44,30.134L73.513,26.375C74.671,26.886 75.451,26.933 76.233,26.933C77.557,26.933 78.076,25.938 78.076,25.214C78.076,24.194 77.438,23.517 76.043,23.517L74.387,23.517L74.387,19.64L76.137,19.64ZM60.058,30.714L64.195,30.714L64.716,27.586L67.578,27.586L68.074,30.714L72.211,30.714L68.711,12.634L63.556,12.634L60.058,30.714ZM66.134,18.088L66.914,23.614L65.353,23.614L66.133,18.088L66.134,18.088ZM52.136,12.634L60.528,12.634L60.528,17.141L56.296,17.141L56.296,30.714L52.136,30.714L52.136,12.634Z" style="fill:rgb(13,53,108);fill-rule:nonzero;"/>
    <path d="M1.038,21.879C1.038,33.004 9.888,42.06 20.766,42.06C31.623,42.06 40.467,33 40.467,21.879C40.467,10.736 31.627,1.674 20.766,1.674C9.883,1.674 1.038,10.733 1.038,21.879ZM0,21.879C0,10.145 9.311,0.61 20.766,0.61C32.196,0.61 41.505,10.144 41.505,21.878C41.505,33.588 32.195,43.122 20.765,43.122C9.312,43.123 0,33.588 0,21.88L0,21.879Z" style="fill:rgb(13,53,108);fill-rule:nonzero;"/>
    <path d="M14.574,8.45C13.856,8.772 13.174,9.169 12.539,9.633C17.48,7.379 23.513,7.526 26.75,9.005C27.768,9.489 28.452,9.783 28.762,10.361C25.402,9.439 23.959,9.272 21.147,9.343C17.147,9.417 11.827,11.038 9.793,12.277L8.899,13.417C11.827,11.643 17.291,10.484 20.32,10.386C23.702,10.339 26.325,10.654 28.739,11.55C28.595,12.179 28.288,12.494 27.768,12.811C18.119,11.089 12.418,13.123 7.264,16.564L6.887,17.702C12.634,13.658 19.679,12.545 26.468,13.755C24.033,14.628 21.124,14.821 18.688,15.399C16.608,15.885 15.496,16.032 12.726,16.979C9.916,17.924 8.256,18.892 7.218,20.129C6.721,20.713 6.342,21.389 6.246,22.114C6.202,22.548 6.225,22.94 6.368,23.328C6.482,23.668 6.743,24.006 7.028,24.345C6.698,24.925 6.411,25.68 6.887,26.552C7.099,26.962 7.643,27.374 8.166,27.765L8.019,28.197C7.949,28.709 7.879,29.313 8.211,29.821C8.776,30.742 9.462,31.35 10.551,31.931C10.717,32.683 10.975,33.287 11.543,33.823C12.749,34.96 15.447,37.141 20.246,37.481C23.842,37.725 26.419,36.609 27.39,36.123L28.572,35.495C26.562,36.317 23.182,36.802 20.412,36.56C16.392,36.22 12.8,33.531 12.35,32.755C12.49,32.85 12.68,32.924 12.843,32.997C17.551,35.323 23.628,36.585 31.409,33.337L32.051,32.707C24.976,34.96 18.783,34.888 12.135,31.327C12.208,30.987 12.35,30.692 12.655,30.455C14.356,31.225 15.99,31.86 17.977,32.269C20.295,32.707 22.942,32.805 25.12,32.707C27.32,32.61 31.67,31.495 33.728,30.381C33.916,30.211 34.01,29.923 34.199,29.727C30.182,31.225 25.402,31.931 22.519,31.711C19.704,31.495 17.199,31.154 13.887,29.604C14.524,29.339 15.187,29.12 15.848,28.924C18.024,29.604 20.246,30.014 22.871,30.137C25.475,30.257 31.551,29.267 35.381,26.893C35.502,26.553 35.619,26.187 35.619,26.187C35.619,26.187 30.298,29.097 24.269,29.097C21.454,29.097 19.728,28.684 18.452,28.369C21.288,27.836 24.86,27.399 28.878,26.358C30.911,25.823 33.419,24.61 34.555,23.594C35.524,22.695 36.282,21.532 36.023,20.349C35.972,20.03 35.548,19.283 35.027,19.014C35.524,18.36 35.477,17.802 35.408,17.321C35.358,16.951 35.193,16.543 34.983,16.181C34.651,15.74 34.341,15.399 33.702,15.014C33.8,14.506 33.734,13.979 33.513,13.511C33.017,12.639 32.12,11.889 30.583,11.089C30.512,10.773 30.32,10.361 29.992,9.95C28.054,7.987 24.883,7.042 22.21,6.992C22.06,6.989 21.911,6.988 21.765,6.988C18.638,6.988 16.128,7.708 14.574,8.45ZM29.708,13.296C29.946,13.029 30.298,12.617 30.391,12.277C31.056,12.714 31.812,13.368 31.905,14.047C31.198,13.777 30.441,13.491 29.708,13.297L29.708,13.296ZM30.298,16.251C29.165,15.934 28.172,15.546 26.844,15.307C27.651,14.989 28.192,14.652 28.668,14.263C29.728,14.552 30.722,14.918 31.531,15.28C31.391,15.491 30.581,16.259 30.335,16.259C30.322,16.26 30.309,16.257 30.298,16.251ZM32.356,17.099C32.662,16.856 32.947,16.592 33.208,16.275C33.845,16.832 34.034,17.22 33.728,17.826C33.304,17.512 32.851,17.341 32.356,17.099ZM8.071,23.11C6.318,20.638 12.395,18.87 13.556,18.505C16.511,17.605 19.966,16.931 23.088,16.543C25.235,16.275 26.374,16.52 28.409,17.076C23.182,18.506 18.024,18.963 13.105,20.443C9.139,21.623 8.087,23.11 8.071,23.11ZM9.368,24.296C11.213,22.695 14.975,21.8 16.348,21.485C20.721,20.515 24.789,19.91 26.468,19.475C28.503,18.963 29.922,18.481 30.911,17.997C30.959,17.924 32.567,18.722 32.733,18.914C32.19,19.377 31.436,19.766 30.606,20.054C28.123,20.976 23.606,21.944 21.219,22.314C18.806,22.723 16.792,23.036 14.124,23.76C12.584,24.175 11.543,24.66 10.786,25.17C10.219,24.83 9.888,24.734 9.368,24.296ZM12.8,26.235C13.578,25.895 14.43,25.628 15.255,25.414C19.419,24.366 23.088,24.175 28.148,22.771C30.583,22.114 32.356,21.41 33.469,20.541C33.633,20.393 33.799,20.273 33.965,20.129C35.431,22.454 29.922,24.248 26.159,25.076C24.192,25.474 22.221,25.853 20.246,26.212C17.79,26.624 16.982,26.843 15.28,27.352C14.43,27.012 13.578,26.648 12.8,26.235ZM8.374,25.508C8.754,25.753 9.036,25.948 9.487,26.187C9.321,26.332 9.107,26.479 8.943,26.647C8.567,26.427 8.185,25.947 8.374,25.507L8.374,25.508ZM10.339,27.738C10.576,27.52 10.882,27.303 11.213,27.086C11.923,27.426 12.655,27.737 13.341,28.054C12.879,28.227 12.436,28.446 12.019,28.709C11.454,28.393 10.894,28.069 10.339,27.737L10.339,27.738ZM9.723,28.924C10.125,29.192 10.527,29.409 10.931,29.629C10.765,29.872 10.645,30.063 10.576,30.308C9.984,29.798 9.698,29.386 9.723,28.924Z" style="fill:rgb(13,53,108);fill-rule:nonzero;"/>
</svg>
