<svg width="78" height="36" viewBox="0 0 78 36" fill="none" xmlns="http://www.w3.org/2000/svg">
<g clip-path="url(#clip0)">
<path d="M70.9158 0.111801H68.333V28.6584H76.8931L78 26.087H70.9158V0.111801Z" fill="#201E5B"/>
<path d="M23.9092 0.111801H21.3633V6.89441L23.9092 5.7764V0.111801Z" fill="#201E5B"/>
<path d="M23.9092 8.31056H21.3633V28.6584H23.9092V8.31056Z" fill="#201E5B"/>
<path d="M45.3463 8.31056V2.7205H51.3605L52.4674 0.111801H42.8004V28.6584H45.3463V10.882H50.9177L52.0246 8.31056H45.3463Z" fill="#201E5B"/>
<path d="M64.8647 26.087H57.7436V10.882H63.7578L64.8647 8.31056H57.7436V2.7205H64.8647V0.111801H55.1977V8.31056H54.017L52.9101 10.882H55.1977V28.6584H63.7578L64.8647 26.087Z" fill="#201E5B"/>
<path d="M22.0274 32.1242H21.3633V35.9255H22.0274V32.1242Z" fill="#201E5B"/>
<path d="M26.4551 34.7702L24.5364 32.1242H23.8723V35.9255H24.5364V33.205L26.492 35.9255H27.1192V32.1242H26.4551V34.7702Z" fill="#201E5B"/>
<path d="M28.7058 32.7205H29.8496V35.9255H30.5137V32.7205H31.6575V32.1242H28.7058V32.7205Z" fill="#201E5B"/>
<path d="M33.2441 35.9255H35.8269V35.3292H33.9082V34.2857H35.79V33.6894H33.9082V32.7205H35.8269V32.1242H33.2441V35.9255Z" fill="#201E5B"/>
<path d="M40.4021 33.3168C40.4021 32.6087 39.9224 32.1242 39.1845 32.1242H37.5241V35.9255H38.1883V34.5093H38.8524L39.701 35.9255H40.4759L39.5534 34.4348C39.9593 34.3602 40.4021 33.9876 40.4021 33.3168ZM38.1883 33.913V32.7205H39.0738C39.4428 32.7205 39.701 32.9441 39.701 33.3168C39.701 33.6894 39.4428 33.913 39.0738 33.913H38.1883V33.913Z" fill="#201E5B"/>
<path d="M44.719 34.7702L42.8004 32.1242H42.0993V35.9255H42.7635V33.205L44.719 35.9255H45.3463V32.1242H44.719V34.7702Z" fill="#201E5B"/>
<path d="M48.298 32.1242L46.8221 35.9255H47.5601L47.8184 35.1801H49.5525L49.8108 35.9255H50.5487L49.0728 32.1242H48.298ZM48.0028 34.6211L48.7039 32.795L49.368 34.5839H48.0028V34.6211Z" fill="#201E5B"/>
<path d="M51.4342 32.7205H52.5411V35.9255H53.2053V32.7205H54.3491V32.1242H51.4342V32.7205Z" fill="#201E5B"/>
<path d="M56.5998 32.1242H55.9357V35.9255H56.5998V32.1242Z" fill="#201E5B"/>
<path d="M60.1788 32.087C59.0719 32.087 58.2602 32.9068 58.2602 34.0621C58.2602 35.1801 59.035 36.0373 60.1788 36.0373C61.2857 36.0373 62.0974 35.2174 62.0974 34.0621C62.0974 32.9068 61.3226 32.087 60.1788 32.087ZM60.1788 35.4037C59.404 35.4037 58.9243 34.8075 58.9243 34.0248C58.9243 33.2422 59.404 32.646 60.1788 32.646C60.9167 32.646 61.4333 33.2422 61.4333 34.0248C61.4333 34.8075 60.9536 35.4037 60.1788 35.4037Z" fill="#201E5B"/>
<path d="M66.3775 34.7702L64.4588 32.1242H63.7947V35.9255H64.4588V33.205L66.4144 35.9255H67.0416V32.1242H66.3775V34.7702Z" fill="#201E5B"/>
<path d="M69.9565 32.1242L68.4806 35.9255H69.2185L69.4768 35.1801H71.211L71.4693 35.9255H72.2072L70.7313 32.1242H69.9565ZM69.6982 34.6211L70.3623 32.8323L71.0265 34.6211H69.6982Z" fill="#201E5B"/>
<path d="M74.3841 32.1242H73.72V35.9255H76.0076V35.3292H74.3841V32.1242Z" fill="#201E5B"/>
<path d="M37.3396 2.6087C35.421 1.00621 32.8751 0.149068 29.8865 0.111801H27.3406V28.6584H29.8865V22.2485C35.9007 22.2112 40.8079 17.2547 40.8079 11.1801C40.8079 7.49068 39.5904 4.54658 37.3396 2.6087ZM29.8865 19.677V2.7205C32.4324 2.7205 38.2252 3.61491 38.2252 11.2174C38.2252 15.8758 34.4986 19.6398 29.8865 19.677Z" fill="#201E5B"/>
<path d="M17.895 8.31056H12.877L11.7701 10.882H15.386V33.2795C7.96973 32.646 2.50899 26.2733 2.50899 17.9627C2.50899 7.37888 10.4049 2.57143 17.7474 2.57143H17.8581V0H17.7474C13.1353 0 8.78146 1.60248 5.53453 4.54658C1.91864 7.82609 0 12.4845 0 17.9627C0 22.8075 1.62346 27.3168 4.57521 30.5963C7.63765 34.0248 11.9177 35.8882 16.6036 35.8882H17.8581V9.61491V8.31056H17.895Z" fill="#201E5B"/>
</g>
<defs>
<clipPath id="clip0">
<rect width="78" height="36" fill="white"/>
</clipPath>
</defs>
</svg>
