<svg role="img" xmlns="http://www.w3.org/2000/svg" viewBox="0 0 139 40" width="55" height="16"> <path fill="#383839" d="M63.541 19.931v-6.272c0-7.082 3.656-8.542 9.214-8.542h9.603c5.509 0 9.214 1.46 9.214 8.542v6.272c0 7.083-3.657 8.542-9.214 8.542h-9.603c-5.558 0-9.214-1.46-9.214-8.542zM72.511.575C65.345.792 58.569 2.9 58.569 13.335V20.2c0 11.3 7.897 12.814 15.6 12.814h6.727c7.702 0 15.6-1.514 15.6-12.814V13.39C96.495 2.9 89.718.846 82.552.629H72.511V.575zM20.545 27.068c-.049-.054-.244-.27-.341-.325-1.121-1.243-1.853-3.136-1.901-6.11V5.55h19.89c2.631.109 4.533.65 5.8 1.785.049.054.244.27.341.324 1.122 1.244 1.853 3.136 1.902 6.11v15.084h-19.89c-2.632-.162-4.533-.703-5.8-1.784zM15.768.9c-1.511 0-2.486 1.027-2.486 2.487V20.58c0 4.271 1.12 7.136 2.925 9.029 2.973 3.244 7.897 3.838 12.723 3.838h17.89l5.412 6.002c.926 1.027 2.242.973 3.266-.162 1.072-1.19 1.072-2.65.243-3.569l-4.484-4.974V13.767c0-4.27-1.122-7.136-2.925-9.029C45.358 1.494 40.434.9 35.608.9h-19.84zM2.8.575c-.049 0-.049 0 0 0C1.338.575.363 1.603.363 3.28v27.087c0 1.676.975 2.703 2.438 2.703 1.462 0 2.437-1.027 2.437-2.703V3.333C5.19 1.657 4.263.575 2.801.575zm115.241.27c-11.797 0-14.137 3.028-14.137 7.948v1.839c0 6 2.535 8.326 9.116 8.326h14.332c5.752 0 6.24 1.838 6.24 4.487v.217c0 3.784-.878 4.757-9.116 4.757h-10.725c-2.73-.054-4.436-.432-5.265-2-.097-.162-.195-.379-.195-.379-.292-.919-1.12-1.676-2.388-1.676-1.414 0-2.292.811-2.34 2.163v.433c.438 3.027 2.34 5.622 10.432 5.893H125.5c5.168 0 12.968 0 12.968-9.083v-.108c0-8.597-5.168-9.246-11.846-9.246h-12.285c-4.68 0-5.508-1.297-5.508-3.838V9.442c0-3.406 1.364-4.109 7.994-4.109h8.141c3.949 0 6.289.108 7.264 2 .097.163.195.38.195.38.292.918 1.121 1.675 2.437 1.675 1.414 0 2.291-.81 2.34-2.163v-.432c-.487-3.19-2.584-5.947-11.943-5.947h-7.215z"></path> </svg>