<svg width="118" height="46" viewBox="0 0 118 46" fill="none" xmlns="http://www.w3.org/2000/svg">
<path d="M62.1283 13.0961C59.5304 11.0123 56.0685 9.70457 51.684 9.70457C42.4223 9.70457 34.9101 17.7191 34.9101 27.6024C34.9101 37.4857 42.4223 45.51 51.684 45.51C56.0763 45.51 59.5304 44.2042 62.1283 42.1185V44.8552H71.1339V10.3379H62.1283V13.0961ZM53.0406 37.2179C47.9993 37.2179 43.9177 32.9174 43.9177 27.6044C43.9177 22.2913 47.9993 17.9986 53.0406 17.9986C55.5892 17.9986 58.0335 19.0111 59.8356 20.8132C61.6378 22.6154 62.6502 25.0596 62.6502 27.6083C62.6502 30.1569 61.6378 32.6011 59.8356 34.4033C58.0335 36.2054 55.5892 37.2179 53.0406 37.2179ZM107.102 44.863H116.107V17.1659H107.102V44.863ZM105.342 8.24827C105.342 9.90882 106.002 11.5014 107.176 12.6755C108.35 13.8497 109.943 14.5094 111.603 14.5094C113.264 14.5094 114.856 13.8497 116.031 12.6755C117.205 11.5014 117.865 9.90882 117.865 8.24827C117.865 3.45714 113.971 0.116451 108.335 0.00307471C101.787 -0.120075 93.5257 3.43564 89.8273 14.3706V10.3379H80.8276V44.863H89.8293V24.7934C89.8293 11.8665 97.2046 1.37141 108.28 1.48283C109.308 1.4999 110.327 1.6692 111.304 1.98521C109.697 2.06403 108.181 2.7584 107.071 3.92442C105.962 5.09043 105.343 6.63867 105.344 8.24827H105.342ZM35.825 10.3379H23.1053L9.0056 23.7124V0.390118H0V44.863H9.0056V32.2899L23.1053 44.863H35.7546L17.2273 27.6376L35.825 10.3379Z" fill="#991E66"/>
<path d="M18.3161 3.87556H20.4917V2.88449H18.3161V1.38128H20.7458V0.390217H17.2546V6.43043H20.8377V5.43937H18.3161V3.87556ZM25.1187 5.5332C23.8852 5.5332 23.031 4.67115 23.031 3.41032C23.031 2.09868 23.8754 1.28745 24.9975 1.28745C25.485 1.2735 25.9643 1.41523 26.3658 1.69209L26.8408 0.910184C26.3221 0.489914 25.6684 0.27247 25.0014 0.298343C23.0075 0.298343 21.9109 1.67841 21.9109 3.41423C21.9109 5.29667 23.1815 6.53013 25.0268 6.53013C25.8087 6.53013 26.5906 6.2545 26.962 5.84791L26.5554 5.05428C26.1426 5.36838 25.6374 5.5368 25.1187 5.5332ZM29.2237 1.59826C28.9559 5.23998 28.3421 5.43937 27.8768 5.37877L27.8514 6.43043C29.0419 6.60441 29.8277 6.03948 30.1815 2.52091L30.3027 1.38128H32.062V6.43043H33.1156V0.390217H29.3058L29.2237 1.59826ZM35.993 4.69069V0.390217H34.9296V6.43043H35.862L39.0249 2.1495V6.43043H40.0863V0.390217H39.1539L35.993 4.69069ZM47.6786 0.298343C45.8235 0.298343 44.5373 1.66668 44.5373 3.41423C44.5373 5.29667 45.8841 6.53013 47.6786 6.53013C49.4731 6.53013 50.8297 5.2263 50.8297 3.41423C50.8238 1.52789 49.4692 0.294434 47.6727 0.294434L47.6786 0.298343ZM47.6786 5.53711C46.5487 5.53711 45.6593 4.62228 45.6593 3.41423C45.6593 2.16319 46.5233 1.29136 47.6786 1.29136C48.8339 1.29136 49.7076 2.16319 49.7076 3.41423C49.7018 4.60077 48.9414 5.5332 47.6727 5.5332L47.6786 5.53711ZM54.0609 2.67729C53.7897 2.67821 53.5189 2.69518 53.2497 2.72811V1.38128H55.7186V0.390217H52.1882V6.43043C52.5421 6.43043 53.0601 6.46562 53.7521 6.46562C55.2357 6.46562 56.0821 5.75017 56.0821 4.49717C56.09 3.38491 55.3217 2.67729 54.0609 2.67729ZM53.9221 5.4726C53.6993 5.4726 53.4921 5.45696 53.2497 5.43937V3.71331C53.4901 3.68119 53.7323 3.66421 53.9749 3.66249C54.7177 3.66249 55.0363 4.05344 55.0363 4.56754C55.0363 5.08165 54.7079 5.4726 53.9221 5.4726ZM60.0249 3.90879L57.988 0.390217H56.7135L59.46 4.97218L58.723 6.44998H59.8529L62.8749 0.390217H61.7431L60.0249 3.90879ZM66.6457 3.24417V3.22658C66.9121 3.11394 67.1377 2.92246 67.2922 2.67786C67.4467 2.43325 67.5226 2.14724 67.5097 1.85824C67.5097 1.0216 66.9663 0.364805 65.5237 0.364805C64.9196 0.364805 64.1182 0.392172 63.78 0.40781V6.42261C64.1338 6.44802 64.9118 6.46562 65.4631 6.46562C66.7415 6.46562 67.7091 5.89678 67.7091 4.65355C67.7303 4.33037 67.6346 4.01032 67.4394 3.7519C67.2441 3.49349 66.9624 3.31396 66.6457 3.24612V3.24417ZM64.8414 1.37933C65.0369 1.36173 65.2656 1.35391 65.508 1.35391C66.0768 1.35391 66.4561 1.6139 66.4561 2.10454C66.4561 2.65774 66.0514 2.90795 65.5588 2.90795H64.8414V1.37933ZM65.5412 5.4726C65.3073 5.47207 65.0737 5.45771 64.8414 5.42959V3.83255H65.594C66.2586 3.83255 66.6457 4.09254 66.6457 4.60077C66.6457 5.17157 66.2586 5.4726 65.5412 5.4726ZM70.997 2.41731C70.7663 2.41812 70.5359 2.43248 70.307 2.46031V0.390217H69.2436V6.43043C69.5993 6.43043 70.1936 6.44802 70.7722 6.44802C72.379 6.44802 73.2763 5.64657 73.2763 4.36816C73.2763 3.18553 72.5588 2.41731 70.997 2.41731ZM70.8934 5.45696C70.6862 5.45696 70.5024 5.43937 70.307 5.42959V3.45333C70.5474 3.42792 70.7546 3.41032 70.911 3.41032C71.6538 3.41032 72.1542 3.71331 72.1542 4.3877C72.1562 5.13638 71.6694 5.45696 70.8934 5.45696ZM74.6974 5.24976C74.6109 5.24094 74.5236 5.25088 74.4413 5.2789C74.3591 5.30692 74.2838 5.35235 74.2208 5.4121C74.1577 5.47185 74.1082 5.54451 74.0758 5.62512C74.0433 5.70573 74.0286 5.79239 74.0327 5.87919C74.021 6.01002 74.0602 6.14035 74.1421 6.24303C74.224 6.34571 74.3424 6.41284 74.4726 6.43043C74.5429 6.43043 74.6465 6.43043 74.6974 6.36202C74.7194 6.49725 74.6923 6.6359 74.6211 6.75297C74.572 6.86317 74.4992 6.96125 74.408 7.04029C74.3168 7.11932 74.2094 7.17738 74.0933 7.21038L74.3611 7.67757C74.6846 7.59578 74.9701 7.40526 75.1697 7.13798C75.3694 6.8707 75.4711 6.5429 75.4578 6.20954C75.4597 5.65439 75.1665 5.24976 74.6974 5.24976ZM78.0635 1.38128H80.0182V6.43043H81.0797V1.38128H83.0344V0.390217H78.0654L78.0635 1.38128ZM86.5237 0.294434C84.6686 0.294434 83.3824 1.66277 83.3824 3.41032C83.3824 5.29276 84.7292 6.52621 86.5237 6.52621C88.3182 6.52621 89.6748 5.22239 89.6748 3.41032C89.6767 1.52789 88.3201 0.294434 86.5256 0.294434H86.5237ZM86.5237 5.5332C85.3919 5.5332 84.5044 4.61837 84.5044 3.41032C84.5044 2.15928 85.3665 1.28745 86.5237 1.28745C87.6809 1.28745 88.5527 2.15928 88.5527 3.41032C88.5547 4.60077 87.7943 5.5332 86.5256 5.5332H86.5237Z" fill="#9F1A6E"/>
</svg>
