<svg xmlns="http://www.w3.org/2000/svg" viewBox="0 0 162 22.453">
  <defs>
    <style>
      .cls-1 {
        fill-rule: evenodd;
      }
    </style>
  </defs>
  <g id="Group_358" data-name="Group 358" transform="translate(-2078.024 74.4)">
    <g id="Group_129" data-name="Group 129" transform="translate(2078.024 -74.4)">
      <g id="Group_80" data-name="Group 80" transform="translate(0 0)">
        <path id="Path_147" data-name="Path 147" class="cls-1" d="M157.969,0c-7.152,0-13.015,7.189-14.932,16.96,0,.074-.037.184-.037.295,0,.074.037.147.111.147a.784.784,0,0,0,.848-.516c3.724-7.853,8.3-12.72,13.973-12.72,5.715,0,10.508,5.715,13.42,13.015a.139.139,0,0,0,.221.037c.59-.59,1.4-1.438,1.4-2.249C170.614,6.378,164.716,0,157.969,0Z" transform="translate(-143 0)"/>
        <path id="Path_148" data-name="Path 148" class="cls-1" d="M467.305,0c-7.153,0-13.015,7.189-14.969,16.96,0,.074-.037.184-.037.295,0,.074.037.147.111.147a.784.784,0,0,0,.848-.516c3.724-7.853,8.3-12.72,14.01-12.72s10.507,5.715,13.42,13.015a.139.139,0,0,0,.221.037c.59-.59,1.4-1.438,1.4-2.249C479.951,6.378,474.052,0,467.305,0Z" transform="translate(-338.266 0)"/>
        <path id="Path_149" data-name="Path 149" class="cls-1" d="M228.222,0A1.452,1.452,0,0,0,226.6,1.4a23.686,23.686,0,0,0,1.548,3.5.115.115,0,0,0,.221,0,21.415,21.415,0,0,0,1.512-3.5C229.881.406,229.107,0,228.222,0Z" transform="translate(-195.778 0)"/>
        <path id="Path_150" data-name="Path 150" class="cls-1" d="M249.307,1.1c-5.088,0-8.148,1.217-9.991,2.36a.138.138,0,0,0,0,.221l1.7.848a.165.165,0,0,0,.184,0,12.226,12.226,0,0,1,7.411-2.1c7.189,0,8.848,4.056,9.217,6.046.037.111,0,0,0,.074v.074c0,.074,0,.147-.037.147s-.111.037-.147.037a11.33,11.33,0,0,1-3.687.59,4.582,4.582,0,0,1-1.917-.442,8.918,8.918,0,0,0-3.466-.664,12.166,12.166,0,0,0-3.392.516.245.245,0,0,0-.147.184v1.475c0,.111.111.184.184.147a11.547,11.547,0,0,1,3.355-.553,6.882,6.882,0,0,1,2.839.553,6.677,6.677,0,0,0,2.544.553,12.914,12.914,0,0,0,3.871-.553.079.079,0,0,1,.074.074v.59c-.184,1.585-1.364,5.862-9.291,5.862-4.2,0-5.936-.774-7.558-1.954a.235.235,0,0,0-.221,0l-1.622.959a.138.138,0,0,0,0,.221c1.991,1.217,4.424,2.1,10.065,2.1,7.632,0,12.9-3.392,12.9-8.259C262.211,5.34,256.939,1.1,249.307,1.1Z" transform="translate(-203.701 -0.694)"/>
        <path id="Path_151" data-name="Path 151" class="cls-1" d="M304.4,12.611v.664a.159.159,0,0,0,.147.147h4.719a.159.159,0,0,1,.147.147V24.778a.159.159,0,0,0,.147.147h3.281a.159.159,0,0,0,.147-.147V13.533a.159.159,0,0,1,.147-.147h4.535a.159.159,0,0,0,.147-.147v-1.29a.159.159,0,0,0-.147-.147H304.547a.159.159,0,0,0-.147.147v.664Z" transform="translate(-244.894 -7.45)"/>
        <path id="Path_152" data-name="Path 152" class="cls-1" d="M365.427,11.8h-1.143c-.037,0-.074.037-.111.037l-7.189,10.1a.1.1,0,0,1-.184,0l-6.6-10.065c-.037-.037-.074-.074-.111-.074h-3.5a.124.124,0,0,0-.111.184l8.369,12.683a.235.235,0,0,1,0,.221l-3.466,4.83c-.074.074,0,.184.111.184h2.065c.037,0,.074-.037.111-.037L366.5,11.984c.074-.074,0-.184-.111-.184h-.959Z" transform="translate(-271.449 -7.45)"/>
        <path id="Path_153" data-name="Path 153" class="cls-1" d="M409.159,11.2c-4.682,0-7.964.959-8.074,3.208v.332a.159.159,0,0,0,.147.147h3.429a.159.159,0,0,0,.147-.147c.037-1.18.811-1.954,4.572-1.954,4.019,0,4.387.811,4.387,2.1v1.7a.159.159,0,0,1-.147.147h-5.53c-5.235,0-7.89,1.77-7.89,4.129,0,2.065,2.175,3.613,6.489,3.613H417.2a.159.159,0,0,0,.147-.147V14.739C417.344,12.048,415.353,11.2,409.159,11.2ZM413.8,22.777a.159.159,0,0,1-.147.147h-6.046c-2.691,0-3.576-.885-3.576-2.212s1.106-2.4,3.908-2.4h5.715a.159.159,0,0,1,.147.147Z" transform="translate(-305.374 -7.071)"/>
        <path id="Path_154" data-name="Path 154" class="cls-1" d="M547.7,17.109h-5.2a.159.159,0,0,1-.147-.147V11.947a.159.159,0,0,0-.148-.147h-3.355a.159.159,0,0,0-.147.147V24.741a.159.159,0,0,0,.147.147h9.844c4.019,0,6.12-1.659,6.12-3.982C554.848,18.178,551.6,17.109,547.7,17.109Zm.184,6.194H542.5a.159.159,0,0,1-.147-.147V18.842a.159.159,0,0,1,.147-.147h5.125c2.618,0,3.65.922,3.65,2.212C551.272,22.418,550.387,23.3,547.88,23.3Z" transform="translate(-392.811 -7.45)"/>
      </g>
    </g>
  </g>
</svg>
