<?xml version="1.0" encoding="utf-8"?>
<!-- Generator: Adobe Illustrator 15.0.0, SVG Export Plug-In . SVG Version: 6.00 Build 0)  -->
<!DOCTYPE svg PUBLIC "-//W3C//DTD SVG 1.1//EN" "http://www.w3.org/Graphics/SVG/1.1/DTD/svg11.dtd">
<svg version="1.1" id="Слой_1" xmlns="http://www.w3.org/2000/svg" xmlns:xlink="http://www.w3.org/1999/xlink" x="0px" y="0px"
	 width="130px" height="29px" viewBox="0 0 130 29" enable-background="new 0 0 130 29" xml:space="preserve" shape-rendering="geometricPrecision">
<g>
	<path fill="#E22A27" d="M32.666,11.501c2.745,0,4.97-2.227,4.97-4.975c0-2.747-2.225-4.975-4.97-4.975s-4.97,2.228-4.97,4.975
		C27.696,9.274,29.92,11.501,32.666,11.501"/>
	<path fill="#010202" d="M18.83,22.929c-1.635,1.637-3.892,2.65-6.381,2.65c-2.489,0-4.746-1.014-6.381-2.65
		c-1.635-1.636-2.647-3.896-2.647-6.387c0-2.491,1.012-4.75,2.647-6.387c1.635-1.637,3.892-2.65,6.381-2.65
		c2.489,0,4.746,1.014,6.381,2.65c1.636,1.637,2.647,3.896,2.647,6.387C21.477,19.033,20.465,21.293,18.83,22.929 M12.448,4.082
		C5.583,4.082,0,9.671,0,16.542s5.584,12.457,12.449,12.457s12.449-5.586,12.449-12.457S19.313,4.082,12.448,4.082"/>
	<path fill="#010202" d="M98.081,4.625h-1.746c0,0-0.9,0-0.9,0.901v22.019c0,0.902,0.9,0.902,0.9,0.902h1.746c0,0,0.9,0,0.9-0.902
		V5.526C98.981,4.625,98.081,4.625,98.081,4.625"/>
	<path fill="#010202" d="M52.067,28.999c-5.042,0.063-8.598-2.143-10.189-3.346c-0.082-0.062-0.159-0.121-0.23-0.177
		c-0.451-0.354-0.364-0.903-0.103-1.217c0.159-0.195,0.592-0.684,1.092-1.215c0.056-0.061,0.113-0.113,0.169-0.157
		c0.499-0.464,1.075-0.044,1.19,0.047c2.629,2.066,5.032,2.916,8.182,2.916c3.136,0,5.326-1.483,5.326-3.606v-0.067
		c0-1.897-0.985-3.05-6.372-4.084c-5.4-1.068-8.994-2.692-8.994-7.148v-0.068c0-3.933,3.741-6.788,8.896-6.788
		c4.238-0.121,7.168,1.506,8.654,2.504c0.014,0.01,0.202,0.142,0.265,0.189c0.255,0.19,0.53,0.692,0.187,1.166
		c-0.17,0.205-0.757,0.903-1.055,1.245c-0.435,0.406-0.625,0.651-1.693-0.02c-0.162-0.09-0.307-0.171-0.324-0.182
		c-1.719-1.013-3.877-1.771-6.107-1.753c-2.984,0-5.069,1.4-5.069,3.405v0.067c0,1.913,1.032,3.086,6.668,4.185
		c6.123,1.214,8.735,3.312,8.735,7.015v0.066C61.296,26.111,57.5,28.999,52.067,28.999"/>
	<path fill="#010202" d="M87.264,4.625H67.788c0,0-0.899,0-0.899,0.901v1.776c0,0.901,0.899,0.901,0.899,0.901h7.996v19.342
		c0,0,0,0.902,0.901,0.902h0.171h0.702h0.876c0.898,0,0.9-0.897,0.9-0.901l0.001-0.001L79.332,8.203h7.932c0,0,0.899,0,0.899-0.901
		V5.526C88.163,4.625,87.264,4.625,87.264,4.625"/>
	<path fill="#010202" d="M129.108,4.625L129.108,4.625l-0.102,0h-1.682c-0.9,0-0.9,0.901-0.9,0.901v10.821l0.008-0.032
		c0.002,3.373,0.004,6.595,0.004,7.428L112.674,5.348c0,0-0.538-0.723-1.439-0.723h-2.378c0,0-0.901,0-0.901,0.901v22.002
		c0,0,0.002,0.892,0.89,0.9h1.849c0.9,0,0.9-0.9,0.9-0.9s0.007-11.315,0.007-18.109l13.761,18.287c0,0,0.537,0.723,1.438,0.723h2.3
		c0,0,0.9,0,0.9-0.9V5.526C130,5.526,129.999,4.632,129.108,4.625"/>
</g>
</svg>
