<svg xmlns="http://www.w3.org/2000/svg" xmlns:xlink="http://www.w3.org/1999/xlink" id="i-logo-f" viewBox="0 0 156 91"><path id="a" d="M172.7 3537.39h2.22v13.31h-2.23v-5.99c-.63.23-1.28.27-1.64.27-.68 0-1.7-.12-2.6-.23-.7-.08-1.37-.16-1.7-.16-.6 0-1.1.1-1.55.3v5.81H163v-13.31h2.2v5.26c.45-.18.96-.27 1.54-.27.36 0 1 .08 1.75.16.9.1 1.9.23 2.56.23.6 0 1.18-.1 1.64-.29zm11.1 4.18l-2.59 5.51c.67-.32 3.2-.5 4.5-.5h.73zm.51-4.4l6.51 13.53h-2.5l-.86-1.9H185c-2.35 0-4.7.26-5.36 1.22l-.38.68h-2.42l.1-.2 5.7-11.59-.79-1.75zm22.93.22h2.23v13.31h-16.7v-13.31h2.22v11.12H200v-10.6h2.23v10.6h5zm7.35 11.12h7.38v2.2h-9.6v-13.32h9.6v2.21h-7.38v3.56c.78-.38 3.07-.4 3.83-.4h1.56v2.22h-1.56c-.72 0-3.03.05-3.83.45zm26.72-4.9a3.43 3.43 0 011.71 3.14c0 2.66-2.07 4.25-5.54 4.25-2.2 0-4.62-.99-5.9-2.4l-.09-.1 1.38-1.83.12.15c.9 1.17 2.74 1.99 4.5 1.99 2.14 0 3.32-.74 3.32-2.08 0-1.45-1.35-1.75-2.48-1.75H236v-2.23h2.34c1.18 0 1.83-.59 1.83-1.65 0-1.37-1.64-1.88-2.68-1.88-1.62 0-2.43.51-3.44 1.52l-.11.12-1.44-1.66.1-.1c1.21-1.18 2.34-2.1 4.9-2.1 3.87 0 4.9 2.73 4.9 4.17 0 1.14-.32 1.87-1.08 2.45m10.92 5.19a4.9 4.9 0 005.05-4.85c0-2.66-2.23-4.74-5.07-4.74-2.93 0-5.06 2.04-5.06 4.86 0 2.6 2.28 4.73 5.08 4.73 0 0-2.83 0 0 0zm0-11.8c4.07 0 7.26 3.1 7.26 7.05 0 3.83-3.27 6.94-7.28 6.94a7.13 7.13 0 01-7.26-7.15c0-3.77 3.27-6.84 7.28-6.84 0 0-4.07 0 0 0zm10.54.38h10.34v13.31h-2.23v-11.1h-3.53c-.47 4.57-1.54 7.79-3.28 9.83a3.9 3.9 0 01-3.11 1.27h-.5v-2.19h.5c.56 0 1.25-.12 2.18-1.59 1.38-2.18 1.78-4.8 2.05-7.32h-1.46zm20.52 11.42a4.9 4.9 0 005.04-4.85c0-2.66-2.22-4.74-5.06-4.74-2.94 0-5.07 2.04-5.07 4.86 0 2.6 2.28 4.73 5.09 4.73 0 0-2.83 0 0 0zm0-11.8c4.07 0 7.25 3.1 7.25 7.05 0 3.83-3.26 6.94-7.27 6.94a7.13 7.13 0 01-7.26-7.15c0-3.77 3.26-6.84 7.28-6.84 0 0-4.08 0 0 0zm28.45 11.8a4.9 4.9 0 005.05-4.85c0-2.66-2.23-4.74-5.07-4.74-2.94 0-5.07 2.04-5.07 4.86 0 2.6 2.28 4.73 5.09 4.73 0 0-2.83 0 0 0zm0-11.8c4.07 0 7.26 3.1 7.26 7.05 0 3.83-3.27 6.94-7.28 6.94a7.13 7.13 0 01-7.26-7.15c0-3.77 3.26-6.84 7.28-6.84 0 0-4.07 0 0 0zm-8.37 2.58h-4.82v11.11h-2.18v-11.1h-4.4l-.96-2.2.01-.01h11.4z" fill="#dbaf65" transform="translate(-163 -3460)"></path><path id="b" d="M249.03 3488.89a5.55 5.55 0 012.66 5.04c0 4.27-3.22 6.83-8.62 6.83-2.68 0-5.58-.99-7.67-2.5l2.51-2.56a9.78 9.78 0 005.16 1.53c3.34 0 5.18-1.18 5.18-3.33 0-2.33-2.1-2.83-3.86-2.83v-3.58c1.83 0 2.84-.94 2.84-2.66 0-2.2-2.56-3.02-4.16-3.02-2.08 0-3.3.57-4.55 1.68l-2.43-2.48c1.67-1.6 3.45-2.76 6.98-2.76 6.03 0 7.63 4.38 7.63 6.7 0 1.83-.49 3-1.67 3.94m-8.17 2.18h-8.95v9.14h-3.44v-18.75l-1.16-2.66h4.6v8.69h8.95zm15.39 27.93h-33.5L206 3489.5l16.75-29.5h33.5l16.75 29.5zm-31.87-2.88h30.23l15.12-26.62-15.12-26.61h-30.23l-15.1 26.61z" fill="#dbaf65" transform="translate(-163 -3460)"></path></svg>