<?xml version="1.0" encoding="UTF-8" standalone="no"?>
<!DOCTYPE svg PUBLIC "-//W3C//DTD SVG 1.1//EN" "http://www.w3.org/Graphics/SVG/1.1/DTD/svg11.dtd">
<svg width="100%" height="100%" viewBox="0 0 250 75" version="1.1" xmlns="http://www.w3.org/2000/svg" xmlns:xlink="http://www.w3.org/1999/xlink" xml:space="preserve" xmlns:serif="http://www.serif.com/" style="fill-rule:evenodd;clip-rule:evenodd;stroke-linejoin:round;stroke-miterlimit:2;">
    <g transform="matrix(1,0,0,1,-237.776,-3.53061)">
        <g id="LOGO_SLOGAN_RU">
            <g id="Group_10138">
                <g id="Path_3712" transform="matrix(1,0,0,1,124.978,8.788)">
                    <path d="M191.1,12.812C191.328,12.789 191.557,12.778 191.787,12.778C195.461,12.778 198.528,15.704 198.7,19.374L198.7,20.237C198.7,24.727 195.764,27.317 191.1,27.317L181.775,27.317L181.775,34.57L177.8,34.57L177.8,12.812L191.1,12.812ZM191.273,23.518C193.018,23.635 194.561,22.323 194.727,20.582L194.727,20.064C194.91,18.171 193.511,16.46 191.619,16.264L181.6,16.264L181.6,23.517L191.273,23.518Z" style="fill-rule:nonzero;"/>
                </g>
                <g id="Path_3713" transform="matrix(1,0,0,1,134.354,8.515)">
                    <path d="M203.806,35.194C196.899,35.194 191.2,30.532 191.2,23.794C191.2,17.056 196.9,12.394 203.806,12.394C210.712,12.394 216.412,17.056 216.412,23.794C216.412,30.532 210.712,35.194 203.806,35.194M203.806,16.026C199.5,15.71 195.691,18.976 195.345,23.279L195.345,23.8C195.345,28.29 198.626,31.571 203.806,31.571C208.986,31.571 212.267,28.29 212.267,23.8C212.267,19.31 208.986,16.029 203.806,16.029" style="fill-rule:nonzero;"/>
                </g>
                <g id="Path_3714" transform="matrix(1,0,0,1,146.256,8.508)">
                    <path d="M220.706,35.2C213.453,35.2 208.1,30.538 208.1,23.8C208.1,17.062 213.626,12.4 220.706,12.4C224.328,12.265 227.881,13.429 230.721,15.681L228.649,18.8C226.43,17.056 223.7,16.085 220.878,16.037C215.525,16.037 212.244,19.318 212.244,23.637C212.244,27.956 215.525,31.408 220.878,31.408C223.739,31.451 226.535,30.539 228.821,28.818L230.893,31.926C227.925,34.058 224.36,35.203 220.706,35.2" style="fill-rule:nonzero;"/>
                </g>
                <g id="Path_3715" transform="matrix(1,0,0,1,166.103,8.733)">
                    <path d="M244.134,29.1L241.716,34.28L237.4,34.28L247.933,12.7L252.077,12.7L262.61,34.285L258.293,34.285L255.875,29.105L244.134,29.1ZM245.861,25.646L254.15,25.646L250.006,16.839L245.861,25.646Z" style="fill-rule:nonzero;"/>
                </g>
                <g id="Path_3716" transform="matrix(1,0,0,1,177.95,8.801)">
                    <path d="M271.831,34.385L271.831,25.06L257.671,25.06L257.671,34.385L253.7,34.385L253.7,12.8L257.672,12.8L257.672,21.607L271.832,21.607L271.832,12.8L275.8,12.8L275.8,34.385L271.831,34.385Z" style="fill-rule:nonzero;"/>
                </g>
                <g id="Path_3717" transform="matrix(1,0,0,1,189.796,8.801)">
                    <path d="M270,34.385L270,12.8L273.972,12.8L273.972,22.815L284.851,12.8L289.686,12.8L278.634,23.161L290.2,34.385L284.847,34.385L273.972,23.852L273.972,34.385L270,34.385Z" style="fill-rule:nonzero;"/>
                </g>
                <g id="Path_3718" transform="matrix(1,0,0,1,157.308,8.733)">
                    <path d="M237.269,20.643L227.944,20.643L227.944,16.153L243.313,16.153L243.313,12.7L223.8,12.7L223.8,34.285L237.1,34.285C241.762,34.285 245.043,31.695 245.043,27.378C245.043,23.061 242.107,20.643 237.272,20.643M237.617,30.658L227.947,30.658L227.947,24.27L237.617,24.27C240.035,24.27 241.589,25.651 241.589,27.551C241.589,29.451 240.38,30.832 237.617,30.659" style="fill-rule:nonzero;"/>
                </g>
                <g id="Rectangle_2047" transform="matrix(1,0,0,1,245.556,11.052)">
                    <rect x="0" y="0" width="43.343" height="22.103" style="fill:rgb(233,4,30);"/>
                </g>
                <g id="Rectangle_2048" transform="matrix(1,0,0,1,245.556,32.064)">
                    <rect x="0" y="0" width="43.343" height="21.585"/>
                </g>
                <g id="Rectangle_2049" transform="matrix(1,0,0,1,252.997,30.9)">
                    <rect x="0" y="0" width="28.147" height="2.59" style="fill:white;"/>
                </g>
                <g id="title" transform="matrix(1,0,0,1,245.56,62.826)">
                    <path d="M153.285,7.367C151.185,7.367 149.774,6.15 149.774,4.338L149.774,0.217L151.067,0.217L151.067,4.2C151.067,5.454 151.875,6.173 153.285,6.173C154.695,6.173 155.515,5.454 155.515,4.2L155.515,0.217L156.8,0.217L156.8,4.338C156.8,6.178 155.422,7.367 153.285,7.367ZM144.238,7.367C144.15,7.373 144.062,7.376 143.973,7.376C141.93,7.376 140.233,5.728 140.175,3.685C140.384,1.613 142.148,0.017 144.231,0.017C146.313,0.017 148.077,1.613 148.286,3.685C148.297,4.703 147.864,5.676 147.1,6.349C146.301,7.023 145.284,7.383 144.239,7.363L144.238,7.367ZM144.238,1.196C144.178,1.192 144.118,1.189 144.058,1.189C142.686,1.19 141.558,2.318 141.558,3.69C141.558,5.061 142.686,6.19 144.058,6.19C144.118,6.19 144.178,6.187 144.238,6.183C144.298,6.187 144.358,6.19 144.418,6.19C145.79,6.19 146.918,5.061 146.918,3.689C146.918,2.318 145.79,1.189 144.418,1.189C144.358,1.189 144.298,1.192 144.238,1.196ZM127.13,7.351C126.066,7.379 125.028,7.018 124.21,6.337C123.446,5.665 123.018,4.687 123.041,3.67C123.041,1.547 124.761,0.006 127.13,0.006C128.298,-0.022 129.442,0.34 130.381,1.034L129.689,2.051C128.968,1.496 128.077,1.204 127.167,1.226L127.082,1.226C127.008,1.219 126.933,1.216 126.859,1.216C125.511,1.216 124.402,2.323 124.4,3.671C124.412,5.034 125.537,6.149 126.9,6.149C126.994,6.149 127.088,6.144 127.182,6.133C127.869,6.14 128.549,5.999 129.176,5.72L129.176,3.7L130.428,3.7L130.428,6.4C129.441,7.024 128.297,7.354 127.13,7.351ZM12.193,7.336C11.15,7.355 10.134,6.998 9.333,6.329C8.563,5.663 8.123,4.69 8.133,3.671C8.194,1.633 9.887,-0.009 11.925,-0.009C12.015,-0.009 12.104,-0.006 12.193,0C12.278,-0.006 12.363,-0.009 12.448,-0.009C14.484,-0.009 16.173,1.636 16.228,3.671C16.196,5.698 14.52,7.348 12.492,7.348C12.393,7.348 12.293,7.344 12.193,7.336ZM12.193,1.184C12.123,1.178 12.052,1.175 11.981,1.175C10.61,1.175 9.481,2.304 9.481,3.675C9.481,5.046 10.61,6.175 11.981,6.175C12.052,6.175 12.123,6.172 12.193,6.166C12.263,6.172 12.334,6.175 12.405,6.175C13.776,6.175 14.905,5.046 14.905,3.675C14.905,2.304 13.776,1.175 12.405,1.175C12.334,1.175 12.263,1.178 12.193,1.184ZM59.028,7.332C57.967,7.359 56.931,7 56.115,6.322C55.353,5.651 54.926,4.677 54.948,3.662C54.948,1.54 56.664,0 59.028,0C60.193,-0.03 61.335,0.332 62.269,1.028L61.583,2.045C60.867,1.486 59.977,1.194 59.068,1.221L58.983,1.221C58.911,1.215 58.838,1.211 58.766,1.211C57.421,1.211 56.314,2.318 56.313,3.663C56.322,5.023 57.443,6.136 58.803,6.136C58.899,6.136 58.994,6.131 59.089,6.12C59.772,6.121 60.448,5.981 61.075,5.709L61.075,3.69L62.327,3.69L62.327,6.379C61.343,7.009 60.197,7.34 59.028,7.332ZM21.511,7.332C20.451,7.359 19.416,7 18.6,6.322C17.838,5.651 17.411,4.677 17.433,3.662C17.431,1.54 19.147,0 21.511,0C22.677,-0.031 23.819,0.335 24.749,1.038L24.065,2.054C23.347,1.492 22.459,1.192 21.548,1.204C21.465,1.196 21.381,1.191 21.298,1.191C19.936,1.191 18.811,2.301 18.792,3.662C18.798,5.025 19.921,6.143 21.284,6.143C21.378,6.143 21.472,6.138 21.566,6.127C22.486,6.145 23.385,5.851 24.116,5.291L24.807,6.312C23.853,7.009 22.692,7.368 21.511,7.332ZM3.626,7.3C2.356,7.327 1.102,7.007 0,6.374L0.5,5.283C1.457,5.828 2.537,6.118 3.638,6.127C4.938,6.127 5.713,5.766 5.713,5.162C5.713,4.524 4.713,4.362 3.554,4.17C1.965,3.911 0.164,3.616 0.164,2.043C0.164,0.812 1.381,0.043 3.339,0.043C4.465,0.037 5.575,0.299 6.579,0.809L6.068,1.852C5.217,1.47 4.3,1.256 3.368,1.222C2.148,1.222 1.504,1.482 1.504,1.973C1.504,2.528 2.427,2.673 3.495,2.851C5.081,3.108 7.055,3.429 7.055,5.164C7.053,6.484 5.74,7.3 3.626,7.3ZM133.473,7.164L132.18,7.164L132.18,0.217L136.668,0.217C136.747,0.208 136.826,0.204 136.905,0.204C138.097,0.204 139.078,1.185 139.078,2.377C139.078,2.396 139.077,2.415 139.077,2.434C139.073,3.556 138.191,4.495 137.072,4.57L139.152,7.165L137.532,7.165L135.556,4.606L133.474,4.606L133.474,7.167L133.473,7.164ZM133.473,1.364L133.473,3.453L136.528,3.453C137.308,3.453 137.793,3.062 137.793,2.433C137.794,2.411 137.795,2.39 137.795,2.368C137.795,1.815 137.34,1.36 136.787,1.36C136.747,1.36 136.708,1.362 136.668,1.367L133.473,1.364ZM159.9,7.164L158.608,7.164L158.608,0.217L162.933,0.217C162.995,0.212 163.058,0.209 163.12,0.209C164.382,0.209 165.42,1.248 165.42,2.509C165.42,2.533 165.42,2.557 165.419,2.581C165.42,2.611 165.421,2.641 165.421,2.671C165.421,3.869 164.435,4.855 163.237,4.855C163.135,4.855 163.034,4.848 162.933,4.834L159.9,4.834L159.9,7.166L159.9,7.164ZM159.9,1.364L159.9,3.682L163.009,3.682C163.026,3.683 163.043,3.683 163.06,3.683C163.631,3.683 164.101,3.213 164.101,2.642C164.101,2.626 164.101,2.611 164.1,2.595C164.103,2.563 164.104,2.531 164.104,2.499C164.104,1.877 163.592,1.364 162.969,1.364C162.958,1.364 162.946,1.365 162.935,1.365L159.9,1.365L159.9,1.364ZM97.632,7.15L96.232,7.15L99.625,0.215L100.982,0.215L104.382,7.146L102.992,7.146L102.192,5.458L98.431,5.458L97.631,7.146L97.632,7.15ZM100.314,1.526L98.965,4.338L101.647,4.338L100.314,1.526ZM90.142,7.149L88.848,7.149L88.848,0.215L93.327,0.215C93.405,0.206 93.484,0.202 93.563,0.202C94.75,0.202 95.728,1.179 95.728,2.367C95.728,2.386 95.727,2.405 95.727,2.424C95.727,3.543 94.849,4.483 93.733,4.558L95.8,7.145L94.182,7.145L92.221,4.593L90.142,4.593L90.142,7.149ZM90.142,1.362L90.142,3.443L93.188,3.443C93.966,3.443 94.449,3.053 94.449,2.424C94.451,2.401 94.451,2.377 94.451,2.354C94.451,1.806 94,1.354 93.451,1.354C93.41,1.354 93.368,1.357 93.326,1.362L90.142,1.362ZM73.28,7.149L72.015,7.149L72.015,0.215L73.334,0.215L77.87,5.44L77.9,5.428C77.825,4.05 77.819,3.028 77.819,2.028L77.819,0.215L79.075,0.215L79.075,7.146L77.775,7.146L73.255,1.923L73.233,1.931C73.283,2.959 73.283,4.749 73.283,5.337L73.283,7.148L73.28,7.149ZM118.818,7.149L112.26,7.149L112.26,0.215L118.595,0.215L118.595,1.362L113.55,1.362L113.55,3.041L117.471,3.041L117.471,4.19L113.55,4.19L113.55,6L118.818,6L118.818,7.149ZM111.244,7.149L105.307,7.149L105.307,0.215L106.6,0.215L106.6,6L111.248,6L111.248,7.146L111.244,7.149ZM87.487,7.149L80.925,7.149L80.925,0.215L87.263,0.215L87.263,1.362L82.213,1.362L82.213,3.041L86.139,3.041L86.139,4.19L82.213,4.19L82.213,6L87.486,6L87.486,7.146L87.487,7.149ZM70.635,7.149L64.072,7.149L64.072,0.215L70.414,0.215L70.414,1.362L65.361,1.362L65.361,3.041L69.291,3.041L69.291,4.19L65.361,4.19L65.361,6L70.634,6L70.634,7.146L70.635,7.149ZM51.015,7.149L44.452,7.149L44.452,0.215L50.791,0.215L50.791,1.362L45.744,1.362L45.744,3.041L49.668,3.041L49.668,4.19L45.744,4.19L45.744,6L51.014,6L51.014,7.146L51.015,7.149ZM39.285,7.149L39.285,1.349L36.445,1.349L36.445,0.215L43.4,0.215L43.4,1.349L40.572,1.349L40.572,7.149L39.284,7.149L39.285,7.149ZM35.867,7.149L29.306,7.149L29.306,0.215L35.646,0.215L35.646,1.362L30.6,1.362L30.6,3.041L34.528,3.041L34.528,4.19L30.6,4.19L30.6,6L35.872,6L35.872,7.146L35.867,7.149ZM26.181,7.149L26.181,0.217L27.471,0.217L27.471,7.146L26.181,7.146L26.181,7.149Z" style="fill-rule:nonzero;"/>
                </g>
            </g>
        </g>
    </g>
</svg>
