<?xml version="1.0" encoding="utf-8"?>
<!-- Generator: Adobe Illustrator 18.1.1, SVG Export Plug-In . SVG Version: 6.00 Build 0)  -->
<svg version="1.1" id="svg2403" xmlns:svg="http://www.w3.org/2000/svg"
	 xmlns="http://www.w3.org/2000/svg" xmlns:xlink="http://www.w3.org/1999/xlink" x="0px" y="0px" viewBox="-140 400.8 314.8 41.1"
	 enable-background="new -140 400.8 314.8 41.1" xml:space="preserve">
<g id="g2412" transform="matrix(1.25,0,0,-1.25,-0.8618163,41.839875)">
	<path id="path2416" fill="#107F40" d="M129.4-287.2c-6.1,0-11.1-5-11.1-11.1c0-6.1,5-11.1,11.1-11.1c6.1,0,11.1,5,11.1,11.1
		C140.5-292.1,135.6-287.2,129.4-287.2z M129.4-288c5.7,0,10.3-4.6,10.3-10.3c0-5.7-4.6-10.2-10.3-10.2c-5.7,0-10.2,4.6-10.2,10.2
		C119.2-292.6,123.8-288,129.4-288z M-103-292.5c-3.1,0-6.4-1.4-7.7-4.4c-0.5-1.2-0.6-2.5-0.6-3c0-2.8,1.2-4.5,2-5.3
		c1.1-1.1,2.2-1.6,4.8-3c1.2-0.6,2.3-1.2,3-2.4c0.4-0.7,0.4-1.5,0.4-1.8c0-1.6-1-3-2.5-3.5c-0.3-0.1-0.8-0.2-1.5-0.2
		c-2.3,0-4.3,0.9-4.9,1.3c-0.2,0.1-0.4,0.2-0.6,0.3l-0.3-4.4c2.9-1.1,5-1.2,6.3-1.2c5,0,7,2.5,7.9,4.4c0.7,1.6,0.8,2.9,0.8,3.5
		c0,2.9-1.4,4.7-2.2,5.5c-0.5,0.5-1.2,1-2.5,1.8c-0.6,0.3-1.3,0.7-1.9,1c-1.2,0.7-1.8,1-2.4,1.4c-0.8,0.7-1.3,1.6-1.3,2.6
		c0,0.3,0,1,0.5,1.8c1,1.6,3,1.5,3.4,1.5c1.8,0,3.4-0.6,4-0.8c0.3-0.1,0.5-0.3,0.8-0.4l0.2,4.1C-99.8-292.7-102.1-292.5-103-292.5z
		 M130.1-292.6c-0.1-0.1,0-0.4,0-0.5c-0.1-0.1-0.6-0.1-0.6-0.2c0-0.1,0.4-0.4,0.4-0.5c0-0.1-0.4-0.4-0.3-0.6c0-0.1,0.5,0,0.6,0
		c0.1-0.1,0-0.5,0.1-0.5c0.1,0,0.5,0.5,0.8,0.6c0.3,0.1,0.5,0,0.6-0.3c0.3-0.6-0.1-1.1-1.4-1.7c-1.1-0.5-1.3-0.6-1.4-0.5
		c-0.2,0-0.3,0.3-0.4,0.5c0,0.2,0.1,0.6,0,0.8c-0.1,0.2-0.5,0.5-0.6,0.8c-0.1,0.3-0.2,1-0.4,1.1c-0.1,0-0.3-0.4-0.4-0.4
		c-0.1,0-0.5,0.3-0.6,0.3c-0.1-0.1,0.2-0.6,0.1-0.7c-0.1-0.1-0.6,0-0.6-0.1c0-0.1,0.4-0.4,0.3-0.5c0-0.1-0.4-0.3-0.4-0.5
		c0-0.1,0.5,0,0.9,0c0.3,0,0.5-0.1,0.6-0.3c0.1-0.3-0.5-1.6-1-1.6c-0.7-0.1-1,0.7-1.1,1.1c-0.1,0.2-0.2,1.1-0.5,1.6
		c-0.8,1.2-2.3,2.2-2.9,1.9c-0.7-0.4-0.8-2.9-0.5-3.6c0.5-1,1.1-1.2,1.4-1.8c0.8-1.4,1.6-2.1,2.3-2.5c0.5-0.3,0.5-0.3,0.7-0.5
		c0.1-0.1,0.2-0.3,0.3-0.6c0.1-0.3,0-0.6-0.1-0.7c-0.1-0.2-0.6-0.1-0.9,0.1c-0.2,0.2-0.5,0.8-0.6,0.8c-0.1,0-0.2-0.5-0.3-0.6
		c-0.1,0-0.6,0.2-0.7,0.1c-0.1-0.1,0.3-0.5,0.3-0.6c0-0.1-0.5-0.3-0.5-0.4s0.5-0.1,0.6-0.3c0.1-0.1-0.1-0.5,0-0.6
		c0.1-0.1,0.5,0.2,0.7,0.3c0.5,0.3,1.5,0.1,1.9,0c0.2,0,0.4,0,0.5,0.2c0.3,0.5,0.5,1.6,0.6,2c0.1,0.3,0.2,0.3,0.3,0.3
		c2.8,0.5,4.3,1.7,4.5,1.8c0.1,0,0.2,0,0.4-0.1c0.1-0.1,0.5-0.4,0.5-0.4s0.5-0.4,0-0.6c-0.4-0.2-1,0.1-1,0c-0.1-0.1,0.3-0.4,0.2-0.5
		c0-0.1-0.5-0.1-0.6-0.3c0-0.1,0.5-0.3,0.6-0.3c0-0.1-0.3-0.6-0.2-0.7c0.1-0.1,0.6,0.2,0.6,0.1c0.1-0.1,0.2-0.5,0.3-0.4
		c0.1,0,0.2,0.5,0.7,1.1c0.2,0.2,0.5,0.4,0.8,0.7c0.1,0.1,0.2,0.3,0.1,0.8c-0.1,0.4-0.4,1.2-0.4,1.6c0,0.4,0.2,0.6,0.6,0.7
		c0.5,0.1,1.3,0,1.7-0.9c0.5-0.9,0.2-2-0.3-2.9c-0.6-1.3-1.6-2.5-1.6-2.7c-0.1-0.2,0-0.3,0.2-0.2c0.2,0.1,4.8,3.8,3.6,7.4
		c-0.7,2-2.2,2.6-3.5,2.7c-0.9,0.1-1.6-0.1-1.7-0.1c-0.2-0.1-0.3,0.1-0.3,0.2c-0.2,0.6-0.3,0.9-0.6,1.3c-0.1,0.1-0.3,0.2-0.6,0.2
		c-0.4,0-0.7-0.1-1,0C130.6-293,130.2-292.5,130.1-292.6z M59.7-292.9c-0.4,0-0.9,0-1.3,0h-6v-26.7h5.8c3.1,0,4.7,0.2,6.1,0.8
		c2,0.7,5.6,2.6,7.1,7.9c0.6,2.1,0.6,3.9,0.6,4.7c0,5.5-1.9,8.8-3.6,10.4c-2.6,2.5-6.1,2.8-7.3,2.9C60.6-293,60.2-292.9,59.7-292.9z
		 M-85.8-293l-8.9-26.7h4.7l2.1,6.5h9.2l1.8-6.5h5.1l-8.6,26.7H-85.8z M-68.6-293v-26.7h12v3.9h-7v22.8H-68.6z M-46.1-293l-8.9-26.7
		h4.7l2,6.5h9.2l1.9-6.5h5.1l-8.6,26.7H-46.1z M-28.7-293v-26.7h4.6l-0.3,22.4l6.9-22.4h3.5l7.1,22.4l-0.3-22.4h4.6v26.7h-7
		l-6.1-19.9l-5.9,19.9H-28.7z M9.7-293l-8.9-26.7h4.7l2.1,6.5h9.1l1.9-6.5h5.1L15.1-293H9.7z M27-293v-26.7h4.6l-0.3,21l8.8-21h6
		v26.7h-4.6l0.4-21.1L33-293H27z M76.3-293v-26.7h14.2v3.9h-9.4v8h8.5v3.9h-8.5v7.3h9v3.7H76.3z M95.2-293v-26.7h4.9v11.5
		c0.3,0,0.5,0,0.8,0c1.9,0,3.1-0.5,3.8-2.3c0.2-0.4,0.3-0.9,0.5-1.3l2.5-7.9h5.2l-3.1,9.3c-0.5,1.3-0.9,2.7-2.1,3.5
		c-0.5,0.3-0.8,0.4-1.1,0.5l0,0.1c1,0.2,1.5,0.4,1.9,0.6c3,1.6,3.2,4.9,3.2,5.9c0,3.2-1.9,4.9-2.9,5.6c-1.9,1.2-3.8,1.3-5.9,1.3
		H95.2z M123.3-294.6c0.3,0,0.7-0.4,1-0.9c0.3-0.6,0.3-1.3-0.1-1.4c-0.1,0-0.4,0.5-0.7,1c-0.3,0.5-0.5,1.1-0.4,1.2
		C123.2-294.6,123.2-294.6,123.3-294.6z M122.3-295.1c0.1,0,0.4-0.5,0.7-1c0.2-0.5,0.4-1.1,0.4-1.2c-0.3-0.3-0.9,0.3-1.1,0.9
		C122-295.8,122-295.1,122.3-295.1z M134.3-295.4c0.7,0,1.1-0.1,1.7-0.3l0.1,0c0.1-0.1,0.2-0.3,0.2-0.4c-0.1-0.1-0.1-0.2-0.3-0.1
		l-0.1,0c-0.8,0.2-1.7,0.1-2.5-0.1c0,0,0,0-0.1,0c-0.2-0.1-0.3,0.1-0.4,0.3c-0.1,0.2,0.1,0.5,0.4,0.6l0.1,0
		C133.8-295.4,134.1-295.4,134.3-295.4z M131.8-296.1c0.2,0,0.5-0.1,0.6-0.2c0.2-0.3,0-0.5-0.2-0.5l-0.2-0.1
		c-0.8-0.5-1.1-0.7-1.5-0.9c0,0-0.2-0.1-0.2-0.1c-0.2-0.1-0.5-0.1-0.6,0.3c-0.1,0.4,0.2,0.6,0.4,0.8c0,0,0.2,0.1,0.2,0.1
		c0.3,0.2,0.2,0.1,1.1,0.6l0.2,0.1C131.7-296.1,131.7-296.1,131.8-296.1z M100-296.6h1.4c1.6,0,3.4-0.1,4.4-1.7
		c0.2-0.4,0.6-1.1,0.6-2.2c0-0.4-0.1-1.4-0.7-2.4c-1.1-1.6-2.8-1.7-4.4-1.7H100V-296.6z M135-296.6c0.1,0,0.3,0,0.4,0l0.2,0
		c0.2,0,0.3-0.1,0.3-0.3c0-0.2-0.2-0.3-0.4-0.3c0,0-0.3,0.1-0.8-0.1c-0.3-0.1-0.7-0.3-0.7-0.3c-0.3-0.1-0.5,0.2-0.6,0.4
		c-0.1,0.2,0.1,0.3,0.3,0.4C134.2-296.7,134.6-296.6,135-296.6z M136.9-296.7c0,0,0.1,0,0.1,0c0.1-0.1,0.2-0.1,0.3-0.3
		c0.2-0.3,0.5-0.8,0.6-1.4c0.1-1-0.3-2.2-0.4-2.6c-0.1-0.1-0.1-0.2-0.1,0.1c0,0.2,0.2,1.3,0,2.2c-0.1,0.4-0.4,1-0.7,1.3
		c-0.1,0.1-0.2,0.4-0.1,0.5C136.6-296.8,136.8-296.7,136.9-296.7z M58.4-296.7c1.3,0,2.5-0.1,3.7-0.5c1.7-0.6,2.6-1.7,3-2.2
		c1.4-1.9,1.7-4.6,1.7-6.8c0-5.6-2.3-8.2-4.8-9.1c-1.6-0.6-3.4-0.5-3.8-0.5h-0.7v19.1L58.4-296.7z M-83.1-297l3.3-12.5h-7.2
		L-83.1-297z M-43.4-297l3.4-12.5h-7.2L-43.4-297z M12.4-297l3.3-12.5H8.6L12.4-297z M124.6-297.3c0.1,0,0.3,0,0.4-0.2l0,0
		c0.2-0.2,0.4-0.3,0.7-0.5c0.1-0.1,0.4-0.1,0.4-0.1c0.2-0.1,0.2-0.5,0.1-0.7c-0.1-0.2-0.4-0.3-0.6-0.2c0,0-0.1,0.1-0.2,0.1
		c-0.4,0.3-0.7,0.7-1,1.1l0,0c-0.1,0.1-0.1,0.3,0,0.5C124.5-297.3,124.6-297.3,124.6-297.3z M132.7-297.4c0.1,0,0.2,0,0.3-0.1
		c0.2-0.2,0.1-0.6-0.1-0.8l-0.3-0.2c-0.8-0.6-1.4-0.8-1.4-0.8c-0.2-0.1-0.6,0-0.7,0.3c-0.1,0.2-0.1,0.4,0.2,0.6c0,0,0.4,0.2,1.1,0.6
		l0.6,0.4C132.5-297.4,132.6-297.4,132.7-297.4z M128.9-297.7c0.2,0,0.4-0.2,0.4-0.4c0.1-0.2,0.1-0.4-0.2-0.5c0,0-1.1-0.5-1.8-0.6
		l-0.1,0c-0.4-0.1-0.5,0.1-0.5,0.4c0,0.3,0.1,0.7,0.4,0.7h0.1c0.5,0.1,0.8,0.2,1.4,0.4C128.7-297.6,128.8-297.6,128.9-297.7z
		 M123.7-297.8c0.1,0,0.2-0.1,0.3-0.2c0.4-0.5,0.8-1,1.3-1.3c0.2-0.1,0.3-0.2,0.3-0.2c0.3-0.2,0.2-0.6,0.2-0.7
		c-0.1-0.2-0.2-0.4-0.5-0.2l-0.1,0.1c-0.8,0.6-1.2,1.1-1.7,1.8c-0.1,0.1-0.1,0.5,0.1,0.7C123.7-297.8,123.7-297.8,123.7-297.8z
		 M129.5-299.2c0.2,0,0.3,0,0.4-0.2c0.1-0.4-0.2-0.7-0.4-0.8c-1.2-0.5-2.4-0.5-2.4-0.5c-0.4,0-0.5,0.1-0.5,0.4
		c0,0.2,0.1,0.6,0.5,0.6c0.7,0,1.4,0.2,2.3,0.5C129.4-299.2,129.4-299.2,129.5-299.2z"/>
</g>
</svg>
