<svg width="210" height="22" fill="none" xmlns="http://www.w3.org/2000/svg"><path fill-rule="evenodd" clip-rule="evenodd" d="M28.22 12.566c-.981-1.32-3.11-2.652-7.462-3.543l-8.06-1.645c-1.588-.312-3.32-.693-4.47-1.432C7.502 5.472 7.02 4.85 7.02 3.981c0-.417.306-.803.882-1.119 1.076-.598 3.146-.956 6.214-.956.304 0 .737.021 1.21.05 2.226.17 5.97.936 8.582 3.947.265.314.533.593.775.957h1.304V1.408h-2.049c-.388.184-1.182.468-1.814.527-.279.02-.624.02-.914 0C19.34 1.753 18.04 1 13.955 1 5.769 1 2.021 3.812 2.021 6.56c0 1.221.637 2.186 1.606 2.967 1.703 1.352 4.422 2.09 6.341 2.485l6.758 1.373c2.687.556 5.81 1.198 6.65 2.777.138.264.222.534.222.855 0 .907-1.02 3.046-8.285 3.046-4.143 0-8.112-1.3-10.678-3.536a9.33 9.33 0 01-1.574-1.804c-.207-.315-.43-.621-.586-.958H1l.22 6.819h2.024c.696-.335 1.463-.572 2.175-.635a6.94 6.94 0 011.03 0C9.635 20.216 10.416 21 15.023 21l.012-.002c.287 0 .383-.005.769-.005 2.366 0 4.403-.262 6.142-.672 4.624-1.08 6.996-3.34 6.996-5.65 0-.648-.183-1.38-.72-2.104v0zm40.195 8.017v-.643h-3.461L52.389 1.95l-.665-.949H48.66L37.58 16.665c-1.362 1.936-2.099 3.186-6.24 3.275v.643h12.496v-.643c-2.175-.097-3.422-.258-4.165-.557-.83-.329-1.006-.84-1.006-1.665 0-.22.274-.687.51-1.047.12-.188.228-.34.284-.407l.85-1.264h11.868l.199.278.49.664 2.896 3.998h-4.544v.643h17.198zM42.25 14.319h-1.601l5.623-7.942.088.134.716.992 4.88 6.816H42.25zm45.751 2.142l4.323-6.685 2.671-4.121c.873-1.38 1.595-2.718 3.618-3.288.594-.175 1.293-.292 2.172-.306V1.41H89.15v.65c.682-.045 2.274-.045 3.438.307.687.197 1.189.55 1.276 1.082.006.052.053.102.053.16 0 .555 0 1.199-.46 1.93l-6.192 9.9-.114.182-9.593-13.254-.225-.306h4.386V1.41H64.045v.65h4.21l.218.307.47.637 12.776 17.58h3.62L88 16.46zm47.226 4.122v-.643h-3.473l-12.56-17.99-.671-.949h-3.071l-11.073 15.664c-1.368 1.936-2.1 3.186-6.251 3.275v.643h12.5v-.643c-2.161-.097-3.415-.258-4.161-.557-.82-.329-1.006-.84-1.006-1.665 0-.22.279-.672.511-1.037.122-.19.235-.35.284-.417l.85-1.264h11.877l.205.278.479.664 2.892 3.998h-4.549v.643h17.217zm-26.18-6.264h-1.593l5.622-7.942.091.134.703.992 4.883 6.816h-9.706zm44.504 6.68c1.481 0 3.434-.11 5.474-.38 4.943-.665 10.295-2.368 10.295-6.212v-1.139h3.971v-.643h-17.756v.642h4.767v3.311c0 3.484-4.372 3.777-6.524 3.777-2.269 0-3.865-.57-4.983-1.454-1.821-1.483-2.339-3.843-2.339-6.194V8.673c0-2.412.476-4.83 3.211-6.109 1.239-.577 2.953-.92 5.306-.92 1.428 0 2.736.175 3.939.475 2.659.665 4.692 1.987 5.946 3.514.509.628.933 1.278 1.178 1.95h1.181l-.09-5.632-.018-.95h-1.582c-.169.849-1.478.956-1.872.956-2.616 0-3.968-.956-8.86-.956-8.969 0-18.281 4.098-18.281 9.863 0 1.922 1.028 3.748 2.751 5.32 2.814 2.564 7.455 4.427 12.619 4.763.548.036 1.105.052 1.667.052zm45.68-.416h9.149l.53-5.392.09-.964h-1.594c-.796 2.849-5.907 5.713-13.003 5.713h-5.343v-9.572h3.766c.856 0 1.651.08 2.335.211 1.468.278 2.52.886 3.098 1.828.264.43.415.92.464 1.504h1.468V6.24h-1.468c0 1.783-2.28 3.485-5.897 3.485h-3.766V2.061h5.402c1.331 0 2.837.065 4.321.306 2.612.41 5.174 1.33 6.634 3.193a5.742 5.742 0 011.033 2.002h1.529l-.382-5.195-.078-.957h-31.974v.65h4.773v17.88h-4.773v.643h23.686z" fill="#1B1918" stroke="#1B1918" stroke-width=".216"/></svg>