<svg xmlns="http://www.w3.org/2000/svg" width="242.988" height="76.496" viewBox="0 0 242.988 76.496"><g fill-rule="evenodd" clip-rule="evenodd"><path d="M77.895 69.296c-.093 0-.146-.004-.146-.004-2.021 0-2.859-.828-3.004-.994-.261-.293-.456-.656-.589-1.107a4.73 4.73 0 0 1-.184-1.333v-1.013h.974v1.013c0 .847.197 1.475.589 1.872.395.399 1.21.649 2.123.649h.1c.448-.011 1.481-.028 2.169-.635.193-.173.338-.438.458-.839.113-.375.173-.851.173-1.418V56.96h.962v8.767c0 .512-.06.988-.183 1.403a2.852 2.852 0 0 1-.604 1.15c-.839.942-2.38 1.016-2.838 1.016zM95.589 68.972h-8.241V56.963h8.156v.868h-7.191v4.475h6.762v.867h-6.762v4.931h7.276v.868zM111.364 68.972h-.998l-.008-.033-3.156-10.848-3.1 10.881h-.991l-.011-.033-3.449-11.976h.984l.007.032 2.991 10.693 3.033-10.725h1.089l.011.028 3.086 10.697 2.939-10.725h1.029l-3.456 12.009zM127.925 68.972h-8.224V56.963h8.142v.868h-7.175v4.475h6.776v.867h-6.776v4.931h7.257v.868zM141.067 68.972h-7.658V56.963h.967v11.141h6.691v.868zM146.296 62.753h4.076c1.08 0 2.889-.334 2.889-2.588 0-2.105-2.02-2.334-2.889-2.334h-4.076v4.922zm8.203 6.219h-1.107l-.031-.061c-.311-.554-.305-1.294-.301-2.08.008-.978.02-1.979-.6-2.571-.424-.431-1.104-.638-2.088-.638h-4.076v5.35h-.967V56.96h5.043c2.521 0 3.855 1.097 3.855 3.156 0 1.488-.793 2.609-2.137 3.025 1.803.455 1.957 2.011 1.957 3.46v.116c-.004.854-.004 1.661.289 2.057l.163.198zM163.927 68.972h-.971v-5.019l-4.818-6.99h1.123l4.197 6.14 4.217-6.14h1.076l-.047.067-4.789 6.951.012 4.991z"/></g><path d="M70.786 19.494c-.67-2.111-1.655-3.975-2.929-5.54-1.291-1.582-2.915-2.861-4.828-3.803-1.924-.933-4.151-1.406-6.621-1.406-2.485 0-4.713.473-6.622 1.406-1.93.94-3.555 2.221-4.827 3.802-1.29 1.58-2.28 3.443-2.944 5.54-.659 2.07-.993 4.301-.993 6.631 0 2.334.334 4.567.993 6.636.668 2.105 1.659 3.969 2.941 5.535 1.279 1.588 2.905 2.86 4.831 3.78 1.901.92 4.128 1.386 6.621 1.386 2.479 0 4.705-.466 6.615-1.385a14.006 14.006 0 0 0 4.834-3.778c1.27-1.556 2.255-3.419 2.929-5.539.659-2.08.993-4.312.993-6.634 0-2.319-.334-4.55-.993-6.631zM56.408 41.146c-2.026 0-3.852-.374-5.431-1.114a11.505 11.505 0 0 1-4.052-3.073c-1.104-1.326-1.968-2.921-2.568-4.743-.615-1.848-.941-3.898-.97-6.082.028-2.195.355-4.246.97-6.095.604-1.83 1.467-3.424 2.567-4.738 1.088-1.299 2.452-2.336 4.056-3.082 1.578-.738 3.405-1.112 5.428-1.112 2.006 0 3.833.375 5.427 1.112 1.595.75 2.954 1.787 4.041 3.085 1.103 1.297 1.973 2.891 2.585 4.732.604 1.874.925 3.924.954 6.08-.029 2.179-.35 4.233-.952 6.101-.61 1.835-1.48 3.43-2.589 4.742a11.556 11.556 0 0 1-4.035 3.075c-1.592.737-3.419 1.112-5.431 1.112zM138.177 19.495c-.657-2.083-1.646-3.946-2.939-5.541-1.296-1.585-2.926-2.865-4.847-3.803-1.927-.933-4.149-1.405-6.606-1.405-2.483 0-4.711.473-6.62 1.406-1.917.936-3.547 2.215-4.848 3.805-1.277 1.588-2.261 3.451-2.923 5.538-.662 2.089-.997 4.32-.997 6.63 0 2.314.335 4.546.997 6.634.661 2.089 1.645 3.952 2.925 5.54a13.936 13.936 0 0 0 4.85 3.777c1.898.919 4.124 1.386 6.616 1.386 2.468 0 4.69-.466 6.604-1.385a13.924 13.924 0 0 0 4.85-3.778c1.288-1.581 2.277-3.444 2.939-5.536.659-2.063.994-4.296.994-6.637-.001-2.339-.336-4.57-.995-6.631zm-1.372 6.619c-.027 2.194-.353 4.247-.966 6.101-.607 1.831-1.479 3.427-2.589 4.745a11.489 11.489 0 0 1-4.052 3.072c-1.592.738-3.414 1.113-5.414 1.113-2.021 0-3.847-.375-5.432-1.114a11.486 11.486 0 0 1-4.048-3.076c-1.093-1.292-1.958-2.887-2.573-4.74-.612-1.85-.937-3.9-.966-6.081.028-2.195.354-4.246.966-6.096.615-1.857 1.48-3.451 2.574-4.738a11.641 11.641 0 0 1 4.049-3.082c1.582-.738 3.409-1.112 5.43-1.112 1.997 0 3.819.375 5.414 1.112 1.609.75 2.973 1.787 4.055 3.084 1.107 1.304 1.978 2.897 2.586 4.736.613 1.853.938 3.902.966 6.076zM149.855 40.388V9.507h-2.37v33.246h20.92v-2.365zM201.803 19.494c-.659-2.082-1.647-3.945-2.939-5.541-1.293-1.582-2.918-2.861-4.833-3.802-1.907-.933-4.136-1.406-6.623-1.406-2.49 0-4.714.473-6.608 1.406-1.924.94-3.554 2.22-4.845 3.803-1.289 1.586-2.276 3.45-2.937 5.538-.663 2.075-1 4.306-1 6.631s.336 4.557.997 6.634c.669 2.106 1.657 3.97 2.939 5.539 1.299 1.592 2.93 2.863 4.845 3.776 1.884.92 4.107 1.387 6.608 1.387 2.492 0 4.72-.466 6.619-1.385a14.014 14.014 0 0 0 4.837-3.779c1.287-1.583 2.276-3.446 2.939-5.536.659-2.063.994-4.296.994-6.637.001-2.335-.334-4.566-.993-6.628zm-14.396 21.652c-2.032 0-3.854-.374-5.419-1.114a11.487 11.487 0 0 1-4.047-3.076c-1.11-1.314-1.981-2.909-2.589-4.738-.611-1.844-.937-3.895-.966-6.082.029-2.202.354-4.253.966-6.097.611-1.842 1.482-3.436 2.591-4.739 1.083-1.296 2.445-2.333 4.048-3.082 1.568-.738 3.391-1.112 5.416-1.112 2.019 0 3.852.375 5.444 1.111a11.778 11.778 0 0 1 4.031 3.085c1.096 1.293 1.965 2.887 2.582 4.736.611 1.846.936 3.895.964 6.076-.028 2.201-.354 4.254-.964 6.101-.606 1.831-1.476 3.426-2.584 4.741a11.722 11.722 0 0 1-4.025 3.076c-1.593.739-3.426 1.114-5.448 1.114zM233.676 9.508l-11.212 29.418-11.559-29.418h-2.422l13.001 33.245h1.995l12.638-33.245zM106.834 42.759L83.247 25.6l22.739-16.095h-3.872l-20.06 14.123V9.505h-2.366v33.248h2.366l-.011-15.159 21.114 15.165zM33.098 29.888a7.395 7.395 0 0 0-2.594-2.604c-1.022-.63-2.246-1.138-3.635-1.511-1.324-.362-6.938-1.755-8.244-2.054-1.247-.29-2.36-.689-3.312-1.188-.928-.482-1.686-1.113-2.248-1.869-.532-.734-.802-1.742-.802-2.995 0-1.257.269-2.312.794-3.128a6.588 6.588 0 0 1 2.15-2.021 9.392 9.392 0 0 1 3-1.094 18.67 18.67 0 0 1 3.325-.319 16.058 16.058 0 0 1 3.787.423c1.15.278 2.145.736 2.956 1.36.815.63 1.474 1.458 1.96 2.462.25.509.448 1.08.585 1.698l.087.392h2.375l-.123-.6c-.197-.963-.471-1.816-.815-2.538-.635-1.318-1.505-2.411-2.589-3.251-1.061-.805-2.32-1.399-3.743-1.768-1.384-.359-2.916-.538-4.479-.535-1.346.003-2.715.14-4.034.414-1.384.285-2.64.763-3.733 1.42-1.115.667-2.049 1.595-2.776 2.759-.725 1.167-1.092 2.623-1.092 4.326 0 1.688.356 3.091 1.058 4.166a7.739 7.739 0 0 0 2.717 2.559 14.772 14.772 0 0 0 3.63 1.42c1.36.354 6.382 1.539 7.654 1.814 1.248.267 2.406.665 3.438 1.18a6.814 6.814 0 0 1 2.406 2.019c.598.791.9 1.918.9 3.351 0 1.22-.27 2.274-.803 3.132a6.737 6.737 0 0 1-2.142 2.166 9.844 9.844 0 0 1-3.097 1.265 15.63 15.63 0 0 1-3.543.406c-1.625 0-3.125-.179-4.458-.53-1.299-.346-2.44-.905-3.386-1.66-.915-.746-1.641-1.739-2.159-2.95-.316-.74-.542-1.647-.672-2.693l-.054-.438H8.996l.056.551c.137 1.34.42 2.518.841 3.501.653 1.526 1.59 2.792 2.783 3.762 1.185.969 2.611 1.686 4.241 2.131 1.56.425 3.31.641 5.201.641 1.391 0 2.808-.161 4.214-.479a12.01 12.01 0 0 0 3.848-1.619 9.143 9.143 0 0 0 2.799-2.877c.725-1.187 1.093-2.621 1.093-4.262 0-1.787-.328-3.245-.974-4.335z"/></svg>