<?xml version="1.0" encoding="utf-8"?>
<!-- Generator: Adobe Illustrator 24.0.2, SVG Export Plug-In . SVG Version: 6.00 Build 0)  -->
<svg version="1.1" id="Layer_1" xmlns="http://www.w3.org/2000/svg" xmlns:xlink="http://www.w3.org/1999/xlink" x="0px" y="0px"
	 viewBox="0 0 687.3 139.7" style="enable-background:new 0 0 687.3 139.7;" xml:space="preserve">
<path d="M78.2,23.1l-8.7,4.5c-0.9,0.5-2,0.1-2.4-0.8L57,7.1c-0.5-0.9-0.1-2,0.8-2.4l8.7-4.5c0.9-0.5,2-0.1,2.4,0.8L79,20.6
	C79.5,21.5,79.1,22.6,78.2,23.1z M46.6,122.5c1-2,1.7-4.7,1.9-6.9c0,0,1.2-13.3,1.3-17.7c0.1-3-2.7-10-4.1-13.2
	c-2.8-6.5-8.3-7.5-16.6-11.2C24.7,71.6,14,67.6,14,67.6c-2.1-0.8-2.8-2.8-2-4.9c0.8-2.1,3.3-2.8,5.4-2.1c5.9,2,11.2,4.4,21.2,8.2
	c6.5,2.5,9.4,0.8,13.8-1.6c3.1-1.7,6.3-2.9,7.1-8.4c0.5-3.3,2.4-18.9,3-23.5c0-0.2-0.1-0.4-0.3-0.4c-3-0.5-6.2-0.8-9.4-0.8
	C23.6,34.1,0,57.7,0,86.9c0,24.2,16.3,44.6,38.6,50.8c0.3,0.1,0.7-0.1,0.8-0.4L46.6,122.5z M105.5,89.1c-1.1,27.4-23.6,49.6-51,50.5
	c-2.1,0.1-4.2,0-6.3-0.2c-0.4,0-0.6-0.5-0.4-0.8l7.4-13.2c1.1-1.9,1.8-3.9,2.1-6c0.4-2.9,1.5-11.3,1.5-11.3c0.2-2.2,1.3-4.5,3.4-5.2
	l3.7-1c2.1-0.7,3.7,0,4.8,1.9c0.7,1.3,2.6,5.2,3.4,6.7c0.5,1,0.3,2-0.2,2.6c-2.7,3.1-4.4,4.9-6.7,7.5c-1.5,1.8-2.8,4.4-0.2,6.7
	c2.5,2.2,5-0.1,6.5-1.6c2-1.9,5-5.6,6.8-7.7c1.7-1.9,2.6-3.3,2.8-5.6c0.1-1,0-1.9-0.3-3c-0.7-2.3-6.3-15.6-10.2-26.1
	c-3.4-9.1-5.1-18.5-4-28.2l1.8-17.6c0-0.2,0.3-0.4,0.5-0.3C91.8,44.8,106.5,65.3,105.5,89.1z M33.7,53.7c-0.5-5.6,3.5-10.5,9.1-11.1
	c5.6-0.5,10.5,3.5,11.1,9.1c0.5,5.6-3.5,10.5-9.1,11.1C39.2,63.4,34.3,59.3,33.7,53.7z"/>
<path d="M649.6,50.4c-20.9,0-37.7,14.6-37.7,36.9c0,22.4,16.8,37,37.7,37c20.9,0,37.7-14.6,37.7-37C687.3,65,670.5,50.4,649.6,50.4z
	 M649.6,105.3c-10.1,0-17.3-7.1-17.3-17.9s7.2-17.9,17.3-17.9c10.1,0,17.3,7.1,17.3,17.9S659.7,105.3,649.6,105.3z M494.9,50.4
	c-20.9,0-37.7,14.6-37.7,36.9c0,22.4,16.8,37,37.7,37c20.9,0,37.7-14.6,37.7-37C532.6,65,515.8,50.4,494.9,50.4z M494.9,105.3
	c-10.1,0-17.3-7.1-17.3-17.9s7.2-17.9,17.3-17.9c10.1,0,17.3,7.1,17.3,17.9S505,105.3,494.9,105.3z M384.9,51.8h53.9V123h-20.3V70.3
	h-16l-1.7,24.2c-1.4,14.7-1.8,28.5-22.5,28.5h-9l2.5-17.3C383.4,105.6,382.2,103.3,384.9,51.8z M322.3,50.4
	c-20.9,0-37.7,14.6-37.7,36.9c0,22.4,16.8,37,37.7,37c20.9,0,37.7-14.6,37.7-37C360,65,343.2,50.4,322.3,50.4z M322.3,105.3
	c-10.1,0-17.3-7.1-17.3-17.9s7.2-17.9,17.3-17.9c10.1,0,17.3,7.1,17.3,17.9S332.4,105.3,322.3,105.3z M158.2,86.5
	c0,15.2,10.1,17,21.3,17c6.2,0,12.8-1.2,17.9-2.6l0.3,18.9c-6.6,2.3-14.7,3.6-22.7,3.6c-20.6,0-38-10.8-38-36.3
	c0-21.2,14-36.6,38-36.6c8.3,0,17.1,1.7,24.2,5.4l-6.8,17.4c-4.7-1.7-11.1-2.9-16.7-2.9C163.9,70.4,158.2,75.8,158.2,86.5z
	 M214.1,51.8h61.6l-3.8,18.5h-17.9V123h-20.3V70.3h-19.7V51.8z M604.1,51.8l-3.8,18.5h-17.9V123h-20.4V70.3h-17.9l-3.8-18.5H604.1z"
	/>
</svg>
