<?xml version="1.0" encoding="UTF-8"?>
<!DOCTYPE svg PUBLIC "-//W3C//DTD SVG 1.1//EN" "http://www.w3.org/Graphics/SVG/1.1/DTD/svg11.dtd">
<!-- Creator: CorelDRAW 2019 (64-Bit) -->
<svg xmlns="http://www.w3.org/2000/svg" xml:space="preserve" width="78.43mm" height="10.762mm" version="1.1" style="shape-rendering:geometricPrecision; text-rendering:geometricPrecision; image-rendering:optimizeQuality; fill-rule:evenodd; clip-rule:evenodd"
viewBox="0 0 7843 1076.2"
 xmlns:xlink="http://www.w3.org/1999/xlink">
 <defs>
  <style type="text/css">
   <![CDATA[
    .fil1 {fill:#2B2A29}
    .fil0 {fill:#2B2A29;fill-rule:nonzero}
   ]]>
  </style>
 </defs>
 <g id="Слой_x0020_1">
  <metadata id="CorelCorpID_0Corel-Layer"/>
  <g id="_1732551382192">
   <g id="_2148068346992">
    <path class="fil0" d="M490.44 734.06l-41.4 0 0 -164.45 -198.96 0 -127.64 164.45 -57.5 0 135.7 -164.45c-39.48,0 -69.29,-9.1 -89.41,-27.32 -20.13,-18.2 -30.19,-46.08 -30.19,-83.66 0,-44.47 10.93,-76.08 32.78,-94.86 21.84,-18.8 57.69,-28.18 107.52,-28.18l269.1 0 0 398.47zm-41.4 -204.7l0 -153.53 -244.38 0c-29.9,0 -51.07,6.04 -63.54,18.12 -12.45,12.07 -18.68,33.63 -18.68,64.68 0,28.76 6.04,47.73 18.12,56.94 12.07,9.19 34.78,13.79 68.12,13.79l240.36 0zm633.55 -193.77l-167.9 169.05 -167.9 -169.05 -52.33 0 184.58 187.44 -211.61 211.61 55.21 0 192.05 -192.06 192.04 192.06 55.21 0 -211.61 -211.61 187.45 -187.44 -55.19 0zm628.37 134.54c0,-39.48 -7,-65.83 -20.99,-79.06 -14,-13.22 -41.3,-19.84 -81.94,-19.84l-174.8 0c-38.72,0 -66.12,7 -82.22,20.99 -16.1,14 -24.16,39.96 -24.16,77.91l0 127.66c0,37.95 7.67,63.54 23.01,76.76 15.33,13.23 43.12,19.83 83.37,19.83l174.8 0c41.78,0 69.38,-6.33 82.8,-18.97 13.42,-12.64 20.13,-38.53 20.13,-77.62l0 -127.66zm41.39 127.66c0,55.19 -10.72,92.18 -32.2,110.96 -19.54,17.26 -56.72,25.89 -111.54,25.89l-174.8 0c-54.43,0 -92.77,-10.06 -115,-30.2 -22.23,-20.12 -33.36,-55.67 -33.36,-106.65l0 -124.21c0,-51.75 10.84,-88.45 32.49,-110.1 21.67,-21.67 60.28,-32.49 115.87,-32.49l174.8 0c51.36,0 87.4,9.2 108.1,27.59 23.77,21.09 35.64,59.42 35.64,115l0 124.21zm198.27 136.85l0 -399.05 41.4 0 0 172.5 354.21 0 0 -172.5 41.4 0 0 399.05 -41.4 0 0 -185.16 -354.21 0 0 185.16 -41.4 0zm622.63 -399.05l430.1 0 0 40.24 -194.92 0 0 358.81 -41.4 0 0 -358.81 -193.78 0 0 -40.24z"/>
    <polygon class="fil1" points="4531.87,836.21 7611.88,836.21 7611.88,877.17 4531.87,877.17 "/>
    <polygon class="fil1" points="-7.14,836.21 3022.26,836.21 3022.26,877.17 -7.14,877.17 "/>
    <path class="fil0" d="M4962.42 319.19l-175.95 175.94 -175.95 -175.94 -54.62 0 208.14 208.72 0 190.9 44.85 0 0 -190.9 208.16 -208.72 -54.63 0zm59.33 401.6l-46.01 0 207.01 -399.06 63.25 0 207.01 399.06 -48.3 0 -51.19 -100.05 -280.6 0 -51.17 100.05zm73.6 -140.3l236.91 0 -118.46 -230 -118.45 230zm436.69 138.32l0 -399.06 41.38 0 0 172.5 354.21 0 0 -172.5 41.4 0 0 399.06 -41.4 0 0 -185.15 -354.21 0 0 185.15 -41.38 0zm951.36 -264.5c0,-39.48 -6.99,-65.84 -20.99,-79.06 -13.99,-13.23 -41.35,-19.84 -81.94,-19.84l-174.8 0c-38.67,0 -66.14,7 -82.23,20.99 -16.08,13.97 -24.15,40.02 -24.15,77.91l0 127.66c0,37.89 7.68,63.54 22.99,76.75 15.33,13.22 43.13,19.84 83.39,19.84l174.8 0c41.78,0 69.4,-6.34 82.81,-18.97 13.39,-12.63 20.12,-38.53 20.12,-77.62l0 -127.66zm41.4 127.66c0,55.13 -10.74,92.18 -32.2,110.96 -19.55,17.26 -56.78,25.88 -111.56,25.88l-174.79 0c-54.39,0 -92.78,-10.07 -115,-30.19 -22.23,-20.11 -33.36,-55.68 -33.36,-106.65l0 -124.21c0,-51.75 10.84,-88.48 32.48,-110.12 21.66,-21.64 60.3,-32.49 115.88,-32.49l174.79 0c51.38,0 87.41,9.2 108.11,27.61 23.77,21.07 35.65,59.46 35.65,115l0 124.21zm106.47 136.84l0 -399.06 92.01 0 307.06 357.66 0 -357.66 41.4 0 0 399.06 -59.81 0 -316.26 -368.01 -22.99 0 0 368.01 -41.41 0zm522.73 -401.03l430.11 0 0 40.25 -194.93 0 0 358.81 -41.4 0 0 -358.81 -193.78 0 0 -40.25z"/>
    <path class="fil0" d="M3806.6 967.57l0 76.47c25.75,-0.68 51.03,-3.3 75.68,-7.71 20.16,-3.59 39.9,-8.4 59.15,-14.32l-134.83 -54.44zm-21.48 76.61l0 -82.15 -151.91 56.52c20.87,6.93 42.37,12.56 64.4,16.74 28.33,5.41 57.57,8.45 87.51,8.89zm370.76 -857.38l-58 58 147.11 67.32c-10.01,-19.92 -21.28,-39.1 -33.75,-57.43 -16.39,-24.1 -34.93,-46.82 -55.36,-67.89zm-69.4 39.01l54.12 -54.11c-18.45,-17.5 -38.18,-33.6 -59.05,-48.13 -16.64,-11.61 -34.01,-22.24 -51.99,-31.8l56.92 134.04zm-589.69 620.08l-55.8 55.8c19.6,18.99 40.7,36.39 63.07,51.99 16.65,11.61 34.01,22.22 52,31.78l-59.27 -139.57zm-70.9 40.53l56.43 -56.43 -141.67 -64.85c10.01,19.92 21.3,39.1 33.76,57.43 15.34,22.58 32.57,43.93 51.48,63.85zm22.27 -717.68l55.21 55.22 62.94 -137.51c-19.92,10 -39.1,21.29 -57.43,33.74 -21.39,14.56 -41.69,30.81 -60.72,48.55zm41.67 72.05l-57.08 -57.06c-20.16,20.46 -38.58,42.59 -55,66.14 -11.6,16.65 -22.22,34.02 -31.78,52.01l143.86 -61.09zm620.06 589.69l52.81 52.79c16.34,-17.53 31.46,-36.22 45.17,-55.89 11.61,-16.66 22.22,-34.01 31.78,-52l-129.76 55.1zm37.83 68.2l-59.15 -59.14 -0.01 0.01 -69.22 151.25c19.91,-10.01 39.09,-21.3 57.42,-33.76 25.27,-17.18 49.03,-36.75 70.96,-58.36zm-860.2 -377.79l78.16 0 -52.78 -141.87c-6.93,20.87 -12.56,42.37 -16.76,64.38 -4.79,25.17 -7.72,51.05 -8.62,77.49zm80.42 21.48l-80.71 0c0.2,29.23 2.9,57.86 7.89,85.71 3.59,20.16 8.4,39.91 14.31,59.16l58.51 -144.87zm855.41 -21.48l74.81 0c-0.85,-24.28 -3.44,-48.25 -7.64,-71.75 -3.59,-20.15 -8.4,-39.88 -14.32,-59.13l-52.85 130.88zm75.06 21.48l-83.67 0 58 155.87c6.93,-20.88 12.54,-42.38 16.76,-64.4 5.62,-29.57 8.69,-60.14 8.91,-91.47zm-491.81 -509.17l0 79.77 145.84 -54.27c-20.87,-6.94 -42.37,-12.55 -64.39,-16.75 -26.41,-5.03 -53.62,-8.01 -81.45,-8.75zm-21.48 78.95l0 -79.11c-27.73,0.41 -55.05,3.11 -81.78,7.88 -0.32,0.05 -0.62,0.09 -0.92,0.12 -19.78,3.58 -39.22,8.33 -58.25,14.21l140.95 56.9zm505.03 220.8c3.6,2.46 5.34,6.9 4.42,11.12 11.63,29.98 20.66,61.22 26.78,93.42 6.16,32.31 9.41,65.72 9.49,99.94 0.05,0.37 0.06,0.76 0.06,1.16l0 0.04 0 0.01 -0.01 0.58c-0.05,36.39 -3.74,72.08 -10.76,106.7 -6.93,34.27 -17.13,67.35 -30.22,98.89 0.85,4.32 -1.08,8.75 -4.77,11.08 -13.19,29.86 -29.03,58.29 -47.17,84.99 -19.2,28.21 -40.88,54.4 -64.69,78.23 -25.36,25.34 -53.3,48.22 -83.42,68.19 -28.66,19.02 -59.25,35.35 -91.37,48.64 -2.45,3.62 -6.89,5.37 -11.13,4.44 -29.97,11.64 -61.22,20.66 -93.41,26.78 -32.3,6.16 -65.7,9.41 -99.9,9.49 -0.39,0.05 -0.79,0.07 -1.19,0.07l-0.04 0 -0.03 0c-0.4,0 -0.79,-0.02 -1.19,-0.07 -36.3,-0.08 -71.79,-3.77 -106.07,-10.71 -34.27,-6.93 -67.37,-17.12 -98.89,-30.22 -4.32,0.85 -8.75,-1.07 -11.08,-4.76 -29.86,-13.2 -58.29,-29.02 -84.99,-47.18 -28.22,-19.2 -54.43,-40.88 -78.23,-64.69 -25.35,-25.36 -48.22,-53.3 -68.21,-83.42 -19,-28.66 -35.33,-59.24 -48.63,-91.36 -3.63,-2.46 -5.37,-6.9 -4.44,-11.15 -11.63,-29.97 -20.66,-61.21 -26.79,-93.4 -6.15,-32.3 -9.41,-65.7 -9.48,-99.9 -0.04,-0.39 -0.06,-0.79 -0.06,-1.19l0 -0.04 0 -0.03c0,-0.4 0.02,-0.8 0.06,-1.19 0.09,-36.31 3.76,-71.79 10.71,-106.08 6.93,-34.27 17.13,-67.36 30.23,-98.91 -0.85,-4.31 1.07,-8.72 4.75,-11.05 13.21,-29.86 29.03,-58.29 47.18,-84.99 19.21,-28.23 40.89,-54.42 64.68,-78.23 25.36,-25.35 53.32,-48.22 83.44,-68.21 28.66,-19.01 59.24,-35.34 91.36,-48.64 2.46,-3.62 6.89,-5.36 11.14,-4.43 29.97,-11.64 61.2,-20.66 93.38,-26.78 32.33,-6.15 65.74,-9.42 99.96,-9.48 0.38,-0.05 0.76,-0.07 1.16,-0.07l0.04 0 0.01 0 0.58 0.01c36.39,0.04 72.07,3.75 106.69,10.75 34.28,6.94 67.38,17.14 98.91,30.24 4.31,-0.85 8.73,1.06 11.07,4.76 29.86,13.19 58.29,29.02 84.97,47.17 28.23,19.19 54.43,40.89 78.24,64.7 25.35,25.34 48.23,53.3 68.21,83.42 19.01,28.66 35.34,59.24 48.65,91.36zm-465.38 -192.19l106.79 76.68 123.87 18.24 -66.27 -156.07 -164.39 61.15zm272.01 139.14l21.29 129.83 74.65 100.42 63.52 -157.27 -159.46 -72.98zm93.91 290.68l-76.68 106.79 -18.25 123.89 156.08 -66.29 -61.15 -164.39zm-139.14 272l-129.84 21.32 -100.42 74.63 157.27 63.52 72.99 -159.47zm-290.69 93.92l-106.8 -76.68 -123.87 -18.25 66.29 156.08 164.38 -61.15zm-272 -139.14l-21.31 -129.83 -74.64 -100.42 -63.51 157.26 159.46 72.99zm-93.93 -290.69l76.7 -106.8 18.24 -123.87 -156.07 66.29 61.13 164.38zm139.16 -272l129.83 -21.31 100.42 -74.63 -157.26 -63.52 -72.99 159.46zm435.96 21.25l57.65 61.1 51.23 54.28 -16.71 -101.81 -92.17 -13.57zm147.97 208.03l-2.45 84.01 -2.15 74.72 60.22 -83.88 -55.62 -74.85zm-42.49 251.91l-61.11 57.66 -54.27 51.22 101.81 -16.71 13.57 -92.17zm-208.05 147.96l-84 -2.44 -74.72 -2.15 83.88 60.22 74.84 -55.63zm-251.9 -42.48l-57.65 -61.1 -51.23 -54.28 16.72 101.81 92.16 13.57zm-147.96 -208.03l2.43 -84.02 2.16 -74.71 -60.23 83.87 55.64 74.86zm42.49 -251.92l61.1 -57.65 54.28 -51.22 -101.81 16.71 -13.57 92.16zm208.03 -147.96l84.01 2.45 74.72 2.15 -83.89 -60.22 -74.84 55.62zm285.94 125.81l-82.59 -87.52 -120.24 -3.48 -120.28 -3.5 -87.54 82.63 -87.52 82.58 -3.48 120.24 -3.5 120.28 82.61 87.55 82.6 87.52 120.24 3.47 120.29 3.49 87.54 -82.61 87.52 -82.59 3.47 -120.24 3.49 -120.28 -82.61 -87.54z"/>
    <g>
     <path class="fil0" d="M7719.03 401.05l0 -87.23 33.54 0c7.78,0 13.69,0.79 17.73,2.35 4.03,1.58 7.28,4.33 9.7,8.29 2.43,3.98 3.62,8.37 3.62,13.16 0,6.19 -2.01,11.39 -6.01,15.64 -4.01,4.25 -10.2,6.94 -18.56,8.1 3.06,1.47 5.37,2.9 6.96,4.35 3.37,3.09 6.61,6.93 9.58,11.6l15.17 23.74 -14.52 0 -11.53 -18.16c-3.33,-5.25 -6.16,-9.23 -8.34,-12.01 -2.19,-2.76 -4.14,-4.72 -5.85,-5.82 -1.74,-1.11 -3.47,-1.93 -5.26,-2.33 -1.32,-0.3 -3.46,-0.42 -6.44,-0.42l-8.25 0 0 38.74 -11.54 0zm11.54 -48.73l19.69 0c5.25,0 9.4,-0.55 12.35,-1.64 2.99,-1.09 5.25,-2.85 6.79,-5.24 1.55,-2.39 2.32,-4.99 2.32,-7.82 0,-4.12 -1.49,-7.5 -4.49,-10.17 -2.99,-2.65 -7.71,-3.98 -14.19,-3.98l-22.47 0 0 28.85z"/>
     <path class="fil0" d="M7754.9 276.46c22.36,0 42.61,9.06 57.25,23.71 14.66,14.66 23.73,34.91 23.73,57.27 0,22.36 -9.07,42.6 -23.73,57.25 -14.64,14.66 -34.89,23.73 -57.25,23.73 -22.36,0 -42.6,-9.07 -57.26,-23.73 -14.65,-14.65 -23.72,-34.89 -23.72,-57.25 0,-22.36 9.07,-42.61 23.72,-57.27 14.66,-14.65 34.9,-23.71 57.26,-23.71zm47.39 33.59c-12.14,-12.13 -28.89,-19.63 -47.39,-19.63 -18.5,0 -35.26,7.5 -47.38,19.63 -12.14,12.12 -19.64,28.88 -19.64,47.39 0,18.5 7.5,35.25 19.64,47.38 12.12,12.13 28.88,19.62 47.38,19.62 18.5,0 35.25,-7.49 47.39,-19.62 12.13,-12.13 19.63,-28.88 19.63,-47.38 0,-18.51 -7.5,-35.27 -19.63,-47.39z"/>
    </g>
   </g>
  </g>
 </g>
</svg>
