<svg width="25" height="37" fill="none" xmlns="http://www.w3.org/2000/svg"><path fill-rule="evenodd" clip-rule="evenodd" d="M18.146 0c.785 0 1.42.642 1.42 1.437v1.414a7.185 7.185 0 01-2.033 5.04 6.885 6.885 0 01-3.374 1.92l-.13.03v3.653l.13.028a6.877 6.877 0 013.378 1.922 7.185 7.185 0 012.029 5.035v1.416a1.43 1.43 0 01-1.42 1.44 1.432 1.432 0 01-1.423-1.44V20.48a4.307 4.307 0 00-1.216-3.02 4.048 4.048 0 00-2.898-1.244 4.063 4.063 0 00-2.901 1.244 4.317 4.317 0 00-1.213 3.02v1.416c0 .792-.638 1.44-1.42 1.44a1.437 1.437 0 01-1.426-1.44V20.48c0-1.897.723-3.689 2.033-5.035a6.853 6.853 0 013.371-1.922l.134-.028V9.841l-.134-.03A6.878 6.878 0 017.68 7.89a7.192 7.192 0 01-2.033-5.04V1.437A1.435 1.435 0 017.075 0c.783 0 1.42.642 1.42 1.437v1.414a4.33 4.33 0 001.213 3.025 4.054 4.054 0 002.903 1.24 4.044 4.044 0 002.896-1.24 4.32 4.32 0 001.216-3.024V1.437c0-.795.634-1.437 1.423-1.437zm-5.538 17.6c-1.52 0-2.75 1.246-2.75 2.781 0 1.538 1.23 2.782 2.75 2.782 1.519 0 2.751-1.244 2.751-2.782 0-1.535-1.233-2.781-2.75-2.781zm12.345 17.77a.652.652 0 01-.34.84.645.645 0 01-.835-.345l-.5-1.23h-2.806l-.498 1.23a.65.65 0 01-.831.345.649.649 0 01-.344-.84l2.476-6.049c.15-.359.411-.44.6-.44.268 0 .487.153.6.442l2.479 6.048zm-2.194-2.014l-.884-2.156-.879 2.156h1.763zm-9.823-.718c0 1.857-1.006 3.726-3.254 3.726h-.014c-1.063 0-1.94-.378-2.53-1.095-.538-.658-.825-1.57-.822-2.657.007-2.332 1.327-3.844 3.365-3.844 2.04.01 3.255 1.454 3.255 3.87zm-1.341 0c0-1.666-.64-2.51-1.909-2.516-1.762 0-2.025 1.568-2.035 2.495-.002.762.176 1.38.513 1.785.336.4.843.61 1.507.612h.011c1.408 0 1.913-1.227 1.913-2.376zm6.77-3.748h-4.3a.65.65 0 00-.646.656c0 .36.288.655.646.655h1.492v5.389c0 .36.291.657.654.657.177 0 .339-.07.458-.193a.635.635 0 00.195-.464l-.003-5.389h1.504a.653.653 0 00.649-.654.653.653 0 00-.649-.658zm-13 .083a.649.649 0 00-.888.243L2.845 32.07l-1.63-2.854a.648.648 0 00-.89-.243.662.662 0 00-.237.9l2.106 3.68v2.058c0 .361.293.657.649.657.36 0 .653-.296.653-.657v-2.057l2.102-3.682a.656.656 0 00-.233-.899z" fill="#00AEEF"/></svg>