<?xml version="1.0" encoding="UTF-8" standalone="no"?>
<!DOCTYPE svg PUBLIC "-//W3C//DTD SVG 1.1//EN" "http://www.w3.org/Graphics/SVG/1.1/DTD/svg11.dtd">
<svg width="100%" height="100%" viewBox="0 0 120 60" version="1.1" xmlns="http://www.w3.org/2000/svg" xmlns:xlink="http://www.w3.org/1999/xlink" xml:space="preserve" xmlns:serif="http://www.serif.com/" style="fill-rule:evenodd;clip-rule:evenodd;stroke-linejoin:round;stroke-miterlimit:2;">
    <g id="Слой_2" transform="matrix(1.12187,0,0,1.12187,2.47689,13.1719)">
        <path d="M0.352,29.482L15.084,29.466L15.076,14.881C12.01,20.698 6.26,24.483 0.359,25.93C0.376,27.032 0.352,29.482 0.352,29.482" style="fill:rgb(0,143,180);fill-rule:nonzero;"/>
        <path d="M5.062,22.14C10.622,19.332 13.303,14.196 13.303,14.196C13.303,14.196 13.284,12.51 13.284,12.474C10.22,11.398 7.443,9.822 5.068,7.462C5.08,11.464 5.062,22.14 5.062,22.14" style="fill:rgb(0,143,180);fill-rule:nonzero;"/>
        <path d="M5.855,0.07C5.855,0.07 5.854,4.53 5.848,5.642C7.308,6.999 8.042,7.634 9.561,8.604L9.573,2.626C7.837,1.672 7.168,1.165 5.855,0.07" style="fill:rgb(0,143,180);fill-rule:nonzero;"/>
        <path d="M27.711,4.77C27.586,3.973 27.136,3.441 26.377,3.188C26.015,3.068 25.598,2.995 25.099,2.966C24.795,2.948 24.491,2.971 24.197,2.993C24.157,2.997 24.117,2.999 24.078,3.003L24.078,1.256L25.496,1.262L27.064,1.486L27.124,0.067L22.279,0.067L22.472,1.838L22.49,5.801L22.267,7.681L22.548,7.679C22.549,7.678 23.212,7.672 23.526,7.68C23.696,7.684 23.866,7.694 24.035,7.702C24.271,7.715 24.513,7.727 24.755,7.727C24.811,7.727 24.867,7.727 24.922,7.725C25.835,7.701 26.531,7.475 27.05,7.037C27.856,6.355 27.813,5.416 27.711,4.77M26.134,5.158C26.134,5.324 26.122,5.469 26.1,5.6C26.037,5.963 25.848,6.213 25.537,6.344C25.127,6.519 24.68,6.566 24.072,6.495L24.072,4.233C24.624,4.159 25.161,4.14 25.664,4.395C25.981,4.556 26.135,4.806 26.134,5.158" style="fill:rgb(25,22,70);fill-rule:nonzero;"/>
        <path d="M32.526,0.941L32.293,0L30.697,0.02L30.513,0.847L28.585,5.844L27.743,7.636L29.418,7.662L29.709,6.297L30.11,5.257L32.514,5.252L33.065,6.578L33.359,7.644L35.522,7.646L34.784,6.377L32.526,0.941ZM32.056,4.098C31.804,4.101 31.547,4.108 31.289,4.114C31.037,4.12 30.784,4.126 30.535,4.129C30.681,3.766 30.835,3.402 30.989,3.04C31.104,2.768 31.219,2.498 31.329,2.23L32.056,4.098Z" style="fill:rgb(25,22,70);fill-rule:nonzero;"/>
        <path d="M48.014,7.656L50.217,7.633L46.712,3.666L49.998,0.046L48.065,0.06L47.487,0.869C47.487,0.869 46.005,2.497 45.202,3.385L45.203,1.414L45.43,0.066L43.405,0.066L43.528,1.396L43.557,6.081L43.403,7.642L45.424,7.642L45.201,6.093L45.202,4.229L48.014,7.656Z" style="fill:rgb(25,22,70);fill-rule:nonzero;"/>
        <path d="M42.028,5.377C42.024,4.868 42.05,1.447 42.048,1.447L42.227,0.084L40.227,0.084L40.39,1.402C40.39,1.402 40.395,2.404 40.396,2.998L37.568,2.998C37.553,2.137 37.557,1.254 37.776,0.395L37.854,0.087L35.773,0.087L35.808,0.364C35.82,0.463 35.939,1.519 35.954,2.006C35.984,3.029 35.975,4.072 35.966,5.081L35.964,5.306C35.961,5.739 35.864,7.058 35.818,7.293L35.761,7.587L37.767,7.587L37.735,7.312C37.715,7.136 37.693,6.962 37.671,6.787C37.62,6.393 37.573,6.022 37.551,5.643C37.53,5.263 37.534,4.87 37.54,4.489C37.541,4.398 37.542,4.309 37.543,4.218L40.421,4.218C40.421,4.407 40.424,4.596 40.427,4.784C40.439,5.649 40.451,6.466 40.229,7.277L40.144,7.588L42.245,7.588L42.189,7.295C42.055,6.6 42.033,5.905 42.028,5.377" style="fill:rgb(25,22,70);fill-rule:nonzero;"/>
        <path d="M67.234,11.4L67.293,11.1L63.005,11.1L63.04,11.382C63.194,12.668 63.304,13.875 63.375,15.07C63.426,15.929 63.414,16.813 63.402,17.668C63.397,17.972 63.393,18.276 63.391,18.582L55.37,18.582C55.326,16.227 55.304,13.799 55.908,11.419L55.987,11.106L51.57,11.106L51.606,11.39C51.609,11.415 51.94,14.281 51.981,15.642C52.061,18.263 52.038,20.933 52.016,23.516L52.011,24.129C52.001,25.254 51.746,28.686 51.627,29.301L51.569,29.6L55.825,29.6L55.793,29.32C55.742,28.873 55.686,28.43 55.629,27.987C55.504,27.011 55.375,26.001 55.32,25.013C55.263,24.023 55.277,23.006 55.29,22.025C55.295,21.666 55.3,21.308 55.301,20.949L63.454,20.949C63.449,21.563 63.459,22.18 63.467,22.78C63.499,25.029 63.53,27.153 62.945,29.287L62.857,29.606L67.29,29.606L67.233,29.307C66.885,27.488 66.827,25.68 66.815,24.309C66.803,22.941 66.816,16.885 66.872,15.211C66.927,13.604 67.045,12.357 67.234,11.4" style="fill:rgb(25,22,70);fill-rule:nonzero;"/>
        <path d="M41.072,27.344L41.072,20.788C43.121,20.846 47.028,21.155 47.069,21.158L47.34,21.179L47.351,18.171L41.071,18.527L41.071,13.361C42.946,13.339 46.447,13.321 48.269,13.885L48.554,13.973L48.593,13.678C48.72,12.727 48.632,11.401 48.628,11.345L48.612,11.112L37.277,11.112L37.322,11.401C37.701,13.83 37.677,16.294 37.654,18.676C37.649,19.227 37.643,19.78 37.643,20.334C37.674,23.859 37.289,29.263 37.285,29.317L37.267,29.585L48.535,29.64L48.543,29.395C48.561,28.795 48.614,27.188 48.641,26.954L48.68,26.61L48.34,26.678C46.099,27.135 43.978,27.33 41.072,27.344" style="fill:rgb(25,22,70);fill-rule:nonzero;"/>
        <path d="M31.445,19.237C31.444,19.237 31.442,19.236 31.441,19.235C31.496,19.203 31.547,19.171 31.597,19.137C32.614,18.443 33.791,17.424 33.861,15.688C33.959,13.284 32.648,11.589 30.265,11.036C28.207,10.559 26.088,10.635 23.787,11.266L23.757,11.275C22.642,11.581 22.452,11.681 22.486,11.945C22.549,12.43 22.645,12.977 22.738,13.506C22.806,13.894 22.875,14.285 22.933,14.662C22.954,14.801 23.051,14.915 23.187,14.958C23.321,14.999 23.465,14.962 23.562,14.86L23.705,14.708C24.783,13.572 26.192,13.034 27.99,13.072C29.132,13.094 30.081,13.816 30.299,14.826C30.597,16.221 30.093,17.431 29.015,17.91C28.498,18.138 27.897,18.313 27.176,18.441C26.478,18.566 25.095,18.657 25.081,18.658L24.835,18.675L24.938,21.03L25.187,21.021C25.199,21.021 26.428,20.981 27.456,20.981L27.458,20.981C27.922,20.981 29.409,21.082 30.167,21.536C30.838,21.939 31.32,22.594 31.455,23.292C31.659,24.34 31.838,26.844 29.107,27.441C26.745,27.957 24.821,27.438 23.389,25.897C23.266,25.765 23.143,25.633 22.999,25.481L22.848,25.321C22.757,25.225 22.624,25.192 22.499,25.232C22.374,25.273 22.287,25.379 22.271,25.509L22.2,26.085C22.131,26.65 22.067,27.183 21.982,27.707C21.91,28.161 22.061,28.454 22.492,28.69C24.086,29.561 25.841,30 27.721,30C28.081,30 28.444,29.985 28.812,29.952C30.325,29.821 31.712,29.268 32.824,28.355C34.444,27.026 35.18,25.412 35.009,23.561C34.814,21.45 33.615,19.995 31.445,19.237" style="fill:rgb(25,22,70);fill-rule:nonzero;"/>
        <path d="M85.456,21.537C85.458,21.144 85.459,20.753 85.459,20.365C85.459,20.003 85.457,19.64 85.456,19.276C85.445,16.656 85.433,13.948 85.901,11.404L85.956,11.108L81.538,11.108L81.595,11.405C81.743,12.194 81.872,13.033 81.976,13.899C82.008,14.166 81.973,14.3 81.833,14.449C80.429,15.952 79.056,17.481 77.728,18.959C76.516,20.31 75.263,21.703 73.989,23.076C74.018,21.918 73.995,20.762 73.972,19.639C73.916,16.805 73.862,14.128 74.562,11.434L74.644,11.119L70.116,11.119L70.216,11.443C70.639,12.82 70.641,14.174 70.642,15.606L70.646,16.984C70.654,19.392 70.663,21.881 70.64,24.328C70.636,24.696 70.646,25.068 70.655,25.429C70.673,26.104 70.69,26.803 70.62,27.479C70.578,27.887 70.484,28.287 70.384,28.712C70.339,28.907 70.293,29.103 70.252,29.301L70.189,29.603L74.546,29.603L74.5,29.313C74.406,28.713 74.342,28.115 74.28,27.535C74.244,27.198 74.209,26.862 74.167,26.526C74.15,26.389 74.214,26.179 74.301,26.085C75.544,24.738 76.77,23.374 77.955,22.054C79.299,20.557 80.689,19.01 82.105,17.488C82.106,17.643 82.106,17.797 82.106,17.948C82.108,18.664 82.11,19.344 82.102,20.023C82.093,20.842 82.103,21.674 82.112,22.478C82.127,23.714 82.142,24.993 82.087,26.246C82.056,26.941 81.938,27.62 81.815,28.34C81.758,28.663 81.703,28.987 81.655,29.313L81.613,29.601L85.957,29.601L85.9,29.303C85.438,26.862 85.448,24.155 85.456,21.537" style="fill:rgb(25,22,70);fill-rule:nonzero;"/>
        <path d="M96.607,13.57C96.607,13.534 96.611,13.478 96.617,13.415L102.197,14.133L101.84,11.075L87.889,11.075L87.58,14.132L93.555,13.412L93.555,13.738C93.555,16.05 93.551,24.661 93.55,25.082L92.974,29.598L97.204,29.598L96.675,25.162C96.675,25.085 96.621,17.389 96.607,13.57" style="fill:rgb(25,22,70);fill-rule:nonzero;"/>
    </g>
</svg>
