<?xml version="1.0" encoding="UTF-8" standalone="no"?>
<!DOCTYPE svg PUBLIC "-//W3C//DTD SVG 1.1//EN" "http://www.w3.org/Graphics/SVG/1.1/DTD/svg11.dtd">
<svg width="100%" height="100%" viewBox="0 0 1225 343" version="1.1" xmlns="http://www.w3.org/2000/svg" xmlns:xlink="http://www.w3.org/1999/xlink" xml:space="preserve" xmlns:serif="http://www.serif.com/" style="fill-rule:evenodd;clip-rule:evenodd;stroke-linejoin:round;stroke-miterlimit:2;">
    <g transform="matrix(1,0,0,1,-1621.99,-312.754)">
        <g transform="matrix(4.16667,0,0,4.16667,0,0)">
            <path d="M414.929,141.611L410.808,141.611C405.328,141.511 400.824,140.561 395.5,139.579C389.733,138.515 390.259,136.272 389.781,136.811C387.228,139.687 404.725,143.321 406.384,143.421C410.305,143.421 415.046,144.066 418.825,143.947C421.992,145.204 424.178,146.789 427.697,147.644C429.305,148.548 431.266,149.202 432.925,150.006C432.975,150.056 432.975,150.107 432.975,150.207C430.26,152.369 426.883,154.836 423.368,155.364C422.188,155.911 418.699,155.385 417.543,155.686L417.543,155.988C419.755,158.2 428.401,155.938 430.512,153.826C431.919,153.374 433.327,150.911 434.684,150.911C437.449,152.57 444.386,159.004 448.256,156.239C451.624,151.765 446.268,151.773 443.143,150.66C441.249,149.985 438.427,147.877 436.959,146.187C435.718,144.758 434.869,141.293 434.55,141.399C433.719,141.676 434.288,143.404 434.321,143.499C435.059,145.608 439.186,150.632 444.687,151.765C447.965,152.55 448.4,152.335 448.592,153.749C449.064,157.227 444.923,155.961 442.968,155.079C442.434,154.838 438.299,151.603 437.298,150.961C436.52,150.462 432.489,147.91 430.864,147.292C429.336,146.711 427.044,145.784 425.636,144.778C424.58,144.175 423.525,143.572 422.419,143.019C420.63,141.926 420.429,142.218 419.202,141.913C417.832,141.573 416.387,141.712 414.929,141.611Z" style="fill:white;"/>
        </g>
        <g transform="matrix(4.16667,0,0,4.16667,0,0)">
            <path d="M414.929,141.611L414.929,141.361L410.808,141.361L410.808,141.611L410.812,141.362C405.36,141.262 400.874,140.316 395.546,139.333C392.992,138.861 391.715,138.162 391.044,137.604C390.707,137.324 390.52,137.079 390.39,136.896C390.325,136.803 390.276,136.726 390.219,136.655L390.111,136.548L389.906,136.478C389.739,136.485 389.659,136.576 389.594,136.645C389.39,136.871 389.276,137.135 389.277,137.404C389.282,137.873 389.584,138.272 390.028,138.643C390.812,139.293 392.123,139.905 393.686,140.486C396.03,141.354 398.935,142.133 401.386,142.703C403.844,143.274 405.816,143.635 406.369,143.671L406.384,143.671C409.952,143.67 414.231,144.211 417.852,144.212C418.185,144.212 418.512,144.207 418.833,144.197L418.825,143.947L418.733,144.18C421.866,145.42 424.069,147.018 427.638,147.887L427.697,147.644L427.574,147.862C429.213,148.782 431.178,149.436 432.816,150.231L432.925,150.006L432.748,150.183L432.812,150.119L432.723,150.137L432.748,150.183L432.812,150.119L432.723,150.137L432.724,150.15L432.725,150.207L432.975,150.207L432.819,150.012C430.113,152.17 426.756,154.606 423.331,155.117L423.295,155.122L423.263,155.138C422.889,155.317 422.091,155.381 421.222,155.377C420.429,155.377 419.566,155.336 418.833,155.335C418.291,155.336 417.826,155.356 417.48,155.444L417.293,155.493L417.293,156.092L417.367,156.165C418.102,156.89 419.346,157.142 420.788,157.146C422.548,157.146 424.622,156.747 426.457,156.161C428.293,155.57 429.879,154.807 430.689,154.003L430.512,153.826L430.589,154.064C431.39,153.799 432.092,153.045 432.79,152.379C433.479,151.703 434.163,151.144 434.684,151.161L434.684,150.911L434.555,151.125C435.669,151.792 437.536,153.301 439.606,154.64C441.681,155.977 443.961,157.165 446.009,157.17C446.865,157.171 447.685,156.955 448.401,156.443L448.432,156.42L448.456,156.389C449.227,155.362 449.576,154.543 449.579,153.838C449.582,153.23 449.296,152.735 448.865,152.375C448.217,151.832 447.255,151.519 446.229,151.243C445.204,150.969 444.111,150.74 443.227,150.424C441.403,149.781 438.577,147.676 437.148,146.023C436.578,145.372 436.06,144.187 435.66,143.172C435.458,142.664 435.284,142.197 435.136,141.849C435.061,141.675 434.995,141.531 434.927,141.417L434.811,141.26C434.765,141.216 434.697,141.152 434.564,141.147L434.47,141.162C434.226,141.241 434.053,141.429 433.966,141.632C433.877,141.837 433.851,142.059 433.85,142.279C433.853,142.891 434.061,143.508 434.085,143.582C434.482,144.704 435.712,146.494 437.549,148.182C439.385,149.865 441.826,151.43 444.636,152.01L444.687,151.765L444.629,152.009C446.273,152.4 447.215,152.55 447.703,152.752C447.947,152.854 448.063,152.948 448.15,153.085C448.238,153.224 448.299,153.441 448.345,153.783C448.368,153.958 448.379,154.119 448.379,154.265C448.376,154.888 448.191,155.238 447.906,155.465C447.619,155.693 447.184,155.8 446.664,155.799C445.517,155.802 444.02,155.282 443.071,154.851C443.038,154.837 442.912,154.761 442.752,154.652C442.181,154.265 441.07,153.43 439.997,152.625C438.921,151.818 437.889,151.044 437.433,150.751C437.042,150.5 435.838,149.736 434.526,148.956C433.212,148.176 431.801,147.382 430.952,147.058C429.431,146.481 427.146,145.552 425.781,144.575L425.771,144.568L425.76,144.561C424.704,143.958 423.645,143.353 422.531,142.796L422.419,143.019L422.549,142.806C421.645,142.253 421.118,142.037 420.658,141.928C420.196,141.819 419.852,141.818 419.262,141.671C417.836,141.319 416.377,141.463 414.947,141.362L414.938,141.361L414.929,141.361L414.929,141.611L414.912,141.861C416.397,141.961 417.829,141.827 419.142,142.156C419.779,142.313 420.149,142.319 420.542,142.414C420.936,142.508 421.404,142.693 422.289,143.233L422.307,143.243C423.405,143.792 424.456,144.392 425.512,144.995L425.636,144.778L425.491,144.982C426.941,146.016 429.24,146.94 430.775,147.525C431.552,147.82 432.969,148.611 434.271,149.386C435.575,150.161 436.776,150.923 437.163,151.172C437.643,151.479 438.934,152.452 440.158,153.37C440.771,153.83 441.37,154.277 441.85,154.626C442.091,154.801 442.302,154.95 442.471,155.066C442.644,155.182 442.764,155.26 442.865,155.306C443.857,155.752 445.378,156.296 446.664,156.299C447.246,156.298 447.795,156.186 448.215,155.858C448.637,155.53 448.883,154.988 448.879,154.265C448.879,154.093 448.866,153.911 448.84,153.716C448.79,153.35 448.725,153.064 448.574,152.821C448.462,152.639 448.301,152.495 448.103,152.389C447.509,152.074 446.585,151.966 444.745,151.522L444.741,151.521L444.737,151.521C442.047,150.967 439.674,149.453 437.887,147.814C436.1,146.179 434.898,144.403 434.557,143.417C434.543,143.379 434.348,142.775 434.35,142.279C434.35,142.102 434.375,141.942 434.424,141.835C434.475,141.726 434.527,141.673 434.629,141.636L434.564,141.444L434.564,141.647L434.629,141.636L434.564,141.444L434.564,141.647L434.564,141.464L434.473,141.624L434.564,141.647L434.564,141.464L434.473,141.624L434.517,141.548L434.454,141.61L434.473,141.624L434.517,141.548L434.454,141.61C434.46,141.613 434.513,141.69 434.566,141.801C434.762,142.199 435.058,143.043 435.424,143.922C435.794,144.804 436.233,145.73 436.771,146.351C438.277,148.078 441.094,150.189 443.059,150.895C444.301,151.337 445.848,151.599 447.064,152.012C447.672,152.217 448.192,152.46 448.542,152.757C448.892,153.058 449.076,153.384 449.079,153.838C449.082,154.366 448.798,155.105 448.056,156.089L448.256,156.239L448.11,156.036C447.487,156.48 446.784,156.67 446.009,156.67C444.158,156.676 441.919,155.545 439.878,154.22C437.831,152.897 435.985,151.401 434.813,150.696L434.753,150.661L434.684,150.661C433.848,150.677 433.15,151.351 432.443,152.019C431.746,152.698 431.042,153.402 430.435,153.588L430.378,153.607L430.335,153.65C429.648,154.343 428.095,155.115 426.304,155.685C424.512,156.259 422.473,156.647 420.788,156.646C419.404,156.651 418.271,156.373 417.72,155.811L417.543,155.988L417.793,155.988L417.793,155.686L417.543,155.686L417.606,155.928C417.86,155.86 418.309,155.834 418.833,155.835C419.548,155.835 420.412,155.877 421.222,155.877C422.117,155.873 422.931,155.836 423.473,155.591L423.368,155.364L423.405,155.612C427.01,155.065 430.408,152.568 433.131,150.403L433.225,150.328L433.225,150.207L433.214,150.039L433.101,149.829L433.072,149.799L433.034,149.781C431.354,148.968 429.398,148.315 427.819,147.426L427.789,147.409L427.756,147.401C424.287,146.56 422.119,144.988 418.918,143.715L418.869,143.696L418.817,143.697C418.502,143.707 418.18,143.712 417.852,143.712C414.277,143.712 409.998,143.172 406.384,143.171L406.384,143.421L406.399,143.172C406.052,143.152 404.793,142.937 403.15,142.585C400.678,142.057 397.291,141.219 394.535,140.26C393.157,139.78 391.937,139.269 391.077,138.761C390.647,138.507 390.309,138.254 390.089,138.018C389.867,137.78 389.775,137.572 389.777,137.404C389.778,137.273 389.825,137.14 389.967,136.977L389.985,136.958L389.988,136.956L389.906,136.844L389.906,136.978L389.988,136.956L389.906,136.844L389.906,136.978L389.906,136.828L389.816,136.951L389.906,136.978L389.906,136.828L389.816,136.951L389.847,136.909L389.812,136.948L389.816,136.951L389.847,136.909L389.812,136.948C389.821,136.947 389.931,137.12 390.094,137.337C390.607,138.012 391.846,139.163 395.455,139.825C400.774,140.805 405.296,141.76 410.803,141.861L414.929,141.861L414.929,141.611L414.912,141.861L414.929,141.611Z" style="fill:white;fill-rule:nonzero;"/>
        </g>
        <g transform="matrix(4.16667,0,0,4.16667,0,0)">
            <path d="M444.85,139.467C445.597,141.773 445.547,146.925 445.772,147.452C445.87,147.683 445.976,147.648 446.073,147.603C447.481,146.648 447.524,140.376 447.23,138.957C446.738,136.592 446.461,135.984 445.797,134.062C445.715,133.825 445.425,132.242 444.261,129.94C443.31,128.059 442.348,126.518 440.031,123.878C439.541,123.32 436.919,120.995 434.403,118.846C428.404,113.72 421.642,107.963 418.53,102.646C417.044,100.108 416.851,95.507 414.959,93.618L415.01,93.532C417.197,94.471 420.294,91.234 422.854,90.663C426.82,89.778 433.909,89.495 438.735,88.138C438.785,88.038 438.785,87.937 438.785,87.836C437.578,87.686 436.271,88.138 435.065,87.987C435.065,84.971 433.865,80.737 435.819,78.236C435.977,78.033 436.048,78.167 436.121,78.236C438.643,80.614 441.298,83.463 443.208,86.529C445.118,86.529 442.253,82.307 441.499,81.955C441.097,81.151 438.144,79.106 437.528,77.984C437.082,77.172 436.687,75.915 436.436,75.061C433.32,75.061 433.714,83.668 433.698,85.483C433.689,86.424 434.462,87.535 434.21,88.088C433.356,88.138 430.223,87.767 428.364,87.989C426.412,88.222 421.359,89.263 418.69,90.469C417.224,91.131 415.461,92.612 414.053,92.612C413.551,91.405 410.307,85.726 408.598,86.128C409.302,87.284 411.691,90.903 412.344,92.109C413.3,94.723 414.305,96.935 414.808,99.649C415.26,101.056 417.826,106.842 418.611,108.061C423.137,115.094 429.885,119.193 432.217,121.614C434.182,123.654 435.506,124.415 437.256,126.195C439.628,128.608 441.719,132.269 442.903,134.568" style="fill:white;"/>
        </g>
        <g transform="matrix(4.16667,0,0,4.16667,0,0)">
            <path d="M405.328,135.68C405.53,135.58 405.73,135.53 405.932,135.479C405.932,133.957 402.07,130.312 401.307,126.431C399.095,121.957 399.799,115.121 400.302,110.245C401.709,104.465 404.976,100.393 409.099,96.071C409.099,95.97 409.099,95.87 409.048,95.769L408.797,95.769C404.424,99.288 399.568,104.263 398.865,110.094C396.804,118.388 397.99,126.431 402.111,133.67C403.217,135.027 403.569,135.328 405.328,135.68Z" style="fill:white;"/>
        </g>
        <g transform="matrix(4.16667,0,0,4.16667,0,0)">
            <path d="M405.328,135.68L405.552,136.128C405.692,136.057 405.851,136.014 406.053,135.964L406.432,135.87L406.432,135.479C406.418,134.892 406.126,134.356 405.744,133.71C405.162,132.752 404.308,131.604 403.532,130.337C402.755,129.072 402.063,127.694 401.798,126.335L401.785,126.269L401.755,126.209C400.641,123.962 400.281,121.002 400.283,117.993C400.283,115.311 400.562,112.594 400.799,110.297L400.302,110.245L400.788,110.364C402.165,104.711 405.351,100.726 409.46,96.416L409.599,96.271L409.599,96.071C409.597,95.975 409.607,95.772 409.495,95.546L409.357,95.269L408.621,95.269L408.483,95.38C404.082,98.932 399.117,103.958 398.368,110.034L398.865,110.094L398.379,109.974C397.706,112.685 397.373,115.374 397.373,118.018C397.373,123.578 398.844,128.943 401.677,133.917L401.697,133.953L401.724,133.986C402.28,134.666 402.673,135.126 403.203,135.472C403.735,135.815 404.335,135.991 405.23,136.17L405.398,136.204L405.552,136.128L405.328,135.68L405.426,135.19C404.562,135.017 404.107,134.867 403.747,134.632C403.384,134.4 403.049,134.031 402.499,133.354L402.111,133.67L402.546,133.422C399.793,128.586 398.374,123.402 398.373,118.018C398.373,115.457 398.695,112.851 399.35,110.215L399.357,110.185L399.361,110.154C400.019,104.569 404.765,99.644 409.11,96.159L408.797,95.769L408.797,96.269L409.048,96.269L409.048,95.769L408.601,95.993L408.667,95.96L408.596,95.98L408.601,95.993L408.667,95.96L408.596,95.98L408.602,95.978L408.596,95.979L408.596,95.98L408.602,95.978L408.596,95.979L408.599,96.071L409.099,96.071L408.737,95.726C404.601,100.061 401.253,104.219 399.816,110.127L399.808,110.16L399.804,110.194C399.568,112.493 399.283,115.243 399.283,117.993C399.286,121.078 399.635,124.17 400.859,126.653L401.307,126.431L400.816,126.527C401.226,128.594 402.423,130.516 403.49,132.117C404.024,132.916 404.529,133.635 404.889,134.228C405.255,134.815 405.446,135.305 405.432,135.479L405.932,135.479L405.811,134.994C405.61,135.045 405.367,135.103 405.105,135.233L405.328,135.68L405.426,135.19L405.328,135.68Z" style="fill:white;fill-rule:nonzero;"/>
        </g>
        <g transform="matrix(4.16667,0,0,4.16667,0,0)">
            <path d="M451.671,94.267C455.606,93.31 458.608,93.567 461.554,88.206C462.774,85.985 460.151,86.613 460.081,87.081C460.035,87.385 460.72,87.735 460.02,88.69C459.301,89.67 456.848,91.231 454.918,91.876C449.908,93.551 444.326,93.511 439.286,92.831C438.495,92.724 438.166,93.791 438.682,93.987C440.577,94.704 444.908,95.099 447.981,94.892C450.1,94.749 451.671,94.267 451.671,94.267Z" style="fill:white;"/>
        </g>
        <g transform="matrix(4.16667,0,0,4.16667,0,0)">
            <path d="M540.113,130.428L536.454,120.265L532.817,130.428L540.113,130.428ZM529.069,135.432L535.088,118.899L537.755,118.899L543.905,135.432L541.943,135.432L540.708,132.037L532.376,132.037L531.053,135.432L529.069,135.432Z" style="fill:white;fill-rule:nonzero;"/>
        </g>
        <g transform="matrix(4.16667,0,0,4.16667,0,0)">
            <path d="M547.763,127.364L552.15,127.364C553.751,127.364 554.816,127.18 555.345,126.811C556.007,126.354 556.337,125.418 556.337,124.003C556.337,122.72 556.176,121.842 555.852,121.371C555.456,120.796 554.691,120.508 553.56,120.508L547.763,120.508L547.763,127.364ZM547.763,128.973L547.763,135.432L545.933,135.432L545.933,118.899L553.803,118.899C555.389,118.899 556.517,119.27 557.186,120.014C557.855,120.759 558.189,121.97 558.189,123.649C558.189,125.681 557.796,127.077 557.01,127.836C556.224,128.594 554.772,128.973 552.657,128.973L547.763,128.973Z" style="fill:white;fill-rule:nonzero;"/>
        </g>
        <g transform="matrix(4.16667,0,0,4.16667,0,0)">
            <path d="M562.466,127.364L566.853,127.364C568.454,127.364 569.52,127.18 570.049,126.811C570.71,126.354 571.041,125.418 571.041,124.003C571.041,122.72 570.879,121.842 570.556,121.371C570.159,120.796 569.395,120.508 568.264,120.508L562.466,120.508L562.466,127.364ZM562.466,128.973L562.466,135.432L560.636,135.432L560.636,118.899L568.506,118.899C570.093,118.899 571.221,119.27 571.889,120.014C572.558,120.759 572.892,121.97 572.892,123.649C572.892,125.681 572.499,127.077 571.713,127.836C570.927,128.594 569.475,128.973 567.36,128.973L562.466,128.973Z" style="fill:white;fill-rule:nonzero;"/>
        </g>
        <g transform="matrix(4.16667,0,0,4.16667,0,0)">
            <path d="M445.295,122.693L445.295,131.552L449.15,131.552C450.634,131.552 451.376,130.612 451.376,128.732L451.376,125.271C451.376,124.571 451.3,124.036 451.148,123.665C450.996,123.293 450.762,123.039 450.446,122.9C450.131,122.762 449.699,122.693 449.15,122.693L445.295,122.693ZM440.887,135.39L440.887,118.856L449.261,118.856C450.826,118.856 452.094,119.066 453.066,119.486C454.038,119.905 454.757,120.586 455.222,121.526C455.687,122.465 455.919,123.715 455.919,125.271L455.919,128.732C455.919,130.283 455.73,131.542 455.354,132.512C454.977,133.483 454.346,134.205 453.459,134.678C452.573,135.153 451.372,135.39 449.859,135.39L440.887,135.39Z" style="fill:white;fill-rule:nonzero;"/>
        </g>
        <g transform="matrix(4.16667,0,0,4.16667,0,0)">
            <path d="M462.49,127.165L465.907,127.165C466.485,127.165 466.902,127.089 467.159,126.938C467.415,126.785 467.576,126.544 467.64,126.213C467.705,125.884 467.737,125.342 467.737,124.588C467.737,123.845 467.613,123.344 467.366,123.084C467.118,122.824 466.632,122.693 465.907,122.693L462.49,122.693L462.49,127.165ZM465.907,131.003L462.49,131.003L462.49,135.39L458.082,135.39L458.082,118.856L466.593,118.856C467.959,118.878 469.045,119.023 469.851,119.295C470.655,119.566 471.261,120.058 471.666,120.772C472.071,121.487 472.274,122.515 472.274,123.862C472.274,124.999 472.225,125.859 472.126,126.442C472.027,127.024 471.754,127.531 471.308,127.959C470.861,128.388 470.141,128.719 469.147,128.953L469.147,129.13C470.073,129.163 470.8,129.429 471.33,129.93C471.859,130.43 472.123,131.141 472.123,132.064L472.123,135.39L467.71,135.39L467.71,133.075C467.71,131.693 467.109,131.003 465.907,131.003Z" style="fill:white;fill-rule:nonzero;"/>
        </g>
        <g transform="matrix(4.16667,0,0,4.16667,0,0)">
            <path d="M478.996,122.473L478.996,125.491L486.051,125.491L486.051,128.554L478.996,128.554L478.996,131.773L486.67,131.773L486.67,135.39L474.588,135.39L474.588,118.856L486.514,118.856L486.514,122.473L478.996,122.473Z" style="fill:white;fill-rule:nonzero;"/>
        </g>
        <g transform="matrix(4.16667,0,0,4.16667,0,0)">
            <path d="M498.306,129.329L496.255,122.161L496.213,122.161L494.205,129.329L498.306,129.329ZM499.189,132.547L493.258,132.547L492.445,135.39L487.86,135.39L492.816,118.856L499.522,118.856L504.549,135.39L500.05,135.39L499.189,132.547Z" style="fill:white;fill-rule:nonzero;"/>
        </g>
        <g transform="matrix(4.16667,0,0,4.16667,0,0)">
            <path d="M509.592,122.715L510.033,135.39L505.625,135.39L505.625,118.856L512.61,118.856L515.763,129.238L515.921,129.238L518.918,118.856L526.081,118.856L526.081,135.39L521.674,135.39L522.115,122.715L521.959,122.715L517.771,135.39L513.956,135.39L509.726,122.715L509.592,122.715Z" style="fill:white;fill-rule:nonzero;"/>
        </g>
        <g transform="matrix(4.16667,0,0,4.16667,0,0)">
            <path d="M577.087,135.335L577.087,118.879L581.432,118.879L584.85,124.91C585.827,126.643 586.803,128.694 587.536,130.55L587.609,130.55C587.365,128.377 587.292,126.155 587.292,123.689L587.292,118.879L590.709,118.879L590.709,135.335L586.803,135.335L583.288,128.987C582.311,127.229 581.237,125.105 580.431,123.176L580.358,123.201C580.456,125.374 580.505,127.693 580.505,130.379L580.505,135.335L577.087,135.335Z" style="fill:rgb(125,208,221);fill-rule:nonzero;"/>
        </g>
        <g transform="matrix(4.16667,0,0,4.16667,0,0)">
            <path d="M600.156,129.695C598.203,129.671 596.689,130.134 596.689,131.575C596.689,132.527 597.324,132.991 598.154,132.991C599.081,132.991 599.838,132.381 600.082,131.624C600.131,131.428 600.156,131.209 600.156,130.989L600.156,129.695ZM600.595,135.335L600.375,134.138L600.302,134.138C599.521,135.09 598.3,135.603 596.884,135.603C594.467,135.603 593.027,133.845 593.027,131.941C593.027,128.84 595.81,127.351 600.034,127.376L600.034,127.205C600.034,126.57 599.692,125.667 597.861,125.667C596.64,125.667 595.346,126.082 594.565,126.57L593.881,124.177C594.711,123.714 596.347,123.128 598.52,123.128C602.499,123.128 603.769,125.471 603.769,128.279L603.769,132.429C603.769,133.577 603.818,134.675 603.94,135.335L600.595,135.335Z" style="fill:rgb(125,208,221);fill-rule:nonzero;"/>
        </g>
        <g transform="matrix(4.16667,0,0,4.16667,0,0)">
            <path d="M609.163,123.396L610.775,128.938C611.068,129.939 611.287,130.891 611.458,131.843L611.531,131.843C611.727,130.867 611.922,129.964 612.191,128.938L613.729,123.396L617.635,123.396L613.192,135.335L609.481,135.335L605.135,123.396L609.163,123.396Z" style="fill:rgb(125,208,221);fill-rule:nonzero;"/>
        </g>
        <g transform="matrix(4.16667,0,0,4.16667,0,0)">
            <path d="M619.343,135.335L619.343,123.396L623.054,123.396L623.054,135.335L619.343,135.335ZM623.176,120.076C623.176,121.101 622.394,121.931 621.174,121.931C620.002,121.931 619.221,121.101 619.245,120.076C619.221,119.002 620.002,118.196 621.198,118.196C622.394,118.196 623.151,119.002 623.176,120.076Z" style="fill:rgb(125,208,221);fill-rule:nonzero;"/>
        </g>
        <g transform="matrix(4.16667,0,0,4.16667,0,0)">
            <path d="M633.624,128.254C633.624,128.011 633.599,127.766 633.551,127.571C633.282,126.594 632.574,125.935 631.549,125.935C630.206,125.935 629.107,127.156 629.107,129.329C629.107,131.111 629.986,132.503 631.549,132.503C632.501,132.503 633.258,131.868 633.502,130.989C633.599,130.72 633.624,130.33 633.624,130.012L633.624,128.254ZM637.432,123.396C637.384,124.153 637.335,125.154 637.335,126.936L637.335,133.601C637.335,135.896 636.871,137.776 635.528,138.972C634.21,140.095 632.428,140.437 630.67,140.437C629.107,140.437 627.447,140.12 626.373,139.509L627.105,136.702C627.862,137.141 629.18,137.605 630.572,137.605C632.33,137.605 633.673,136.653 633.673,134.456L633.673,133.675L633.624,133.675C632.916,134.675 631.768,135.237 630.401,135.237C627.447,135.237 625.347,132.844 625.347,129.402C625.347,125.569 627.838,123.128 630.767,123.128C632.403,123.128 633.428,123.836 634.039,124.812L634.088,124.812L634.21,123.396L637.432,123.396Z" style="fill:rgb(125,208,221);fill-rule:nonzero;"/>
        </g>
        <g transform="matrix(4.16667,0,0,4.16667,0,0)">
            <path d="M646.659,129.695C644.706,129.671 643.193,130.134 643.193,131.575C643.193,132.527 643.827,132.991 644.657,132.991C645.585,132.991 646.342,132.381 646.586,131.624C646.635,131.428 646.659,131.209 646.659,130.989L646.659,129.695ZM647.099,135.335L646.879,134.138L646.806,134.138C646.025,135.09 644.804,135.603 643.388,135.603C640.971,135.603 639.53,133.845 639.53,131.941C639.53,128.84 642.314,127.351 646.537,127.376L646.537,127.205C646.537,126.57 646.195,125.667 644.365,125.667C643.144,125.667 641.85,126.082 641.069,126.57L640.385,124.177C641.215,123.714 642.851,123.128 645.023,123.128C649.003,123.128 650.273,125.471 650.273,128.279L650.273,132.429C650.273,133.577 650.321,134.675 650.444,135.335L647.099,135.335Z" style="fill:rgb(125,208,221);fill-rule:nonzero;"/>
        </g>
        <g transform="matrix(4.16667,0,0,4.16667,0,0)">
            <path d="M657.156,119.978L657.156,123.396L659.817,123.396L659.817,126.131L657.156,126.131L657.156,130.452C657.156,131.892 657.498,132.551 658.621,132.551C659.085,132.551 659.451,132.503 659.72,132.454L659.744,135.261C659.256,135.457 658.377,135.579 657.327,135.579C656.131,135.579 655.13,135.164 654.544,134.553C653.86,133.845 653.518,132.698 653.518,131.013L653.518,126.131L651.932,126.131L651.932,123.396L653.518,123.396L653.518,120.808L657.156,119.978Z" style="fill:rgb(125,208,221);fill-rule:nonzero;"/>
        </g>
        <g transform="matrix(4.16667,0,0,4.16667,0,0)">
            <path d="M664.992,129.353C664.992,131.404 665.846,132.942 667.433,132.942C668.874,132.942 669.802,131.502 669.802,129.353C669.802,127.571 669.118,125.764 667.433,125.764C665.651,125.764 664.992,127.595 664.992,129.353ZM673.635,129.231C673.635,133.601 670.534,135.603 667.336,135.603C663.844,135.603 661.159,133.308 661.159,129.451C661.159,125.593 663.698,123.128 667.531,123.128C671.193,123.128 673.635,125.642 673.635,129.231Z" style="fill:rgb(125,208,221);fill-rule:nonzero;"/>
        </g>
        <g transform="matrix(4.16667,0,0,4.16667,0,0)">
            <path d="M675.928,127.327C675.928,125.569 675.879,124.421 675.83,123.396L679.029,123.396L679.151,125.593L679.248,125.593C679.858,123.86 681.323,123.128 682.471,123.128C682.813,123.128 682.983,123.128 683.252,123.176L683.252,126.668C682.983,126.619 682.666,126.57 682.251,126.57C680.884,126.57 679.956,127.302 679.712,128.45C679.663,128.694 679.639,128.987 679.639,129.28L679.639,135.335L675.928,135.335L675.928,127.327Z" style="fill:rgb(125,208,221);fill-rule:nonzero;"/>
        </g>
    </g>
</svg>
