<?xml version="1.0" encoding="UTF-8" standalone="no"?>
<!DOCTYPE svg PUBLIC "-//W3C//DTD SVG 1.1//EN" "http://www.w3.org/Graphics/SVG/1.1/DTD/svg11.dtd">
<svg width="100%" height="100%" viewBox="0 0 668 182" version="1.1" xmlns="http://www.w3.org/2000/svg" xmlns:xlink="http://www.w3.org/1999/xlink" xml:space="preserve" xmlns:serif="http://www.serif.com/" style="fill-rule:evenodd;clip-rule:evenodd;stroke-linejoin:round;stroke-miterlimit:2;">
    <g transform="matrix(1,0,0,1,-127.238,-47.5039)">
        <g transform="matrix(2,0,0,2,0,0)">
            <path d="M137.335,66.116L122.926,61.142L131.658,49.832L129.085,42.958L155.679,52.006L137.335,66.116Z" style="fill:url(#_Linear1);"/>
        </g>
        <g transform="matrix(2,0,0,2,0,0)">
            <path d="M137.335,66.116L138.447,81.32L156.79,67.209L155.679,52.006L137.335,66.116Z" style="fill:url(#_Linear2);"/>
        </g>
        <g transform="matrix(2,0,0,2,0,0)">
            <path d="M122.926,61.142L124.037,76.346L138.447,81.32L137.335,66.116L122.926,61.142Z" style="fill:url(#_Linear3);"/>
        </g>
        <g transform="matrix(2,0,0,2,0,0)">
            <path d="M123.662,93.533L110.993,100.768L130.08,113.853L144.197,108.098L123.662,93.533Z" style="fill:url(#_Linear4);"/>
        </g>
        <g transform="matrix(2,0,0,2,0,0)">
            <path d="M125.11,95.014L125.387,79.772L138.841,84.581L144.583,80.011L144.197,108.098L125.11,95.014Z" style="fill:url(#_Linear5);"/>
        </g>
        <g transform="matrix(2,0,0,2,0,0)">
            <path d="M125.387,79.772L111.271,85.526L110.993,100.768L125.11,95.014L125.387,79.772Z" style="fill:url(#_Linear6);"/>
        </g>
        <g transform="matrix(2,0,0,2,0,0)">
            <path d="M93.848,92.316L108.43,87.87L108.013,102.151L114.135,106.2L87.301,114.512L93.848,92.316Z" style="fill:url(#_Linear7);"/>
        </g>
        <g transform="matrix(2,0,0,2,0,0)">
            <path d="M93.848,92.316L84.012,80.668L77.466,102.865L87.301,114.512L93.848,92.316Z" style="fill:url(#_Linear8);"/>
        </g>
        <g transform="matrix(2,0,0,2,0,0)">
            <path d="M108.43,87.87L98.594,76.223L84.012,80.668L93.848,92.316L108.43,87.87Z" style="fill:url(#_Linear9);"/>
        </g>
        <g transform="matrix(2,0,0,2,0,0)">
            <path d="M86.753,61.751L95.487,74.245L81.775,78.262L79.817,85.336L63.619,62.384L86.753,61.751Z" style="fill:url(#_Linear10);"/>
        </g>
        <g transform="matrix(2,0,0,2,0,0)">
            <path d="M86.753,61.751L94.791,48.798L71.657,49.431L63.619,62.384L86.753,61.751Z" style="fill:url(#_Linear11);"/>
        </g>
        <g transform="matrix(2,0,0,2,0,0)">
            <path d="M95.487,74.245L103.526,61.292L94.791,48.798L86.753,61.751L95.487,74.245Z" style="fill:url(#_Linear12);"/>
        </g>
        <g transform="matrix(2,0,0,2,0,0)">
            <path d="M113.63,45.558L104.447,57.726L96.389,45.927L89.056,46.25L105.879,23.752L113.63,45.558Z" style="fill:url(#_Linear13);"/>
        </g>
        <g transform="matrix(2,0,0,2,0,0)">
            <path d="M113.63,45.558L128.433,49.2L120.683,27.394L105.879,23.752L113.63,45.558Z" style="fill:url(#_Linear14);"/>
        </g>
        <g transform="matrix(2,0,0,2,0,0)">
            <path d="M104.447,57.726L119.25,61.367L128.433,49.2L113.63,45.558L104.447,57.726Z" style="fill:url(#_Linear15);"/>
        </g>
        <g transform="matrix(2,0,0,2,0,0)">
            <path d="M181.917,56.982L181.362,51.789C183.925,51.234 187.057,50.957 190.757,50.957C194.404,50.957 196.935,51.452 198.349,52.443C199.762,53.434 200.47,55.317 200.47,58.092C200.47,60.074 200.099,61.567 199.36,62.571C198.62,63.576 197.417,64.157 195.752,64.316L195.752,64.554C197.734,64.739 199.155,65.426 200.014,66.615C200.872,67.804 201.302,69.536 201.302,71.808C201.302,74.53 200.588,76.4 199.162,77.417C197.734,78.435 195.342,78.943 191.986,78.943C187.52,78.943 183.807,78.495 180.847,77.596L181.402,72.641C184.917,73.195 187.956,73.473 190.52,73.473C191.761,73.473 192.601,73.262 193.037,72.839C193.473,72.416 193.691,71.584 193.691,70.341C193.691,68.994 193.466,68.095 193.017,67.645C192.567,67.197 191.709,66.972 190.44,66.972L184.771,66.853L184.771,62.056L190.4,61.937C191.458,61.937 192.171,61.746 192.542,61.362C192.911,60.979 193.096,60.232 193.096,59.123C193.096,58.039 192.898,57.319 192.501,56.962C192.105,56.605 191.352,56.427 190.242,56.427C187.81,56.427 185.035,56.612 181.917,56.982Z" style="fill:white;fill-rule:nonzero;"/>
        </g>
        <g transform="matrix(2,0,0,2,0,0)">
            <path d="M228.932,78.626L221.836,78.626L221.836,64.355C221.836,63.193 221.968,61.858 222.233,60.352L221.955,60.352C221.479,61.858 220.938,63.166 220.33,64.276L212.481,78.626L205.306,78.626L205.306,51.273L212.362,51.273L212.362,65.188C212.362,66.377 212.229,67.765 211.965,69.35L212.243,69.35C212.745,67.844 213.3,66.536 213.908,65.426L221.757,51.273L228.932,51.273L228.932,78.626Z" style="fill:white;fill-rule:nonzero;"/>
        </g>
        <g transform="matrix(2,0,0,2,0,0)">
            <path d="M256.246,51.273L263.024,51.273C264.742,51.273 265.641,52.159 265.72,53.93L266.711,78.626L259.893,78.626L259.021,56.942L258.385,56.942L255.056,72.244C254.765,73.777 253.801,74.543 252.162,74.543L247.96,74.543C246.321,74.543 245.344,73.777 245.027,72.244L241.657,56.942L241.023,56.942L240.27,78.626L233.491,78.626L234.442,53.93C234.521,52.159 235.42,51.273 237.138,51.273L243.798,51.273C245.41,51.273 246.361,52.053 246.652,53.612L249.269,65.743C249.427,66.562 249.612,67.883 249.823,69.707L250.259,69.707C250.286,69.522 250.365,68.941 250.498,67.963C250.629,66.985 250.748,66.232 250.854,65.703L253.352,53.612C253.669,52.053 254.633,51.273 256.246,51.273Z" style="fill:white;fill-rule:nonzero;"/>
        </g>
        <g transform="matrix(2,0,0,2,0,0)">
            <path d="M284.748,66.734L283.003,59.717C282.712,58.343 282.541,57.392 282.488,56.863L281.418,56.863C281.233,57.868 281.047,58.819 280.863,59.717L279.119,66.734L284.748,66.734ZM286.135,72.125L277.731,72.125L276.106,78.626L268.495,78.626L275.987,53.216C276.119,52.635 276.416,52.165 276.879,51.809C277.341,51.452 277.876,51.273 278.484,51.273L285.382,51.273C285.99,51.273 286.525,51.452 286.988,51.809C287.45,52.165 287.761,52.635 287.919,53.216L295.372,78.626L287.761,78.626L286.135,72.125Z" style="fill:white;fill-rule:nonzero;"/>
        </g>
        <g transform="matrix(2,0,0,2,0,0)">
            <path d="M320.228,51.273L320.228,78.626L312.775,78.626L312.775,56.348L310.277,56.348C308.85,56.348 308.097,57.021 308.018,58.37C307.436,65.32 306.736,70.011 305.917,72.442C305.071,75.138 303.789,76.968 302.071,77.933C300.354,78.897 298.226,79.182 295.689,78.785L295.174,73.037C296.23,72.878 297.063,72.621 297.671,72.264C298.279,71.907 298.742,71.292 299.059,70.42C299.877,68.148 300.499,63.919 300.922,57.735C301.239,53.428 303.524,51.273 307.78,51.273L320.228,51.273Z" style="fill:white;fill-rule:nonzero;"/>
        </g>
        <g transform="matrix(2,0,0,2,0,0)">
            <path d="M344.409,72.957L344.766,78.31C342.202,78.601 337.683,78.746 331.208,78.746C329.358,78.746 327.858,78.21 326.709,77.14C325.56,76.069 324.984,74.649 324.984,72.878L324.984,57.021C324.984,55.251 325.56,53.831 326.709,52.76C327.858,51.69 329.358,51.155 331.208,51.155C337.683,51.155 342.202,51.3 344.766,51.591L344.409,56.942L334.182,56.942C333.018,56.942 332.438,57.511 332.438,58.647L332.438,61.977L342.982,61.977L342.982,67.091L332.438,67.091L332.438,71.253C332.438,72.39 333.018,72.957 334.182,72.957L344.409,72.957Z" style="fill:white;fill-rule:nonzero;"/>
        </g>
        <g transform="matrix(2,0,0,2,0,0)">
            <path d="M369.819,57.021L361.931,57.021L361.931,78.626L354.478,78.626L354.478,57.021L346.629,57.021L346.629,51.273L369.819,51.273L369.819,57.021Z" style="fill:white;fill-rule:nonzero;"/>
        </g>
        <g transform="matrix(2,0,0,2,0,0)">
            <path d="M387.46,58.171C386.852,57.009 385.676,56.427 383.932,56.427C382.188,56.427 381.011,57.009 380.403,58.171C379.795,59.334 379.492,61.594 379.492,64.95C379.492,68.307 379.795,70.566 380.403,71.729C381.011,72.892 382.188,73.473 383.932,73.473C385.676,73.473 386.852,72.892 387.46,71.729C388.067,70.566 388.372,68.307 388.372,64.95C388.372,61.594 388.067,59.334 387.46,58.171ZM383.932,50.719C387.05,50.719 389.468,51.135 391.186,51.967C392.904,52.8 394.172,54.24 394.992,56.288C395.811,58.336 396.221,61.224 396.221,64.95C396.221,68.676 395.811,71.564 394.992,73.612C394.172,75.66 392.904,77.1 391.186,77.933C389.468,78.765 387.05,79.182 383.932,79.182C379.333,79.182 376.142,78.184 374.358,76.188C372.574,74.193 371.682,70.447 371.682,64.95C371.682,59.454 372.574,55.707 374.358,53.711C376.142,51.716 379.333,50.719 383.932,50.719Z" style="fill:white;fill-rule:nonzero;"/>
        </g>
        <g transform="matrix(2,0,0,2,0,0)">
            <path d="M186.505,92.308L183.719,92.308L183.719,98.932L183.111,98.932L183.111,92.308L180.325,92.308L180.325,91.789L186.505,91.789L186.505,92.308Z" style="fill:white;fill-rule:nonzero;"/>
        </g>
        <g transform="matrix(2,0,0,2,0,0)">
            <path d="M192.892,92.841C192.516,92.377 191.849,92.144 190.891,92.144C189.933,92.144 189.263,92.377 188.883,92.841C188.502,93.306 188.313,94.145 188.313,95.36C188.313,96.575 188.502,97.418 188.883,97.887C189.263,98.356 189.933,98.591 190.891,98.591C191.849,98.591 192.516,98.356 192.892,97.887C193.267,97.418 193.455,96.575 193.455,95.36C193.455,94.145 193.267,93.306 192.892,92.841ZM190.891,91.611C192.057,91.611 192.876,91.893 193.351,92.456C193.825,93.019 194.062,93.987 194.062,95.36C194.062,96.744 193.825,97.714 193.351,98.272C192.876,98.831 192.057,99.109 190.891,99.109C189.715,99.109 188.888,98.831 188.409,98.272C187.929,97.714 187.69,96.744 187.69,95.36C187.69,93.987 187.929,93.019 188.409,92.456C188.888,91.893 189.715,91.611 190.891,91.611Z" style="fill:white;fill-rule:nonzero;"/>
        </g>
        <g transform="matrix(2,0,0,2,0,0)">
            <path d="M196.997,93.493L196.997,97.924C198.162,98.359 199.081,98.576 199.753,98.576C200.514,98.576 201.052,98.339 201.368,97.865C201.684,97.391 201.842,96.561 201.842,95.375C201.842,94.2 201.687,93.367 201.375,92.878C201.064,92.389 200.538,92.144 199.797,92.144C199.353,92.144 198.92,92.248 198.5,92.456C198.081,92.663 197.579,93.009 196.997,93.493ZM196.863,91.789L196.937,93.048C197.945,92.09 198.933,91.611 199.901,91.611C200.81,91.611 201.462,91.905 201.857,92.493C202.252,93.081 202.45,94.041 202.45,95.375C202.45,96.719 202.248,97.677 201.842,98.25C201.437,98.823 200.771,99.109 199.842,99.109C198.913,99.109 197.95,98.848 196.952,98.324C196.981,98.67 196.997,99.134 196.997,99.717L196.997,102.014L196.404,102.014L196.404,91.789L196.863,91.789Z" style="fill:white;fill-rule:nonzero;"/>
        </g>
        <g transform="matrix(2,0,0,2,0,0)">
            <path d="M204.762,98.932L204.762,93.226C204.762,92.772 204.885,92.418 205.132,92.166C205.379,91.915 205.729,91.789 206.184,91.789C207.715,91.789 208.861,91.809 209.622,91.848L209.622,92.292L206.377,92.292C206.021,92.292 205.762,92.377 205.599,92.544C205.436,92.713 205.354,92.979 205.354,93.345L205.354,98.932L204.762,98.932Z" style="fill:white;fill-rule:nonzero;"/>
        </g>
        <g transform="matrix(2,0,0,2,0,0)">
            <path d="M215.994,92.841C215.619,92.377 214.952,92.144 213.994,92.144C213.035,92.144 212.366,92.377 211.985,92.841C211.605,93.306 211.415,94.145 211.415,95.36C211.415,96.575 211.605,97.418 211.985,97.887C212.366,98.356 213.035,98.591 213.994,98.591C214.952,98.591 215.619,98.356 215.994,97.887C216.369,97.418 216.557,96.575 216.557,95.36C216.557,94.145 216.369,93.306 215.994,92.841ZM213.994,91.611C215.159,91.611 215.979,91.893 216.454,92.456C216.928,93.019 217.165,93.987 217.165,95.36C217.165,96.744 216.928,97.714 216.454,98.272C215.979,98.831 215.159,99.109 213.994,99.109C212.818,99.109 211.99,98.831 211.511,98.272C211.032,97.714 210.792,96.744 210.792,95.36C210.792,93.987 211.032,93.019 211.511,92.456C211.99,91.893 212.818,91.611 213.994,91.611Z" style="fill:white;fill-rule:nonzero;"/>
        </g>
        <g transform="matrix(2,0,0,2,0,0)">
            <path d="M220.055,95.479L220.055,98.517C220.4,98.527 221.206,98.532 222.47,98.532C223.32,98.532 223.91,98.433 224.241,98.235C224.572,98.038 224.737,97.652 224.737,97.079C224.737,96.467 224.564,96.047 224.219,95.82C223.873,95.592 223.255,95.479 222.366,95.479L220.055,95.479ZM220.055,95.034L222.366,95.034C223.176,95.024 223.734,94.928 224.041,94.745C224.347,94.562 224.5,94.2 224.5,93.656C224.5,93.083 224.327,92.7 223.981,92.507C223.636,92.315 223.013,92.219 222.114,92.219C221.215,92.199 220.529,92.199 220.055,92.219L220.055,95.034ZM223.537,95.242L223.537,95.271C224.189,95.321 224.651,95.501 224.923,95.812C225.194,96.123 225.33,96.575 225.33,97.168C225.33,97.879 225.125,98.366 224.715,98.628C224.305,98.89 223.577,99.02 222.529,99.02C221.274,99.02 220.262,98.991 219.491,98.932L219.491,91.804C220.163,91.744 221.042,91.715 222.129,91.715C223.235,91.715 224.004,91.848 224.434,92.115C224.863,92.381 225.078,92.885 225.078,93.626C225.078,94.13 224.955,94.516 224.708,94.782C224.461,95.049 224.07,95.202 223.537,95.242Z" style="fill:white;fill-rule:nonzero;"/>
        </g>
        <g transform="matrix(2,0,0,2,0,0)">
            <path d="M232.473,92.841C232.097,92.377 231.43,92.144 230.472,92.144C229.514,92.144 228.844,92.377 228.464,92.841C228.083,93.306 227.894,94.145 227.894,95.36C227.894,96.575 228.083,97.418 228.464,97.887C228.844,98.356 229.514,98.591 230.472,98.591C231.43,98.591 232.097,98.356 232.473,97.887C232.848,97.418 233.036,96.575 233.036,95.36C233.036,94.145 232.848,93.306 232.473,92.841ZM230.472,91.611C231.638,91.611 232.458,91.893 232.932,92.456C233.406,93.019 233.643,93.987 233.643,95.36C233.643,96.744 233.406,97.714 232.932,98.272C232.458,98.831 231.638,99.109 230.472,99.109C229.296,99.109 228.469,98.831 227.99,98.272C227.51,97.714 227.271,96.744 227.271,95.36C227.271,93.987 227.51,93.019 227.99,92.456C228.469,91.893 229.296,91.611 230.472,91.611Z" style="fill:white;fill-rule:nonzero;"/>
        </g>
        <g transform="matrix(2,0,0,2,0,0)">
            <rect x="235.852" y="94.96" width="4.593" height="0.489" style="fill:white;fill-rule:nonzero;"/>
        </g>
        <g transform="matrix(2,0,0,2,0,0)">
            <path d="M243.602,93.493L243.602,97.924C244.767,98.359 245.686,98.576 246.358,98.576C247.119,98.576 247.657,98.339 247.973,97.865C248.289,97.391 248.447,96.561 248.447,95.375C248.447,94.2 248.292,93.367 247.98,92.878C247.669,92.389 247.143,92.144 246.402,92.144C245.958,92.144 245.525,92.248 245.105,92.456C244.686,92.663 244.184,93.009 243.602,93.493ZM243.468,91.789L243.542,93.048C244.55,92.09 245.538,91.611 246.506,91.611C247.415,91.611 248.067,91.905 248.462,92.493C248.857,93.081 249.055,94.041 249.055,95.375C249.055,96.719 248.853,97.677 248.447,98.25C248.042,98.823 247.375,99.109 246.447,99.109C245.518,99.109 244.555,98.848 243.557,98.324C243.586,98.67 243.602,99.134 243.602,99.717L243.602,102.014L243.009,102.014L243.009,91.789L243.468,91.789Z" style="fill:white;fill-rule:nonzero;"/>
        </g>
        <g transform="matrix(2,0,0,2,0,0)">
            <path d="M251.589,96.338L251.589,97.139C251.589,98.018 252.053,98.467 252.982,98.487C253.476,98.497 254.031,98.371 254.649,98.109C255.266,97.848 255.788,97.519 256.212,97.123L256.212,95.064L252.833,95.108C252.004,95.128 251.589,95.538 251.589,96.338ZM251.337,92.367L251.278,91.922C252.779,91.715 253.92,91.611 254.701,91.611C256.104,91.611 256.805,92.303 256.805,93.686L256.805,98.932L256.346,98.932L256.242,97.613C255.896,97.958 255.41,98.282 254.782,98.583C254.155,98.885 253.535,99.035 252.922,99.035C252.32,99.035 251.848,98.875 251.507,98.554C251.167,98.233 250.996,97.776 250.996,97.183L250.996,96.294C250.996,95.75 251.149,95.331 251.456,95.034C251.762,94.738 252.201,94.59 252.774,94.59L256.212,94.59L256.212,93.686C256.212,92.658 255.684,92.144 254.627,92.144C253.767,92.144 252.671,92.219 251.337,92.367Z" style="fill:white;fill-rule:nonzero;"/>
        </g>
        <g transform="matrix(2,0,0,2,0,0)">
            <path d="M258.969,92.308L258.909,91.863C259.502,91.754 260.178,91.7 260.939,91.7C262.095,91.7 262.893,91.829 263.333,92.085C263.772,92.342 263.992,92.836 263.992,93.567C263.992,94.101 263.881,94.5 263.659,94.768C263.437,95.034 263.039,95.192 262.466,95.242L262.466,95.271C263.088,95.321 263.535,95.496 263.807,95.797C264.079,96.099 264.214,96.556 264.214,97.168C264.214,97.84 263.995,98.319 263.555,98.605C263.115,98.892 262.362,99.035 261.295,99.035C260.277,99.035 259.433,98.976 258.76,98.857L258.82,98.413C259.858,98.482 260.667,98.517 261.25,98.517C262.13,98.517 262.74,98.408 263.081,98.191C263.422,97.974 263.592,97.603 263.592,97.079C263.592,96.477 263.424,96.067 263.088,95.849C262.752,95.632 262.155,95.514 261.295,95.494L259.828,95.494L259.828,95.034L261.295,95.034C262.114,95.024 262.671,94.926 262.962,94.738C263.253,94.55 263.399,94.185 263.399,93.641C263.399,93.059 263.227,92.676 262.881,92.493C262.535,92.31 261.868,92.219 260.88,92.219C260.03,92.219 259.393,92.248 258.969,92.308Z" style="fill:white;fill-rule:nonzero;"/>
        </g>
        <g transform="matrix(2,0,0,2,0,0)">
            <path d="M267.075,95.479L267.075,98.517C267.42,98.527 268.226,98.532 269.49,98.532C270.34,98.532 270.93,98.433 271.261,98.235C271.592,98.038 271.757,97.652 271.757,97.079C271.757,96.467 271.584,96.047 271.239,95.82C270.893,95.592 270.275,95.479 269.386,95.479L267.075,95.479ZM267.075,95.034L269.386,95.034C270.196,95.024 270.754,94.928 271.061,94.745C271.367,94.562 271.521,94.2 271.521,93.656C271.521,93.083 271.347,92.7 271.001,92.507C270.656,92.315 270.033,92.219 269.134,92.219C268.235,92.199 267.549,92.199 267.075,92.219L267.075,95.034ZM270.557,95.242L270.557,95.271C271.209,95.321 271.671,95.501 271.943,95.812C272.214,96.123 272.35,96.575 272.35,97.168C272.35,97.879 272.145,98.366 271.735,98.628C271.325,98.89 270.597,99.02 269.549,99.02C268.294,99.02 267.282,98.991 266.511,98.932L266.511,91.804C267.183,91.744 268.063,91.715 269.149,91.715C270.255,91.715 271.024,91.848 271.454,92.115C271.883,92.381 272.098,92.885 272.098,93.626C272.098,94.13 271.975,94.516 271.728,94.782C271.481,95.049 271.09,95.202 270.557,95.242Z" style="fill:white;fill-rule:nonzero;"/>
        </g>
        <g transform="matrix(2,0,0,2,0,0)">
            <path d="M280.012,91.789L280.012,98.932L279.434,98.932L279.434,92.278L277.344,92.278C277.008,92.278 276.759,92.359 276.596,92.522C276.433,92.686 276.332,92.94 276.292,93.286C276.282,93.335 276.255,93.567 276.21,93.982C276.166,94.397 276.137,94.666 276.122,94.79C276.107,94.914 276.072,95.148 276.018,95.494C275.963,95.839 275.914,96.101 275.87,96.279C275.825,96.457 275.766,96.667 275.692,96.909C275.618,97.151 275.536,97.366 275.447,97.553C275.082,98.364 274.504,98.848 273.713,99.006L273.64,98.532C274.252,98.294 274.682,97.899 274.929,97.346C275.057,97.079 275.173,96.731 275.277,96.301C275.381,95.872 275.452,95.511 275.492,95.219C275.531,94.928 275.578,94.538 275.633,94.049C275.687,93.56 275.719,93.281 275.729,93.211C275.788,92.728 275.941,92.369 276.188,92.137C276.435,91.905 276.806,91.789 277.3,91.789L280.012,91.789Z" style="fill:white;fill-rule:nonzero;"/>
        </g>
        <g transform="matrix(2,0,0,2,0,0)">
            <path d="M282.946,95.167L286.666,95.167C287.396,95.167 287.752,94.693 287.732,93.745C287.723,93.182 287.535,92.774 287.169,92.522C286.804,92.27 286.241,92.144 285.48,92.144C284.562,92.144 283.912,92.367 283.531,92.811C283.151,93.256 282.956,94.041 282.946,95.167ZM286.754,95.657L282.946,95.657C282.985,96.744 283.213,97.501 283.627,97.931C284.042,98.361 284.714,98.576 285.643,98.576C286.483,98.576 287.298,98.517 288.088,98.398L288.162,98.813C287.589,99.011 286.725,99.109 285.569,99.109C284.413,99.109 283.585,98.82 283.087,98.243C282.588,97.665 282.338,96.694 282.338,95.331C282.338,93.967 282.576,93.006 283.05,92.448C283.524,91.89 284.324,91.611 285.45,91.611C287.347,91.611 288.306,92.312 288.325,93.715C288.345,94.367 288.231,94.854 287.984,95.175C287.737,95.496 287.327,95.657 286.754,95.657Z" style="fill:white;fill-rule:nonzero;"/>
        </g>
        <g transform="matrix(2,0,0,2,0,0)">
            <path d="M290.741,96.338L290.741,97.139C290.741,98.018 291.205,98.467 292.134,98.487C292.627,98.497 293.183,98.371 293.801,98.109C294.418,97.848 294.939,97.519 295.364,97.123L295.364,95.064L291.985,95.108C291.156,95.128 290.741,95.538 290.741,96.338ZM290.489,92.367L290.43,91.922C291.931,91.715 293.072,91.611 293.853,91.611C295.255,91.611 295.957,92.303 295.957,93.686L295.957,98.932L295.498,98.932L295.394,97.613C295.048,97.958 294.562,98.282 293.934,98.583C293.307,98.885 292.687,99.035 292.074,99.035C291.472,99.035 291,98.875 290.659,98.554C290.318,98.233 290.148,97.776 290.148,97.183L290.148,96.294C290.148,95.75 290.301,95.331 290.607,95.034C290.914,94.738 291.353,94.59 291.926,94.59L295.364,94.59L295.364,93.686C295.364,92.658 294.835,92.144 293.779,92.144C292.919,92.144 291.823,92.219 290.489,92.367Z" style="fill:white;fill-rule:nonzero;"/>
        </g>
        <g transform="matrix(2,0,0,2,0,0)">
            <path d="M303.767,92.308L300.98,92.308L300.98,98.932L300.373,98.932L300.373,92.308L297.587,92.308L297.587,91.789L303.767,91.789L303.767,92.308Z" style="fill:white;fill-rule:nonzero;"/>
        </g>
        <g transform="matrix(2,0,0,2,0,0)">
            <path d="M305.56,95.167L309.279,95.167C310.01,95.167 310.366,94.693 310.346,93.745C310.336,93.182 310.148,92.774 309.783,92.522C309.417,92.27 308.854,92.144 308.094,92.144C307.175,92.144 306.525,92.367 306.145,92.811C305.765,93.256 305.569,94.041 305.56,95.167ZM309.368,95.657L305.56,95.657C305.599,96.744 305.827,97.501 306.241,97.931C306.656,98.361 307.328,98.576 308.257,98.576C309.097,98.576 309.912,98.517 310.702,98.398L310.776,98.813C310.203,99.011 309.339,99.109 308.183,99.109C307.027,99.109 306.199,98.82 305.701,98.243C305.202,97.665 304.952,96.694 304.952,95.331C304.952,93.967 305.189,93.006 305.664,92.448C306.138,91.89 306.938,91.611 308.064,91.611C309.961,91.611 310.919,92.312 310.939,93.715C310.959,94.367 310.845,94.854 310.598,95.175C310.351,95.496 309.941,95.657 309.368,95.657Z" style="fill:white;fill-rule:nonzero;"/>
        </g>
        <g transform="matrix(2,0,0,2,0,0)">
            <path d="M318.526,91.789L318.526,98.932L317.948,98.932L317.948,92.278L315.859,92.278C315.523,92.278 315.273,92.359 315.11,92.522C314.948,92.686 314.846,92.94 314.807,93.286C314.797,93.335 314.77,93.567 314.725,93.982C314.681,94.397 314.651,94.666 314.636,94.79C314.622,94.914 314.587,95.148 314.533,95.494C314.478,95.839 314.429,96.101 314.384,96.279C314.34,96.457 314.281,96.667 314.207,96.909C314.132,97.151 314.051,97.366 313.962,97.553C313.597,98.364 313.019,98.848 312.228,99.006L312.154,98.532C312.767,98.294 313.196,97.899 313.443,97.346C313.572,97.079 313.688,96.731 313.792,96.301C313.896,95.872 313.967,95.511 314.006,95.219C314.046,94.928 314.093,94.538 314.147,94.049C314.202,93.56 314.234,93.281 314.244,93.211C314.303,92.728 314.456,92.369 314.703,92.137C314.95,91.905 315.32,91.789 315.814,91.789L318.526,91.789Z" style="fill:white;fill-rule:nonzero;"/>
        </g>
        <g transform="matrix(2,0,0,2,0,0)">
            <path d="M321.787,95.316L321.787,98.502C322.113,98.512 322.844,98.517 323.98,98.517C324.741,98.517 325.269,98.408 325.565,98.191C325.862,97.974 326.01,97.549 326.01,96.916C326.01,96.314 325.867,95.896 325.581,95.664C325.294,95.432 324.76,95.316 323.98,95.316L321.787,95.316ZM321.787,94.842L323.98,94.842C324.988,94.842 325.682,94.997 326.062,95.309C326.442,95.62 326.632,96.161 326.632,96.931C326.632,97.731 326.44,98.28 326.055,98.576C325.669,98.873 324.998,99.02 324.039,99.02C322.874,99.02 321.93,98.991 321.208,98.932L321.208,91.789L321.787,91.789L321.787,94.842Z" style="fill:white;fill-rule:nonzero;"/>
        </g>
        <g transform="matrix(2,0,0,2,0,0)">
            <path d="M334.501,91.789L334.501,98.932L333.909,98.932L333.909,95.36L329.314,95.36L329.314,98.932L328.722,98.932L328.722,91.789L329.314,91.789L329.314,94.886L333.909,94.886L333.909,91.789L334.501,91.789Z" style="fill:white;fill-rule:nonzero;"/>
        </g>
        <g transform="matrix(2,0,0,2,0,0)">
            <path d="M344.652,91.789L344.652,98.932L344.06,98.932L344.06,91.789L344.652,91.789ZM337.747,95.316L337.747,98.502C338.073,98.512 338.804,98.517 339.94,98.517C340.612,98.517 341.079,98.408 341.34,98.191C341.602,97.974 341.733,97.549 341.733,96.916C341.733,96.314 341.607,95.896 341.355,95.664C341.103,95.432 340.631,95.316 339.94,95.316L337.747,95.316ZM337.747,94.842L339.94,94.842C340.849,94.842 341.479,94.997 341.829,95.309C342.18,95.62 342.355,96.161 342.355,96.931C342.355,97.731 342.18,98.28 341.829,98.576C341.479,98.873 340.868,99.02 339.999,99.02C338.833,99.02 337.89,98.991 337.168,98.932L337.168,91.789L337.747,91.789L337.747,94.842Z" style="fill:white;fill-rule:nonzero;"/>
        </g>
        <g transform="matrix(2,0,0,2,0,0)">
            <path d="M351.735,88.603L352.239,88.603C352.249,89.156 352.069,89.605 351.698,89.951C351.328,90.297 350.827,90.47 350.194,90.47C349.552,90.47 349.041,90.297 348.661,89.951C348.28,89.605 348.095,89.156 348.105,88.603L348.609,88.603C348.609,89.067 348.752,89.43 349.039,89.692C349.325,89.954 349.71,90.084 350.194,90.084C350.659,90.084 351.032,89.954 351.313,89.692C351.595,89.43 351.735,89.067 351.735,88.603ZM353.292,98.932L352.743,98.932L352.743,92.56L352.729,92.56C352.64,92.707 352.491,92.93 352.284,93.226L347.838,98.932L347.334,98.932L347.334,91.789L347.897,91.789L347.897,97.302C347.897,97.677 347.892,97.963 347.882,98.161L347.897,98.161C348.006,97.983 348.174,97.751 348.401,97.464L352.788,91.789L353.292,91.789L353.292,98.932Z" style="fill:white;fill-rule:nonzero;"/>
        </g>
        <g transform="matrix(2,0,0,2,0,0)">
            <path d="M365.784,101.05L365.384,101.05L365.28,98.932L359.367,98.932L359.367,91.789L359.945,91.789L359.945,98.442L364.361,98.442L364.361,91.789L364.954,91.789L364.954,98.442L365.784,98.442L365.784,101.05Z" style="fill:white;fill-rule:nonzero;"/>
        </g>
        <g transform="matrix(2,0,0,2,0,0)">
            <path d="M368.096,95.167L371.815,95.167C372.546,95.167 372.902,94.693 372.882,93.745C372.873,93.182 372.685,92.774 372.319,92.522C371.954,92.27 371.391,92.144 370.63,92.144C369.711,92.144 369.062,92.367 368.681,92.811C368.301,93.256 368.105,94.041 368.096,95.167ZM371.904,95.657L368.096,95.657C368.135,96.744 368.363,97.501 368.777,97.931C369.192,98.361 369.864,98.576 370.793,98.576C371.633,98.576 372.448,98.517 373.238,98.398L373.312,98.813C372.739,99.011 371.875,99.109 370.719,99.109C369.563,99.109 368.735,98.82 368.237,98.243C367.738,97.665 367.488,96.694 367.488,95.331C367.488,93.967 367.726,93.006 368.2,92.448C368.674,91.89 369.474,91.611 370.6,91.611C372.497,91.611 373.456,92.312 373.475,93.715C373.495,94.367 373.381,94.854 373.134,95.175C372.887,95.496 372.477,95.657 371.904,95.657Z" style="fill:white;fill-rule:nonzero;"/>
        </g>
        <g transform="matrix(2,0,0,2,0,0)">
            <path d="M381.478,91.789L381.478,98.932L380.885,98.932L380.885,95.36L376.291,95.36L376.291,98.932L375.698,98.932L375.698,91.789L376.291,91.789L376.291,94.886L380.885,94.886L380.885,91.789L381.478,91.789Z" style="fill:white;fill-rule:nonzero;"/>
        </g>
        <g transform="matrix(2,0,0,2,0,0)">
            <path d="M389.42,92.308L386.634,92.308L386.634,98.932L386.027,98.932L386.027,92.308L383.241,92.308L383.241,91.789L389.42,91.789L389.42,92.308Z" style="fill:white;fill-rule:nonzero;"/>
        </g>
        <g transform="matrix(2,0,0,2,0,0)">
            <path d="M391.792,93.493L391.792,97.924C392.957,98.359 393.876,98.576 394.548,98.576C395.309,98.576 395.847,98.339 396.163,97.865C396.479,97.391 396.637,96.561 396.637,95.375C396.637,94.2 396.481,93.367 396.17,92.878C395.859,92.389 395.333,92.144 394.592,92.144C394.147,92.144 393.715,92.248 393.295,92.456C392.875,92.663 392.374,93.009 391.792,93.493ZM391.658,91.789L391.732,93.048C392.74,92.09 393.728,91.611 394.696,91.611C395.605,91.611 396.257,91.905 396.652,92.493C397.047,93.081 397.245,94.041 397.245,95.375C397.245,96.719 397.042,97.677 396.637,98.25C396.232,98.823 395.565,99.109 394.637,99.109C393.708,99.109 392.745,98.848 391.747,98.324C391.776,98.67 391.792,99.134 391.792,99.717L391.792,102.014L391.199,102.014L391.199,91.789L391.658,91.789Z" style="fill:white;fill-rule:nonzero;"/>
        </g>
    </g>
    <defs>
        <linearGradient id="_Linear1" x1="0" y1="0" x2="1" y2="0" gradientUnits="userSpaceOnUse" gradientTransform="matrix(14.2588,18.5362,-18.5362,14.2588,128.924,43.0816)"><stop offset="0" style="stop-color:rgb(180,211,60);stop-opacity:1"/><stop offset="1" style="stop-color:rgb(93,187,70);stop-opacity:1"/></linearGradient>
        <linearGradient id="_Linear2" x1="0" y1="0" x2="1" y2="0" gradientUnits="userSpaceOnUse" gradientTransform="matrix(23.541,27.8256,-27.8256,23.541,130.545,47.1382)"><stop offset="0" style="stop-color:rgb(97,187,73);stop-opacity:1"/><stop offset="1" style="stop-color:rgb(61,181,73);stop-opacity:1"/></linearGradient>
        <linearGradient id="_Linear3" x1="0" y1="0" x2="1" y2="0" gradientUnits="userSpaceOnUse" gradientTransform="matrix(15.5216,20.1778,-20.1778,15.5216,122.925,61.1414)"><stop offset="0" style="stop-color:rgb(92,186,71);stop-opacity:1"/><stop offset="0.8" style="stop-color:rgb(52,176,74);stop-opacity:1"/><stop offset="1" style="stop-color:rgb(58,158,70);stop-opacity:1"/></linearGradient>
        <linearGradient id="_Linear4" x1="0" y1="0" x2="1" y2="0" gradientUnits="userSpaceOnUse" gradientTransform="matrix(-19.9011,32.1377,-32.1377,-19.9011,141.69,81.6722)"><stop offset="0" style="stop-color:rgb(63,140,202);stop-opacity:1"/><stop offset="1" style="stop-color:rgb(27,100,176);stop-opacity:1"/></linearGradient>
        <linearGradient id="_Linear5" x1="0" y1="0" x2="1" y2="0" gradientUnits="userSpaceOnUse" gradientTransform="matrix(-13.2224,19.2887,-19.2887,-13.2224,144.416,79.8955)"><stop offset="0" style="stop-color:rgb(76,200,234);stop-opacity:1"/><stop offset="0.4" style="stop-color:rgb(22,187,238);stop-opacity:1"/><stop offset="1" style="stop-color:rgb(38,134,200);stop-opacity:1"/></linearGradient>
        <linearGradient id="_Linear6" x1="0" y1="0" x2="1" y2="0" gradientUnits="userSpaceOnUse" gradientTransform="matrix(-14.3933,20.9968,-20.9968,-14.3933,125.387,79.7713)"><stop offset="0" style="stop-color:rgb(60,152,211);stop-opacity:1"/><stop offset="1" style="stop-color:rgb(25,102,177);stop-opacity:1"/></linearGradient>
        <linearGradient id="_Linear7" x1="0" y1="0" x2="1" y2="0" gradientUnits="userSpaceOnUse" gradientTransform="matrix(-22.4312,-6.61569,6.61569,-22.4312,114.192,106.006)"><stop offset="0" style="stop-color:rgb(173,97,167);stop-opacity:1"/><stop offset="1" style="stop-color:rgb(152,88,163);stop-opacity:1"/></linearGradient>
        <linearGradient id="_Linear8" x1="0" y1="0" x2="1" y2="0" gradientUnits="userSpaceOnUse" gradientTransform="matrix(-35.3996,-8.67506,8.67506,-35.3996,110.496,103.677)"><stop offset="0" style="stop-color:rgb(142,93,167);stop-opacity:1"/><stop offset="1" style="stop-color:rgb(122,78,160);stop-opacity:1"/></linearGradient>
        <linearGradient id="_Linear9" x1="0" y1="0" x2="1" y2="0" gradientUnits="userSpaceOnUse" gradientTransform="matrix(-24.4169,-7.20136,7.20136,-24.4169,108.43,87.8696)"><stop offset="0" style="stop-color:rgb(140,85,162);stop-opacity:1"/><stop offset="1" style="stop-color:rgb(102,78,160);stop-opacity:1"/></linearGradient>
        <linearGradient id="_Linear10" x1="0" y1="0" x2="1" y2="0" gradientUnits="userSpaceOnUse" gradientTransform="matrix(-0.640811,-23.3779,23.3779,-0.640811,80.0202,85.3295)"><stop offset="0" style="stop-color:rgb(243,111,98);stop-opacity:1"/><stop offset="1" style="stop-color:rgb(239,56,57);stop-opacity:1"/></linearGradient>
        <linearGradient id="_Linear11" x1="0" y1="0" x2="1" y2="0" gradientUnits="userSpaceOnUse" gradientTransform="matrix(-2.69045,-36.3496,36.3496,-2.69045,81.0933,81.0951)"><stop offset="0" style="stop-color:rgb(237,64,89);stop-opacity:1"/><stop offset="1" style="stop-color:rgb(195,31,53);stop-opacity:1"/></linearGradient>
        <linearGradient id="_Linear12" x1="0" y1="0" x2="1" y2="0" gradientUnits="userSpaceOnUse" gradientTransform="matrix(-0.697539,-25.4474,25.4474,-0.697539,95.4883,74.2445)"><stop offset="0" style="stop-color:rgb(239,54,67);stop-opacity:1"/><stop offset="0.3" style="stop-color:rgb(234,34,63);stop-opacity:1"/><stop offset="1" style="stop-color:rgb(162,25,66);stop-opacity:1"/></linearGradient>
        <linearGradient id="_Linear13" x1="0" y1="0" x2="1" y2="0" gradientUnits="userSpaceOnUse" gradientTransform="matrix(22.0354,-7.83238,7.83238,22.0354,89.1243,46.4394)"><stop offset="0" style="stop-color:rgb(253,185,71);stop-opacity:1"/><stop offset="1" style="stop-color:rgb(247,146,50);stop-opacity:1"/></linearGradient>
        <linearGradient id="_Linear14" x1="0" y1="0" x2="1" y2="0" gradientUnits="userSpaceOnUse" gradientTransform="matrix(33.7391,-13.7896,13.7896,33.7391,93.4833,46.151)"><stop offset="0" style="stop-color:rgb(246,140,73);stop-opacity:1"/><stop offset="1" style="stop-color:rgb(242,101,36);stop-opacity:1"/></linearGradient>
        <linearGradient id="_Linear15" x1="0" y1="0" x2="1" y2="0" gradientUnits="userSpaceOnUse" gradientTransform="matrix(23.9867,-8.52594,8.52594,23.9867,104.447,57.7252)"><stop offset="0" style="stop-color:rgb(245,133,50);stop-opacity:1"/><stop offset="1" style="stop-color:rgb(240,77,39);stop-opacity:1"/></linearGradient>
    </defs>
</svg>
